M48
;DRILL file {KiCad 4.0.0-rc1-stable} date 11/9/2015 9:11:40 AM
;FORMAT={-:-/ absolute / inch / decimal}
FMAT,2
INCH,TZ
T1C0.016
T2C0.040
%
G90
G05
M72
T1
X1.585Y-1.58
X1.59Y-2.02
X1.59Y-2.46
X1.985Y-1.96
X2.045Y-1.795
X2.08Y-2.175
X2.2067Y-1.2972
X2.2067Y-1.3858
X2.2067Y-1.4744
X2.26Y-1.56
X2.29Y-1.955
X2.3Y-1.37
X2.51Y-1.71
X2.51Y-1.53
X2.55Y-2.65
X2.57Y-2.175
X2.61Y-2.01
X2.6594Y-1.5728
X2.76Y-1.96
X2.76Y-1.225
X2.77Y-2.08
X2.77Y-2.245
X2.8Y-1.785
X2.8366Y-2.4094
X2.845Y-1.28
X2.8957Y-1.6417
X2.9Y-2.89
X2.9252Y-1.6024
X2.93Y-2.245
X2.95Y-1.39
X2.9547Y-1.563
X3.045Y-1.24
X3.0728Y-2.1339
X3.0939Y-2.0731
X3.1Y-1.56
X3.1024Y-2.1634
X3.11Y-1.35
X3.11Y-1.785
X3.126Y-1.9843
X3.1319Y-2.1929
X3.1339Y-2.1024
X3.1614Y-2.2224
X3.17Y-2.1307
X3.175Y-1.115
X3.21Y-2.
X3.24Y-2.65
X3.29Y-2.32
X3.4Y-1.67
X3.4Y-2.
X3.645Y-1.465
X3.65Y-2.
X3.7Y-2.19
X3.76Y-2.11
X3.775Y-2.035
X3.775Y-2.1707
X3.775Y-2.2707
X3.885Y-1.965
T2
X1.7Y-1.6657
X1.7Y-1.7657
X1.7Y-1.8657
X1.7Y-1.9657
X1.7Y-2.0657
X1.7Y-2.1657
X1.7Y-2.2657
X1.7Y-2.3657
X1.8Y-1.6657
X1.8Y-1.7657
X1.8Y-1.8657
X1.8Y-1.9657
X1.8Y-2.0657
X1.8Y-2.1657
X1.8Y-2.2657
X1.8Y-2.3657
X1.9Y-1.6657
X1.9Y-1.7657
X1.9Y-1.8657
X1.9Y-1.9657
X1.9Y-2.0657
X1.9Y-2.1657
X1.9Y-2.2657
X1.9Y-2.3657
T0
M30
