G04 #@! TF.FileFunction,Soldermask,Top*
%FSLAX46Y46*%
G04 Gerber Fmt 4.6, Leading zero omitted, Abs format (unit mm)*
G04 Created by KiCad (PCBNEW 4.0.0-rc1-stable) date 11/9/2015 9:11:32 AM*
%MOMM*%
G01*
G04 APERTURE LIST*
%ADD10C,0.100000*%
%ADD11C,0.150000*%
%ADD12R,1.900000X0.700000*%
%ADD13R,0.700000X1.900000*%
%ADD14C,3.300000*%
%ADD15O,2.432000X2.127200*%
%ADD16R,6.000700X2.500580*%
%ADD17R,1.900000X1.650000*%
%ADD18R,1.650000X1.900000*%
%ADD19R,1.598880X1.598880*%
%ADD20R,1.900000X1.700000*%
%ADD21R,3.400000X2.400000*%
%ADD22R,2.400000X3.400000*%
%ADD23R,2.400000X2.900000*%
G04 APERTURE END LIST*
D10*
D11*
X100800000Y-76200000D02*
X100800000Y-26200000D01*
X50800000Y-76200000D02*
X100800000Y-76200000D01*
X50800000Y-71200000D02*
X50800000Y-76200000D01*
X40800000Y-71200000D02*
X50800000Y-71200000D01*
X38800000Y-69200000D02*
X40800000Y-71200000D01*
X38800000Y-33200000D02*
X38800000Y-69200000D01*
X40800000Y-31200000D02*
X38800000Y-33200000D01*
X50800000Y-31200000D02*
X40800000Y-31200000D01*
X50800000Y-26200000D02*
X50800000Y-31200000D01*
X100800000Y-26200000D02*
X50800000Y-26200000D01*
D12*
X68100000Y-45200000D03*
X68100000Y-45700000D03*
X68100000Y-46200000D03*
X68100000Y-46700000D03*
X68100000Y-47200000D03*
X68100000Y-47700000D03*
X68100000Y-48200000D03*
X68100000Y-48700000D03*
X68100000Y-49200000D03*
X68100000Y-49700000D03*
X68100000Y-50200000D03*
X68100000Y-50700000D03*
X68100000Y-51200000D03*
X68100000Y-51700000D03*
X68100000Y-52200000D03*
X68100000Y-52700000D03*
X68100000Y-53200000D03*
X68100000Y-53700000D03*
X68100000Y-54200000D03*
X68100000Y-54700000D03*
X68100000Y-55200000D03*
X68100000Y-55700000D03*
X68100000Y-56200000D03*
X68100000Y-56700000D03*
X68100000Y-57200000D03*
D13*
X69800000Y-58900000D03*
X70300000Y-58900000D03*
X70800000Y-58900000D03*
X71300000Y-58900000D03*
X71800000Y-58900000D03*
X72300000Y-58900000D03*
X72800000Y-58900000D03*
X73300000Y-58900000D03*
X73800000Y-58900000D03*
X74300000Y-58900000D03*
X74800000Y-58900000D03*
X75300000Y-58900000D03*
X75800000Y-58900000D03*
X76300000Y-58900000D03*
X76800000Y-58900000D03*
X77300000Y-58900000D03*
X77800000Y-58900000D03*
X78300000Y-58900000D03*
X78800000Y-58900000D03*
X79300000Y-58900000D03*
X79800000Y-58900000D03*
X80300000Y-58900000D03*
X80800000Y-58900000D03*
X81300000Y-58900000D03*
X81800000Y-58900000D03*
D12*
X83500000Y-57200000D03*
X83500000Y-56700000D03*
X83500000Y-56200000D03*
X83500000Y-55700000D03*
X83500000Y-55200000D03*
X83500000Y-54700000D03*
X83500000Y-54200000D03*
X83500000Y-53700000D03*
X83500000Y-53200000D03*
X83500000Y-52700000D03*
X83500000Y-52200000D03*
X83500000Y-51700000D03*
X83500000Y-51200000D03*
X83500000Y-50700000D03*
X83500000Y-50200000D03*
X83500000Y-49700000D03*
X83500000Y-49200000D03*
X83500000Y-48700000D03*
X83500000Y-48200000D03*
X83500000Y-47700000D03*
X83500000Y-47200000D03*
X83500000Y-46700000D03*
X83500000Y-46200000D03*
X83500000Y-45700000D03*
X83500000Y-45200000D03*
D13*
X81800000Y-43500000D03*
X81300000Y-43500000D03*
X80800000Y-43500000D03*
X80300000Y-43500000D03*
X79800000Y-43500000D03*
X79300000Y-43500000D03*
X78800000Y-43500000D03*
X78300000Y-43500000D03*
X77800000Y-43500000D03*
X77300000Y-43500000D03*
X76800000Y-43500000D03*
X76300000Y-43500000D03*
X75800000Y-43500000D03*
X75300000Y-43500000D03*
X74800000Y-43500000D03*
X74300000Y-43500000D03*
X73800000Y-43500000D03*
X73300000Y-43500000D03*
X72800000Y-43500000D03*
X72300000Y-43500000D03*
X71800000Y-43500000D03*
X71300000Y-43500000D03*
X70800000Y-43500000D03*
X70300000Y-43500000D03*
X69800000Y-43500000D03*
D14*
X53050000Y-28450000D03*
X98550000Y-28450000D03*
X98550000Y-73950000D03*
X53050000Y-73950000D03*
D15*
X43180000Y-42310000D03*
X43180000Y-44850000D03*
X43180000Y-47390000D03*
X43180000Y-49930000D03*
X43180000Y-52470000D03*
X43180000Y-55010000D03*
X43180000Y-57550000D03*
X43180000Y-60090000D03*
X45720000Y-42310000D03*
X45720000Y-44850000D03*
X45720000Y-47390000D03*
X45720000Y-49930000D03*
X45720000Y-52470000D03*
X45720000Y-55010000D03*
X45720000Y-57550000D03*
X45720000Y-60090000D03*
X48260000Y-42310000D03*
X48260000Y-44850000D03*
X48260000Y-47390000D03*
X48260000Y-49930000D03*
X48260000Y-52470000D03*
X48260000Y-55010000D03*
X48260000Y-57550000D03*
X48260000Y-60090000D03*
D16*
X68701140Y-71330000D03*
X78398860Y-71330000D03*
D17*
X69550000Y-67330000D03*
X67050000Y-67330000D03*
X77550000Y-67330000D03*
X80050000Y-67330000D03*
D18*
X71300000Y-39950000D03*
X71300000Y-37450000D03*
X69050000Y-39950000D03*
X69050000Y-37450000D03*
D17*
X72050000Y-63450000D03*
X69550000Y-63450000D03*
X64550000Y-49700000D03*
X62050000Y-49700000D03*
D19*
X42451020Y-35325000D03*
X40352980Y-35325000D03*
X42451020Y-65170000D03*
X40352980Y-65170000D03*
X44229020Y-69615000D03*
X42130980Y-69615000D03*
X44229020Y-32785000D03*
X42130980Y-32785000D03*
X42451020Y-37230000D03*
X40352980Y-37230000D03*
X42451020Y-67075000D03*
X40352980Y-67075000D03*
D20*
X98632000Y-48387000D03*
X95932000Y-48387000D03*
X52150000Y-35198000D03*
X49450000Y-35198000D03*
X52150000Y-65170000D03*
X49450000Y-65170000D03*
X52150000Y-32785000D03*
X49450000Y-32785000D03*
X52150000Y-37230000D03*
X49450000Y-37230000D03*
X52150000Y-67202000D03*
X49450000Y-67202000D03*
X49450000Y-69615000D03*
X52150000Y-69615000D03*
X74900000Y-67330000D03*
X72200000Y-67330000D03*
X82470000Y-30353000D03*
X85170000Y-30353000D03*
X82470000Y-28321000D03*
X85170000Y-28321000D03*
D21*
X98665000Y-52597000D03*
X98665000Y-52597000D03*
X98665000Y-55137000D03*
X98665000Y-55137000D03*
X98665000Y-57677000D03*
X98665000Y-57677000D03*
D22*
X67564000Y-28335000D03*
X67564000Y-28335000D03*
X70104000Y-28335000D03*
X70104000Y-28335000D03*
X72644000Y-28335000D03*
X72644000Y-28335000D03*
X75184000Y-28335000D03*
X75184000Y-28335000D03*
X77724000Y-28335000D03*
X77724000Y-28335000D03*
D23*
X85122000Y-37230000D03*
X89122000Y-37230000D03*
M02*
