G04 #@! TF.FileFunction,Copper,L2,Bot,Signal*
%FSLAX46Y46*%
G04 Gerber Fmt 4.6, Leading zero omitted, Abs format (unit mm)*
G04 Created by KiCad (PCBNEW 4.0.0-rc1-stable) date 11/9/2015 9:11:32 AM*
%MOMM*%
G01*
G04 APERTURE LIST*
%ADD10C,0.100000*%
%ADD11C,0.150000*%
%ADD12O,2.032000X1.727200*%
%ADD13R,3.000000X2.000000*%
%ADD14R,2.000000X3.000000*%
%ADD15C,0.600000*%
%ADD16C,0.250000*%
%ADD17C,0.500000*%
%ADD18C,0.254000*%
G04 APERTURE END LIST*
D10*
D11*
X100800000Y-76200000D02*
X100800000Y-26200000D01*
X50800000Y-76200000D02*
X100800000Y-76200000D01*
X50800000Y-71200000D02*
X50800000Y-76200000D01*
X40800000Y-71200000D02*
X50800000Y-71200000D01*
X38800000Y-69200000D02*
X40800000Y-71200000D01*
X38800000Y-33200000D02*
X38800000Y-69200000D01*
X40800000Y-31200000D02*
X38800000Y-33200000D01*
X50800000Y-31200000D02*
X40800000Y-31200000D01*
X50800000Y-26200000D02*
X50800000Y-31200000D01*
X100800000Y-26200000D02*
X50800000Y-26200000D01*
D12*
X43180000Y-42310000D03*
X43180000Y-44850000D03*
X43180000Y-47390000D03*
X43180000Y-49930000D03*
X43180000Y-52470000D03*
X43180000Y-55010000D03*
X43180000Y-57550000D03*
X43180000Y-60090000D03*
X45720000Y-42310000D03*
X45720000Y-44850000D03*
X45720000Y-47390000D03*
X45720000Y-49930000D03*
X45720000Y-52470000D03*
X45720000Y-55010000D03*
X45720000Y-57550000D03*
X45720000Y-60090000D03*
X48260000Y-42310000D03*
X48260000Y-44850000D03*
X48260000Y-47390000D03*
X48260000Y-49930000D03*
X48260000Y-52470000D03*
X48260000Y-55010000D03*
X48260000Y-57550000D03*
X48260000Y-60090000D03*
D13*
X98665000Y-52597000D03*
X98665000Y-55137000D03*
X98665000Y-57677000D03*
D14*
X67564000Y-28335000D03*
X70104000Y-28335000D03*
X72644000Y-28335000D03*
X75184000Y-28335000D03*
X77724000Y-28335000D03*
D15*
X70358000Y-52832002D03*
X74422000Y-57023000D03*
X70358000Y-57022996D03*
X78994002Y-45339000D03*
X71120002Y-45339000D03*
X86360000Y-50800000D03*
X86360000Y-42418000D03*
X72262998Y-32512000D03*
X51943000Y-45593000D03*
X50419000Y-49783996D03*
X40259000Y-40132000D03*
X58166000Y-49657000D03*
X52832006Y-55245000D03*
X65277996Y-55245000D03*
X66294000Y-51054000D03*
X92710000Y-50800000D03*
X83566000Y-58928000D03*
X93980000Y-55626000D03*
X64770000Y-67310000D03*
X73660000Y-73406000D03*
X82296000Y-67310000D03*
X78994000Y-34290000D03*
X78740000Y-39624000D03*
X81534000Y-50800000D03*
X58420000Y-34798000D03*
X57403997Y-39624000D03*
X63753996Y-43434000D03*
X74930000Y-35305982D03*
X40386000Y-62484000D03*
X40386000Y-51308000D03*
X63754000Y-38862000D03*
X92583000Y-37211000D03*
X70103994Y-49784000D03*
X72050000Y-61200000D03*
X67550000Y-39950000D03*
X95504000Y-53594000D03*
X79400000Y-50400000D03*
X95884990Y-51689000D03*
X95885000Y-57677000D03*
X80517996Y-54121000D03*
X79600000Y-53400000D03*
X95884994Y-55137000D03*
X78585872Y-52657069D03*
X98679000Y-49911000D03*
X80645000Y-28321000D03*
X78050000Y-54200000D03*
X77343000Y-31496000D03*
X78799994Y-54950000D03*
X79550000Y-55700000D03*
X70104000Y-31115002D03*
X80299996Y-56450000D03*
X56050000Y-32950000D03*
X75050000Y-39700000D03*
X74299994Y-40700000D03*
X56050000Y-35200000D03*
X73550000Y-41700000D03*
X56050000Y-37450000D03*
D16*
X69088000Y-51562002D02*
X70058001Y-52532003D01*
X69088000Y-47371002D02*
X69088000Y-51562002D01*
X71120002Y-45339000D02*
X69088000Y-47371002D01*
X70058001Y-52532003D02*
X70358000Y-52832002D01*
X70358000Y-57022996D02*
X70358000Y-52832002D01*
X82296000Y-63754000D02*
X81153000Y-63754000D01*
X74721999Y-57322999D02*
X74422000Y-57023000D01*
X81153000Y-63754000D02*
X74721999Y-57322999D01*
X78994002Y-45763264D02*
X78994002Y-45339000D01*
X78994002Y-48260002D02*
X78994002Y-45763264D01*
X81534000Y-50800000D02*
X78994002Y-48260002D01*
X73660000Y-73406000D02*
X65278000Y-73406000D01*
X65278000Y-73406000D02*
X64770000Y-72898000D01*
X64770000Y-72898000D02*
X64770000Y-67310000D01*
X86360000Y-50800000D02*
X92710000Y-50800000D01*
X81833999Y-46944001D02*
X86360000Y-42418000D01*
X81534000Y-50800000D02*
X81833999Y-50500001D01*
X81833999Y-50500001D02*
X81833999Y-46944001D01*
X72262998Y-32638980D02*
X72262998Y-32512000D01*
X74930000Y-35305982D02*
X72262998Y-32638980D01*
X98665000Y-57677000D02*
X98165000Y-57677000D01*
X93980000Y-58420000D02*
X93980000Y-55626000D01*
X98165000Y-57677000D02*
X96533000Y-59309000D01*
X96533000Y-59309000D02*
X94869000Y-59309000D01*
X94869000Y-59309000D02*
X93980000Y-58420000D01*
X57403997Y-39624000D02*
X57403997Y-44450003D01*
X57403997Y-44450003D02*
X52923998Y-48930002D01*
X52923998Y-48930002D02*
X51816000Y-48930002D01*
X51816000Y-48930002D02*
X51816000Y-45720000D01*
X51816000Y-45720000D02*
X51943000Y-45593000D01*
X51816000Y-48895000D02*
X50927004Y-49783996D01*
X50927004Y-49783996D02*
X50843264Y-49783996D01*
X50843264Y-49783996D02*
X50419000Y-49783996D01*
X40259000Y-40132000D02*
X40259000Y-41148000D01*
X41421000Y-42310000D02*
X43180000Y-42310000D01*
X40259000Y-41148000D02*
X41421000Y-42310000D01*
X63753996Y-44069004D02*
X58465999Y-49357001D01*
X63753996Y-43434000D02*
X63753996Y-44069004D01*
X58465999Y-49357001D02*
X58166000Y-49657000D01*
X52832006Y-55669264D02*
X52832006Y-55245000D01*
X52832006Y-59054994D02*
X52832006Y-55669264D01*
X49403000Y-62484000D02*
X52832006Y-59054994D01*
X40386000Y-62484000D02*
X49403000Y-62484000D01*
X65577995Y-54945001D02*
X65277996Y-55245000D01*
X66294000Y-54228996D02*
X65577995Y-54945001D01*
X66294000Y-51054000D02*
X66294000Y-54228996D01*
X83566000Y-58928000D02*
X82296000Y-60198000D01*
X82296000Y-60198000D02*
X82296000Y-63754000D01*
X82296000Y-63754000D02*
X82296000Y-67310000D01*
X78740000Y-39624000D02*
X78740000Y-34544000D01*
X78740000Y-34544000D02*
X78994000Y-34290000D01*
X79164264Y-39624000D02*
X78740000Y-39624000D01*
X90170000Y-39624000D02*
X79164264Y-39624000D01*
X92583000Y-37211000D02*
X90170000Y-39624000D01*
X58719999Y-35097999D02*
X58420000Y-34798000D01*
X62484000Y-38862000D02*
X58719999Y-35097999D01*
X63754000Y-38862000D02*
X62484000Y-38862000D01*
X43180000Y-42310000D02*
X43332400Y-42310000D01*
X43180000Y-49930000D02*
X41764000Y-49930000D01*
X41764000Y-49930000D02*
X40386000Y-51308000D01*
D17*
X70403993Y-50083999D02*
X70103994Y-49784000D01*
X72050000Y-51730006D02*
X70403993Y-50083999D01*
X72050000Y-61200000D02*
X72050000Y-51730006D01*
X67564000Y-28335000D02*
X67564000Y-39936000D01*
X67564000Y-39936000D02*
X67550000Y-39950000D01*
X97809000Y-55137000D02*
X96266000Y-53594000D01*
X96266000Y-53594000D02*
X95504000Y-53594000D01*
X98665000Y-55137000D02*
X97809000Y-55137000D01*
D16*
X95884990Y-51689000D02*
X80689000Y-51689000D01*
X79699999Y-50699999D02*
X79400000Y-50400000D01*
X80689000Y-51689000D02*
X79699999Y-50699999D01*
X80517996Y-54121000D02*
X81025996Y-53613000D01*
X81025996Y-53613000D02*
X93472000Y-53613000D01*
X93472000Y-53613000D02*
X94900000Y-55041000D01*
X94900000Y-55041000D02*
X94900000Y-55500000D01*
X94900000Y-55500000D02*
X95885000Y-56485000D01*
X95885000Y-56485000D02*
X95885000Y-57677000D01*
X79899999Y-53100001D02*
X79600000Y-53400000D01*
X93847995Y-53100001D02*
X79899999Y-53100001D01*
X95884994Y-55137000D02*
X93847995Y-53100001D01*
X78645941Y-52597000D02*
X78585872Y-52657069D01*
X98665000Y-52597000D02*
X78645941Y-52597000D01*
X98679000Y-49911000D02*
X98679000Y-52583000D01*
X98679000Y-52583000D02*
X98665000Y-52597000D01*
X78050000Y-53775736D02*
X78050000Y-54200000D01*
X77804033Y-53529769D02*
X78050000Y-53775736D01*
X78105000Y-32131000D02*
X77804033Y-32431967D01*
X78105000Y-28716000D02*
X78105000Y-32131000D01*
X77804033Y-32431967D02*
X77804033Y-53529769D01*
X77724000Y-28335000D02*
X78105000Y-28716000D01*
X80645000Y-28321000D02*
X77738000Y-28321000D01*
X77738000Y-28321000D02*
X77724000Y-28335000D01*
X75184000Y-30223178D02*
X77354022Y-32393200D01*
X75184000Y-28335000D02*
X75184000Y-30223178D01*
X77343000Y-31496000D02*
X77343000Y-32382178D01*
X77343000Y-32382178D02*
X77354022Y-32393200D01*
X78375730Y-54950000D02*
X78799994Y-54950000D01*
X77354022Y-54504022D02*
X77800000Y-54950000D01*
X77354022Y-32393200D02*
X77354022Y-54504022D01*
X77800000Y-54950000D02*
X78375730Y-54950000D01*
X79125736Y-55700000D02*
X79550000Y-55700000D01*
X77800000Y-55700000D02*
X79125736Y-55700000D01*
X76904011Y-54804011D02*
X77800000Y-55700000D01*
X76904011Y-32579600D02*
X76904011Y-54804011D01*
X74804411Y-30480000D02*
X76904011Y-32579600D01*
X71749000Y-30480000D02*
X74804411Y-30480000D01*
X70104000Y-28835000D02*
X71749000Y-30480000D01*
X70104000Y-28335000D02*
X70104000Y-28835000D01*
X74803002Y-31115002D02*
X70104000Y-31115002D01*
X76454000Y-32766000D02*
X74803002Y-31115002D01*
X76454000Y-55051824D02*
X76454000Y-32766000D01*
X77852176Y-56450000D02*
X76454000Y-55051824D01*
X80299996Y-56450000D02*
X77852176Y-56450000D01*
X75050000Y-39700000D02*
X73800000Y-39700000D01*
X56800000Y-33700000D02*
X56050000Y-32950000D01*
X73800000Y-39700000D02*
X72800000Y-40700000D01*
X72800000Y-40700000D02*
X62300000Y-40700000D01*
X62300000Y-40700000D02*
X56800000Y-35200000D01*
X56800000Y-35200000D02*
X56800000Y-33700000D01*
X56050000Y-35200000D02*
X62050000Y-41200000D01*
X62050000Y-41200000D02*
X73050000Y-41200000D01*
X73050000Y-41200000D02*
X73550000Y-40700000D01*
X73550000Y-40700000D02*
X73875730Y-40700000D01*
X73875730Y-40700000D02*
X74299994Y-40700000D01*
X56050000Y-37450000D02*
X57550000Y-37450000D01*
X57550000Y-37450000D02*
X61800000Y-41700000D01*
X61800000Y-41700000D02*
X73125736Y-41700000D01*
X73125736Y-41700000D02*
X73550000Y-41700000D01*
D18*
G36*
X65916560Y-29835000D02*
X65960838Y-30070317D01*
X66099910Y-30286441D01*
X66312110Y-30431431D01*
X66564000Y-30482440D01*
X66679000Y-30482440D01*
X66679000Y-39609463D01*
X66615162Y-39763201D01*
X66615008Y-39940000D01*
X62614802Y-39940000D01*
X57560000Y-34885198D01*
X57560000Y-33700000D01*
X57514589Y-33471705D01*
X57502148Y-33409160D01*
X57337401Y-33162599D01*
X56985122Y-32810320D01*
X56985162Y-32764833D01*
X56843117Y-32421057D01*
X56580327Y-32157808D01*
X56236799Y-32015162D01*
X55864833Y-32014838D01*
X55521057Y-32156883D01*
X55257808Y-32419673D01*
X55115162Y-32763201D01*
X55114838Y-33135167D01*
X55256883Y-33478943D01*
X55519673Y-33742192D01*
X55863201Y-33884838D01*
X55910077Y-33884879D01*
X56040000Y-34014802D01*
X56040000Y-34264991D01*
X55864833Y-34264838D01*
X55521057Y-34406883D01*
X55257808Y-34669673D01*
X55115162Y-35013201D01*
X55114838Y-35385167D01*
X55256883Y-35728943D01*
X55519673Y-35992192D01*
X55863201Y-36134838D01*
X55910077Y-36134879D01*
X56328394Y-36553196D01*
X56236799Y-36515162D01*
X55864833Y-36514838D01*
X55521057Y-36656883D01*
X55257808Y-36919673D01*
X55115162Y-37263201D01*
X55114838Y-37635167D01*
X55256883Y-37978943D01*
X55519673Y-38242192D01*
X55863201Y-38384838D01*
X56235167Y-38385162D01*
X56578943Y-38243117D01*
X56612118Y-38210000D01*
X57235198Y-38210000D01*
X61262599Y-42237401D01*
X61509161Y-42402148D01*
X61800000Y-42460000D01*
X72987537Y-42460000D01*
X73019673Y-42492192D01*
X73363201Y-42634838D01*
X73735167Y-42635162D01*
X74078943Y-42493117D01*
X74342192Y-42230327D01*
X74484838Y-41886799D01*
X74485057Y-41635162D01*
X74485161Y-41635162D01*
X74828937Y-41493117D01*
X75092186Y-41230327D01*
X75234832Y-40886799D01*
X75235051Y-40635162D01*
X75235167Y-40635162D01*
X75578943Y-40493117D01*
X75694000Y-40378261D01*
X75694000Y-55051824D01*
X75751852Y-55342663D01*
X75916599Y-55589225D01*
X77314775Y-56987401D01*
X77561336Y-57152148D01*
X77609590Y-57161746D01*
X77852176Y-57210000D01*
X79737533Y-57210000D01*
X79769669Y-57242192D01*
X80113197Y-57384838D01*
X80485163Y-57385162D01*
X80828939Y-57243117D01*
X81092188Y-56980327D01*
X81234834Y-56636799D01*
X81235158Y-56264833D01*
X81093113Y-55921057D01*
X80830323Y-55657808D01*
X80486795Y-55515162D01*
X80485162Y-55515161D01*
X80485162Y-55514833D01*
X80343117Y-55171057D01*
X80155107Y-54982719D01*
X80331197Y-55055838D01*
X80703163Y-55056162D01*
X81046939Y-54914117D01*
X81310188Y-54651327D01*
X81425760Y-54373000D01*
X93157198Y-54373000D01*
X94140000Y-55355802D01*
X94140000Y-55500000D01*
X94197852Y-55790839D01*
X94362599Y-56037401D01*
X95125000Y-56799802D01*
X95125000Y-57114537D01*
X95092808Y-57146673D01*
X94950162Y-57490201D01*
X94949838Y-57862167D01*
X95091883Y-58205943D01*
X95354673Y-58469192D01*
X95698201Y-58611838D01*
X96070167Y-58612162D01*
X96413943Y-58470117D01*
X96530000Y-58354262D01*
X96530000Y-58803309D01*
X96626673Y-59036698D01*
X96805301Y-59215327D01*
X97038690Y-59312000D01*
X98379250Y-59312000D01*
X98538000Y-59153250D01*
X98538000Y-57804000D01*
X98518000Y-57804000D01*
X98518000Y-57550000D01*
X98538000Y-57550000D01*
X98538000Y-57530000D01*
X98792000Y-57530000D01*
X98792000Y-57550000D01*
X98812000Y-57550000D01*
X98812000Y-57804000D01*
X98792000Y-57804000D01*
X98792000Y-59153250D01*
X98950750Y-59312000D01*
X100090000Y-59312000D01*
X100090000Y-71310394D01*
X99889803Y-71110197D01*
X99849410Y-71083006D01*
X99800000Y-71073000D01*
X97800000Y-71073000D01*
X97752211Y-71082334D01*
X97710197Y-71110197D01*
X95710197Y-73110197D01*
X95683006Y-73150590D01*
X95673000Y-73200000D01*
X95673000Y-75200000D01*
X95682334Y-75247789D01*
X95710197Y-75289803D01*
X95910394Y-75490000D01*
X55689606Y-75490000D01*
X55889803Y-75289803D01*
X55916994Y-75249410D01*
X55927000Y-75200000D01*
X55927000Y-73200000D01*
X55917666Y-73152211D01*
X55889803Y-73110197D01*
X53889803Y-71110197D01*
X53849410Y-71083006D01*
X53800000Y-71073000D01*
X51800000Y-71073000D01*
X51752211Y-71082334D01*
X51710197Y-71110197D01*
X51510000Y-71310394D01*
X51510000Y-71200000D01*
X51455954Y-70928295D01*
X51302046Y-70697954D01*
X51071705Y-70544046D01*
X50800000Y-70490000D01*
X41094092Y-70490000D01*
X39510000Y-68905908D01*
X39510000Y-60449026D01*
X41572642Y-60449026D01*
X41575291Y-60464791D01*
X41829268Y-60992036D01*
X42265680Y-61381954D01*
X42818087Y-61575184D01*
X43053000Y-61430924D01*
X43053000Y-60217000D01*
X41693783Y-60217000D01*
X41572642Y-60449026D01*
X39510000Y-60449026D01*
X39510000Y-57909026D01*
X41572642Y-57909026D01*
X41575291Y-57924791D01*
X41829268Y-58452036D01*
X42241108Y-58820000D01*
X41829268Y-59187964D01*
X41575291Y-59715209D01*
X41572642Y-59730974D01*
X41693783Y-59963000D01*
X43053000Y-59963000D01*
X43053000Y-57677000D01*
X41693783Y-57677000D01*
X41572642Y-57909026D01*
X39510000Y-57909026D01*
X39510000Y-55369026D01*
X41572642Y-55369026D01*
X41575291Y-55384791D01*
X41829268Y-55912036D01*
X42241108Y-56280000D01*
X41829268Y-56647964D01*
X41575291Y-57175209D01*
X41572642Y-57190974D01*
X41693783Y-57423000D01*
X43053000Y-57423000D01*
X43053000Y-55137000D01*
X41693783Y-55137000D01*
X41572642Y-55369026D01*
X39510000Y-55369026D01*
X39510000Y-52829026D01*
X41572642Y-52829026D01*
X41575291Y-52844791D01*
X41829268Y-53372036D01*
X42241108Y-53740000D01*
X41829268Y-54107964D01*
X41575291Y-54635209D01*
X41572642Y-54650974D01*
X41693783Y-54883000D01*
X43053000Y-54883000D01*
X43053000Y-52597000D01*
X41693783Y-52597000D01*
X41572642Y-52829026D01*
X39510000Y-52829026D01*
X39510000Y-50289026D01*
X41572642Y-50289026D01*
X41575291Y-50304791D01*
X41829268Y-50832036D01*
X42241108Y-51200000D01*
X41829268Y-51567964D01*
X41575291Y-52095209D01*
X41572642Y-52110974D01*
X41693783Y-52343000D01*
X43053000Y-52343000D01*
X43053000Y-50057000D01*
X41693783Y-50057000D01*
X41572642Y-50289026D01*
X39510000Y-50289026D01*
X39510000Y-47749026D01*
X41572642Y-47749026D01*
X41575291Y-47764791D01*
X41829268Y-48292036D01*
X42241108Y-48660000D01*
X41829268Y-49027964D01*
X41575291Y-49555209D01*
X41572642Y-49570974D01*
X41693783Y-49803000D01*
X43053000Y-49803000D01*
X43053000Y-47517000D01*
X41693783Y-47517000D01*
X41572642Y-47749026D01*
X39510000Y-47749026D01*
X39510000Y-45209026D01*
X41572642Y-45209026D01*
X41575291Y-45224791D01*
X41829268Y-45752036D01*
X42241108Y-46120000D01*
X41829268Y-46487964D01*
X41575291Y-47015209D01*
X41572642Y-47030974D01*
X41693783Y-47263000D01*
X43053000Y-47263000D01*
X43053000Y-44977000D01*
X41693783Y-44977000D01*
X41572642Y-45209026D01*
X39510000Y-45209026D01*
X39510000Y-42669026D01*
X41572642Y-42669026D01*
X41575291Y-42684791D01*
X41829268Y-43212036D01*
X42241108Y-43580000D01*
X41829268Y-43947964D01*
X41575291Y-44475209D01*
X41572642Y-44490974D01*
X41693783Y-44723000D01*
X43053000Y-44723000D01*
X43053000Y-42437000D01*
X41693783Y-42437000D01*
X41572642Y-42669026D01*
X39510000Y-42669026D01*
X39510000Y-41950974D01*
X41572642Y-41950974D01*
X41693783Y-42183000D01*
X43053000Y-42183000D01*
X43053000Y-40969076D01*
X43307000Y-40969076D01*
X43307000Y-42183000D01*
X43327000Y-42183000D01*
X43327000Y-42437000D01*
X43307000Y-42437000D01*
X43307000Y-44723000D01*
X43327000Y-44723000D01*
X43327000Y-44977000D01*
X43307000Y-44977000D01*
X43307000Y-47263000D01*
X43327000Y-47263000D01*
X43327000Y-47517000D01*
X43307000Y-47517000D01*
X43307000Y-49803000D01*
X43327000Y-49803000D01*
X43327000Y-50057000D01*
X43307000Y-50057000D01*
X43307000Y-52343000D01*
X43327000Y-52343000D01*
X43327000Y-52597000D01*
X43307000Y-52597000D01*
X43307000Y-54883000D01*
X43327000Y-54883000D01*
X43327000Y-55137000D01*
X43307000Y-55137000D01*
X43307000Y-57423000D01*
X43327000Y-57423000D01*
X43327000Y-57677000D01*
X43307000Y-57677000D01*
X43307000Y-59963000D01*
X43327000Y-59963000D01*
X43327000Y-60217000D01*
X43307000Y-60217000D01*
X43307000Y-61430924D01*
X43541913Y-61575184D01*
X44094320Y-61381954D01*
X44430246Y-61081816D01*
X44475585Y-61149670D01*
X44961766Y-61474526D01*
X45535255Y-61588600D01*
X45904745Y-61588600D01*
X46478234Y-61474526D01*
X46964415Y-61149670D01*
X46990000Y-61111379D01*
X47015585Y-61149670D01*
X47501766Y-61474526D01*
X48075255Y-61588600D01*
X48444745Y-61588600D01*
X49018234Y-61474526D01*
X49504415Y-61149670D01*
X49829271Y-60663489D01*
X49943345Y-60090000D01*
X49829271Y-59516511D01*
X49504415Y-59030330D01*
X49189634Y-58820000D01*
X49504415Y-58609670D01*
X49829271Y-58123489D01*
X49943345Y-57550000D01*
X49829271Y-56976511D01*
X49504415Y-56490330D01*
X49189634Y-56280000D01*
X49504415Y-56069670D01*
X49829271Y-55583489D01*
X49943345Y-55010000D01*
X49829271Y-54436511D01*
X49504415Y-53950330D01*
X49189634Y-53740000D01*
X49504415Y-53529670D01*
X49829271Y-53043489D01*
X49943345Y-52470000D01*
X49829271Y-51896511D01*
X49504415Y-51410330D01*
X49189634Y-51200000D01*
X49504415Y-50989670D01*
X49829271Y-50503489D01*
X49935554Y-49969167D01*
X69168832Y-49969167D01*
X69310877Y-50312943D01*
X69573667Y-50576192D01*
X69694981Y-50626566D01*
X69778201Y-50709786D01*
X69778203Y-50709789D01*
X71165000Y-52096585D01*
X71165000Y-60893178D01*
X71115162Y-61013201D01*
X71114838Y-61385167D01*
X71256883Y-61728943D01*
X71519673Y-61992192D01*
X71863201Y-62134838D01*
X72235167Y-62135162D01*
X72578943Y-61993117D01*
X72842192Y-61730327D01*
X72984838Y-61386799D01*
X72985162Y-61014833D01*
X72935000Y-60893431D01*
X72935000Y-51730006D01*
X72867633Y-51391331D01*
X72675790Y-51104216D01*
X72675787Y-51104214D01*
X71029783Y-49458209D01*
X71029780Y-49458207D01*
X70946739Y-49375165D01*
X70897111Y-49255057D01*
X70634321Y-48991808D01*
X70290793Y-48849162D01*
X69918827Y-48848838D01*
X69575051Y-48990883D01*
X69311802Y-49253673D01*
X69169156Y-49597201D01*
X69168832Y-49969167D01*
X49935554Y-49969167D01*
X49943345Y-49930000D01*
X49829271Y-49356511D01*
X49504415Y-48870330D01*
X49189634Y-48660000D01*
X49504415Y-48449670D01*
X49829271Y-47963489D01*
X49943345Y-47390000D01*
X49829271Y-46816511D01*
X49504415Y-46330330D01*
X49189634Y-46120000D01*
X49504415Y-45909670D01*
X49829271Y-45423489D01*
X49943345Y-44850000D01*
X49829271Y-44276511D01*
X49504415Y-43790330D01*
X49189634Y-43580000D01*
X49504415Y-43369670D01*
X49829271Y-42883489D01*
X49943345Y-42310000D01*
X49829271Y-41736511D01*
X49504415Y-41250330D01*
X49018234Y-40925474D01*
X48444745Y-40811400D01*
X48075255Y-40811400D01*
X47501766Y-40925474D01*
X47015585Y-41250330D01*
X46990000Y-41288621D01*
X46964415Y-41250330D01*
X46478234Y-40925474D01*
X45904745Y-40811400D01*
X45535255Y-40811400D01*
X44961766Y-40925474D01*
X44475585Y-41250330D01*
X44430246Y-41318184D01*
X44094320Y-41018046D01*
X43541913Y-40824816D01*
X43307000Y-40969076D01*
X43053000Y-40969076D01*
X42818087Y-40824816D01*
X42265680Y-41018046D01*
X41829268Y-41407964D01*
X41575291Y-41935209D01*
X41572642Y-41950974D01*
X39510000Y-41950974D01*
X39510000Y-33494092D01*
X41094092Y-31910000D01*
X50800000Y-31910000D01*
X51071705Y-31855954D01*
X51302046Y-31702046D01*
X51455954Y-31471705D01*
X51510000Y-31200000D01*
X51510000Y-31089606D01*
X51710197Y-31289803D01*
X51750590Y-31316994D01*
X51800000Y-31327000D01*
X53800000Y-31327000D01*
X53847789Y-31317666D01*
X53889803Y-31289803D01*
X55889803Y-29289803D01*
X55916994Y-29249410D01*
X55927000Y-29200000D01*
X55927000Y-27200000D01*
X55917666Y-27152211D01*
X55889803Y-27110197D01*
X55689606Y-26910000D01*
X65916560Y-26910000D01*
X65916560Y-29835000D01*
X65916560Y-29835000D01*
G37*
X65916560Y-29835000D02*
X65960838Y-30070317D01*
X66099910Y-30286441D01*
X66312110Y-30431431D01*
X66564000Y-30482440D01*
X66679000Y-30482440D01*
X66679000Y-39609463D01*
X66615162Y-39763201D01*
X66615008Y-39940000D01*
X62614802Y-39940000D01*
X57560000Y-34885198D01*
X57560000Y-33700000D01*
X57514589Y-33471705D01*
X57502148Y-33409160D01*
X57337401Y-33162599D01*
X56985122Y-32810320D01*
X56985162Y-32764833D01*
X56843117Y-32421057D01*
X56580327Y-32157808D01*
X56236799Y-32015162D01*
X55864833Y-32014838D01*
X55521057Y-32156883D01*
X55257808Y-32419673D01*
X55115162Y-32763201D01*
X55114838Y-33135167D01*
X55256883Y-33478943D01*
X55519673Y-33742192D01*
X55863201Y-33884838D01*
X55910077Y-33884879D01*
X56040000Y-34014802D01*
X56040000Y-34264991D01*
X55864833Y-34264838D01*
X55521057Y-34406883D01*
X55257808Y-34669673D01*
X55115162Y-35013201D01*
X55114838Y-35385167D01*
X55256883Y-35728943D01*
X55519673Y-35992192D01*
X55863201Y-36134838D01*
X55910077Y-36134879D01*
X56328394Y-36553196D01*
X56236799Y-36515162D01*
X55864833Y-36514838D01*
X55521057Y-36656883D01*
X55257808Y-36919673D01*
X55115162Y-37263201D01*
X55114838Y-37635167D01*
X55256883Y-37978943D01*
X55519673Y-38242192D01*
X55863201Y-38384838D01*
X56235167Y-38385162D01*
X56578943Y-38243117D01*
X56612118Y-38210000D01*
X57235198Y-38210000D01*
X61262599Y-42237401D01*
X61509161Y-42402148D01*
X61800000Y-42460000D01*
X72987537Y-42460000D01*
X73019673Y-42492192D01*
X73363201Y-42634838D01*
X73735167Y-42635162D01*
X74078943Y-42493117D01*
X74342192Y-42230327D01*
X74484838Y-41886799D01*
X74485057Y-41635162D01*
X74485161Y-41635162D01*
X74828937Y-41493117D01*
X75092186Y-41230327D01*
X75234832Y-40886799D01*
X75235051Y-40635162D01*
X75235167Y-40635162D01*
X75578943Y-40493117D01*
X75694000Y-40378261D01*
X75694000Y-55051824D01*
X75751852Y-55342663D01*
X75916599Y-55589225D01*
X77314775Y-56987401D01*
X77561336Y-57152148D01*
X77609590Y-57161746D01*
X77852176Y-57210000D01*
X79737533Y-57210000D01*
X79769669Y-57242192D01*
X80113197Y-57384838D01*
X80485163Y-57385162D01*
X80828939Y-57243117D01*
X81092188Y-56980327D01*
X81234834Y-56636799D01*
X81235158Y-56264833D01*
X81093113Y-55921057D01*
X80830323Y-55657808D01*
X80486795Y-55515162D01*
X80485162Y-55515161D01*
X80485162Y-55514833D01*
X80343117Y-55171057D01*
X80155107Y-54982719D01*
X80331197Y-55055838D01*
X80703163Y-55056162D01*
X81046939Y-54914117D01*
X81310188Y-54651327D01*
X81425760Y-54373000D01*
X93157198Y-54373000D01*
X94140000Y-55355802D01*
X94140000Y-55500000D01*
X94197852Y-55790839D01*
X94362599Y-56037401D01*
X95125000Y-56799802D01*
X95125000Y-57114537D01*
X95092808Y-57146673D01*
X94950162Y-57490201D01*
X94949838Y-57862167D01*
X95091883Y-58205943D01*
X95354673Y-58469192D01*
X95698201Y-58611838D01*
X96070167Y-58612162D01*
X96413943Y-58470117D01*
X96530000Y-58354262D01*
X96530000Y-58803309D01*
X96626673Y-59036698D01*
X96805301Y-59215327D01*
X97038690Y-59312000D01*
X98379250Y-59312000D01*
X98538000Y-59153250D01*
X98538000Y-57804000D01*
X98518000Y-57804000D01*
X98518000Y-57550000D01*
X98538000Y-57550000D01*
X98538000Y-57530000D01*
X98792000Y-57530000D01*
X98792000Y-57550000D01*
X98812000Y-57550000D01*
X98812000Y-57804000D01*
X98792000Y-57804000D01*
X98792000Y-59153250D01*
X98950750Y-59312000D01*
X100090000Y-59312000D01*
X100090000Y-71310394D01*
X99889803Y-71110197D01*
X99849410Y-71083006D01*
X99800000Y-71073000D01*
X97800000Y-71073000D01*
X97752211Y-71082334D01*
X97710197Y-71110197D01*
X95710197Y-73110197D01*
X95683006Y-73150590D01*
X95673000Y-73200000D01*
X95673000Y-75200000D01*
X95682334Y-75247789D01*
X95710197Y-75289803D01*
X95910394Y-75490000D01*
X55689606Y-75490000D01*
X55889803Y-75289803D01*
X55916994Y-75249410D01*
X55927000Y-75200000D01*
X55927000Y-73200000D01*
X55917666Y-73152211D01*
X55889803Y-73110197D01*
X53889803Y-71110197D01*
X53849410Y-71083006D01*
X53800000Y-71073000D01*
X51800000Y-71073000D01*
X51752211Y-71082334D01*
X51710197Y-71110197D01*
X51510000Y-71310394D01*
X51510000Y-71200000D01*
X51455954Y-70928295D01*
X51302046Y-70697954D01*
X51071705Y-70544046D01*
X50800000Y-70490000D01*
X41094092Y-70490000D01*
X39510000Y-68905908D01*
X39510000Y-60449026D01*
X41572642Y-60449026D01*
X41575291Y-60464791D01*
X41829268Y-60992036D01*
X42265680Y-61381954D01*
X42818087Y-61575184D01*
X43053000Y-61430924D01*
X43053000Y-60217000D01*
X41693783Y-60217000D01*
X41572642Y-60449026D01*
X39510000Y-60449026D01*
X39510000Y-57909026D01*
X41572642Y-57909026D01*
X41575291Y-57924791D01*
X41829268Y-58452036D01*
X42241108Y-58820000D01*
X41829268Y-59187964D01*
X41575291Y-59715209D01*
X41572642Y-59730974D01*
X41693783Y-59963000D01*
X43053000Y-59963000D01*
X43053000Y-57677000D01*
X41693783Y-57677000D01*
X41572642Y-57909026D01*
X39510000Y-57909026D01*
X39510000Y-55369026D01*
X41572642Y-55369026D01*
X41575291Y-55384791D01*
X41829268Y-55912036D01*
X42241108Y-56280000D01*
X41829268Y-56647964D01*
X41575291Y-57175209D01*
X41572642Y-57190974D01*
X41693783Y-57423000D01*
X43053000Y-57423000D01*
X43053000Y-55137000D01*
X41693783Y-55137000D01*
X41572642Y-55369026D01*
X39510000Y-55369026D01*
X39510000Y-52829026D01*
X41572642Y-52829026D01*
X41575291Y-52844791D01*
X41829268Y-53372036D01*
X42241108Y-53740000D01*
X41829268Y-54107964D01*
X41575291Y-54635209D01*
X41572642Y-54650974D01*
X41693783Y-54883000D01*
X43053000Y-54883000D01*
X43053000Y-52597000D01*
X41693783Y-52597000D01*
X41572642Y-52829026D01*
X39510000Y-52829026D01*
X39510000Y-50289026D01*
X41572642Y-50289026D01*
X41575291Y-50304791D01*
X41829268Y-50832036D01*
X42241108Y-51200000D01*
X41829268Y-51567964D01*
X41575291Y-52095209D01*
X41572642Y-52110974D01*
X41693783Y-52343000D01*
X43053000Y-52343000D01*
X43053000Y-50057000D01*
X41693783Y-50057000D01*
X41572642Y-50289026D01*
X39510000Y-50289026D01*
X39510000Y-47749026D01*
X41572642Y-47749026D01*
X41575291Y-47764791D01*
X41829268Y-48292036D01*
X42241108Y-48660000D01*
X41829268Y-49027964D01*
X41575291Y-49555209D01*
X41572642Y-49570974D01*
X41693783Y-49803000D01*
X43053000Y-49803000D01*
X43053000Y-47517000D01*
X41693783Y-47517000D01*
X41572642Y-47749026D01*
X39510000Y-47749026D01*
X39510000Y-45209026D01*
X41572642Y-45209026D01*
X41575291Y-45224791D01*
X41829268Y-45752036D01*
X42241108Y-46120000D01*
X41829268Y-46487964D01*
X41575291Y-47015209D01*
X41572642Y-47030974D01*
X41693783Y-47263000D01*
X43053000Y-47263000D01*
X43053000Y-44977000D01*
X41693783Y-44977000D01*
X41572642Y-45209026D01*
X39510000Y-45209026D01*
X39510000Y-42669026D01*
X41572642Y-42669026D01*
X41575291Y-42684791D01*
X41829268Y-43212036D01*
X42241108Y-43580000D01*
X41829268Y-43947964D01*
X41575291Y-44475209D01*
X41572642Y-44490974D01*
X41693783Y-44723000D01*
X43053000Y-44723000D01*
X43053000Y-42437000D01*
X41693783Y-42437000D01*
X41572642Y-42669026D01*
X39510000Y-42669026D01*
X39510000Y-41950974D01*
X41572642Y-41950974D01*
X41693783Y-42183000D01*
X43053000Y-42183000D01*
X43053000Y-40969076D01*
X43307000Y-40969076D01*
X43307000Y-42183000D01*
X43327000Y-42183000D01*
X43327000Y-42437000D01*
X43307000Y-42437000D01*
X43307000Y-44723000D01*
X43327000Y-44723000D01*
X43327000Y-44977000D01*
X43307000Y-44977000D01*
X43307000Y-47263000D01*
X43327000Y-47263000D01*
X43327000Y-47517000D01*
X43307000Y-47517000D01*
X43307000Y-49803000D01*
X43327000Y-49803000D01*
X43327000Y-50057000D01*
X43307000Y-50057000D01*
X43307000Y-52343000D01*
X43327000Y-52343000D01*
X43327000Y-52597000D01*
X43307000Y-52597000D01*
X43307000Y-54883000D01*
X43327000Y-54883000D01*
X43327000Y-55137000D01*
X43307000Y-55137000D01*
X43307000Y-57423000D01*
X43327000Y-57423000D01*
X43327000Y-57677000D01*
X43307000Y-57677000D01*
X43307000Y-59963000D01*
X43327000Y-59963000D01*
X43327000Y-60217000D01*
X43307000Y-60217000D01*
X43307000Y-61430924D01*
X43541913Y-61575184D01*
X44094320Y-61381954D01*
X44430246Y-61081816D01*
X44475585Y-61149670D01*
X44961766Y-61474526D01*
X45535255Y-61588600D01*
X45904745Y-61588600D01*
X46478234Y-61474526D01*
X46964415Y-61149670D01*
X46990000Y-61111379D01*
X47015585Y-61149670D01*
X47501766Y-61474526D01*
X48075255Y-61588600D01*
X48444745Y-61588600D01*
X49018234Y-61474526D01*
X49504415Y-61149670D01*
X49829271Y-60663489D01*
X49943345Y-60090000D01*
X49829271Y-59516511D01*
X49504415Y-59030330D01*
X49189634Y-58820000D01*
X49504415Y-58609670D01*
X49829271Y-58123489D01*
X49943345Y-57550000D01*
X49829271Y-56976511D01*
X49504415Y-56490330D01*
X49189634Y-56280000D01*
X49504415Y-56069670D01*
X49829271Y-55583489D01*
X49943345Y-55010000D01*
X49829271Y-54436511D01*
X49504415Y-53950330D01*
X49189634Y-53740000D01*
X49504415Y-53529670D01*
X49829271Y-53043489D01*
X49943345Y-52470000D01*
X49829271Y-51896511D01*
X49504415Y-51410330D01*
X49189634Y-51200000D01*
X49504415Y-50989670D01*
X49829271Y-50503489D01*
X49935554Y-49969167D01*
X69168832Y-49969167D01*
X69310877Y-50312943D01*
X69573667Y-50576192D01*
X69694981Y-50626566D01*
X69778201Y-50709786D01*
X69778203Y-50709789D01*
X71165000Y-52096585D01*
X71165000Y-60893178D01*
X71115162Y-61013201D01*
X71114838Y-61385167D01*
X71256883Y-61728943D01*
X71519673Y-61992192D01*
X71863201Y-62134838D01*
X72235167Y-62135162D01*
X72578943Y-61993117D01*
X72842192Y-61730327D01*
X72984838Y-61386799D01*
X72985162Y-61014833D01*
X72935000Y-60893431D01*
X72935000Y-51730006D01*
X72867633Y-51391331D01*
X72675790Y-51104216D01*
X72675787Y-51104214D01*
X71029783Y-49458209D01*
X71029780Y-49458207D01*
X70946739Y-49375165D01*
X70897111Y-49255057D01*
X70634321Y-48991808D01*
X70290793Y-48849162D01*
X69918827Y-48848838D01*
X69575051Y-48990883D01*
X69311802Y-49253673D01*
X69169156Y-49597201D01*
X69168832Y-49969167D01*
X49935554Y-49969167D01*
X49943345Y-49930000D01*
X49829271Y-49356511D01*
X49504415Y-48870330D01*
X49189634Y-48660000D01*
X49504415Y-48449670D01*
X49829271Y-47963489D01*
X49943345Y-47390000D01*
X49829271Y-46816511D01*
X49504415Y-46330330D01*
X49189634Y-46120000D01*
X49504415Y-45909670D01*
X49829271Y-45423489D01*
X49943345Y-44850000D01*
X49829271Y-44276511D01*
X49504415Y-43790330D01*
X49189634Y-43580000D01*
X49504415Y-43369670D01*
X49829271Y-42883489D01*
X49943345Y-42310000D01*
X49829271Y-41736511D01*
X49504415Y-41250330D01*
X49018234Y-40925474D01*
X48444745Y-40811400D01*
X48075255Y-40811400D01*
X47501766Y-40925474D01*
X47015585Y-41250330D01*
X46990000Y-41288621D01*
X46964415Y-41250330D01*
X46478234Y-40925474D01*
X45904745Y-40811400D01*
X45535255Y-40811400D01*
X44961766Y-40925474D01*
X44475585Y-41250330D01*
X44430246Y-41318184D01*
X44094320Y-41018046D01*
X43541913Y-40824816D01*
X43307000Y-40969076D01*
X43053000Y-40969076D01*
X42818087Y-40824816D01*
X42265680Y-41018046D01*
X41829268Y-41407964D01*
X41575291Y-41935209D01*
X41572642Y-41950974D01*
X39510000Y-41950974D01*
X39510000Y-33494092D01*
X41094092Y-31910000D01*
X50800000Y-31910000D01*
X51071705Y-31855954D01*
X51302046Y-31702046D01*
X51455954Y-31471705D01*
X51510000Y-31200000D01*
X51510000Y-31089606D01*
X51710197Y-31289803D01*
X51750590Y-31316994D01*
X51800000Y-31327000D01*
X53800000Y-31327000D01*
X53847789Y-31317666D01*
X53889803Y-31289803D01*
X55889803Y-29289803D01*
X55916994Y-29249410D01*
X55927000Y-29200000D01*
X55927000Y-27200000D01*
X55917666Y-27152211D01*
X55889803Y-27110197D01*
X55689606Y-26910000D01*
X65916560Y-26910000D01*
X65916560Y-29835000D01*
G36*
X95710197Y-27110197D02*
X95683006Y-27150590D01*
X95673000Y-27200000D01*
X95673000Y-29200000D01*
X95682334Y-29247789D01*
X95710197Y-29289803D01*
X97710197Y-31289803D01*
X97750590Y-31316994D01*
X97800000Y-31327000D01*
X99800000Y-31327000D01*
X99847789Y-31317666D01*
X99889803Y-31289803D01*
X100090000Y-31089606D01*
X100090000Y-50949560D01*
X99439000Y-50949560D01*
X99439000Y-50473463D01*
X99471192Y-50441327D01*
X99613838Y-50097799D01*
X99614162Y-49725833D01*
X99472117Y-49382057D01*
X99209327Y-49118808D01*
X98865799Y-48976162D01*
X98493833Y-48975838D01*
X98150057Y-49117883D01*
X97886808Y-49380673D01*
X97744162Y-49724201D01*
X97743838Y-50096167D01*
X97885883Y-50439943D01*
X97919000Y-50473118D01*
X97919000Y-50949560D01*
X97165000Y-50949560D01*
X96929683Y-50993838D01*
X96713559Y-51132910D01*
X96684477Y-51175473D01*
X96678107Y-51160057D01*
X96415317Y-50896808D01*
X96071789Y-50754162D01*
X95699823Y-50753838D01*
X95356047Y-50895883D01*
X95322872Y-50929000D01*
X81003802Y-50929000D01*
X80335122Y-50260320D01*
X80335162Y-50214833D01*
X80193117Y-49871057D01*
X79930327Y-49607808D01*
X79586799Y-49465162D01*
X79214833Y-49464838D01*
X78871057Y-49606883D01*
X78607808Y-49869673D01*
X78564033Y-49975094D01*
X78564033Y-32746769D01*
X78642401Y-32668401D01*
X78807148Y-32421839D01*
X78865000Y-32131000D01*
X78865000Y-30455909D01*
X78959317Y-30438162D01*
X79175441Y-30299090D01*
X79320431Y-30086890D01*
X79371440Y-29835000D01*
X79371440Y-29081000D01*
X80082537Y-29081000D01*
X80114673Y-29113192D01*
X80458201Y-29255838D01*
X80830167Y-29256162D01*
X81173943Y-29114117D01*
X81437192Y-28851327D01*
X81579838Y-28507799D01*
X81580162Y-28135833D01*
X81438117Y-27792057D01*
X81175327Y-27528808D01*
X80831799Y-27386162D01*
X80459833Y-27385838D01*
X80116057Y-27527883D01*
X80082882Y-27561000D01*
X79371440Y-27561000D01*
X79371440Y-26910000D01*
X95910394Y-26910000D01*
X95710197Y-27110197D01*
X95710197Y-27110197D01*
G37*
X95710197Y-27110197D02*
X95683006Y-27150590D01*
X95673000Y-27200000D01*
X95673000Y-29200000D01*
X95682334Y-29247789D01*
X95710197Y-29289803D01*
X97710197Y-31289803D01*
X97750590Y-31316994D01*
X97800000Y-31327000D01*
X99800000Y-31327000D01*
X99847789Y-31317666D01*
X99889803Y-31289803D01*
X100090000Y-31089606D01*
X100090000Y-50949560D01*
X99439000Y-50949560D01*
X99439000Y-50473463D01*
X99471192Y-50441327D01*
X99613838Y-50097799D01*
X99614162Y-49725833D01*
X99472117Y-49382057D01*
X99209327Y-49118808D01*
X98865799Y-48976162D01*
X98493833Y-48975838D01*
X98150057Y-49117883D01*
X97886808Y-49380673D01*
X97744162Y-49724201D01*
X97743838Y-50096167D01*
X97885883Y-50439943D01*
X97919000Y-50473118D01*
X97919000Y-50949560D01*
X97165000Y-50949560D01*
X96929683Y-50993838D01*
X96713559Y-51132910D01*
X96684477Y-51175473D01*
X96678107Y-51160057D01*
X96415317Y-50896808D01*
X96071789Y-50754162D01*
X95699823Y-50753838D01*
X95356047Y-50895883D01*
X95322872Y-50929000D01*
X81003802Y-50929000D01*
X80335122Y-50260320D01*
X80335162Y-50214833D01*
X80193117Y-49871057D01*
X79930327Y-49607808D01*
X79586799Y-49465162D01*
X79214833Y-49464838D01*
X78871057Y-49606883D01*
X78607808Y-49869673D01*
X78564033Y-49975094D01*
X78564033Y-32746769D01*
X78642401Y-32668401D01*
X78807148Y-32421839D01*
X78865000Y-32131000D01*
X78865000Y-30455909D01*
X78959317Y-30438162D01*
X79175441Y-30299090D01*
X79320431Y-30086890D01*
X79371440Y-29835000D01*
X79371440Y-29081000D01*
X80082537Y-29081000D01*
X80114673Y-29113192D01*
X80458201Y-29255838D01*
X80830167Y-29256162D01*
X81173943Y-29114117D01*
X81437192Y-28851327D01*
X81579838Y-28507799D01*
X81580162Y-28135833D01*
X81438117Y-27792057D01*
X81175327Y-27528808D01*
X80831799Y-27386162D01*
X80459833Y-27385838D01*
X80116057Y-27527883D01*
X80082882Y-27561000D01*
X79371440Y-27561000D01*
X79371440Y-26910000D01*
X95910394Y-26910000D01*
X95710197Y-27110197D01*
G36*
X68852110Y-30431431D02*
X69104000Y-30482440D01*
X69414222Y-30482440D01*
X69311808Y-30584675D01*
X69169162Y-30928203D01*
X69168838Y-31300169D01*
X69310883Y-31643945D01*
X69573673Y-31907194D01*
X69917201Y-32049840D01*
X70289167Y-32050164D01*
X70632943Y-31908119D01*
X70666118Y-31875002D01*
X74488200Y-31875002D01*
X75694000Y-33080802D01*
X75694000Y-39021680D01*
X75580327Y-38907808D01*
X75236799Y-38765162D01*
X74864833Y-38764838D01*
X74521057Y-38906883D01*
X74487882Y-38940000D01*
X73800000Y-38940000D01*
X73509161Y-38997852D01*
X73262599Y-39162599D01*
X72485198Y-39940000D01*
X68485009Y-39940000D01*
X68485162Y-39764833D01*
X68449000Y-39677314D01*
X68449000Y-30482440D01*
X68564000Y-30482440D01*
X68799317Y-30438162D01*
X68831578Y-30417402D01*
X68852110Y-30431431D01*
X68852110Y-30431431D01*
G37*
X68852110Y-30431431D02*
X69104000Y-30482440D01*
X69414222Y-30482440D01*
X69311808Y-30584675D01*
X69169162Y-30928203D01*
X69168838Y-31300169D01*
X69310883Y-31643945D01*
X69573673Y-31907194D01*
X69917201Y-32049840D01*
X70289167Y-32050164D01*
X70632943Y-31908119D01*
X70666118Y-31875002D01*
X74488200Y-31875002D01*
X75694000Y-33080802D01*
X75694000Y-39021680D01*
X75580327Y-38907808D01*
X75236799Y-38765162D01*
X74864833Y-38764838D01*
X74521057Y-38906883D01*
X74487882Y-38940000D01*
X73800000Y-38940000D01*
X73509161Y-38997852D01*
X73262599Y-39162599D01*
X72485198Y-39940000D01*
X68485009Y-39940000D01*
X68485162Y-39764833D01*
X68449000Y-39677314D01*
X68449000Y-30482440D01*
X68564000Y-30482440D01*
X68799317Y-30438162D01*
X68831578Y-30417402D01*
X68852110Y-30431431D01*
M02*
