G04 #@! TF.FileFunction,Copper,L1,Top,Signal*
%FSLAX46Y46*%
G04 Gerber Fmt 4.6, Leading zero omitted, Abs format (unit mm)*
G04 Created by KiCad (PCBNEW 4.0.4+e1-6308~48~ubuntu16.04.1-stable) date Sat Dec 17 16:05:02 2016*
%MOMM*%
%LPD*%
G01*
G04 APERTURE LIST*
%ADD10C,0.100000*%
%ADD11C,0.150000*%
%ADD12R,1.500000X0.300000*%
%ADD13R,0.300000X1.500000*%
%ADD14O,2.032000X1.727200*%
%ADD15R,5.600700X2.100580*%
%ADD16R,1.500000X1.250000*%
%ADD17R,1.250000X1.500000*%
%ADD18R,1.198880X1.198880*%
%ADD19R,1.500000X1.300000*%
%ADD20R,2.000000X2.500000*%
%ADD21R,2.000000X3.000000*%
%ADD22R,3.000000X2.000000*%
%ADD23R,2.032000X2.032000*%
%ADD24O,2.032000X2.032000*%
%ADD25R,1.900000X0.800000*%
%ADD26C,0.600000*%
%ADD27C,0.250000*%
%ADD28C,0.500000*%
G04 APERTURE END LIST*
D10*
D11*
X25000000Y-25000000D02*
X25000000Y25000000D01*
X-25000000Y-25000000D02*
X25000000Y-25000000D01*
X-25000000Y-20000000D02*
X-25000000Y-25000000D01*
X-35000000Y-20000000D02*
X-25000000Y-20000000D01*
X-37000000Y-18000000D02*
X-35000000Y-20000000D01*
X-40000000Y18000000D02*
X-40000000Y-18000000D01*
X-35000000Y20000000D02*
X-37000000Y18000000D01*
X-25000000Y20000000D02*
X-35000000Y20000000D01*
X-25000000Y25000000D02*
X-25000000Y20000000D01*
X25000000Y25000000D02*
X-25000000Y25000000D01*
D12*
X-7700000Y6000000D03*
X-7700000Y5500000D03*
X-7700000Y5000000D03*
X-7700000Y4500000D03*
X-7700000Y4000000D03*
X-7700000Y3500000D03*
X-7700000Y3000000D03*
X-7700000Y2500000D03*
X-7700000Y2000000D03*
X-7700000Y1500000D03*
X-7700000Y1000000D03*
X-7700000Y500000D03*
X-7700000Y0D03*
X-7700000Y-500000D03*
X-7700000Y-1000000D03*
X-7700000Y-1500000D03*
X-7700000Y-2000000D03*
X-7700000Y-2500000D03*
X-7700000Y-3000000D03*
X-7700000Y-3500000D03*
X-7700000Y-4000000D03*
X-7700000Y-4500000D03*
X-7700000Y-5000000D03*
X-7700000Y-5500000D03*
X-7700000Y-6000000D03*
D13*
X-6000000Y-7700000D03*
X-5500000Y-7700000D03*
X-5000000Y-7700000D03*
X-4500000Y-7700000D03*
X-4000000Y-7700000D03*
X-3500000Y-7700000D03*
X-3000000Y-7700000D03*
X-2500000Y-7700000D03*
X-2000000Y-7700000D03*
X-1500000Y-7700000D03*
X-1000000Y-7700000D03*
X-500000Y-7700000D03*
X0Y-7700000D03*
X500000Y-7700000D03*
X1000000Y-7700000D03*
X1500000Y-7700000D03*
X2000000Y-7700000D03*
X2500000Y-7700000D03*
X3000000Y-7700000D03*
X3500000Y-7700000D03*
X4000000Y-7700000D03*
X4500000Y-7700000D03*
X5000000Y-7700000D03*
X5500000Y-7700000D03*
X6000000Y-7700000D03*
D12*
X7700000Y-6000000D03*
X7700000Y-5500000D03*
X7700000Y-5000000D03*
X7700000Y-4500000D03*
X7700000Y-4000000D03*
X7700000Y-3500000D03*
X7700000Y-3000000D03*
X7700000Y-2500000D03*
X7700000Y-2000000D03*
X7700000Y-1500000D03*
X7700000Y-1000000D03*
X7700000Y-500000D03*
X7700000Y0D03*
X7700000Y500000D03*
X7700000Y1000000D03*
X7700000Y1500000D03*
X7700000Y2000000D03*
X7700000Y2500000D03*
X7700000Y3000000D03*
X7700000Y3500000D03*
X7700000Y4000000D03*
X7700000Y4500000D03*
X7700000Y5000000D03*
X7700000Y5500000D03*
X7700000Y6000000D03*
D13*
X6000000Y7700000D03*
X5500000Y7700000D03*
X5000000Y7700000D03*
X4500000Y7700000D03*
X4000000Y7700000D03*
X3500000Y7700000D03*
X3000000Y7700000D03*
X2500000Y7700000D03*
X2000000Y7700000D03*
X1500000Y7700000D03*
X1000000Y7700000D03*
X500000Y7700000D03*
X0Y7700000D03*
X-500000Y7700000D03*
X-1000000Y7700000D03*
X-1500000Y7700000D03*
X-2000000Y7700000D03*
X-2500000Y7700000D03*
X-3000000Y7700000D03*
X-3500000Y7700000D03*
X-4000000Y7700000D03*
X-4500000Y7700000D03*
X-5000000Y7700000D03*
X-5500000Y7700000D03*
X-6000000Y7700000D03*
D14*
X-32620000Y8890000D03*
X-32620000Y6350000D03*
X-32620000Y3810000D03*
X-32620000Y1270000D03*
X-32620000Y-1270000D03*
X-32620000Y-3810000D03*
X-32620000Y-6350000D03*
X-32620000Y-8890000D03*
X-30080000Y8890000D03*
X-30080000Y6350000D03*
X-30080000Y3810000D03*
X-30080000Y1270000D03*
X-30080000Y-1270000D03*
X-30080000Y-3810000D03*
X-30080000Y-6350000D03*
X-30080000Y-8890000D03*
X-27540000Y8890000D03*
X-27540000Y6350000D03*
X-27540000Y3810000D03*
X-27540000Y1270000D03*
X-27540000Y-1270000D03*
X-27540000Y-3810000D03*
X-27540000Y-6350000D03*
X-27540000Y-8890000D03*
D15*
X-7098860Y-20130000D03*
X2598860Y-20130000D03*
D16*
X-6250000Y-16130000D03*
X-8750000Y-16130000D03*
X1750000Y-16130000D03*
X4250000Y-16130000D03*
D17*
X-4500000Y11250000D03*
X-4500000Y13750000D03*
X-6750000Y11250000D03*
X-6750000Y13750000D03*
D16*
X-3750000Y-12250000D03*
X-6250000Y-12250000D03*
X-11250000Y1500000D03*
X-13750000Y1500000D03*
D18*
X-33348980Y15875000D03*
X-35447020Y15875000D03*
X-33348980Y-13970000D03*
X-35447020Y-13970000D03*
X-31570980Y-18415000D03*
X-33669020Y-18415000D03*
X-31570980Y18415000D03*
X-33669020Y18415000D03*
X-33348980Y13970000D03*
X-35447020Y13970000D03*
X-33348980Y-15875000D03*
X-35447020Y-15875000D03*
D19*
X22832000Y2813000D03*
X20132000Y2813000D03*
X-23650000Y16002000D03*
X-26350000Y16002000D03*
X-23650000Y-13970000D03*
X-26350000Y-13970000D03*
X-23650000Y18415000D03*
X-26350000Y18415000D03*
X-23650000Y13970000D03*
X-26350000Y13970000D03*
X-23650000Y-16002000D03*
X-26350000Y-16002000D03*
X-26350000Y-18415000D03*
X-23650000Y-18415000D03*
X-900000Y-16130000D03*
X-3600000Y-16130000D03*
X6670000Y20847000D03*
X9370000Y20847000D03*
X6670000Y22879000D03*
X9370000Y22879000D03*
D20*
X9322000Y13970000D03*
X13322000Y13970000D03*
D21*
X-8236000Y22865000D03*
X-5696000Y22865000D03*
X-3156000Y22865000D03*
X-616000Y22865000D03*
X1924000Y22865000D03*
D22*
X22865000Y-1397000D03*
X22865000Y-3937000D03*
X22865000Y-6477000D03*
D23*
X-15800000Y22200000D03*
D24*
X-13260000Y22200000D03*
D23*
X-22000000Y-8800000D03*
D24*
X-19460000Y-8800000D03*
D25*
X-42100000Y19550000D03*
X-42100000Y17650000D03*
X-39100000Y18600000D03*
X-42100000Y14950000D03*
X-42100000Y13050000D03*
X-39100000Y14000000D03*
X-42100000Y10350000D03*
X-42100000Y8450000D03*
X-39100000Y9400000D03*
X-42900000Y-10450000D03*
X-42900000Y-12350000D03*
X-39900000Y-11400000D03*
X-43100000Y-14250000D03*
X-43100000Y-16150000D03*
X-40100000Y-15200000D03*
D21*
X3280000Y-26665000D03*
X740000Y-26665000D03*
X-1800000Y-26665000D03*
X-4340000Y-26665000D03*
X-6880000Y-26665000D03*
D26*
X-5696000Y20084998D03*
X4499996Y-5250000D03*
X-5442000Y-1632002D03*
X-1378000Y-5823000D03*
X-5442000Y-5822996D03*
X3194002Y5861000D03*
X-4679998Y5861000D03*
X10560000Y400000D03*
X10560000Y8782000D03*
X-3537002Y18688000D03*
X-23857000Y5607000D03*
X-25381000Y1416004D03*
X-35541000Y11068000D03*
X-17634000Y1543000D03*
X16910000Y400000D03*
X7766000Y-7728000D03*
X18180000Y-4426000D03*
X-11030000Y-16110000D03*
X-2140000Y-22206000D03*
X6496000Y-16110000D03*
X3194000Y16910000D03*
X2940000Y11576000D03*
X5734000Y400000D03*
X-17380000Y16402000D03*
X-18396003Y11576000D03*
X-12046004Y7766000D03*
X-870000Y15894018D03*
X-12046000Y12338000D03*
X16783000Y13989000D03*
X-35414000Y-108000D03*
X-9506000Y146000D03*
X-35414000Y-11284000D03*
X-10522004Y-4045000D03*
X-22967994Y-4045000D03*
X-5696006Y1416000D03*
X-3750000Y-10000000D03*
X19704000Y-2394000D03*
X3600000Y800000D03*
X20084990Y-489000D03*
X20085000Y-6477000D03*
X4717996Y-2921000D03*
X3800000Y-2200000D03*
X20084994Y-3937000D03*
X2785872Y-1457069D03*
X22879000Y1289000D03*
X4845000Y22879000D03*
X2250000Y-3000000D03*
X1543000Y19704000D03*
X2999994Y-3750000D03*
X3750000Y-4500000D03*
D27*
X-5696000Y22865000D02*
X-5696000Y20084998D01*
X4199997Y-5549999D02*
X4499996Y-5250000D01*
X4000000Y-7700000D02*
X4000000Y-5749996D01*
X4000000Y-5749996D02*
X4199997Y-5549999D01*
X-2500000Y-7700000D02*
X-2500000Y-15130000D01*
X-2500000Y-15130000D02*
X-3500000Y-16130000D01*
X-3500000Y-16130000D02*
X-3600000Y-16130000D01*
X-6250000Y-16130000D02*
X-6250000Y-19281140D01*
X-6250000Y-19281140D02*
X-7098860Y-20130000D01*
X-3600000Y-16130000D02*
X-6250000Y-16130000D01*
X-5442000Y-1207738D02*
X-5442000Y-1632002D01*
X-6700000Y1000000D02*
X-5442000Y-258000D01*
X-5442000Y-258000D02*
X-5442000Y-1207738D01*
X-7700000Y1000000D02*
X-6700000Y1000000D01*
X-1378000Y-5398736D02*
X-1378000Y-5823000D01*
X2686000Y-2140000D02*
X1880736Y-2140000D01*
X5480000Y-3918000D02*
X4464000Y-3918000D01*
X5734000Y400000D02*
X5734000Y-3664000D01*
X-3000000Y-6700000D02*
X-2123000Y-5823000D01*
X1880736Y-2140000D02*
X-1378000Y-5398736D01*
X-1802264Y-5823000D02*
X-1378000Y-5823000D01*
X-3000000Y-7700000D02*
X-3000000Y-6700000D01*
X-2123000Y-5823000D02*
X-1802264Y-5823000D01*
X5734000Y-3664000D02*
X5480000Y-3918000D01*
X4464000Y-3918000D02*
X2686000Y-2140000D01*
X-7771268Y-7728000D02*
X-5866264Y-5822996D01*
X-9506000Y-7728000D02*
X-7771268Y-7728000D01*
X-10522004Y-6711996D02*
X-9506000Y-7728000D01*
X-5866264Y-5822996D02*
X-5442000Y-5822996D01*
X3500000Y7700000D02*
X3500000Y6548000D01*
X3194000Y6242000D02*
X3194000Y5861002D01*
X3500000Y6548000D02*
X3194000Y6242000D01*
X3194000Y5861002D02*
X3194002Y5861000D01*
X-5500000Y6681002D02*
X-4979997Y6160999D01*
X-5500000Y7700000D02*
X-5500000Y6681002D01*
X-4979997Y6160999D02*
X-4679998Y5861000D01*
X10560000Y4718000D02*
X10560000Y400000D01*
X10560000Y8782000D02*
X10560000Y4718000D01*
X-5950000Y400000D02*
X-5442000Y400000D01*
X-5442000Y400000D02*
X-4680000Y-362000D01*
X-4680000Y-362000D02*
X-3399108Y-362000D01*
X-3399108Y-362000D02*
X-859108Y2178000D01*
X-859108Y2178000D02*
X-108000Y2178000D01*
X3934000Y2200000D02*
X5734000Y400000D01*
X-108000Y2178000D02*
X-86000Y2200000D01*
X-86000Y2200000D02*
X3934000Y2200000D01*
D28*
X-616000Y22865000D02*
X-616000Y21101000D01*
X-616000Y21101000D02*
X-3029000Y18688000D01*
X-3112738Y18688000D02*
X-3537002Y18688000D01*
X-3029000Y18688000D02*
X-3112738Y18688000D01*
D27*
X6496000Y-16110000D02*
X6496000Y-21571000D01*
X6496000Y-21571000D02*
X5861000Y-22206000D01*
X5861000Y-22206000D02*
X-2140000Y-22206000D01*
X-23857000Y10941000D02*
X-23857000Y6031264D01*
X-23857000Y6031264D02*
X-23857000Y5607000D01*
X-23984000Y11068000D02*
X-23857000Y10941000D01*
X-35541000Y11068000D02*
X-23984000Y11068000D01*
X-13750000Y1500000D02*
X-17591000Y1500000D01*
X-17591000Y1500000D02*
X-17634000Y1543000D01*
X-7700000Y1000000D02*
X-8700000Y1000000D01*
X16910000Y-3156000D02*
X16910000Y400000D01*
X18180000Y-4426000D02*
X16910000Y-3156000D01*
X18180000Y-4426000D02*
X11068000Y-4426000D01*
X11068000Y-4426000D02*
X7766000Y-7728000D01*
X-8694000Y-12250000D02*
X-8750000Y-12306000D01*
X-8750000Y-12306000D02*
X-8750000Y-16130000D01*
X-6250000Y-12250000D02*
X-8694000Y-12250000D01*
X-11030000Y-16110000D02*
X-8770000Y-16110000D01*
X-8770000Y-16110000D02*
X-8750000Y-16130000D01*
X6496000Y-16110000D02*
X4270000Y-16110000D01*
X4270000Y-16110000D02*
X4250000Y-16130000D01*
X3194000Y16910000D02*
X145982Y16910000D01*
X145982Y16910000D02*
X-870000Y15894018D01*
X3239999Y11276001D02*
X2940000Y11576000D01*
X3500000Y11016000D02*
X3239999Y11276001D01*
X3500000Y7700000D02*
X3500000Y11016000D01*
X-17679999Y16102001D02*
X-17380000Y16402000D01*
X-18396003Y15385997D02*
X-17679999Y16102001D01*
X-18396003Y11576000D02*
X-18396003Y15385997D01*
X-12046000Y7766004D02*
X-12046004Y7766000D01*
X-12046000Y12338000D02*
X-12046000Y7766004D01*
X-1169999Y15594019D02*
X-870000Y15894018D01*
X-3014018Y13750000D02*
X-1169999Y15594019D01*
X-4500000Y13750000D02*
X-3014018Y13750000D01*
X13322000Y13970000D02*
X16764000Y13970000D01*
X16764000Y13970000D02*
X16783000Y13989000D01*
X-5632500Y13735000D02*
X-5632500Y9099500D01*
X-5500000Y8967000D02*
X-5500000Y7700000D01*
X-5632500Y9099500D02*
X-5500000Y8967000D01*
X-8700000Y1000000D02*
X-9506000Y194000D01*
X-9506000Y194000D02*
X-9506000Y146000D01*
X-35414000Y-108000D02*
X-35414000Y-11284000D01*
X-10522004Y-4045000D02*
X-10522004Y-6711996D01*
X-10522004Y-4045000D02*
X-22967994Y-4045000D01*
X-2000000Y-7700000D02*
X-2000000Y-15130000D01*
X-2000000Y-15130000D02*
X-1000000Y-16130000D01*
X-1000000Y-16130000D02*
X-900000Y-16130000D01*
X1750000Y-16130000D02*
X1750000Y-19281140D01*
X1750000Y-19281140D02*
X2598860Y-20130000D01*
X-900000Y-16130000D02*
X100000Y-16130000D01*
X100000Y-16130000D02*
X1750000Y-16130000D01*
X-5000000Y9351000D02*
X-4500000Y9851000D01*
X-4500000Y9851000D02*
X-4500000Y11250000D01*
X-5000000Y7700000D02*
X-5000000Y9351000D01*
X4000000Y7700000D02*
X4000000Y6706000D01*
X4000000Y6706000D02*
X4464000Y6242000D01*
X4464000Y6242000D02*
X6242000Y6242000D01*
D28*
X-6204000Y4458532D02*
X-6204000Y1923994D01*
X-6204000Y1923994D02*
X-5996005Y1715999D01*
X-5996005Y1715999D02*
X-5696006Y1416000D01*
X-6204000Y4458532D02*
X-6204000Y6214002D01*
X4423908Y4464000D02*
X-6198532Y4464000D01*
X-6198532Y4464000D02*
X-6204000Y4458532D01*
X10506454Y10546546D02*
X4423908Y4464000D01*
X-6204000Y6214002D02*
X-6750000Y6760002D01*
X-6750000Y6760002D02*
X-6750000Y7702403D01*
D27*
X-3500000Y-7700000D02*
X-3500000Y-9750000D01*
X-3500000Y-9750000D02*
X-3750000Y-10000000D01*
X-3750000Y-10000000D02*
X-13800401Y-10000000D01*
X-22215401Y-18415000D02*
X-22400000Y-18415000D01*
X-13800401Y-10000000D02*
X-22215401Y-18415000D01*
X-22400000Y-18415000D02*
X-23650000Y-18415000D01*
X-3750000Y-10000000D02*
X-3750000Y-12250000D01*
D28*
X-6750000Y7702403D02*
X-6750000Y10000000D01*
D27*
X-6000000Y7700000D02*
X-6747597Y7700000D01*
X-6747597Y7700000D02*
X-6750000Y7702403D01*
X-7700000Y1500000D02*
X-11250000Y1500000D01*
D28*
X-6750000Y10000000D02*
X-6750000Y11250000D01*
X10506454Y10546546D02*
X9322000Y11731000D01*
X18561000Y2492000D02*
X10506454Y10546546D01*
X19704000Y-2394000D02*
X18561000Y-1251000D01*
X18561000Y908000D02*
X18561000Y2492000D01*
X18561000Y-1251000D02*
X18561000Y908000D01*
X9322000Y11731000D02*
X9322000Y13970000D01*
X9322000Y13970000D02*
X9322000Y20799000D01*
X9322000Y20799000D02*
X9370000Y20847000D01*
X9370000Y22879000D02*
X9370000Y20847000D01*
X20132000Y2813000D02*
X18882000Y2813000D01*
X18882000Y2813000D02*
X18561000Y2492000D01*
D27*
X-23485000Y18250000D02*
X-23650000Y18415000D01*
X-23648000Y16000000D02*
X-23650000Y16002000D01*
X-23430000Y13750000D02*
X-23650000Y13970000D01*
X-31570980Y-18415000D02*
X-30721540Y-18415000D01*
X-30721540Y-18415000D02*
X-26350000Y-18415000D01*
X1924000Y22865000D02*
X1924000Y22365000D01*
X1924000Y22365000D02*
X-2841000Y17600000D01*
X-2841000Y17600000D02*
X-8814590Y17600000D01*
X-8814590Y17600000D02*
X-9379000Y17035590D01*
X-9379000Y17035590D02*
X-9379000Y6193998D01*
X-9379000Y6193998D02*
X-8685002Y5500000D01*
X-8685002Y5500000D02*
X-7700000Y5500000D01*
X1860000Y22365000D02*
X1860000Y22865000D01*
X-7700000Y4000000D02*
X-24250000Y4000000D01*
X-27140000Y8890000D02*
X-27540000Y8890000D01*
X-24250000Y4000000D02*
X-25500000Y5250000D01*
X-25500000Y5250000D02*
X-25500000Y7250000D01*
X-25500000Y7250000D02*
X-27140000Y8890000D01*
X-7700000Y3500000D02*
X-24537600Y3500000D01*
X-24537600Y3500000D02*
X-27387600Y6350000D01*
X-27387600Y6350000D02*
X-27540000Y6350000D01*
X-7700000Y3000000D02*
X-26730000Y3000000D01*
X-26730000Y3000000D02*
X-27540000Y3810000D01*
X-7700000Y-1000000D02*
X-8745590Y-1000000D01*
X-25051591Y-1066009D02*
X-27387600Y1270000D01*
X-8745590Y-1000000D02*
X-8811599Y-1066009D01*
X-27387600Y1270000D02*
X-27540000Y1270000D01*
X-8811599Y-1066009D02*
X-25051591Y-1066009D01*
X-7700000Y-1500000D02*
X-7716020Y-1516020D01*
X-26274000Y-1270000D02*
X-27540000Y-1270000D01*
X-7716020Y-1516020D02*
X-26027980Y-1516020D01*
X-26027980Y-1516020D02*
X-26274000Y-1270000D01*
X-7700000Y-2000000D02*
X-25577600Y-2000000D01*
X-25577600Y-2000000D02*
X-27387600Y-3810000D01*
X-27387600Y-3810000D02*
X-27540000Y-3810000D01*
X3175736Y800000D02*
X3600000Y800000D01*
X-7700000Y-3500000D02*
X-2863589Y-3500000D01*
X1436411Y800000D02*
X3175736Y800000D01*
X-2863589Y-3500000D02*
X1436411Y800000D01*
X20384989Y-788999D02*
X20084990Y-489000D01*
X20992990Y-1397000D02*
X20384989Y-788999D01*
X22865000Y-1397000D02*
X20992990Y-1397000D01*
X4717996Y-2496736D02*
X4717996Y-2921000D01*
X4717996Y-1481585D02*
X4717996Y-2496736D01*
X1322833Y50011D02*
X3186400Y50011D01*
X-2727178Y-4000000D02*
X1322833Y50011D01*
X-7700000Y-4000000D02*
X-2727178Y-4000000D01*
X3186400Y50011D02*
X4717996Y-1481585D01*
X22865000Y-6477000D02*
X20085000Y-6477000D01*
X3800000Y-1775736D02*
X3800000Y-2200000D01*
X3800000Y-1200000D02*
X3800000Y-1775736D01*
X3000000Y-400000D02*
X3800000Y-1200000D01*
X1509233Y-400000D02*
X3000000Y-400000D01*
X-2590767Y-4500000D02*
X1509233Y-400000D01*
X-7700000Y-4500000D02*
X-2590767Y-4500000D01*
X22865000Y-3937000D02*
X20084994Y-3937000D01*
X-7700000Y-5500000D02*
X-7724999Y-5475001D01*
X-23690000Y-2500000D02*
X-27540000Y-6350000D01*
X-7724999Y-5475001D02*
X-8710001Y-5475001D01*
X-8710001Y-5475001D02*
X-9000000Y-5185002D01*
X-9000000Y-5185002D02*
X-9000000Y-3000000D01*
X-9000000Y-3000000D02*
X-9500000Y-2500000D01*
X-9500000Y-2500000D02*
X-23690000Y-2500000D01*
X-7700000Y-6000000D02*
X-7724999Y-5975001D01*
X-7724999Y-5975001D02*
X-8710001Y-5975001D01*
X-8710001Y-5975001D02*
X-8759991Y-5925011D01*
X-8759991Y-5925011D02*
X-8896402Y-5925010D01*
X-8896402Y-5925010D02*
X-9450010Y-5371402D01*
X-25500000Y-7002400D02*
X-27387600Y-8890000D01*
X-9450010Y-5371402D02*
X-9450010Y-3549990D01*
X-23500000Y-3000000D02*
X-25500000Y-5000000D01*
X-9450010Y-3549990D02*
X-10000000Y-3000000D01*
X-10000000Y-3000000D02*
X-23500000Y-3000000D01*
X-25500000Y-5000000D02*
X-25500000Y-7002400D01*
X-27387600Y-8890000D02*
X-27540000Y-8890000D01*
X-4000000Y-7700000D02*
X-4000000Y-6700000D01*
X1242931Y-1457069D02*
X2361608Y-1457069D01*
X-4000000Y-6700000D02*
X1242931Y-1457069D01*
X2361608Y-1457069D02*
X2785872Y-1457069D01*
X22832000Y2813000D02*
X22832000Y1336000D01*
X22832000Y1336000D02*
X22879000Y1289000D01*
X6670000Y22879000D02*
X4845000Y22879000D01*
X6670000Y22860000D02*
X6651032Y22878968D01*
X2250000Y-3424264D02*
X2250000Y-3000000D01*
X2250000Y-4425004D02*
X2250000Y-3424264D01*
X2500000Y-4675004D02*
X2250000Y-4425004D01*
X2500000Y-7700000D02*
X2500000Y-4675004D01*
X4908000Y20085000D02*
X1924000Y20085000D01*
X1924000Y20085000D02*
X1543000Y19704000D01*
X6670000Y20847000D02*
X5670000Y20847000D01*
X5670000Y20847000D02*
X4908000Y20085000D01*
X3000000Y-3750006D02*
X2999994Y-3750000D01*
X3000000Y-7700000D02*
X3000000Y-3750006D01*
X-9829011Y17221989D02*
X-9829011Y6007598D01*
X-9829011Y6007598D02*
X-8821413Y5000000D01*
X-8236000Y22865000D02*
X-8236000Y18815000D01*
X-8236000Y18815000D02*
X-9829011Y17221989D01*
X-8821413Y5000000D02*
X-8700000Y5000000D01*
X-8700000Y5000000D02*
X-7700000Y5000000D01*
X3500000Y-4750000D02*
X3750000Y-4500000D01*
X3500000Y-7700000D02*
X3500000Y-4750000D01*
X-33348980Y15875000D02*
X-26477000Y15875000D01*
X-26477000Y15875000D02*
X-26350000Y16002000D01*
X-33348980Y-13970000D02*
X-26350000Y-13970000D01*
X-31570980Y18415000D02*
X-30721540Y18415000D01*
X-30721540Y18415000D02*
X-26350000Y18415000D01*
X-33348980Y13970000D02*
X-26350000Y13970000D01*
X-33348980Y-15875000D02*
X-26477000Y-15875000D01*
X-26477000Y-15875000D02*
X-26350000Y-16002000D01*
X-5000000Y-7700000D02*
X-5000000Y-8300000D01*
M02*
