G04 #@! TF.FileFunction,Copper,L1,Top,Signal*
%FSLAX46Y46*%
G04 Gerber Fmt 4.6, Leading zero omitted, Abs format (unit mm)*
G04 Created by KiCad (PCBNEW 4.0.0-rc1-stable) date 11/9/2015 9:11:32 AM*
%MOMM*%
G01*
G04 APERTURE LIST*
%ADD10C,0.100000*%
%ADD11C,0.150000*%
%ADD12R,1.500000X0.300000*%
%ADD13R,0.300000X1.500000*%
%ADD14O,2.032000X1.727200*%
%ADD15R,5.600700X2.100580*%
%ADD16R,1.500000X1.250000*%
%ADD17R,1.250000X1.500000*%
%ADD18R,1.198880X1.198880*%
%ADD19R,1.500000X1.300000*%
%ADD20R,3.000000X2.000000*%
%ADD21R,2.000000X3.000000*%
%ADD22R,2.000000X2.500000*%
%ADD23C,0.600000*%
%ADD24C,0.250000*%
%ADD25C,0.500000*%
%ADD26C,0.254000*%
G04 APERTURE END LIST*
D10*
D11*
X100800000Y-76200000D02*
X100800000Y-26200000D01*
X50800000Y-76200000D02*
X100800000Y-76200000D01*
X50800000Y-71200000D02*
X50800000Y-76200000D01*
X40800000Y-71200000D02*
X50800000Y-71200000D01*
X38800000Y-69200000D02*
X40800000Y-71200000D01*
X38800000Y-33200000D02*
X38800000Y-69200000D01*
X40800000Y-31200000D02*
X38800000Y-33200000D01*
X50800000Y-31200000D02*
X40800000Y-31200000D01*
X50800000Y-26200000D02*
X50800000Y-31200000D01*
X100800000Y-26200000D02*
X50800000Y-26200000D01*
D12*
X68100000Y-45200000D03*
X68100000Y-45700000D03*
X68100000Y-46200000D03*
X68100000Y-46700000D03*
X68100000Y-47200000D03*
X68100000Y-47700000D03*
X68100000Y-48200000D03*
X68100000Y-48700000D03*
X68100000Y-49200000D03*
X68100000Y-49700000D03*
X68100000Y-50200000D03*
X68100000Y-50700000D03*
X68100000Y-51200000D03*
X68100000Y-51700000D03*
X68100000Y-52200000D03*
X68100000Y-52700000D03*
X68100000Y-53200000D03*
X68100000Y-53700000D03*
X68100000Y-54200000D03*
X68100000Y-54700000D03*
X68100000Y-55200000D03*
X68100000Y-55700000D03*
X68100000Y-56200000D03*
X68100000Y-56700000D03*
X68100000Y-57200000D03*
D13*
X69800000Y-58900000D03*
X70300000Y-58900000D03*
X70800000Y-58900000D03*
X71300000Y-58900000D03*
X71800000Y-58900000D03*
X72300000Y-58900000D03*
X72800000Y-58900000D03*
X73300000Y-58900000D03*
X73800000Y-58900000D03*
X74300000Y-58900000D03*
X74800000Y-58900000D03*
X75300000Y-58900000D03*
X75800000Y-58900000D03*
X76300000Y-58900000D03*
X76800000Y-58900000D03*
X77300000Y-58900000D03*
X77800000Y-58900000D03*
X78300000Y-58900000D03*
X78800000Y-58900000D03*
X79300000Y-58900000D03*
X79800000Y-58900000D03*
X80300000Y-58900000D03*
X80800000Y-58900000D03*
X81300000Y-58900000D03*
X81800000Y-58900000D03*
D12*
X83500000Y-57200000D03*
X83500000Y-56700000D03*
X83500000Y-56200000D03*
X83500000Y-55700000D03*
X83500000Y-55200000D03*
X83500000Y-54700000D03*
X83500000Y-54200000D03*
X83500000Y-53700000D03*
X83500000Y-53200000D03*
X83500000Y-52700000D03*
X83500000Y-52200000D03*
X83500000Y-51700000D03*
X83500000Y-51200000D03*
X83500000Y-50700000D03*
X83500000Y-50200000D03*
X83500000Y-49700000D03*
X83500000Y-49200000D03*
X83500000Y-48700000D03*
X83500000Y-48200000D03*
X83500000Y-47700000D03*
X83500000Y-47200000D03*
X83500000Y-46700000D03*
X83500000Y-46200000D03*
X83500000Y-45700000D03*
X83500000Y-45200000D03*
D13*
X81800000Y-43500000D03*
X81300000Y-43500000D03*
X80800000Y-43500000D03*
X80300000Y-43500000D03*
X79800000Y-43500000D03*
X79300000Y-43500000D03*
X78800000Y-43500000D03*
X78300000Y-43500000D03*
X77800000Y-43500000D03*
X77300000Y-43500000D03*
X76800000Y-43500000D03*
X76300000Y-43500000D03*
X75800000Y-43500000D03*
X75300000Y-43500000D03*
X74800000Y-43500000D03*
X74300000Y-43500000D03*
X73800000Y-43500000D03*
X73300000Y-43500000D03*
X72800000Y-43500000D03*
X72300000Y-43500000D03*
X71800000Y-43500000D03*
X71300000Y-43500000D03*
X70800000Y-43500000D03*
X70300000Y-43500000D03*
X69800000Y-43500000D03*
D14*
X43180000Y-42310000D03*
X43180000Y-44850000D03*
X43180000Y-47390000D03*
X43180000Y-49930000D03*
X43180000Y-52470000D03*
X43180000Y-55010000D03*
X43180000Y-57550000D03*
X43180000Y-60090000D03*
X45720000Y-42310000D03*
X45720000Y-44850000D03*
X45720000Y-47390000D03*
X45720000Y-49930000D03*
X45720000Y-52470000D03*
X45720000Y-55010000D03*
X45720000Y-57550000D03*
X45720000Y-60090000D03*
X48260000Y-42310000D03*
X48260000Y-44850000D03*
X48260000Y-47390000D03*
X48260000Y-49930000D03*
X48260000Y-52470000D03*
X48260000Y-55010000D03*
X48260000Y-57550000D03*
X48260000Y-60090000D03*
D15*
X68701140Y-71330000D03*
X78398860Y-71330000D03*
D16*
X69550000Y-67330000D03*
X67050000Y-67330000D03*
X77550000Y-67330000D03*
X80050000Y-67330000D03*
D17*
X71300000Y-39950000D03*
X71300000Y-37450000D03*
X69050000Y-39950000D03*
X69050000Y-37450000D03*
D16*
X72050000Y-63450000D03*
X69550000Y-63450000D03*
X64550000Y-49700000D03*
X62050000Y-49700000D03*
D18*
X42451020Y-35325000D03*
X40352980Y-35325000D03*
X42451020Y-65170000D03*
X40352980Y-65170000D03*
X44229020Y-69615000D03*
X42130980Y-69615000D03*
X44229020Y-32785000D03*
X42130980Y-32785000D03*
X42451020Y-37230000D03*
X40352980Y-37230000D03*
X42451020Y-67075000D03*
X40352980Y-67075000D03*
D19*
X98632000Y-48387000D03*
X95932000Y-48387000D03*
X52150000Y-35198000D03*
X49450000Y-35198000D03*
X52150000Y-65170000D03*
X49450000Y-65170000D03*
X52150000Y-32785000D03*
X49450000Y-32785000D03*
X52150000Y-37230000D03*
X49450000Y-37230000D03*
X52150000Y-67202000D03*
X49450000Y-67202000D03*
X49450000Y-69615000D03*
X52150000Y-69615000D03*
X74900000Y-67330000D03*
X72200000Y-67330000D03*
X82470000Y-30353000D03*
X85170000Y-30353000D03*
X82470000Y-28321000D03*
X85170000Y-28321000D03*
D20*
X98665000Y-52597000D03*
X98665000Y-55137000D03*
X98665000Y-57677000D03*
D21*
X67564000Y-28335000D03*
X70104000Y-28335000D03*
X72644000Y-28335000D03*
X75184000Y-28335000D03*
X77724000Y-28335000D03*
D22*
X85122000Y-37230000D03*
X89122000Y-37230000D03*
D23*
X70358000Y-52832002D03*
X74422000Y-57023000D03*
X70358000Y-57022996D03*
X78994002Y-45339000D03*
X71120002Y-45339000D03*
X86360000Y-50800000D03*
X86360000Y-42418000D03*
X72262998Y-32512000D03*
X51943000Y-45593000D03*
X50419000Y-49783996D03*
X40259000Y-40132000D03*
X58166000Y-49657000D03*
X52832006Y-55245000D03*
X65277996Y-55245000D03*
X66294000Y-51054000D03*
X92710000Y-50800000D03*
X83566000Y-58928000D03*
X93980000Y-55626000D03*
X64770000Y-67310000D03*
X73660000Y-73406000D03*
X82296000Y-67310000D03*
X78994000Y-34290000D03*
X78740000Y-39624000D03*
X81534000Y-50800000D03*
X58420000Y-34798000D03*
X57403997Y-39624000D03*
X63753996Y-43434000D03*
X74930000Y-35305982D03*
X40386000Y-62484000D03*
X40386000Y-51308000D03*
X63754000Y-38862000D03*
X92583000Y-37211000D03*
X70103994Y-49784000D03*
X72050000Y-61200000D03*
X67550000Y-39950000D03*
X95504000Y-53594000D03*
X79400000Y-50400000D03*
X95884990Y-51689000D03*
X95885000Y-57677000D03*
X80517996Y-54121000D03*
X79600000Y-53400000D03*
X95884994Y-55137000D03*
X78585872Y-52657069D03*
X98679000Y-49911000D03*
X80645000Y-28321000D03*
X78050000Y-54200000D03*
X77343000Y-31496000D03*
X78799994Y-54950000D03*
X79550000Y-55700000D03*
X70104000Y-31115002D03*
X80299996Y-56450000D03*
X56050000Y-32950000D03*
X75050000Y-39700000D03*
X74299994Y-40700000D03*
X56050000Y-35200000D03*
X73550000Y-41700000D03*
X56050000Y-37450000D03*
D24*
X73300000Y-58900000D02*
X73300000Y-66330000D01*
X73300000Y-66330000D02*
X72300000Y-67330000D01*
X72300000Y-67330000D02*
X72200000Y-67330000D01*
X69550000Y-67330000D02*
X69550000Y-70481140D01*
X69550000Y-70481140D02*
X68701140Y-71330000D01*
X72200000Y-67330000D02*
X69550000Y-67330000D01*
X70358000Y-52407738D02*
X70358000Y-52832002D01*
X69100000Y-50200000D02*
X70358000Y-51458000D01*
X70358000Y-51458000D02*
X70358000Y-52407738D01*
X68100000Y-50200000D02*
X69100000Y-50200000D01*
X74422000Y-56598736D02*
X74422000Y-57023000D01*
X78486000Y-53340000D02*
X77680736Y-53340000D01*
X81280000Y-55118000D02*
X80264000Y-55118000D01*
X81534000Y-50800000D02*
X81534000Y-54864000D01*
X72800000Y-57900000D02*
X73677000Y-57023000D01*
X77680736Y-53340000D02*
X74422000Y-56598736D01*
X73997736Y-57023000D02*
X74422000Y-57023000D01*
X72800000Y-58900000D02*
X72800000Y-57900000D01*
X73677000Y-57023000D02*
X73997736Y-57023000D01*
X81534000Y-54864000D02*
X81280000Y-55118000D01*
X80264000Y-55118000D02*
X78486000Y-53340000D01*
X68028732Y-58928000D02*
X69933736Y-57022996D01*
X66294000Y-58928000D02*
X68028732Y-58928000D01*
X65277996Y-57911996D02*
X66294000Y-58928000D01*
X65277996Y-55245000D02*
X65277996Y-57911996D01*
X69933736Y-57022996D02*
X70358000Y-57022996D01*
X79300000Y-43500000D02*
X79300000Y-44652000D01*
X78994000Y-44958000D02*
X78994000Y-45338998D01*
X79300000Y-44652000D02*
X78994000Y-44958000D01*
X78994000Y-45338998D02*
X78994002Y-45339000D01*
X70300000Y-44518998D02*
X70820003Y-45039001D01*
X70300000Y-43500000D02*
X70300000Y-44518998D01*
X70820003Y-45039001D02*
X71120002Y-45339000D01*
X86360000Y-46482000D02*
X86360000Y-50800000D01*
X86360000Y-42418000D02*
X86360000Y-46482000D01*
X69850000Y-50800000D02*
X70358000Y-50800000D01*
X70358000Y-50800000D02*
X71120000Y-51562000D01*
X71120000Y-51562000D02*
X72400892Y-51562000D01*
X72400892Y-51562000D02*
X74940892Y-49022000D01*
X74940892Y-49022000D02*
X75692000Y-49022000D01*
X79734000Y-49000000D02*
X81534000Y-50800000D01*
X75692000Y-49022000D02*
X75714000Y-49000000D01*
X75714000Y-49000000D02*
X79734000Y-49000000D01*
D25*
X75184000Y-28335000D02*
X75184000Y-30099000D01*
X75184000Y-30099000D02*
X72771000Y-32512000D01*
X72687262Y-32512000D02*
X72262998Y-32512000D01*
X72771000Y-32512000D02*
X72687262Y-32512000D01*
D24*
X82296000Y-67310000D02*
X82296000Y-72771000D01*
X82296000Y-72771000D02*
X81661000Y-73406000D01*
X81661000Y-73406000D02*
X73660000Y-73406000D01*
X51943000Y-40259000D02*
X51943000Y-45168736D01*
X51943000Y-45168736D02*
X51943000Y-45593000D01*
X51816000Y-40132000D02*
X51943000Y-40259000D01*
X40259000Y-40132000D02*
X51816000Y-40132000D01*
X62050000Y-49700000D02*
X58209000Y-49700000D01*
X58209000Y-49700000D02*
X58166000Y-49657000D01*
X65277996Y-55245000D02*
X52832006Y-55245000D01*
X66294000Y-51006000D02*
X66294000Y-51054000D01*
X67100000Y-50200000D02*
X66294000Y-51006000D01*
X68100000Y-50200000D02*
X67100000Y-50200000D01*
X92710000Y-54356000D02*
X92710000Y-50800000D01*
X93980000Y-55626000D02*
X92710000Y-54356000D01*
X93980000Y-55626000D02*
X86868000Y-55626000D01*
X86868000Y-55626000D02*
X83566000Y-58928000D01*
X67106000Y-63450000D02*
X67050000Y-63506000D01*
X67050000Y-63506000D02*
X67050000Y-67330000D01*
X69550000Y-63450000D02*
X67106000Y-63450000D01*
X64770000Y-67310000D02*
X67030000Y-67310000D01*
X67030000Y-67310000D02*
X67050000Y-67330000D01*
X82296000Y-67310000D02*
X80070000Y-67310000D01*
X80070000Y-67310000D02*
X80050000Y-67330000D01*
X78994000Y-34290000D02*
X75945982Y-34290000D01*
X75945982Y-34290000D02*
X74930000Y-35305982D01*
X79039999Y-39923999D02*
X78740000Y-39624000D01*
X79300000Y-40184000D02*
X79039999Y-39923999D01*
X79300000Y-43500000D02*
X79300000Y-40184000D01*
X58120001Y-35097999D02*
X58420000Y-34798000D01*
X57403997Y-35814003D02*
X58120001Y-35097999D01*
X57403997Y-39624000D02*
X57403997Y-35814003D01*
X63754000Y-43433996D02*
X63753996Y-43434000D01*
X63754000Y-38862000D02*
X63754000Y-43433996D01*
X74630001Y-35605981D02*
X74930000Y-35305982D01*
X72785982Y-37450000D02*
X74630001Y-35605981D01*
X71300000Y-37450000D02*
X72785982Y-37450000D01*
X40386000Y-51308000D02*
X40386000Y-62484000D01*
X89122000Y-37230000D02*
X92564000Y-37230000D01*
X92564000Y-37230000D02*
X92583000Y-37211000D01*
X70167500Y-37465000D02*
X70167500Y-42100500D01*
X70300000Y-42233000D02*
X70300000Y-43500000D01*
X70167500Y-42100500D02*
X70300000Y-42233000D01*
X73800000Y-58900000D02*
X73800000Y-66330000D01*
X73800000Y-66330000D02*
X74800000Y-67330000D01*
X74800000Y-67330000D02*
X74900000Y-67330000D01*
X77550000Y-67330000D02*
X77550000Y-70481140D01*
X77550000Y-70481140D02*
X78398860Y-71330000D01*
X74900000Y-67330000D02*
X75900000Y-67330000D01*
X75900000Y-67330000D02*
X77550000Y-67330000D01*
X70800000Y-41849000D02*
X71300000Y-41349000D01*
X71300000Y-41349000D02*
X71300000Y-39950000D01*
X70800000Y-43500000D02*
X70800000Y-41849000D01*
X79800000Y-43500000D02*
X79800000Y-44494000D01*
X79800000Y-44494000D02*
X80264000Y-44958000D01*
X80264000Y-44958000D02*
X82042000Y-44958000D01*
D25*
X69596000Y-46741468D02*
X69596000Y-49276006D01*
X69596000Y-49276006D02*
X69803995Y-49484001D01*
X69803995Y-49484001D02*
X70103994Y-49784000D01*
X69596000Y-46741468D02*
X69596000Y-44985998D01*
X80223908Y-46736000D02*
X69601468Y-46736000D01*
X69601468Y-46736000D02*
X69596000Y-46741468D01*
X86306454Y-40653454D02*
X80223908Y-46736000D01*
X69596000Y-44985998D02*
X69050000Y-44439998D01*
X69050000Y-44439998D02*
X69050000Y-43497597D01*
D24*
X72300000Y-58900000D02*
X72300000Y-60950000D01*
X72300000Y-60950000D02*
X72050000Y-61200000D01*
X72050000Y-61200000D02*
X61999599Y-61200000D01*
X53584599Y-69615000D02*
X53400000Y-69615000D01*
X61999599Y-61200000D02*
X53584599Y-69615000D01*
X53400000Y-69615000D02*
X52150000Y-69615000D01*
X72050000Y-61200000D02*
X72050000Y-63450000D01*
D25*
X67550000Y-39950000D02*
X69050000Y-39950000D01*
X69050000Y-43497597D02*
X69050000Y-41200000D01*
D24*
X69800000Y-43500000D02*
X69052403Y-43500000D01*
X69052403Y-43500000D02*
X69050000Y-43497597D01*
X68100000Y-49700000D02*
X64550000Y-49700000D01*
D25*
X69050000Y-41200000D02*
X69050000Y-39950000D01*
X86306454Y-40653454D02*
X85122000Y-39469000D01*
X94361000Y-48708000D02*
X86306454Y-40653454D01*
X95504000Y-53594000D02*
X94361000Y-52451000D01*
X94361000Y-50292000D02*
X94361000Y-48708000D01*
X94361000Y-52451000D02*
X94361000Y-50292000D01*
X85122000Y-39469000D02*
X85122000Y-37230000D01*
X85122000Y-37230000D02*
X85122000Y-30401000D01*
X85122000Y-30401000D02*
X85170000Y-30353000D01*
X85170000Y-28321000D02*
X85170000Y-30353000D01*
X95932000Y-48387000D02*
X94682000Y-48387000D01*
X94682000Y-48387000D02*
X94361000Y-48708000D01*
D24*
X44229020Y-69615000D02*
X45078460Y-69615000D01*
X45078460Y-69615000D02*
X49450000Y-69615000D01*
X77724000Y-28335000D02*
X77724000Y-28835000D01*
X77724000Y-28835000D02*
X72959000Y-33600000D01*
X72959000Y-33600000D02*
X66985410Y-33600000D01*
X66985410Y-33600000D02*
X66421000Y-34164410D01*
X66421000Y-34164410D02*
X66421000Y-45006002D01*
X66421000Y-45006002D02*
X67114998Y-45700000D01*
X67114998Y-45700000D02*
X68100000Y-45700000D01*
X77660000Y-28835000D02*
X77660000Y-28335000D01*
X65970989Y-33978011D02*
X65970989Y-45192402D01*
X65970989Y-45192402D02*
X66978587Y-46200000D01*
X67564000Y-28335000D02*
X67564000Y-32385000D01*
X67564000Y-32385000D02*
X65970989Y-33978011D01*
X66978587Y-46200000D02*
X67100000Y-46200000D01*
X67100000Y-46200000D02*
X68100000Y-46200000D01*
X68100000Y-47200000D02*
X51550000Y-47200000D01*
X48660000Y-42310000D02*
X48260000Y-42310000D01*
X51550000Y-47200000D02*
X50300000Y-45950000D01*
X50300000Y-45950000D02*
X50300000Y-43950000D01*
X50300000Y-43950000D02*
X48660000Y-42310000D01*
X68100000Y-47700000D02*
X51262400Y-47700000D01*
X51262400Y-47700000D02*
X48412400Y-44850000D01*
X48412400Y-44850000D02*
X48260000Y-44850000D01*
X68100000Y-48200000D02*
X49070000Y-48200000D01*
X49070000Y-48200000D02*
X48260000Y-47390000D01*
X68100000Y-52200000D02*
X67054410Y-52200000D01*
X50748409Y-52266009D02*
X48412400Y-49930000D01*
X67054410Y-52200000D02*
X66988401Y-52266009D01*
X48412400Y-49930000D02*
X48260000Y-49930000D01*
X66988401Y-52266009D02*
X50748409Y-52266009D01*
X68100000Y-52700000D02*
X68083980Y-52716020D01*
X49526000Y-52470000D02*
X48260000Y-52470000D01*
X68083980Y-52716020D02*
X49772020Y-52716020D01*
X49772020Y-52716020D02*
X49526000Y-52470000D01*
X68100000Y-53200000D02*
X50222400Y-53200000D01*
X50222400Y-53200000D02*
X48412400Y-55010000D01*
X48412400Y-55010000D02*
X48260000Y-55010000D01*
X78975736Y-50400000D02*
X79400000Y-50400000D01*
X68100000Y-54700000D02*
X72936411Y-54700000D01*
X77236411Y-50400000D02*
X78975736Y-50400000D01*
X72936411Y-54700000D02*
X77236411Y-50400000D01*
X96184989Y-51988999D02*
X95884990Y-51689000D01*
X96792990Y-52597000D02*
X96184989Y-51988999D01*
X98665000Y-52597000D02*
X96792990Y-52597000D01*
X80517996Y-53696736D02*
X80517996Y-54121000D01*
X80517996Y-52681585D02*
X80517996Y-53696736D01*
X77122833Y-51149989D02*
X78986400Y-51149989D01*
X73072822Y-55200000D02*
X77122833Y-51149989D01*
X68100000Y-55200000D02*
X73072822Y-55200000D01*
X78986400Y-51149989D02*
X80517996Y-52681585D01*
X98665000Y-57677000D02*
X95885000Y-57677000D01*
X79600000Y-52975736D02*
X79600000Y-53400000D01*
X79600000Y-52400000D02*
X79600000Y-52975736D01*
X78800000Y-51600000D02*
X79600000Y-52400000D01*
X77309233Y-51600000D02*
X78800000Y-51600000D01*
X73209233Y-55700000D02*
X77309233Y-51600000D01*
X68100000Y-55700000D02*
X73209233Y-55700000D01*
X98665000Y-55137000D02*
X95884994Y-55137000D01*
X68100000Y-56700000D02*
X68075001Y-56675001D01*
X52110000Y-53700000D02*
X48260000Y-57550000D01*
X68075001Y-56675001D02*
X67089999Y-56675001D01*
X67089999Y-56675001D02*
X66800000Y-56385002D01*
X66800000Y-56385002D02*
X66800000Y-54200000D01*
X66800000Y-54200000D02*
X66300000Y-53700000D01*
X66300000Y-53700000D02*
X52110000Y-53700000D01*
X68100000Y-57200000D02*
X68075001Y-57175001D01*
X68075001Y-57175001D02*
X67089999Y-57175001D01*
X67089999Y-57175001D02*
X67040009Y-57125011D01*
X67040009Y-57125011D02*
X66903598Y-57125010D01*
X66903598Y-57125010D02*
X66349990Y-56571402D01*
X50300000Y-58202400D02*
X48412400Y-60090000D01*
X66349990Y-56571402D02*
X66349990Y-54749990D01*
X52300000Y-54200000D02*
X50300000Y-56200000D01*
X66349990Y-54749990D02*
X65800000Y-54200000D01*
X65800000Y-54200000D02*
X52300000Y-54200000D01*
X50300000Y-56200000D02*
X50300000Y-58202400D01*
X48412400Y-60090000D02*
X48260000Y-60090000D01*
X71800000Y-58900000D02*
X71800000Y-57900000D01*
X77042931Y-52657069D02*
X78161608Y-52657069D01*
X71800000Y-57900000D02*
X77042931Y-52657069D01*
X78161608Y-52657069D02*
X78585872Y-52657069D01*
X98632000Y-48387000D02*
X98632000Y-49864000D01*
X98632000Y-49864000D02*
X98679000Y-49911000D01*
X82470000Y-28321000D02*
X80645000Y-28321000D01*
X82470000Y-28340000D02*
X82451032Y-28321032D01*
X78050000Y-54624264D02*
X78050000Y-54200000D01*
X78050000Y-55625004D02*
X78050000Y-54624264D01*
X78300000Y-55875004D02*
X78050000Y-55625004D01*
X78300000Y-58900000D02*
X78300000Y-55875004D01*
X80708000Y-31115000D02*
X77724000Y-31115000D01*
X77724000Y-31115000D02*
X77343000Y-31496000D01*
X82470000Y-30353000D02*
X81470000Y-30353000D01*
X81470000Y-30353000D02*
X80708000Y-31115000D01*
X78800000Y-54950006D02*
X78799994Y-54950000D01*
X78800000Y-58900000D02*
X78800000Y-54950006D01*
X79300000Y-55950000D02*
X79550000Y-55700000D01*
X79300000Y-58900000D02*
X79300000Y-55950000D01*
X70104000Y-28335000D02*
X70104000Y-31115002D01*
X79999997Y-56749999D02*
X80299996Y-56450000D01*
X79800000Y-58900000D02*
X79800000Y-56949996D01*
X79800000Y-56949996D02*
X79999997Y-56749999D01*
X42451020Y-35325000D02*
X49323000Y-35325000D01*
X49323000Y-35325000D02*
X49450000Y-35198000D01*
X42451020Y-65170000D02*
X49450000Y-65170000D01*
X44229020Y-32785000D02*
X45078460Y-32785000D01*
X45078460Y-32785000D02*
X49450000Y-32785000D01*
X42451020Y-37230000D02*
X49450000Y-37230000D01*
X42451020Y-67075000D02*
X49323000Y-67075000D01*
X49323000Y-67075000D02*
X49450000Y-67202000D01*
X56580000Y-65170000D02*
X53150000Y-65170000D01*
X61575020Y-60174981D02*
X56580000Y-65170000D01*
X53150000Y-65170000D02*
X52150000Y-65170000D01*
X70438610Y-60174980D02*
X61575020Y-60174981D01*
X70800000Y-59813590D02*
X70438610Y-60174980D01*
X70800000Y-58900000D02*
X70800000Y-59813590D01*
X70800000Y-58900000D02*
X70800000Y-59500000D01*
X53150000Y-67202000D02*
X52150000Y-67202000D01*
X61761421Y-60624990D02*
X55184410Y-67202000D01*
X55184410Y-67202000D02*
X53150000Y-67202000D01*
X70625011Y-60624989D02*
X61761421Y-60624990D01*
X71300000Y-59950000D02*
X70625011Y-60624989D01*
X71300000Y-58900000D02*
X71300000Y-59950000D01*
X56050000Y-32950000D02*
X52315000Y-32950000D01*
X52315000Y-32950000D02*
X52150000Y-32785000D01*
X75050000Y-40124264D02*
X75050000Y-39700000D01*
X75050000Y-41125004D02*
X75050000Y-40124264D01*
X74800000Y-41375004D02*
X75050000Y-41125004D01*
X74800000Y-43500000D02*
X74800000Y-41375004D01*
X74300000Y-43500000D02*
X74300000Y-40700006D01*
X74300000Y-40700006D02*
X74299994Y-40700000D01*
X56050000Y-35200000D02*
X52152000Y-35200000D01*
X52152000Y-35200000D02*
X52150000Y-35198000D01*
X73800000Y-43500000D02*
X73800000Y-41950000D01*
X73800000Y-41950000D02*
X73550000Y-41700000D01*
X56050000Y-37450000D02*
X52370000Y-37450000D01*
X52370000Y-37450000D02*
X52150000Y-37230000D01*
D26*
G36*
X93476000Y-49074579D02*
X93476000Y-52450995D01*
X93475999Y-52451000D01*
X93510444Y-52624162D01*
X93543367Y-52789675D01*
X93712959Y-53043489D01*
X93735210Y-53076790D01*
X94661255Y-54002834D01*
X94710883Y-54122943D01*
X94973673Y-54386192D01*
X95213789Y-54485897D01*
X95092802Y-54606673D01*
X94950156Y-54950201D01*
X94949832Y-55322167D01*
X95091877Y-55665943D01*
X95354667Y-55929192D01*
X95698195Y-56071838D01*
X96070161Y-56072162D01*
X96413937Y-55930117D01*
X96447112Y-55897000D01*
X96517560Y-55897000D01*
X96517560Y-56137000D01*
X96561838Y-56372317D01*
X96582598Y-56404578D01*
X96568569Y-56425110D01*
X96517560Y-56677000D01*
X96517560Y-56917000D01*
X96447463Y-56917000D01*
X96415327Y-56884808D01*
X96071799Y-56742162D01*
X95699833Y-56741838D01*
X95356057Y-56883883D01*
X95092808Y-57146673D01*
X94950162Y-57490201D01*
X94949838Y-57862167D01*
X95091883Y-58205943D01*
X95354673Y-58469192D01*
X95698201Y-58611838D01*
X96070167Y-58612162D01*
X96413943Y-58470117D01*
X96447118Y-58437000D01*
X96517560Y-58437000D01*
X96517560Y-58677000D01*
X96561838Y-58912317D01*
X96700910Y-59128441D01*
X96913110Y-59273431D01*
X97165000Y-59324440D01*
X100090000Y-59324440D01*
X100090000Y-71310394D01*
X99889803Y-71110197D01*
X99849410Y-71083006D01*
X99800000Y-71073000D01*
X97800000Y-71073000D01*
X97752211Y-71082334D01*
X97710197Y-71110197D01*
X95710197Y-73110197D01*
X95683006Y-73150590D01*
X95673000Y-73200000D01*
X95673000Y-75200000D01*
X95682334Y-75247789D01*
X95710197Y-75289803D01*
X95910394Y-75490000D01*
X55689606Y-75490000D01*
X55889803Y-75289803D01*
X55916994Y-75249410D01*
X55927000Y-75200000D01*
X55927000Y-73200000D01*
X55917666Y-73152211D01*
X55889803Y-73110197D01*
X53889803Y-71110197D01*
X53849410Y-71083006D01*
X53800000Y-71073000D01*
X51800000Y-71073000D01*
X51752211Y-71082334D01*
X51710197Y-71110197D01*
X51510000Y-71310394D01*
X51510000Y-71200000D01*
X51455954Y-70928295D01*
X51445360Y-70912440D01*
X52900000Y-70912440D01*
X53135317Y-70868162D01*
X53351441Y-70729090D01*
X53496431Y-70516890D01*
X53525164Y-70375000D01*
X53584599Y-70375000D01*
X53875438Y-70317148D01*
X54122000Y-70152401D01*
X56658651Y-67615750D01*
X65665000Y-67615750D01*
X65665000Y-68081310D01*
X65761673Y-68314699D01*
X65940302Y-68493327D01*
X66173691Y-68590000D01*
X66764250Y-68590000D01*
X66923000Y-68431250D01*
X66923000Y-67457000D01*
X65823750Y-67457000D01*
X65665000Y-67615750D01*
X56658651Y-67615750D01*
X57695711Y-66578690D01*
X65665000Y-66578690D01*
X65665000Y-67044250D01*
X65823750Y-67203000D01*
X66923000Y-67203000D01*
X66923000Y-66228750D01*
X66764250Y-66070000D01*
X66173691Y-66070000D01*
X65940302Y-66166673D01*
X65761673Y-66345301D01*
X65665000Y-66578690D01*
X57695711Y-66578690D01*
X60538651Y-63735750D01*
X68165000Y-63735750D01*
X68165000Y-64201310D01*
X68261673Y-64434699D01*
X68440302Y-64613327D01*
X68673691Y-64710000D01*
X69264250Y-64710000D01*
X69423000Y-64551250D01*
X69423000Y-63577000D01*
X68323750Y-63577000D01*
X68165000Y-63735750D01*
X60538651Y-63735750D01*
X61575711Y-62698690D01*
X68165000Y-62698690D01*
X68165000Y-63164250D01*
X68323750Y-63323000D01*
X69423000Y-63323000D01*
X69423000Y-62348750D01*
X69264250Y-62190000D01*
X68673691Y-62190000D01*
X68440302Y-62286673D01*
X68261673Y-62465301D01*
X68165000Y-62698690D01*
X61575711Y-62698690D01*
X62314401Y-61960000D01*
X71290000Y-61960000D01*
X71290000Y-62179442D01*
X71064683Y-62221838D01*
X70848559Y-62360910D01*
X70802031Y-62429006D01*
X70659698Y-62286673D01*
X70426309Y-62190000D01*
X69835750Y-62190000D01*
X69677000Y-62348750D01*
X69677000Y-63323000D01*
X69697000Y-63323000D01*
X69697000Y-63577000D01*
X69677000Y-63577000D01*
X69677000Y-64551250D01*
X69835750Y-64710000D01*
X70426309Y-64710000D01*
X70659698Y-64613327D01*
X70800936Y-64472090D01*
X70835910Y-64526441D01*
X71048110Y-64671431D01*
X71300000Y-64722440D01*
X72540000Y-64722440D01*
X72540000Y-66015198D01*
X72522638Y-66032560D01*
X71450000Y-66032560D01*
X71214683Y-66076838D01*
X70998559Y-66215910D01*
X70865332Y-66410894D01*
X70764090Y-66253559D01*
X70551890Y-66108569D01*
X70300000Y-66057560D01*
X68800000Y-66057560D01*
X68564683Y-66101838D01*
X68348559Y-66240910D01*
X68302031Y-66309006D01*
X68159698Y-66166673D01*
X67926309Y-66070000D01*
X67335750Y-66070000D01*
X67177000Y-66228750D01*
X67177000Y-67203000D01*
X67197000Y-67203000D01*
X67197000Y-67457000D01*
X67177000Y-67457000D01*
X67177000Y-68431250D01*
X67335750Y-68590000D01*
X67926309Y-68590000D01*
X68159698Y-68493327D01*
X68300936Y-68352090D01*
X68335910Y-68406441D01*
X68548110Y-68551431D01*
X68790000Y-68600415D01*
X68790000Y-69632270D01*
X65900790Y-69632270D01*
X65665473Y-69676548D01*
X65449349Y-69815620D01*
X65304359Y-70027820D01*
X65253350Y-70279710D01*
X65253350Y-72380290D01*
X65297628Y-72615607D01*
X65436700Y-72831731D01*
X65648900Y-72976721D01*
X65900790Y-73027730D01*
X71501490Y-73027730D01*
X71736807Y-72983452D01*
X71952931Y-72844380D01*
X72097921Y-72632180D01*
X72148930Y-72380290D01*
X72148930Y-70279710D01*
X72104652Y-70044393D01*
X71965580Y-69828269D01*
X71753380Y-69683279D01*
X71501490Y-69632270D01*
X70310000Y-69632270D01*
X70310000Y-68600558D01*
X70535317Y-68558162D01*
X70751441Y-68419090D01*
X70868098Y-68248356D01*
X70985910Y-68431441D01*
X71198110Y-68576431D01*
X71450000Y-68627440D01*
X72950000Y-68627440D01*
X73185317Y-68583162D01*
X73401441Y-68444090D01*
X73546431Y-68231890D01*
X73549081Y-68218803D01*
X73685910Y-68431441D01*
X73898110Y-68576431D01*
X74150000Y-68627440D01*
X75650000Y-68627440D01*
X75885317Y-68583162D01*
X76101441Y-68444090D01*
X76234668Y-68249106D01*
X76335910Y-68406441D01*
X76548110Y-68551431D01*
X76790000Y-68600415D01*
X76790000Y-69632270D01*
X75598510Y-69632270D01*
X75363193Y-69676548D01*
X75147069Y-69815620D01*
X75002079Y-70027820D01*
X74951070Y-70279710D01*
X74951070Y-72380290D01*
X74995348Y-72615607D01*
X75134420Y-72831731D01*
X75346620Y-72976721D01*
X75598510Y-73027730D01*
X81199210Y-73027730D01*
X81434527Y-72983452D01*
X81650651Y-72844380D01*
X81795641Y-72632180D01*
X81846650Y-72380290D01*
X81846650Y-70279710D01*
X81802372Y-70044393D01*
X81663300Y-69828269D01*
X81451100Y-69683279D01*
X81199210Y-69632270D01*
X78310000Y-69632270D01*
X78310000Y-68600558D01*
X78535317Y-68558162D01*
X78751441Y-68419090D01*
X78797969Y-68350994D01*
X78940302Y-68493327D01*
X79173691Y-68590000D01*
X79764250Y-68590000D01*
X79923000Y-68431250D01*
X79923000Y-67457000D01*
X80177000Y-67457000D01*
X80177000Y-68431250D01*
X80335750Y-68590000D01*
X80926309Y-68590000D01*
X81159698Y-68493327D01*
X81338327Y-68314699D01*
X81435000Y-68081310D01*
X81435000Y-67615750D01*
X81276250Y-67457000D01*
X80177000Y-67457000D01*
X79923000Y-67457000D01*
X79903000Y-67457000D01*
X79903000Y-67203000D01*
X79923000Y-67203000D01*
X79923000Y-66228750D01*
X80177000Y-66228750D01*
X80177000Y-67203000D01*
X81276250Y-67203000D01*
X81435000Y-67044250D01*
X81435000Y-66578690D01*
X81338327Y-66345301D01*
X81159698Y-66166673D01*
X80926309Y-66070000D01*
X80335750Y-66070000D01*
X80177000Y-66228750D01*
X79923000Y-66228750D01*
X79764250Y-66070000D01*
X79173691Y-66070000D01*
X78940302Y-66166673D01*
X78799064Y-66307910D01*
X78764090Y-66253559D01*
X78551890Y-66108569D01*
X78300000Y-66057560D01*
X76800000Y-66057560D01*
X76564683Y-66101838D01*
X76348559Y-66240910D01*
X76231902Y-66411644D01*
X76114090Y-66228559D01*
X75901890Y-66083569D01*
X75650000Y-66032560D01*
X74577362Y-66032560D01*
X74560000Y-66015198D01*
X74560000Y-60279215D01*
X74650000Y-60297440D01*
X74950000Y-60297440D01*
X75053671Y-60277933D01*
X75150000Y-60297440D01*
X75450000Y-60297440D01*
X75553671Y-60277933D01*
X75650000Y-60297440D01*
X75950000Y-60297440D01*
X76053671Y-60277933D01*
X76150000Y-60297440D01*
X76450000Y-60297440D01*
X76553671Y-60277933D01*
X76650000Y-60297440D01*
X76950000Y-60297440D01*
X77053671Y-60277933D01*
X77150000Y-60297440D01*
X77450000Y-60297440D01*
X77553671Y-60277933D01*
X77650000Y-60297440D01*
X77950000Y-60297440D01*
X78053671Y-60277933D01*
X78150000Y-60297440D01*
X78450000Y-60297440D01*
X78553671Y-60277933D01*
X78650000Y-60297440D01*
X78950000Y-60297440D01*
X79053671Y-60277933D01*
X79150000Y-60297440D01*
X79450000Y-60297440D01*
X79553671Y-60277933D01*
X79650000Y-60297440D01*
X79950000Y-60297440D01*
X80053671Y-60277933D01*
X80150000Y-60297440D01*
X80450000Y-60297440D01*
X80553671Y-60277933D01*
X80650000Y-60297440D01*
X80950000Y-60297440D01*
X81053671Y-60277933D01*
X81150000Y-60297440D01*
X81450000Y-60297440D01*
X81553671Y-60277933D01*
X81650000Y-60297440D01*
X81950000Y-60297440D01*
X82185317Y-60253162D01*
X82401441Y-60114090D01*
X82546431Y-59901890D01*
X82597440Y-59650000D01*
X82597440Y-58150000D01*
X82561553Y-57959279D01*
X82750000Y-57997440D01*
X84250000Y-57997440D01*
X84485317Y-57953162D01*
X84701441Y-57814090D01*
X84846431Y-57601890D01*
X84897440Y-57350000D01*
X84897440Y-57050000D01*
X84877933Y-56946329D01*
X84897440Y-56850000D01*
X84897440Y-56550000D01*
X84877933Y-56446329D01*
X84897440Y-56350000D01*
X84897440Y-56050000D01*
X84877933Y-55946329D01*
X84897440Y-55850000D01*
X84897440Y-55550000D01*
X84877933Y-55446329D01*
X84897440Y-55350000D01*
X84897440Y-55050000D01*
X84877933Y-54946329D01*
X84897440Y-54850000D01*
X84897440Y-54550000D01*
X84877933Y-54446329D01*
X84897440Y-54350000D01*
X84897440Y-54050000D01*
X84877933Y-53946329D01*
X84897440Y-53850000D01*
X84897440Y-53550000D01*
X84877933Y-53446329D01*
X84897440Y-53350000D01*
X84897440Y-53050000D01*
X84877933Y-52946329D01*
X84897440Y-52850000D01*
X84897440Y-52550000D01*
X84877933Y-52446329D01*
X84897440Y-52350000D01*
X84897440Y-52050000D01*
X84877933Y-51946329D01*
X84897440Y-51850000D01*
X84897440Y-51550000D01*
X84877933Y-51446329D01*
X84897440Y-51350000D01*
X84897440Y-51050000D01*
X84877933Y-50946329D01*
X84897440Y-50850000D01*
X84897440Y-50550000D01*
X84877933Y-50446329D01*
X84897440Y-50350000D01*
X84897440Y-50050000D01*
X84877933Y-49946329D01*
X84897440Y-49850000D01*
X84897440Y-49550000D01*
X84877933Y-49446329D01*
X84897440Y-49350000D01*
X84897440Y-49050000D01*
X84877933Y-48946329D01*
X84897440Y-48850000D01*
X84897440Y-48550000D01*
X84877933Y-48446329D01*
X84897440Y-48350000D01*
X84897440Y-48050000D01*
X84877933Y-47946329D01*
X84897440Y-47850000D01*
X84897440Y-47550000D01*
X84877933Y-47446329D01*
X84897440Y-47350000D01*
X84897440Y-47050000D01*
X84877933Y-46946329D01*
X84897440Y-46850000D01*
X84897440Y-46550000D01*
X84877933Y-46446329D01*
X84897440Y-46350000D01*
X84897440Y-46050000D01*
X84877933Y-45946329D01*
X84897440Y-45850000D01*
X84897440Y-45550000D01*
X84877933Y-45446329D01*
X84897440Y-45350000D01*
X84897440Y-45050000D01*
X84853162Y-44814683D01*
X84714090Y-44598559D01*
X84501890Y-44453569D01*
X84250000Y-44402560D01*
X83808928Y-44402560D01*
X86306454Y-41905034D01*
X93476000Y-49074579D01*
X93476000Y-49074579D01*
G37*
X93476000Y-49074579D02*
X93476000Y-52450995D01*
X93475999Y-52451000D01*
X93510444Y-52624162D01*
X93543367Y-52789675D01*
X93712959Y-53043489D01*
X93735210Y-53076790D01*
X94661255Y-54002834D01*
X94710883Y-54122943D01*
X94973673Y-54386192D01*
X95213789Y-54485897D01*
X95092802Y-54606673D01*
X94950156Y-54950201D01*
X94949832Y-55322167D01*
X95091877Y-55665943D01*
X95354667Y-55929192D01*
X95698195Y-56071838D01*
X96070161Y-56072162D01*
X96413937Y-55930117D01*
X96447112Y-55897000D01*
X96517560Y-55897000D01*
X96517560Y-56137000D01*
X96561838Y-56372317D01*
X96582598Y-56404578D01*
X96568569Y-56425110D01*
X96517560Y-56677000D01*
X96517560Y-56917000D01*
X96447463Y-56917000D01*
X96415327Y-56884808D01*
X96071799Y-56742162D01*
X95699833Y-56741838D01*
X95356057Y-56883883D01*
X95092808Y-57146673D01*
X94950162Y-57490201D01*
X94949838Y-57862167D01*
X95091883Y-58205943D01*
X95354673Y-58469192D01*
X95698201Y-58611838D01*
X96070167Y-58612162D01*
X96413943Y-58470117D01*
X96447118Y-58437000D01*
X96517560Y-58437000D01*
X96517560Y-58677000D01*
X96561838Y-58912317D01*
X96700910Y-59128441D01*
X96913110Y-59273431D01*
X97165000Y-59324440D01*
X100090000Y-59324440D01*
X100090000Y-71310394D01*
X99889803Y-71110197D01*
X99849410Y-71083006D01*
X99800000Y-71073000D01*
X97800000Y-71073000D01*
X97752211Y-71082334D01*
X97710197Y-71110197D01*
X95710197Y-73110197D01*
X95683006Y-73150590D01*
X95673000Y-73200000D01*
X95673000Y-75200000D01*
X95682334Y-75247789D01*
X95710197Y-75289803D01*
X95910394Y-75490000D01*
X55689606Y-75490000D01*
X55889803Y-75289803D01*
X55916994Y-75249410D01*
X55927000Y-75200000D01*
X55927000Y-73200000D01*
X55917666Y-73152211D01*
X55889803Y-73110197D01*
X53889803Y-71110197D01*
X53849410Y-71083006D01*
X53800000Y-71073000D01*
X51800000Y-71073000D01*
X51752211Y-71082334D01*
X51710197Y-71110197D01*
X51510000Y-71310394D01*
X51510000Y-71200000D01*
X51455954Y-70928295D01*
X51445360Y-70912440D01*
X52900000Y-70912440D01*
X53135317Y-70868162D01*
X53351441Y-70729090D01*
X53496431Y-70516890D01*
X53525164Y-70375000D01*
X53584599Y-70375000D01*
X53875438Y-70317148D01*
X54122000Y-70152401D01*
X56658651Y-67615750D01*
X65665000Y-67615750D01*
X65665000Y-68081310D01*
X65761673Y-68314699D01*
X65940302Y-68493327D01*
X66173691Y-68590000D01*
X66764250Y-68590000D01*
X66923000Y-68431250D01*
X66923000Y-67457000D01*
X65823750Y-67457000D01*
X65665000Y-67615750D01*
X56658651Y-67615750D01*
X57695711Y-66578690D01*
X65665000Y-66578690D01*
X65665000Y-67044250D01*
X65823750Y-67203000D01*
X66923000Y-67203000D01*
X66923000Y-66228750D01*
X66764250Y-66070000D01*
X66173691Y-66070000D01*
X65940302Y-66166673D01*
X65761673Y-66345301D01*
X65665000Y-66578690D01*
X57695711Y-66578690D01*
X60538651Y-63735750D01*
X68165000Y-63735750D01*
X68165000Y-64201310D01*
X68261673Y-64434699D01*
X68440302Y-64613327D01*
X68673691Y-64710000D01*
X69264250Y-64710000D01*
X69423000Y-64551250D01*
X69423000Y-63577000D01*
X68323750Y-63577000D01*
X68165000Y-63735750D01*
X60538651Y-63735750D01*
X61575711Y-62698690D01*
X68165000Y-62698690D01*
X68165000Y-63164250D01*
X68323750Y-63323000D01*
X69423000Y-63323000D01*
X69423000Y-62348750D01*
X69264250Y-62190000D01*
X68673691Y-62190000D01*
X68440302Y-62286673D01*
X68261673Y-62465301D01*
X68165000Y-62698690D01*
X61575711Y-62698690D01*
X62314401Y-61960000D01*
X71290000Y-61960000D01*
X71290000Y-62179442D01*
X71064683Y-62221838D01*
X70848559Y-62360910D01*
X70802031Y-62429006D01*
X70659698Y-62286673D01*
X70426309Y-62190000D01*
X69835750Y-62190000D01*
X69677000Y-62348750D01*
X69677000Y-63323000D01*
X69697000Y-63323000D01*
X69697000Y-63577000D01*
X69677000Y-63577000D01*
X69677000Y-64551250D01*
X69835750Y-64710000D01*
X70426309Y-64710000D01*
X70659698Y-64613327D01*
X70800936Y-64472090D01*
X70835910Y-64526441D01*
X71048110Y-64671431D01*
X71300000Y-64722440D01*
X72540000Y-64722440D01*
X72540000Y-66015198D01*
X72522638Y-66032560D01*
X71450000Y-66032560D01*
X71214683Y-66076838D01*
X70998559Y-66215910D01*
X70865332Y-66410894D01*
X70764090Y-66253559D01*
X70551890Y-66108569D01*
X70300000Y-66057560D01*
X68800000Y-66057560D01*
X68564683Y-66101838D01*
X68348559Y-66240910D01*
X68302031Y-66309006D01*
X68159698Y-66166673D01*
X67926309Y-66070000D01*
X67335750Y-66070000D01*
X67177000Y-66228750D01*
X67177000Y-67203000D01*
X67197000Y-67203000D01*
X67197000Y-67457000D01*
X67177000Y-67457000D01*
X67177000Y-68431250D01*
X67335750Y-68590000D01*
X67926309Y-68590000D01*
X68159698Y-68493327D01*
X68300936Y-68352090D01*
X68335910Y-68406441D01*
X68548110Y-68551431D01*
X68790000Y-68600415D01*
X68790000Y-69632270D01*
X65900790Y-69632270D01*
X65665473Y-69676548D01*
X65449349Y-69815620D01*
X65304359Y-70027820D01*
X65253350Y-70279710D01*
X65253350Y-72380290D01*
X65297628Y-72615607D01*
X65436700Y-72831731D01*
X65648900Y-72976721D01*
X65900790Y-73027730D01*
X71501490Y-73027730D01*
X71736807Y-72983452D01*
X71952931Y-72844380D01*
X72097921Y-72632180D01*
X72148930Y-72380290D01*
X72148930Y-70279710D01*
X72104652Y-70044393D01*
X71965580Y-69828269D01*
X71753380Y-69683279D01*
X71501490Y-69632270D01*
X70310000Y-69632270D01*
X70310000Y-68600558D01*
X70535317Y-68558162D01*
X70751441Y-68419090D01*
X70868098Y-68248356D01*
X70985910Y-68431441D01*
X71198110Y-68576431D01*
X71450000Y-68627440D01*
X72950000Y-68627440D01*
X73185317Y-68583162D01*
X73401441Y-68444090D01*
X73546431Y-68231890D01*
X73549081Y-68218803D01*
X73685910Y-68431441D01*
X73898110Y-68576431D01*
X74150000Y-68627440D01*
X75650000Y-68627440D01*
X75885317Y-68583162D01*
X76101441Y-68444090D01*
X76234668Y-68249106D01*
X76335910Y-68406441D01*
X76548110Y-68551431D01*
X76790000Y-68600415D01*
X76790000Y-69632270D01*
X75598510Y-69632270D01*
X75363193Y-69676548D01*
X75147069Y-69815620D01*
X75002079Y-70027820D01*
X74951070Y-70279710D01*
X74951070Y-72380290D01*
X74995348Y-72615607D01*
X75134420Y-72831731D01*
X75346620Y-72976721D01*
X75598510Y-73027730D01*
X81199210Y-73027730D01*
X81434527Y-72983452D01*
X81650651Y-72844380D01*
X81795641Y-72632180D01*
X81846650Y-72380290D01*
X81846650Y-70279710D01*
X81802372Y-70044393D01*
X81663300Y-69828269D01*
X81451100Y-69683279D01*
X81199210Y-69632270D01*
X78310000Y-69632270D01*
X78310000Y-68600558D01*
X78535317Y-68558162D01*
X78751441Y-68419090D01*
X78797969Y-68350994D01*
X78940302Y-68493327D01*
X79173691Y-68590000D01*
X79764250Y-68590000D01*
X79923000Y-68431250D01*
X79923000Y-67457000D01*
X80177000Y-67457000D01*
X80177000Y-68431250D01*
X80335750Y-68590000D01*
X80926309Y-68590000D01*
X81159698Y-68493327D01*
X81338327Y-68314699D01*
X81435000Y-68081310D01*
X81435000Y-67615750D01*
X81276250Y-67457000D01*
X80177000Y-67457000D01*
X79923000Y-67457000D01*
X79903000Y-67457000D01*
X79903000Y-67203000D01*
X79923000Y-67203000D01*
X79923000Y-66228750D01*
X80177000Y-66228750D01*
X80177000Y-67203000D01*
X81276250Y-67203000D01*
X81435000Y-67044250D01*
X81435000Y-66578690D01*
X81338327Y-66345301D01*
X81159698Y-66166673D01*
X80926309Y-66070000D01*
X80335750Y-66070000D01*
X80177000Y-66228750D01*
X79923000Y-66228750D01*
X79764250Y-66070000D01*
X79173691Y-66070000D01*
X78940302Y-66166673D01*
X78799064Y-66307910D01*
X78764090Y-66253559D01*
X78551890Y-66108569D01*
X78300000Y-66057560D01*
X76800000Y-66057560D01*
X76564683Y-66101838D01*
X76348559Y-66240910D01*
X76231902Y-66411644D01*
X76114090Y-66228559D01*
X75901890Y-66083569D01*
X75650000Y-66032560D01*
X74577362Y-66032560D01*
X74560000Y-66015198D01*
X74560000Y-60279215D01*
X74650000Y-60297440D01*
X74950000Y-60297440D01*
X75053671Y-60277933D01*
X75150000Y-60297440D01*
X75450000Y-60297440D01*
X75553671Y-60277933D01*
X75650000Y-60297440D01*
X75950000Y-60297440D01*
X76053671Y-60277933D01*
X76150000Y-60297440D01*
X76450000Y-60297440D01*
X76553671Y-60277933D01*
X76650000Y-60297440D01*
X76950000Y-60297440D01*
X77053671Y-60277933D01*
X77150000Y-60297440D01*
X77450000Y-60297440D01*
X77553671Y-60277933D01*
X77650000Y-60297440D01*
X77950000Y-60297440D01*
X78053671Y-60277933D01*
X78150000Y-60297440D01*
X78450000Y-60297440D01*
X78553671Y-60277933D01*
X78650000Y-60297440D01*
X78950000Y-60297440D01*
X79053671Y-60277933D01*
X79150000Y-60297440D01*
X79450000Y-60297440D01*
X79553671Y-60277933D01*
X79650000Y-60297440D01*
X79950000Y-60297440D01*
X80053671Y-60277933D01*
X80150000Y-60297440D01*
X80450000Y-60297440D01*
X80553671Y-60277933D01*
X80650000Y-60297440D01*
X80950000Y-60297440D01*
X81053671Y-60277933D01*
X81150000Y-60297440D01*
X81450000Y-60297440D01*
X81553671Y-60277933D01*
X81650000Y-60297440D01*
X81950000Y-60297440D01*
X82185317Y-60253162D01*
X82401441Y-60114090D01*
X82546431Y-59901890D01*
X82597440Y-59650000D01*
X82597440Y-58150000D01*
X82561553Y-57959279D01*
X82750000Y-57997440D01*
X84250000Y-57997440D01*
X84485317Y-57953162D01*
X84701441Y-57814090D01*
X84846431Y-57601890D01*
X84897440Y-57350000D01*
X84897440Y-57050000D01*
X84877933Y-56946329D01*
X84897440Y-56850000D01*
X84897440Y-56550000D01*
X84877933Y-56446329D01*
X84897440Y-56350000D01*
X84897440Y-56050000D01*
X84877933Y-55946329D01*
X84897440Y-55850000D01*
X84897440Y-55550000D01*
X84877933Y-55446329D01*
X84897440Y-55350000D01*
X84897440Y-55050000D01*
X84877933Y-54946329D01*
X84897440Y-54850000D01*
X84897440Y-54550000D01*
X84877933Y-54446329D01*
X84897440Y-54350000D01*
X84897440Y-54050000D01*
X84877933Y-53946329D01*
X84897440Y-53850000D01*
X84897440Y-53550000D01*
X84877933Y-53446329D01*
X84897440Y-53350000D01*
X84897440Y-53050000D01*
X84877933Y-52946329D01*
X84897440Y-52850000D01*
X84897440Y-52550000D01*
X84877933Y-52446329D01*
X84897440Y-52350000D01*
X84897440Y-52050000D01*
X84877933Y-51946329D01*
X84897440Y-51850000D01*
X84897440Y-51550000D01*
X84877933Y-51446329D01*
X84897440Y-51350000D01*
X84897440Y-51050000D01*
X84877933Y-50946329D01*
X84897440Y-50850000D01*
X84897440Y-50550000D01*
X84877933Y-50446329D01*
X84897440Y-50350000D01*
X84897440Y-50050000D01*
X84877933Y-49946329D01*
X84897440Y-49850000D01*
X84897440Y-49550000D01*
X84877933Y-49446329D01*
X84897440Y-49350000D01*
X84897440Y-49050000D01*
X84877933Y-48946329D01*
X84897440Y-48850000D01*
X84897440Y-48550000D01*
X84877933Y-48446329D01*
X84897440Y-48350000D01*
X84897440Y-48050000D01*
X84877933Y-47946329D01*
X84897440Y-47850000D01*
X84897440Y-47550000D01*
X84877933Y-47446329D01*
X84897440Y-47350000D01*
X84897440Y-47050000D01*
X84877933Y-46946329D01*
X84897440Y-46850000D01*
X84897440Y-46550000D01*
X84877933Y-46446329D01*
X84897440Y-46350000D01*
X84897440Y-46050000D01*
X84877933Y-45946329D01*
X84897440Y-45850000D01*
X84897440Y-45550000D01*
X84877933Y-45446329D01*
X84897440Y-45350000D01*
X84897440Y-45050000D01*
X84853162Y-44814683D01*
X84714090Y-44598559D01*
X84501890Y-44453569D01*
X84250000Y-44402560D01*
X83808928Y-44402560D01*
X86306454Y-41905034D01*
X93476000Y-49074579D01*
G36*
X65916560Y-29835000D02*
X65960838Y-30070317D01*
X66099910Y-30286441D01*
X66312110Y-30431431D01*
X66564000Y-30482440D01*
X66804000Y-30482440D01*
X66804000Y-32070198D01*
X65433588Y-33440610D01*
X65268841Y-33687172D01*
X65210989Y-33978011D01*
X65210989Y-45192402D01*
X65268841Y-45483241D01*
X65433588Y-45729803D01*
X66143785Y-46440000D01*
X51864802Y-46440000D01*
X51060000Y-45635198D01*
X51060000Y-43950000D01*
X51002148Y-43659161D01*
X51002148Y-43659160D01*
X50837401Y-43412599D01*
X49908746Y-42483944D01*
X49943345Y-42310000D01*
X49829271Y-41736511D01*
X49504415Y-41250330D01*
X49018234Y-40925474D01*
X48444745Y-40811400D01*
X48075255Y-40811400D01*
X47501766Y-40925474D01*
X47015585Y-41250330D01*
X46990000Y-41288621D01*
X46964415Y-41250330D01*
X46478234Y-40925474D01*
X45904745Y-40811400D01*
X45535255Y-40811400D01*
X44961766Y-40925474D01*
X44475585Y-41250330D01*
X44430246Y-41318184D01*
X44094320Y-41018046D01*
X43541913Y-40824816D01*
X43307000Y-40969076D01*
X43307000Y-42183000D01*
X43327000Y-42183000D01*
X43327000Y-42437000D01*
X43307000Y-42437000D01*
X43307000Y-44723000D01*
X43327000Y-44723000D01*
X43327000Y-44977000D01*
X43307000Y-44977000D01*
X43307000Y-47263000D01*
X43327000Y-47263000D01*
X43327000Y-47517000D01*
X43307000Y-47517000D01*
X43307000Y-49803000D01*
X43327000Y-49803000D01*
X43327000Y-50057000D01*
X43307000Y-50057000D01*
X43307000Y-52343000D01*
X43327000Y-52343000D01*
X43327000Y-52597000D01*
X43307000Y-52597000D01*
X43307000Y-54883000D01*
X43327000Y-54883000D01*
X43327000Y-55137000D01*
X43307000Y-55137000D01*
X43307000Y-57423000D01*
X43327000Y-57423000D01*
X43327000Y-57677000D01*
X43307000Y-57677000D01*
X43307000Y-59963000D01*
X43327000Y-59963000D01*
X43327000Y-60217000D01*
X43307000Y-60217000D01*
X43307000Y-61430924D01*
X43541913Y-61575184D01*
X44094320Y-61381954D01*
X44430246Y-61081816D01*
X44475585Y-61149670D01*
X44961766Y-61474526D01*
X45535255Y-61588600D01*
X45904745Y-61588600D01*
X46478234Y-61474526D01*
X46964415Y-61149670D01*
X46990000Y-61111379D01*
X47015585Y-61149670D01*
X47501766Y-61474526D01*
X48075255Y-61588600D01*
X48444745Y-61588600D01*
X49018234Y-61474526D01*
X49504415Y-61149670D01*
X49829271Y-60663489D01*
X49943345Y-60090000D01*
X49867666Y-59709536D01*
X50837401Y-58739801D01*
X51002148Y-58493239D01*
X51060000Y-58202400D01*
X51060000Y-56514802D01*
X52614802Y-54960000D01*
X65485198Y-54960000D01*
X65589990Y-55064792D01*
X65589990Y-56571402D01*
X65647842Y-56862241D01*
X65812589Y-57108803D01*
X66366197Y-57662411D01*
X66478428Y-57737401D01*
X66612754Y-57827156D01*
X66612757Y-57827157D01*
X66612759Y-57827158D01*
X66745736Y-57853609D01*
X66771642Y-57858762D01*
X66799160Y-57877149D01*
X67077843Y-57932583D01*
X67098110Y-57946431D01*
X67350000Y-57997440D01*
X68850000Y-57997440D01*
X69040721Y-57961553D01*
X69002560Y-58150000D01*
X69002560Y-59414980D01*
X61575020Y-59414981D01*
X61284180Y-59472833D01*
X61037619Y-59637580D01*
X56265198Y-64410000D01*
X53526742Y-64410000D01*
X53503162Y-64284683D01*
X53364090Y-64068559D01*
X53151890Y-63923569D01*
X52900000Y-63872560D01*
X51400000Y-63872560D01*
X51164683Y-63916838D01*
X50948559Y-64055910D01*
X50803569Y-64268110D01*
X50800919Y-64281197D01*
X50664090Y-64068559D01*
X50451890Y-63923569D01*
X50200000Y-63872560D01*
X48700000Y-63872560D01*
X48464683Y-63916838D01*
X48248559Y-64055910D01*
X48103569Y-64268110D01*
X48074836Y-64410000D01*
X43667689Y-64410000D01*
X43653622Y-64335243D01*
X43514550Y-64119119D01*
X43302350Y-63974129D01*
X43050460Y-63923120D01*
X41851580Y-63923120D01*
X41616263Y-63967398D01*
X41400139Y-64106470D01*
X41394544Y-64114659D01*
X41312118Y-64032233D01*
X41078729Y-63935560D01*
X40638730Y-63935560D01*
X40479980Y-64094310D01*
X40479980Y-65043000D01*
X40499980Y-65043000D01*
X40499980Y-65297000D01*
X40479980Y-65297000D01*
X40479980Y-66948000D01*
X40499980Y-66948000D01*
X40499980Y-67202000D01*
X40479980Y-67202000D01*
X40479980Y-68150690D01*
X40638730Y-68309440D01*
X41078729Y-68309440D01*
X41312118Y-68212767D01*
X41394331Y-68130555D01*
X41599690Y-68270871D01*
X41851580Y-68321880D01*
X43050460Y-68321880D01*
X43285777Y-68277602D01*
X43501901Y-68138530D01*
X43646891Y-67926330D01*
X43665386Y-67835000D01*
X48052560Y-67835000D01*
X48052560Y-67852000D01*
X48096838Y-68087317D01*
X48235910Y-68303441D01*
X48390881Y-68409328D01*
X48248559Y-68500910D01*
X48103569Y-68713110D01*
X48074836Y-68855000D01*
X45445689Y-68855000D01*
X45431622Y-68780243D01*
X45292550Y-68564119D01*
X45080350Y-68419129D01*
X44828460Y-68368120D01*
X43629580Y-68368120D01*
X43394263Y-68412398D01*
X43178139Y-68551470D01*
X43172544Y-68559659D01*
X43090118Y-68477233D01*
X42856729Y-68380560D01*
X42416730Y-68380560D01*
X42257980Y-68539310D01*
X42257980Y-69488000D01*
X42277980Y-69488000D01*
X42277980Y-69742000D01*
X42257980Y-69742000D01*
X42257980Y-69762000D01*
X42003980Y-69762000D01*
X42003980Y-69742000D01*
X41055290Y-69742000D01*
X40896540Y-69900750D01*
X40896540Y-70292448D01*
X39510000Y-68905908D01*
X39510000Y-68889250D01*
X40896540Y-68889250D01*
X40896540Y-69329250D01*
X41055290Y-69488000D01*
X42003980Y-69488000D01*
X42003980Y-68539310D01*
X41845230Y-68380560D01*
X41405231Y-68380560D01*
X41171842Y-68477233D01*
X40993213Y-68655861D01*
X40896540Y-68889250D01*
X39510000Y-68889250D01*
X39510000Y-68260881D01*
X39627231Y-68309440D01*
X40067230Y-68309440D01*
X40225980Y-68150690D01*
X40225980Y-67202000D01*
X40205980Y-67202000D01*
X40205980Y-66948000D01*
X40225980Y-66948000D01*
X40225980Y-65297000D01*
X40205980Y-65297000D01*
X40205980Y-65043000D01*
X40225980Y-65043000D01*
X40225980Y-64094310D01*
X40067230Y-63935560D01*
X39627231Y-63935560D01*
X39510000Y-63984119D01*
X39510000Y-60449026D01*
X41572642Y-60449026D01*
X41575291Y-60464791D01*
X41829268Y-60992036D01*
X42265680Y-61381954D01*
X42818087Y-61575184D01*
X43053000Y-61430924D01*
X43053000Y-60217000D01*
X41693783Y-60217000D01*
X41572642Y-60449026D01*
X39510000Y-60449026D01*
X39510000Y-57909026D01*
X41572642Y-57909026D01*
X41575291Y-57924791D01*
X41829268Y-58452036D01*
X42241108Y-58820000D01*
X41829268Y-59187964D01*
X41575291Y-59715209D01*
X41572642Y-59730974D01*
X41693783Y-59963000D01*
X43053000Y-59963000D01*
X43053000Y-57677000D01*
X41693783Y-57677000D01*
X41572642Y-57909026D01*
X39510000Y-57909026D01*
X39510000Y-55369026D01*
X41572642Y-55369026D01*
X41575291Y-55384791D01*
X41829268Y-55912036D01*
X42241108Y-56280000D01*
X41829268Y-56647964D01*
X41575291Y-57175209D01*
X41572642Y-57190974D01*
X41693783Y-57423000D01*
X43053000Y-57423000D01*
X43053000Y-55137000D01*
X41693783Y-55137000D01*
X41572642Y-55369026D01*
X39510000Y-55369026D01*
X39510000Y-52829026D01*
X41572642Y-52829026D01*
X41575291Y-52844791D01*
X41829268Y-53372036D01*
X42241108Y-53740000D01*
X41829268Y-54107964D01*
X41575291Y-54635209D01*
X41572642Y-54650974D01*
X41693783Y-54883000D01*
X43053000Y-54883000D01*
X43053000Y-52597000D01*
X41693783Y-52597000D01*
X41572642Y-52829026D01*
X39510000Y-52829026D01*
X39510000Y-50289026D01*
X41572642Y-50289026D01*
X41575291Y-50304791D01*
X41829268Y-50832036D01*
X42241108Y-51200000D01*
X41829268Y-51567964D01*
X41575291Y-52095209D01*
X41572642Y-52110974D01*
X41693783Y-52343000D01*
X43053000Y-52343000D01*
X43053000Y-50057000D01*
X41693783Y-50057000D01*
X41572642Y-50289026D01*
X39510000Y-50289026D01*
X39510000Y-47749026D01*
X41572642Y-47749026D01*
X41575291Y-47764791D01*
X41829268Y-48292036D01*
X42241108Y-48660000D01*
X41829268Y-49027964D01*
X41575291Y-49555209D01*
X41572642Y-49570974D01*
X41693783Y-49803000D01*
X43053000Y-49803000D01*
X43053000Y-47517000D01*
X41693783Y-47517000D01*
X41572642Y-47749026D01*
X39510000Y-47749026D01*
X39510000Y-45209026D01*
X41572642Y-45209026D01*
X41575291Y-45224791D01*
X41829268Y-45752036D01*
X42241108Y-46120000D01*
X41829268Y-46487964D01*
X41575291Y-47015209D01*
X41572642Y-47030974D01*
X41693783Y-47263000D01*
X43053000Y-47263000D01*
X43053000Y-44977000D01*
X41693783Y-44977000D01*
X41572642Y-45209026D01*
X39510000Y-45209026D01*
X39510000Y-42669026D01*
X41572642Y-42669026D01*
X41575291Y-42684791D01*
X41829268Y-43212036D01*
X42241108Y-43580000D01*
X41829268Y-43947964D01*
X41575291Y-44475209D01*
X41572642Y-44490974D01*
X41693783Y-44723000D01*
X43053000Y-44723000D01*
X43053000Y-42437000D01*
X41693783Y-42437000D01*
X41572642Y-42669026D01*
X39510000Y-42669026D01*
X39510000Y-41950974D01*
X41572642Y-41950974D01*
X41693783Y-42183000D01*
X43053000Y-42183000D01*
X43053000Y-40969076D01*
X42818087Y-40824816D01*
X42265680Y-41018046D01*
X41829268Y-41407964D01*
X41575291Y-41935209D01*
X41572642Y-41950974D01*
X39510000Y-41950974D01*
X39510000Y-38415881D01*
X39627231Y-38464440D01*
X40067230Y-38464440D01*
X40225980Y-38305690D01*
X40225980Y-37357000D01*
X40205980Y-37357000D01*
X40205980Y-37103000D01*
X40225980Y-37103000D01*
X40225980Y-35452000D01*
X40205980Y-35452000D01*
X40205980Y-35198000D01*
X40225980Y-35198000D01*
X40225980Y-34249310D01*
X40067230Y-34090560D01*
X39627231Y-34090560D01*
X39510000Y-34139119D01*
X39510000Y-33494092D01*
X39933342Y-33070750D01*
X40896540Y-33070750D01*
X40896540Y-33510750D01*
X40993213Y-33744139D01*
X41171842Y-33922767D01*
X41405231Y-34019440D01*
X41845230Y-34019440D01*
X42003980Y-33860690D01*
X42003980Y-32912000D01*
X41055290Y-32912000D01*
X40896540Y-33070750D01*
X39933342Y-33070750D01*
X40896540Y-32107552D01*
X40896540Y-32499250D01*
X41055290Y-32658000D01*
X42003980Y-32658000D01*
X42003980Y-32638000D01*
X42257980Y-32638000D01*
X42257980Y-32658000D01*
X42277980Y-32658000D01*
X42277980Y-32912000D01*
X42257980Y-32912000D01*
X42257980Y-33860690D01*
X42416730Y-34019440D01*
X42856729Y-34019440D01*
X43090118Y-33922767D01*
X43172331Y-33840555D01*
X43377690Y-33980871D01*
X43629580Y-34031880D01*
X44828460Y-34031880D01*
X45063777Y-33987602D01*
X45279901Y-33848530D01*
X45424891Y-33636330D01*
X45443386Y-33545000D01*
X48073258Y-33545000D01*
X48096838Y-33670317D01*
X48235910Y-33886441D01*
X48390881Y-33992328D01*
X48248559Y-34083910D01*
X48103569Y-34296110D01*
X48052560Y-34548000D01*
X48052560Y-34565000D01*
X43667689Y-34565000D01*
X43653622Y-34490243D01*
X43514550Y-34274119D01*
X43302350Y-34129129D01*
X43050460Y-34078120D01*
X41851580Y-34078120D01*
X41616263Y-34122398D01*
X41400139Y-34261470D01*
X41394544Y-34269659D01*
X41312118Y-34187233D01*
X41078729Y-34090560D01*
X40638730Y-34090560D01*
X40479980Y-34249310D01*
X40479980Y-35198000D01*
X40499980Y-35198000D01*
X40499980Y-35452000D01*
X40479980Y-35452000D01*
X40479980Y-37103000D01*
X40499980Y-37103000D01*
X40499980Y-37357000D01*
X40479980Y-37357000D01*
X40479980Y-38305690D01*
X40638730Y-38464440D01*
X41078729Y-38464440D01*
X41312118Y-38367767D01*
X41394331Y-38285555D01*
X41599690Y-38425871D01*
X41851580Y-38476880D01*
X43050460Y-38476880D01*
X43285777Y-38432602D01*
X43501901Y-38293530D01*
X43646891Y-38081330D01*
X43665386Y-37990000D01*
X48073258Y-37990000D01*
X48096838Y-38115317D01*
X48235910Y-38331441D01*
X48448110Y-38476431D01*
X48700000Y-38527440D01*
X50200000Y-38527440D01*
X50435317Y-38483162D01*
X50651441Y-38344090D01*
X50796431Y-38131890D01*
X50799081Y-38118803D01*
X50935910Y-38331441D01*
X51148110Y-38476431D01*
X51400000Y-38527440D01*
X52900000Y-38527440D01*
X53135317Y-38483162D01*
X53351441Y-38344090D01*
X53443061Y-38210000D01*
X55487537Y-38210000D01*
X55519673Y-38242192D01*
X55863201Y-38384838D01*
X56235167Y-38385162D01*
X56578943Y-38243117D01*
X56842192Y-37980327D01*
X56984838Y-37636799D01*
X56985162Y-37264833D01*
X56843117Y-36921057D01*
X56580327Y-36657808D01*
X56236799Y-36515162D01*
X55864833Y-36514838D01*
X55521057Y-36656883D01*
X55487882Y-36690000D01*
X53547440Y-36690000D01*
X53547440Y-36580000D01*
X53503162Y-36344683D01*
X53418775Y-36213543D01*
X53496431Y-36099890D01*
X53524759Y-35960000D01*
X55487537Y-35960000D01*
X55519673Y-35992192D01*
X55863201Y-36134838D01*
X56235167Y-36135162D01*
X56578943Y-35993117D01*
X56842192Y-35730327D01*
X56984838Y-35386799D01*
X56985162Y-35014833D01*
X56843117Y-34671057D01*
X56580327Y-34407808D01*
X56236799Y-34265162D01*
X55864833Y-34264838D01*
X55521057Y-34406883D01*
X55487882Y-34440000D01*
X53527118Y-34440000D01*
X53503162Y-34312683D01*
X53364090Y-34096559D01*
X53209119Y-33990672D01*
X53351441Y-33899090D01*
X53480641Y-33710000D01*
X55487537Y-33710000D01*
X55519673Y-33742192D01*
X55863201Y-33884838D01*
X56235167Y-33885162D01*
X56578943Y-33743117D01*
X56842192Y-33480327D01*
X56984838Y-33136799D01*
X56985162Y-32764833D01*
X56843117Y-32421057D01*
X56580327Y-32157808D01*
X56236799Y-32015162D01*
X55864833Y-32014838D01*
X55521057Y-32156883D01*
X55487882Y-32190000D01*
X53547440Y-32190000D01*
X53547440Y-32135000D01*
X53503162Y-31899683D01*
X53364090Y-31683559D01*
X53151890Y-31538569D01*
X52900000Y-31487560D01*
X51445360Y-31487560D01*
X51455954Y-31471705D01*
X51510000Y-31200000D01*
X51510000Y-31089606D01*
X51710197Y-31289803D01*
X51750590Y-31316994D01*
X51800000Y-31327000D01*
X53800000Y-31327000D01*
X53847789Y-31317666D01*
X53889803Y-31289803D01*
X55889803Y-29289803D01*
X55916994Y-29249410D01*
X55927000Y-29200000D01*
X55927000Y-27200000D01*
X55917666Y-27152211D01*
X55889803Y-27110197D01*
X55689606Y-26910000D01*
X65916560Y-26910000D01*
X65916560Y-29835000D01*
X65916560Y-29835000D01*
G37*
X65916560Y-29835000D02*
X65960838Y-30070317D01*
X66099910Y-30286441D01*
X66312110Y-30431431D01*
X66564000Y-30482440D01*
X66804000Y-30482440D01*
X66804000Y-32070198D01*
X65433588Y-33440610D01*
X65268841Y-33687172D01*
X65210989Y-33978011D01*
X65210989Y-45192402D01*
X65268841Y-45483241D01*
X65433588Y-45729803D01*
X66143785Y-46440000D01*
X51864802Y-46440000D01*
X51060000Y-45635198D01*
X51060000Y-43950000D01*
X51002148Y-43659161D01*
X51002148Y-43659160D01*
X50837401Y-43412599D01*
X49908746Y-42483944D01*
X49943345Y-42310000D01*
X49829271Y-41736511D01*
X49504415Y-41250330D01*
X49018234Y-40925474D01*
X48444745Y-40811400D01*
X48075255Y-40811400D01*
X47501766Y-40925474D01*
X47015585Y-41250330D01*
X46990000Y-41288621D01*
X46964415Y-41250330D01*
X46478234Y-40925474D01*
X45904745Y-40811400D01*
X45535255Y-40811400D01*
X44961766Y-40925474D01*
X44475585Y-41250330D01*
X44430246Y-41318184D01*
X44094320Y-41018046D01*
X43541913Y-40824816D01*
X43307000Y-40969076D01*
X43307000Y-42183000D01*
X43327000Y-42183000D01*
X43327000Y-42437000D01*
X43307000Y-42437000D01*
X43307000Y-44723000D01*
X43327000Y-44723000D01*
X43327000Y-44977000D01*
X43307000Y-44977000D01*
X43307000Y-47263000D01*
X43327000Y-47263000D01*
X43327000Y-47517000D01*
X43307000Y-47517000D01*
X43307000Y-49803000D01*
X43327000Y-49803000D01*
X43327000Y-50057000D01*
X43307000Y-50057000D01*
X43307000Y-52343000D01*
X43327000Y-52343000D01*
X43327000Y-52597000D01*
X43307000Y-52597000D01*
X43307000Y-54883000D01*
X43327000Y-54883000D01*
X43327000Y-55137000D01*
X43307000Y-55137000D01*
X43307000Y-57423000D01*
X43327000Y-57423000D01*
X43327000Y-57677000D01*
X43307000Y-57677000D01*
X43307000Y-59963000D01*
X43327000Y-59963000D01*
X43327000Y-60217000D01*
X43307000Y-60217000D01*
X43307000Y-61430924D01*
X43541913Y-61575184D01*
X44094320Y-61381954D01*
X44430246Y-61081816D01*
X44475585Y-61149670D01*
X44961766Y-61474526D01*
X45535255Y-61588600D01*
X45904745Y-61588600D01*
X46478234Y-61474526D01*
X46964415Y-61149670D01*
X46990000Y-61111379D01*
X47015585Y-61149670D01*
X47501766Y-61474526D01*
X48075255Y-61588600D01*
X48444745Y-61588600D01*
X49018234Y-61474526D01*
X49504415Y-61149670D01*
X49829271Y-60663489D01*
X49943345Y-60090000D01*
X49867666Y-59709536D01*
X50837401Y-58739801D01*
X51002148Y-58493239D01*
X51060000Y-58202400D01*
X51060000Y-56514802D01*
X52614802Y-54960000D01*
X65485198Y-54960000D01*
X65589990Y-55064792D01*
X65589990Y-56571402D01*
X65647842Y-56862241D01*
X65812589Y-57108803D01*
X66366197Y-57662411D01*
X66478428Y-57737401D01*
X66612754Y-57827156D01*
X66612757Y-57827157D01*
X66612759Y-57827158D01*
X66745736Y-57853609D01*
X66771642Y-57858762D01*
X66799160Y-57877149D01*
X67077843Y-57932583D01*
X67098110Y-57946431D01*
X67350000Y-57997440D01*
X68850000Y-57997440D01*
X69040721Y-57961553D01*
X69002560Y-58150000D01*
X69002560Y-59414980D01*
X61575020Y-59414981D01*
X61284180Y-59472833D01*
X61037619Y-59637580D01*
X56265198Y-64410000D01*
X53526742Y-64410000D01*
X53503162Y-64284683D01*
X53364090Y-64068559D01*
X53151890Y-63923569D01*
X52900000Y-63872560D01*
X51400000Y-63872560D01*
X51164683Y-63916838D01*
X50948559Y-64055910D01*
X50803569Y-64268110D01*
X50800919Y-64281197D01*
X50664090Y-64068559D01*
X50451890Y-63923569D01*
X50200000Y-63872560D01*
X48700000Y-63872560D01*
X48464683Y-63916838D01*
X48248559Y-64055910D01*
X48103569Y-64268110D01*
X48074836Y-64410000D01*
X43667689Y-64410000D01*
X43653622Y-64335243D01*
X43514550Y-64119119D01*
X43302350Y-63974129D01*
X43050460Y-63923120D01*
X41851580Y-63923120D01*
X41616263Y-63967398D01*
X41400139Y-64106470D01*
X41394544Y-64114659D01*
X41312118Y-64032233D01*
X41078729Y-63935560D01*
X40638730Y-63935560D01*
X40479980Y-64094310D01*
X40479980Y-65043000D01*
X40499980Y-65043000D01*
X40499980Y-65297000D01*
X40479980Y-65297000D01*
X40479980Y-66948000D01*
X40499980Y-66948000D01*
X40499980Y-67202000D01*
X40479980Y-67202000D01*
X40479980Y-68150690D01*
X40638730Y-68309440D01*
X41078729Y-68309440D01*
X41312118Y-68212767D01*
X41394331Y-68130555D01*
X41599690Y-68270871D01*
X41851580Y-68321880D01*
X43050460Y-68321880D01*
X43285777Y-68277602D01*
X43501901Y-68138530D01*
X43646891Y-67926330D01*
X43665386Y-67835000D01*
X48052560Y-67835000D01*
X48052560Y-67852000D01*
X48096838Y-68087317D01*
X48235910Y-68303441D01*
X48390881Y-68409328D01*
X48248559Y-68500910D01*
X48103569Y-68713110D01*
X48074836Y-68855000D01*
X45445689Y-68855000D01*
X45431622Y-68780243D01*
X45292550Y-68564119D01*
X45080350Y-68419129D01*
X44828460Y-68368120D01*
X43629580Y-68368120D01*
X43394263Y-68412398D01*
X43178139Y-68551470D01*
X43172544Y-68559659D01*
X43090118Y-68477233D01*
X42856729Y-68380560D01*
X42416730Y-68380560D01*
X42257980Y-68539310D01*
X42257980Y-69488000D01*
X42277980Y-69488000D01*
X42277980Y-69742000D01*
X42257980Y-69742000D01*
X42257980Y-69762000D01*
X42003980Y-69762000D01*
X42003980Y-69742000D01*
X41055290Y-69742000D01*
X40896540Y-69900750D01*
X40896540Y-70292448D01*
X39510000Y-68905908D01*
X39510000Y-68889250D01*
X40896540Y-68889250D01*
X40896540Y-69329250D01*
X41055290Y-69488000D01*
X42003980Y-69488000D01*
X42003980Y-68539310D01*
X41845230Y-68380560D01*
X41405231Y-68380560D01*
X41171842Y-68477233D01*
X40993213Y-68655861D01*
X40896540Y-68889250D01*
X39510000Y-68889250D01*
X39510000Y-68260881D01*
X39627231Y-68309440D01*
X40067230Y-68309440D01*
X40225980Y-68150690D01*
X40225980Y-67202000D01*
X40205980Y-67202000D01*
X40205980Y-66948000D01*
X40225980Y-66948000D01*
X40225980Y-65297000D01*
X40205980Y-65297000D01*
X40205980Y-65043000D01*
X40225980Y-65043000D01*
X40225980Y-64094310D01*
X40067230Y-63935560D01*
X39627231Y-63935560D01*
X39510000Y-63984119D01*
X39510000Y-60449026D01*
X41572642Y-60449026D01*
X41575291Y-60464791D01*
X41829268Y-60992036D01*
X42265680Y-61381954D01*
X42818087Y-61575184D01*
X43053000Y-61430924D01*
X43053000Y-60217000D01*
X41693783Y-60217000D01*
X41572642Y-60449026D01*
X39510000Y-60449026D01*
X39510000Y-57909026D01*
X41572642Y-57909026D01*
X41575291Y-57924791D01*
X41829268Y-58452036D01*
X42241108Y-58820000D01*
X41829268Y-59187964D01*
X41575291Y-59715209D01*
X41572642Y-59730974D01*
X41693783Y-59963000D01*
X43053000Y-59963000D01*
X43053000Y-57677000D01*
X41693783Y-57677000D01*
X41572642Y-57909026D01*
X39510000Y-57909026D01*
X39510000Y-55369026D01*
X41572642Y-55369026D01*
X41575291Y-55384791D01*
X41829268Y-55912036D01*
X42241108Y-56280000D01*
X41829268Y-56647964D01*
X41575291Y-57175209D01*
X41572642Y-57190974D01*
X41693783Y-57423000D01*
X43053000Y-57423000D01*
X43053000Y-55137000D01*
X41693783Y-55137000D01*
X41572642Y-55369026D01*
X39510000Y-55369026D01*
X39510000Y-52829026D01*
X41572642Y-52829026D01*
X41575291Y-52844791D01*
X41829268Y-53372036D01*
X42241108Y-53740000D01*
X41829268Y-54107964D01*
X41575291Y-54635209D01*
X41572642Y-54650974D01*
X41693783Y-54883000D01*
X43053000Y-54883000D01*
X43053000Y-52597000D01*
X41693783Y-52597000D01*
X41572642Y-52829026D01*
X39510000Y-52829026D01*
X39510000Y-50289026D01*
X41572642Y-50289026D01*
X41575291Y-50304791D01*
X41829268Y-50832036D01*
X42241108Y-51200000D01*
X41829268Y-51567964D01*
X41575291Y-52095209D01*
X41572642Y-52110974D01*
X41693783Y-52343000D01*
X43053000Y-52343000D01*
X43053000Y-50057000D01*
X41693783Y-50057000D01*
X41572642Y-50289026D01*
X39510000Y-50289026D01*
X39510000Y-47749026D01*
X41572642Y-47749026D01*
X41575291Y-47764791D01*
X41829268Y-48292036D01*
X42241108Y-48660000D01*
X41829268Y-49027964D01*
X41575291Y-49555209D01*
X41572642Y-49570974D01*
X41693783Y-49803000D01*
X43053000Y-49803000D01*
X43053000Y-47517000D01*
X41693783Y-47517000D01*
X41572642Y-47749026D01*
X39510000Y-47749026D01*
X39510000Y-45209026D01*
X41572642Y-45209026D01*
X41575291Y-45224791D01*
X41829268Y-45752036D01*
X42241108Y-46120000D01*
X41829268Y-46487964D01*
X41575291Y-47015209D01*
X41572642Y-47030974D01*
X41693783Y-47263000D01*
X43053000Y-47263000D01*
X43053000Y-44977000D01*
X41693783Y-44977000D01*
X41572642Y-45209026D01*
X39510000Y-45209026D01*
X39510000Y-42669026D01*
X41572642Y-42669026D01*
X41575291Y-42684791D01*
X41829268Y-43212036D01*
X42241108Y-43580000D01*
X41829268Y-43947964D01*
X41575291Y-44475209D01*
X41572642Y-44490974D01*
X41693783Y-44723000D01*
X43053000Y-44723000D01*
X43053000Y-42437000D01*
X41693783Y-42437000D01*
X41572642Y-42669026D01*
X39510000Y-42669026D01*
X39510000Y-41950974D01*
X41572642Y-41950974D01*
X41693783Y-42183000D01*
X43053000Y-42183000D01*
X43053000Y-40969076D01*
X42818087Y-40824816D01*
X42265680Y-41018046D01*
X41829268Y-41407964D01*
X41575291Y-41935209D01*
X41572642Y-41950974D01*
X39510000Y-41950974D01*
X39510000Y-38415881D01*
X39627231Y-38464440D01*
X40067230Y-38464440D01*
X40225980Y-38305690D01*
X40225980Y-37357000D01*
X40205980Y-37357000D01*
X40205980Y-37103000D01*
X40225980Y-37103000D01*
X40225980Y-35452000D01*
X40205980Y-35452000D01*
X40205980Y-35198000D01*
X40225980Y-35198000D01*
X40225980Y-34249310D01*
X40067230Y-34090560D01*
X39627231Y-34090560D01*
X39510000Y-34139119D01*
X39510000Y-33494092D01*
X39933342Y-33070750D01*
X40896540Y-33070750D01*
X40896540Y-33510750D01*
X40993213Y-33744139D01*
X41171842Y-33922767D01*
X41405231Y-34019440D01*
X41845230Y-34019440D01*
X42003980Y-33860690D01*
X42003980Y-32912000D01*
X41055290Y-32912000D01*
X40896540Y-33070750D01*
X39933342Y-33070750D01*
X40896540Y-32107552D01*
X40896540Y-32499250D01*
X41055290Y-32658000D01*
X42003980Y-32658000D01*
X42003980Y-32638000D01*
X42257980Y-32638000D01*
X42257980Y-32658000D01*
X42277980Y-32658000D01*
X42277980Y-32912000D01*
X42257980Y-32912000D01*
X42257980Y-33860690D01*
X42416730Y-34019440D01*
X42856729Y-34019440D01*
X43090118Y-33922767D01*
X43172331Y-33840555D01*
X43377690Y-33980871D01*
X43629580Y-34031880D01*
X44828460Y-34031880D01*
X45063777Y-33987602D01*
X45279901Y-33848530D01*
X45424891Y-33636330D01*
X45443386Y-33545000D01*
X48073258Y-33545000D01*
X48096838Y-33670317D01*
X48235910Y-33886441D01*
X48390881Y-33992328D01*
X48248559Y-34083910D01*
X48103569Y-34296110D01*
X48052560Y-34548000D01*
X48052560Y-34565000D01*
X43667689Y-34565000D01*
X43653622Y-34490243D01*
X43514550Y-34274119D01*
X43302350Y-34129129D01*
X43050460Y-34078120D01*
X41851580Y-34078120D01*
X41616263Y-34122398D01*
X41400139Y-34261470D01*
X41394544Y-34269659D01*
X41312118Y-34187233D01*
X41078729Y-34090560D01*
X40638730Y-34090560D01*
X40479980Y-34249310D01*
X40479980Y-35198000D01*
X40499980Y-35198000D01*
X40499980Y-35452000D01*
X40479980Y-35452000D01*
X40479980Y-37103000D01*
X40499980Y-37103000D01*
X40499980Y-37357000D01*
X40479980Y-37357000D01*
X40479980Y-38305690D01*
X40638730Y-38464440D01*
X41078729Y-38464440D01*
X41312118Y-38367767D01*
X41394331Y-38285555D01*
X41599690Y-38425871D01*
X41851580Y-38476880D01*
X43050460Y-38476880D01*
X43285777Y-38432602D01*
X43501901Y-38293530D01*
X43646891Y-38081330D01*
X43665386Y-37990000D01*
X48073258Y-37990000D01*
X48096838Y-38115317D01*
X48235910Y-38331441D01*
X48448110Y-38476431D01*
X48700000Y-38527440D01*
X50200000Y-38527440D01*
X50435317Y-38483162D01*
X50651441Y-38344090D01*
X50796431Y-38131890D01*
X50799081Y-38118803D01*
X50935910Y-38331441D01*
X51148110Y-38476431D01*
X51400000Y-38527440D01*
X52900000Y-38527440D01*
X53135317Y-38483162D01*
X53351441Y-38344090D01*
X53443061Y-38210000D01*
X55487537Y-38210000D01*
X55519673Y-38242192D01*
X55863201Y-38384838D01*
X56235167Y-38385162D01*
X56578943Y-38243117D01*
X56842192Y-37980327D01*
X56984838Y-37636799D01*
X56985162Y-37264833D01*
X56843117Y-36921057D01*
X56580327Y-36657808D01*
X56236799Y-36515162D01*
X55864833Y-36514838D01*
X55521057Y-36656883D01*
X55487882Y-36690000D01*
X53547440Y-36690000D01*
X53547440Y-36580000D01*
X53503162Y-36344683D01*
X53418775Y-36213543D01*
X53496431Y-36099890D01*
X53524759Y-35960000D01*
X55487537Y-35960000D01*
X55519673Y-35992192D01*
X55863201Y-36134838D01*
X56235167Y-36135162D01*
X56578943Y-35993117D01*
X56842192Y-35730327D01*
X56984838Y-35386799D01*
X56985162Y-35014833D01*
X56843117Y-34671057D01*
X56580327Y-34407808D01*
X56236799Y-34265162D01*
X55864833Y-34264838D01*
X55521057Y-34406883D01*
X55487882Y-34440000D01*
X53527118Y-34440000D01*
X53503162Y-34312683D01*
X53364090Y-34096559D01*
X53209119Y-33990672D01*
X53351441Y-33899090D01*
X53480641Y-33710000D01*
X55487537Y-33710000D01*
X55519673Y-33742192D01*
X55863201Y-33884838D01*
X56235167Y-33885162D01*
X56578943Y-33743117D01*
X56842192Y-33480327D01*
X56984838Y-33136799D01*
X56985162Y-32764833D01*
X56843117Y-32421057D01*
X56580327Y-32157808D01*
X56236799Y-32015162D01*
X55864833Y-32014838D01*
X55521057Y-32156883D01*
X55487882Y-32190000D01*
X53547440Y-32190000D01*
X53547440Y-32135000D01*
X53503162Y-31899683D01*
X53364090Y-31683559D01*
X53151890Y-31538569D01*
X52900000Y-31487560D01*
X51445360Y-31487560D01*
X51455954Y-31471705D01*
X51510000Y-31200000D01*
X51510000Y-31089606D01*
X51710197Y-31289803D01*
X51750590Y-31316994D01*
X51800000Y-31327000D01*
X53800000Y-31327000D01*
X53847789Y-31317666D01*
X53889803Y-31289803D01*
X55889803Y-29289803D01*
X55916994Y-29249410D01*
X55927000Y-29200000D01*
X55927000Y-27200000D01*
X55917666Y-27152211D01*
X55889803Y-27110197D01*
X55689606Y-26910000D01*
X65916560Y-26910000D01*
X65916560Y-29835000D01*
G36*
X82102560Y-46350000D02*
X82122067Y-46453671D01*
X82102560Y-46550000D01*
X82102560Y-46850000D01*
X82122067Y-46953671D01*
X82102560Y-47050000D01*
X82102560Y-47350000D01*
X82122067Y-47453671D01*
X82102560Y-47550000D01*
X82102560Y-47850000D01*
X82122067Y-47953671D01*
X82102560Y-48050000D01*
X82102560Y-48350000D01*
X82122067Y-48453671D01*
X82102560Y-48550000D01*
X82102560Y-48850000D01*
X82122067Y-48953671D01*
X82102560Y-49050000D01*
X82102560Y-49350000D01*
X82122067Y-49453671D01*
X82102560Y-49550000D01*
X82102560Y-49850000D01*
X82122067Y-49953671D01*
X82102560Y-50050000D01*
X82102560Y-50350000D01*
X82122067Y-50453671D01*
X82102560Y-50550000D01*
X82102560Y-50850000D01*
X82122067Y-50953671D01*
X82102560Y-51050000D01*
X82102560Y-51350000D01*
X82122067Y-51453671D01*
X82102560Y-51550000D01*
X82102560Y-51850000D01*
X82122067Y-51953671D01*
X82102560Y-52050000D01*
X82102560Y-52350000D01*
X82122067Y-52453671D01*
X82102560Y-52550000D01*
X82102560Y-52850000D01*
X82122067Y-52953671D01*
X82102560Y-53050000D01*
X82102560Y-53350000D01*
X82122067Y-53453671D01*
X82102560Y-53550000D01*
X82102560Y-53850000D01*
X82122067Y-53953671D01*
X82102560Y-54050000D01*
X82102560Y-54350000D01*
X82122067Y-54453671D01*
X82102560Y-54550000D01*
X82102560Y-54850000D01*
X82122067Y-54953671D01*
X82102560Y-55050000D01*
X82102560Y-55350000D01*
X82122067Y-55453671D01*
X82102560Y-55550000D01*
X82102560Y-55850000D01*
X82122067Y-55953671D01*
X82102560Y-56050000D01*
X82102560Y-56350000D01*
X82122067Y-56453671D01*
X82102560Y-56550000D01*
X82102560Y-56850000D01*
X82122067Y-56953671D01*
X82102560Y-57050000D01*
X82102560Y-57350000D01*
X82138447Y-57540721D01*
X81950000Y-57502560D01*
X81650000Y-57502560D01*
X81546329Y-57522067D01*
X81450000Y-57502560D01*
X81150000Y-57502560D01*
X81046329Y-57522067D01*
X80950000Y-57502560D01*
X80650000Y-57502560D01*
X80560000Y-57519495D01*
X80560000Y-57354240D01*
X80828939Y-57243117D01*
X81092188Y-56980327D01*
X81234834Y-56636799D01*
X81235158Y-56264833D01*
X81093113Y-55921057D01*
X80830323Y-55657808D01*
X80486795Y-55515162D01*
X80485162Y-55515161D01*
X80485162Y-55514833D01*
X80343117Y-55171057D01*
X80155107Y-54982719D01*
X80331197Y-55055838D01*
X80703163Y-55056162D01*
X81046939Y-54914117D01*
X81310188Y-54651327D01*
X81452834Y-54307799D01*
X81453158Y-53935833D01*
X81311113Y-53592057D01*
X81277996Y-53558882D01*
X81277996Y-52681585D01*
X81220144Y-52390746D01*
X81055397Y-52144184D01*
X80016713Y-51105500D01*
X80192192Y-50930327D01*
X80334838Y-50586799D01*
X80335162Y-50214833D01*
X80193117Y-49871057D01*
X79930327Y-49607808D01*
X79586799Y-49465162D01*
X79214833Y-49464838D01*
X78871057Y-49606883D01*
X78837882Y-49640000D01*
X77236411Y-49640000D01*
X76945571Y-49697852D01*
X76699010Y-49862599D01*
X72621609Y-53940000D01*
X69479215Y-53940000D01*
X69497440Y-53850000D01*
X69497440Y-53550000D01*
X69477933Y-53446329D01*
X69497440Y-53350000D01*
X69497440Y-53050000D01*
X69477933Y-52946329D01*
X69497440Y-52850000D01*
X69497440Y-52550000D01*
X69477933Y-52446329D01*
X69497440Y-52350000D01*
X69497440Y-52050000D01*
X69477933Y-51946329D01*
X69497440Y-51850000D01*
X69497440Y-51550000D01*
X69477933Y-51446329D01*
X69497440Y-51350000D01*
X69497440Y-51050000D01*
X69477933Y-50946329D01*
X69497440Y-50850000D01*
X69497440Y-50550000D01*
X69485808Y-50488179D01*
X69573667Y-50576192D01*
X69917195Y-50718838D01*
X70289161Y-50719162D01*
X70632937Y-50577117D01*
X70896186Y-50314327D01*
X71038832Y-49970799D01*
X71039156Y-49598833D01*
X70897111Y-49255057D01*
X70634321Y-48991808D01*
X70513008Y-48941434D01*
X70481000Y-48909426D01*
X70481000Y-47621000D01*
X80223903Y-47621000D01*
X80223908Y-47621001D01*
X80506392Y-47564810D01*
X80562583Y-47553633D01*
X80849698Y-47361790D01*
X82102560Y-46108928D01*
X82102560Y-46350000D01*
X82102560Y-46350000D01*
G37*
X82102560Y-46350000D02*
X82122067Y-46453671D01*
X82102560Y-46550000D01*
X82102560Y-46850000D01*
X82122067Y-46953671D01*
X82102560Y-47050000D01*
X82102560Y-47350000D01*
X82122067Y-47453671D01*
X82102560Y-47550000D01*
X82102560Y-47850000D01*
X82122067Y-47953671D01*
X82102560Y-48050000D01*
X82102560Y-48350000D01*
X82122067Y-48453671D01*
X82102560Y-48550000D01*
X82102560Y-48850000D01*
X82122067Y-48953671D01*
X82102560Y-49050000D01*
X82102560Y-49350000D01*
X82122067Y-49453671D01*
X82102560Y-49550000D01*
X82102560Y-49850000D01*
X82122067Y-49953671D01*
X82102560Y-50050000D01*
X82102560Y-50350000D01*
X82122067Y-50453671D01*
X82102560Y-50550000D01*
X82102560Y-50850000D01*
X82122067Y-50953671D01*
X82102560Y-51050000D01*
X82102560Y-51350000D01*
X82122067Y-51453671D01*
X82102560Y-51550000D01*
X82102560Y-51850000D01*
X82122067Y-51953671D01*
X82102560Y-52050000D01*
X82102560Y-52350000D01*
X82122067Y-52453671D01*
X82102560Y-52550000D01*
X82102560Y-52850000D01*
X82122067Y-52953671D01*
X82102560Y-53050000D01*
X82102560Y-53350000D01*
X82122067Y-53453671D01*
X82102560Y-53550000D01*
X82102560Y-53850000D01*
X82122067Y-53953671D01*
X82102560Y-54050000D01*
X82102560Y-54350000D01*
X82122067Y-54453671D01*
X82102560Y-54550000D01*
X82102560Y-54850000D01*
X82122067Y-54953671D01*
X82102560Y-55050000D01*
X82102560Y-55350000D01*
X82122067Y-55453671D01*
X82102560Y-55550000D01*
X82102560Y-55850000D01*
X82122067Y-55953671D01*
X82102560Y-56050000D01*
X82102560Y-56350000D01*
X82122067Y-56453671D01*
X82102560Y-56550000D01*
X82102560Y-56850000D01*
X82122067Y-56953671D01*
X82102560Y-57050000D01*
X82102560Y-57350000D01*
X82138447Y-57540721D01*
X81950000Y-57502560D01*
X81650000Y-57502560D01*
X81546329Y-57522067D01*
X81450000Y-57502560D01*
X81150000Y-57502560D01*
X81046329Y-57522067D01*
X80950000Y-57502560D01*
X80650000Y-57502560D01*
X80560000Y-57519495D01*
X80560000Y-57354240D01*
X80828939Y-57243117D01*
X81092188Y-56980327D01*
X81234834Y-56636799D01*
X81235158Y-56264833D01*
X81093113Y-55921057D01*
X80830323Y-55657808D01*
X80486795Y-55515162D01*
X80485162Y-55515161D01*
X80485162Y-55514833D01*
X80343117Y-55171057D01*
X80155107Y-54982719D01*
X80331197Y-55055838D01*
X80703163Y-55056162D01*
X81046939Y-54914117D01*
X81310188Y-54651327D01*
X81452834Y-54307799D01*
X81453158Y-53935833D01*
X81311113Y-53592057D01*
X81277996Y-53558882D01*
X81277996Y-52681585D01*
X81220144Y-52390746D01*
X81055397Y-52144184D01*
X80016713Y-51105500D01*
X80192192Y-50930327D01*
X80334838Y-50586799D01*
X80335162Y-50214833D01*
X80193117Y-49871057D01*
X79930327Y-49607808D01*
X79586799Y-49465162D01*
X79214833Y-49464838D01*
X78871057Y-49606883D01*
X78837882Y-49640000D01*
X77236411Y-49640000D01*
X76945571Y-49697852D01*
X76699010Y-49862599D01*
X72621609Y-53940000D01*
X69479215Y-53940000D01*
X69497440Y-53850000D01*
X69497440Y-53550000D01*
X69477933Y-53446329D01*
X69497440Y-53350000D01*
X69497440Y-53050000D01*
X69477933Y-52946329D01*
X69497440Y-52850000D01*
X69497440Y-52550000D01*
X69477933Y-52446329D01*
X69497440Y-52350000D01*
X69497440Y-52050000D01*
X69477933Y-51946329D01*
X69497440Y-51850000D01*
X69497440Y-51550000D01*
X69477933Y-51446329D01*
X69497440Y-51350000D01*
X69497440Y-51050000D01*
X69477933Y-50946329D01*
X69497440Y-50850000D01*
X69497440Y-50550000D01*
X69485808Y-50488179D01*
X69573667Y-50576192D01*
X69917195Y-50718838D01*
X70289161Y-50719162D01*
X70632937Y-50577117D01*
X70896186Y-50314327D01*
X71038832Y-49970799D01*
X71039156Y-49598833D01*
X70897111Y-49255057D01*
X70634321Y-48991808D01*
X70513008Y-48941434D01*
X70481000Y-48909426D01*
X70481000Y-47621000D01*
X80223903Y-47621000D01*
X80223908Y-47621001D01*
X80506392Y-47564810D01*
X80562583Y-47553633D01*
X80849698Y-47361790D01*
X82102560Y-46108928D01*
X82102560Y-46350000D01*
G36*
X71262599Y-57362599D02*
X71169080Y-57502560D01*
X71150000Y-57502560D01*
X71046329Y-57522067D01*
X70950000Y-57502560D01*
X70650000Y-57502560D01*
X70546329Y-57522067D01*
X70450000Y-57502560D01*
X70150000Y-57502560D01*
X70046329Y-57522067D01*
X69950000Y-57502560D01*
X69650000Y-57502560D01*
X69459279Y-57538447D01*
X69497440Y-57350000D01*
X69497440Y-57050000D01*
X69477933Y-56946329D01*
X69497440Y-56850000D01*
X69497440Y-56550000D01*
X69480505Y-56460000D01*
X72165198Y-56460000D01*
X71262599Y-57362599D01*
X71262599Y-57362599D01*
G37*
X71262599Y-57362599D02*
X71169080Y-57502560D01*
X71150000Y-57502560D01*
X71046329Y-57522067D01*
X70950000Y-57502560D01*
X70650000Y-57502560D01*
X70546329Y-57522067D01*
X70450000Y-57502560D01*
X70150000Y-57502560D01*
X70046329Y-57522067D01*
X69950000Y-57502560D01*
X69650000Y-57502560D01*
X69459279Y-57538447D01*
X69497440Y-57350000D01*
X69497440Y-57050000D01*
X69477933Y-56946329D01*
X69497440Y-56850000D01*
X69497440Y-56550000D01*
X69480505Y-56460000D01*
X72165198Y-56460000D01*
X71262599Y-57362599D01*
G36*
X77257808Y-53669673D02*
X77115162Y-54013201D01*
X77114838Y-54385167D01*
X77256883Y-54728943D01*
X77290000Y-54762118D01*
X77290000Y-55625004D01*
X77347852Y-55915843D01*
X77512599Y-56162405D01*
X77540000Y-56189806D01*
X77540000Y-57520785D01*
X77450000Y-57502560D01*
X77150000Y-57502560D01*
X77046329Y-57522067D01*
X76950000Y-57502560D01*
X76650000Y-57502560D01*
X76546329Y-57522067D01*
X76450000Y-57502560D01*
X76150000Y-57502560D01*
X76046329Y-57522067D01*
X75950000Y-57502560D01*
X75650000Y-57502560D01*
X75546329Y-57522067D01*
X75450000Y-57502560D01*
X75150000Y-57502560D01*
X75046329Y-57522067D01*
X74950000Y-57502560D01*
X74650000Y-57502560D01*
X74546329Y-57522067D01*
X74450000Y-57502560D01*
X74150000Y-57502560D01*
X74046329Y-57522067D01*
X73950000Y-57502560D01*
X73650000Y-57502560D01*
X73546329Y-57522067D01*
X73450000Y-57502560D01*
X73272242Y-57502560D01*
X77357733Y-53417069D01*
X77510853Y-53417069D01*
X77257808Y-53669673D01*
X77257808Y-53669673D01*
G37*
X77257808Y-53669673D02*
X77115162Y-54013201D01*
X77114838Y-54385167D01*
X77256883Y-54728943D01*
X77290000Y-54762118D01*
X77290000Y-55625004D01*
X77347852Y-55915843D01*
X77512599Y-56162405D01*
X77540000Y-56189806D01*
X77540000Y-57520785D01*
X77450000Y-57502560D01*
X77150000Y-57502560D01*
X77046329Y-57522067D01*
X76950000Y-57502560D01*
X76650000Y-57502560D01*
X76546329Y-57522067D01*
X76450000Y-57502560D01*
X76150000Y-57502560D01*
X76046329Y-57522067D01*
X75950000Y-57502560D01*
X75650000Y-57502560D01*
X75546329Y-57522067D01*
X75450000Y-57502560D01*
X75150000Y-57502560D01*
X75046329Y-57522067D01*
X74950000Y-57502560D01*
X74650000Y-57502560D01*
X74546329Y-57522067D01*
X74450000Y-57502560D01*
X74150000Y-57502560D01*
X74046329Y-57522067D01*
X73950000Y-57502560D01*
X73650000Y-57502560D01*
X73546329Y-57522067D01*
X73450000Y-57502560D01*
X73272242Y-57502560D01*
X77357733Y-53417069D01*
X77510853Y-53417069D01*
X77257808Y-53669673D01*
G36*
X60665000Y-49414250D02*
X60823750Y-49573000D01*
X61923000Y-49573000D01*
X61923000Y-49553000D01*
X62177000Y-49553000D01*
X62177000Y-49573000D01*
X62197000Y-49573000D01*
X62197000Y-49827000D01*
X62177000Y-49827000D01*
X62177000Y-50801250D01*
X62335750Y-50960000D01*
X62926309Y-50960000D01*
X63159698Y-50863327D01*
X63300936Y-50722090D01*
X63335910Y-50776441D01*
X63548110Y-50921431D01*
X63800000Y-50972440D01*
X65300000Y-50972440D01*
X65535317Y-50928162D01*
X65751441Y-50789090D01*
X65896431Y-50576890D01*
X65920102Y-50460000D01*
X66715000Y-50460000D01*
X66715000Y-50476310D01*
X66716667Y-50480335D01*
X66702560Y-50550000D01*
X66702560Y-50850000D01*
X66722067Y-50953671D01*
X66702560Y-51050000D01*
X66702560Y-51350000D01*
X66722067Y-51453671D01*
X66711468Y-51506009D01*
X51063211Y-51506009D01*
X49867666Y-50310464D01*
X49932255Y-49985750D01*
X60665000Y-49985750D01*
X60665000Y-50451310D01*
X60761673Y-50684699D01*
X60940302Y-50863327D01*
X61173691Y-50960000D01*
X61764250Y-50960000D01*
X61923000Y-50801250D01*
X61923000Y-49827000D01*
X60823750Y-49827000D01*
X60665000Y-49985750D01*
X49932255Y-49985750D01*
X49943345Y-49930000D01*
X49829271Y-49356511D01*
X49564331Y-48960000D01*
X60665000Y-48960000D01*
X60665000Y-49414250D01*
X60665000Y-49414250D01*
G37*
X60665000Y-49414250D02*
X60823750Y-49573000D01*
X61923000Y-49573000D01*
X61923000Y-49553000D01*
X62177000Y-49553000D01*
X62177000Y-49573000D01*
X62197000Y-49573000D01*
X62197000Y-49827000D01*
X62177000Y-49827000D01*
X62177000Y-50801250D01*
X62335750Y-50960000D01*
X62926309Y-50960000D01*
X63159698Y-50863327D01*
X63300936Y-50722090D01*
X63335910Y-50776441D01*
X63548110Y-50921431D01*
X63800000Y-50972440D01*
X65300000Y-50972440D01*
X65535317Y-50928162D01*
X65751441Y-50789090D01*
X65896431Y-50576890D01*
X65920102Y-50460000D01*
X66715000Y-50460000D01*
X66715000Y-50476310D01*
X66716667Y-50480335D01*
X66702560Y-50550000D01*
X66702560Y-50850000D01*
X66722067Y-50953671D01*
X66702560Y-51050000D01*
X66702560Y-51350000D01*
X66722067Y-51453671D01*
X66711468Y-51506009D01*
X51063211Y-51506009D01*
X49867666Y-50310464D01*
X49932255Y-49985750D01*
X60665000Y-49985750D01*
X60665000Y-50451310D01*
X60761673Y-50684699D01*
X60940302Y-50863327D01*
X61173691Y-50960000D01*
X61764250Y-50960000D01*
X61923000Y-50801250D01*
X61923000Y-49827000D01*
X60823750Y-49827000D01*
X60665000Y-49985750D01*
X49932255Y-49985750D01*
X49943345Y-49930000D01*
X49829271Y-49356511D01*
X49564331Y-48960000D01*
X60665000Y-48960000D01*
X60665000Y-49414250D01*
G36*
X95710197Y-27110197D02*
X95683006Y-27150590D01*
X95673000Y-27200000D01*
X95673000Y-29200000D01*
X95682334Y-29247789D01*
X95710197Y-29289803D01*
X97710197Y-31289803D01*
X97750590Y-31316994D01*
X97800000Y-31327000D01*
X99800000Y-31327000D01*
X99847789Y-31317666D01*
X99889803Y-31289803D01*
X100090000Y-31089606D01*
X100090000Y-50949560D01*
X97165000Y-50949560D01*
X96929683Y-50993838D01*
X96713559Y-51132910D01*
X96684477Y-51175473D01*
X96678107Y-51160057D01*
X96415317Y-50896808D01*
X96071789Y-50754162D01*
X95699823Y-50753838D01*
X95356047Y-50895883D01*
X95246000Y-51005738D01*
X95246000Y-49684440D01*
X96682000Y-49684440D01*
X96917317Y-49640162D01*
X97133441Y-49501090D01*
X97278431Y-49288890D01*
X97281081Y-49275803D01*
X97417910Y-49488441D01*
X97630110Y-49633431D01*
X97770083Y-49661776D01*
X97744162Y-49724201D01*
X97743838Y-50096167D01*
X97885883Y-50439943D01*
X98148673Y-50703192D01*
X98492201Y-50845838D01*
X98864167Y-50846162D01*
X99207943Y-50704117D01*
X99471192Y-50441327D01*
X99613838Y-50097799D01*
X99614162Y-49725833D01*
X99581545Y-49646893D01*
X99617317Y-49640162D01*
X99833441Y-49501090D01*
X99978431Y-49288890D01*
X100029440Y-49037000D01*
X100029440Y-47737000D01*
X99985162Y-47501683D01*
X99846090Y-47285559D01*
X99633890Y-47140569D01*
X99382000Y-47089560D01*
X97882000Y-47089560D01*
X97646683Y-47133838D01*
X97430559Y-47272910D01*
X97285569Y-47485110D01*
X97282919Y-47498197D01*
X97146090Y-47285559D01*
X96933890Y-47140569D01*
X96682000Y-47089560D01*
X95182000Y-47089560D01*
X94946683Y-47133838D01*
X94730559Y-47272910D01*
X94585569Y-47485110D01*
X94577958Y-47522694D01*
X94452274Y-47547695D01*
X86932244Y-40027664D01*
X86932241Y-40027662D01*
X86032020Y-39127440D01*
X86122000Y-39127440D01*
X86357317Y-39083162D01*
X86573441Y-38944090D01*
X86718431Y-38731890D01*
X86769440Y-38480000D01*
X86769440Y-37515750D01*
X87487000Y-37515750D01*
X87487000Y-38606310D01*
X87583673Y-38839699D01*
X87762302Y-39018327D01*
X87995691Y-39115000D01*
X88836250Y-39115000D01*
X88995000Y-38956250D01*
X88995000Y-37357000D01*
X89249000Y-37357000D01*
X89249000Y-38956250D01*
X89407750Y-39115000D01*
X90248309Y-39115000D01*
X90481698Y-39018327D01*
X90660327Y-38839699D01*
X90757000Y-38606310D01*
X90757000Y-37515750D01*
X90598250Y-37357000D01*
X89249000Y-37357000D01*
X88995000Y-37357000D01*
X87645750Y-37357000D01*
X87487000Y-37515750D01*
X86769440Y-37515750D01*
X86769440Y-35980000D01*
X86745674Y-35853690D01*
X87487000Y-35853690D01*
X87487000Y-36944250D01*
X87645750Y-37103000D01*
X88995000Y-37103000D01*
X88995000Y-35503750D01*
X89249000Y-35503750D01*
X89249000Y-37103000D01*
X90598250Y-37103000D01*
X90757000Y-36944250D01*
X90757000Y-35853690D01*
X90660327Y-35620301D01*
X90481698Y-35441673D01*
X90248309Y-35345000D01*
X89407750Y-35345000D01*
X89249000Y-35503750D01*
X88995000Y-35503750D01*
X88836250Y-35345000D01*
X87995691Y-35345000D01*
X87762302Y-35441673D01*
X87583673Y-35620301D01*
X87487000Y-35853690D01*
X86745674Y-35853690D01*
X86725162Y-35744683D01*
X86586090Y-35528559D01*
X86373890Y-35383569D01*
X86122000Y-35332560D01*
X86007000Y-35332560D01*
X86007000Y-31634070D01*
X86155317Y-31606162D01*
X86371441Y-31467090D01*
X86516431Y-31254890D01*
X86567440Y-31003000D01*
X86567440Y-29703000D01*
X86523162Y-29467683D01*
X86438775Y-29336543D01*
X86516431Y-29222890D01*
X86567440Y-28971000D01*
X86567440Y-27671000D01*
X86523162Y-27435683D01*
X86384090Y-27219559D01*
X86171890Y-27074569D01*
X85920000Y-27023560D01*
X84420000Y-27023560D01*
X84184683Y-27067838D01*
X83968559Y-27206910D01*
X83823569Y-27419110D01*
X83820919Y-27432197D01*
X83684090Y-27219559D01*
X83471890Y-27074569D01*
X83220000Y-27023560D01*
X81720000Y-27023560D01*
X81484683Y-27067838D01*
X81268559Y-27206910D01*
X81123569Y-27419110D01*
X81107092Y-27500474D01*
X80831799Y-27386162D01*
X80459833Y-27385838D01*
X80116057Y-27527883D01*
X79852808Y-27790673D01*
X79710162Y-28134201D01*
X79709838Y-28506167D01*
X79851883Y-28849943D01*
X80114673Y-29113192D01*
X80458201Y-29255838D01*
X80830167Y-29256162D01*
X81104860Y-29142661D01*
X81116838Y-29206317D01*
X81201225Y-29337457D01*
X81123569Y-29451110D01*
X81072560Y-29703000D01*
X81072560Y-29722080D01*
X80932599Y-29815599D01*
X80393198Y-30355000D01*
X79088554Y-30355000D01*
X79175441Y-30299090D01*
X79320431Y-30086890D01*
X79371440Y-29835000D01*
X79371440Y-26910000D01*
X95910394Y-26910000D01*
X95710197Y-27110197D01*
X95710197Y-27110197D01*
G37*
X95710197Y-27110197D02*
X95683006Y-27150590D01*
X95673000Y-27200000D01*
X95673000Y-29200000D01*
X95682334Y-29247789D01*
X95710197Y-29289803D01*
X97710197Y-31289803D01*
X97750590Y-31316994D01*
X97800000Y-31327000D01*
X99800000Y-31327000D01*
X99847789Y-31317666D01*
X99889803Y-31289803D01*
X100090000Y-31089606D01*
X100090000Y-50949560D01*
X97165000Y-50949560D01*
X96929683Y-50993838D01*
X96713559Y-51132910D01*
X96684477Y-51175473D01*
X96678107Y-51160057D01*
X96415317Y-50896808D01*
X96071789Y-50754162D01*
X95699823Y-50753838D01*
X95356047Y-50895883D01*
X95246000Y-51005738D01*
X95246000Y-49684440D01*
X96682000Y-49684440D01*
X96917317Y-49640162D01*
X97133441Y-49501090D01*
X97278431Y-49288890D01*
X97281081Y-49275803D01*
X97417910Y-49488441D01*
X97630110Y-49633431D01*
X97770083Y-49661776D01*
X97744162Y-49724201D01*
X97743838Y-50096167D01*
X97885883Y-50439943D01*
X98148673Y-50703192D01*
X98492201Y-50845838D01*
X98864167Y-50846162D01*
X99207943Y-50704117D01*
X99471192Y-50441327D01*
X99613838Y-50097799D01*
X99614162Y-49725833D01*
X99581545Y-49646893D01*
X99617317Y-49640162D01*
X99833441Y-49501090D01*
X99978431Y-49288890D01*
X100029440Y-49037000D01*
X100029440Y-47737000D01*
X99985162Y-47501683D01*
X99846090Y-47285559D01*
X99633890Y-47140569D01*
X99382000Y-47089560D01*
X97882000Y-47089560D01*
X97646683Y-47133838D01*
X97430559Y-47272910D01*
X97285569Y-47485110D01*
X97282919Y-47498197D01*
X97146090Y-47285559D01*
X96933890Y-47140569D01*
X96682000Y-47089560D01*
X95182000Y-47089560D01*
X94946683Y-47133838D01*
X94730559Y-47272910D01*
X94585569Y-47485110D01*
X94577958Y-47522694D01*
X94452274Y-47547695D01*
X86932244Y-40027664D01*
X86932241Y-40027662D01*
X86032020Y-39127440D01*
X86122000Y-39127440D01*
X86357317Y-39083162D01*
X86573441Y-38944090D01*
X86718431Y-38731890D01*
X86769440Y-38480000D01*
X86769440Y-37515750D01*
X87487000Y-37515750D01*
X87487000Y-38606310D01*
X87583673Y-38839699D01*
X87762302Y-39018327D01*
X87995691Y-39115000D01*
X88836250Y-39115000D01*
X88995000Y-38956250D01*
X88995000Y-37357000D01*
X89249000Y-37357000D01*
X89249000Y-38956250D01*
X89407750Y-39115000D01*
X90248309Y-39115000D01*
X90481698Y-39018327D01*
X90660327Y-38839699D01*
X90757000Y-38606310D01*
X90757000Y-37515750D01*
X90598250Y-37357000D01*
X89249000Y-37357000D01*
X88995000Y-37357000D01*
X87645750Y-37357000D01*
X87487000Y-37515750D01*
X86769440Y-37515750D01*
X86769440Y-35980000D01*
X86745674Y-35853690D01*
X87487000Y-35853690D01*
X87487000Y-36944250D01*
X87645750Y-37103000D01*
X88995000Y-37103000D01*
X88995000Y-35503750D01*
X89249000Y-35503750D01*
X89249000Y-37103000D01*
X90598250Y-37103000D01*
X90757000Y-36944250D01*
X90757000Y-35853690D01*
X90660327Y-35620301D01*
X90481698Y-35441673D01*
X90248309Y-35345000D01*
X89407750Y-35345000D01*
X89249000Y-35503750D01*
X88995000Y-35503750D01*
X88836250Y-35345000D01*
X87995691Y-35345000D01*
X87762302Y-35441673D01*
X87583673Y-35620301D01*
X87487000Y-35853690D01*
X86745674Y-35853690D01*
X86725162Y-35744683D01*
X86586090Y-35528559D01*
X86373890Y-35383569D01*
X86122000Y-35332560D01*
X86007000Y-35332560D01*
X86007000Y-31634070D01*
X86155317Y-31606162D01*
X86371441Y-31467090D01*
X86516431Y-31254890D01*
X86567440Y-31003000D01*
X86567440Y-29703000D01*
X86523162Y-29467683D01*
X86438775Y-29336543D01*
X86516431Y-29222890D01*
X86567440Y-28971000D01*
X86567440Y-27671000D01*
X86523162Y-27435683D01*
X86384090Y-27219559D01*
X86171890Y-27074569D01*
X85920000Y-27023560D01*
X84420000Y-27023560D01*
X84184683Y-27067838D01*
X83968559Y-27206910D01*
X83823569Y-27419110D01*
X83820919Y-27432197D01*
X83684090Y-27219559D01*
X83471890Y-27074569D01*
X83220000Y-27023560D01*
X81720000Y-27023560D01*
X81484683Y-27067838D01*
X81268559Y-27206910D01*
X81123569Y-27419110D01*
X81107092Y-27500474D01*
X80831799Y-27386162D01*
X80459833Y-27385838D01*
X80116057Y-27527883D01*
X79852808Y-27790673D01*
X79710162Y-28134201D01*
X79709838Y-28506167D01*
X79851883Y-28849943D01*
X80114673Y-29113192D01*
X80458201Y-29255838D01*
X80830167Y-29256162D01*
X81104860Y-29142661D01*
X81116838Y-29206317D01*
X81201225Y-29337457D01*
X81123569Y-29451110D01*
X81072560Y-29703000D01*
X81072560Y-29722080D01*
X80932599Y-29815599D01*
X80393198Y-30355000D01*
X79088554Y-30355000D01*
X79175441Y-30299090D01*
X79320431Y-30086890D01*
X79371440Y-29835000D01*
X79371440Y-26910000D01*
X95910394Y-26910000D01*
X95710197Y-27110197D01*
G36*
X70519830Y-44871080D02*
X70533750Y-44885000D01*
X70576310Y-44885000D01*
X70580335Y-44883333D01*
X70650000Y-44897440D01*
X70950000Y-44897440D01*
X71053671Y-44877933D01*
X71150000Y-44897440D01*
X71450000Y-44897440D01*
X71553671Y-44877933D01*
X71650000Y-44897440D01*
X71950000Y-44897440D01*
X72053671Y-44877933D01*
X72150000Y-44897440D01*
X72450000Y-44897440D01*
X72553671Y-44877933D01*
X72650000Y-44897440D01*
X72950000Y-44897440D01*
X73053671Y-44877933D01*
X73150000Y-44897440D01*
X73450000Y-44897440D01*
X73553671Y-44877933D01*
X73650000Y-44897440D01*
X73950000Y-44897440D01*
X74053671Y-44877933D01*
X74150000Y-44897440D01*
X74450000Y-44897440D01*
X74553671Y-44877933D01*
X74650000Y-44897440D01*
X74950000Y-44897440D01*
X75053671Y-44877933D01*
X75150000Y-44897440D01*
X75450000Y-44897440D01*
X75553671Y-44877933D01*
X75650000Y-44897440D01*
X75950000Y-44897440D01*
X76053671Y-44877933D01*
X76150000Y-44897440D01*
X76450000Y-44897440D01*
X76553671Y-44877933D01*
X76650000Y-44897440D01*
X76950000Y-44897440D01*
X77053671Y-44877933D01*
X77150000Y-44897440D01*
X77450000Y-44897440D01*
X77553671Y-44877933D01*
X77650000Y-44897440D01*
X77950000Y-44897440D01*
X78053671Y-44877933D01*
X78150000Y-44897440D01*
X78450000Y-44897440D01*
X78553671Y-44877933D01*
X78650000Y-44897440D01*
X78950000Y-44897440D01*
X79021323Y-44884020D01*
X79023690Y-44885000D01*
X79066250Y-44885000D01*
X79077871Y-44873379D01*
X79148174Y-44860151D01*
X79262599Y-45031401D01*
X79726599Y-45495401D01*
X79973161Y-45660148D01*
X80035734Y-45672595D01*
X79857328Y-45851000D01*
X70481000Y-45851000D01*
X70481000Y-44986003D01*
X70481001Y-44985998D01*
X70455553Y-44858064D01*
X70519830Y-44871080D01*
X70519830Y-44871080D01*
G37*
X70519830Y-44871080D02*
X70533750Y-44885000D01*
X70576310Y-44885000D01*
X70580335Y-44883333D01*
X70650000Y-44897440D01*
X70950000Y-44897440D01*
X71053671Y-44877933D01*
X71150000Y-44897440D01*
X71450000Y-44897440D01*
X71553671Y-44877933D01*
X71650000Y-44897440D01*
X71950000Y-44897440D01*
X72053671Y-44877933D01*
X72150000Y-44897440D01*
X72450000Y-44897440D01*
X72553671Y-44877933D01*
X72650000Y-44897440D01*
X72950000Y-44897440D01*
X73053671Y-44877933D01*
X73150000Y-44897440D01*
X73450000Y-44897440D01*
X73553671Y-44877933D01*
X73650000Y-44897440D01*
X73950000Y-44897440D01*
X74053671Y-44877933D01*
X74150000Y-44897440D01*
X74450000Y-44897440D01*
X74553671Y-44877933D01*
X74650000Y-44897440D01*
X74950000Y-44897440D01*
X75053671Y-44877933D01*
X75150000Y-44897440D01*
X75450000Y-44897440D01*
X75553671Y-44877933D01*
X75650000Y-44897440D01*
X75950000Y-44897440D01*
X76053671Y-44877933D01*
X76150000Y-44897440D01*
X76450000Y-44897440D01*
X76553671Y-44877933D01*
X76650000Y-44897440D01*
X76950000Y-44897440D01*
X77053671Y-44877933D01*
X77150000Y-44897440D01*
X77450000Y-44897440D01*
X77553671Y-44877933D01*
X77650000Y-44897440D01*
X77950000Y-44897440D01*
X78053671Y-44877933D01*
X78150000Y-44897440D01*
X78450000Y-44897440D01*
X78553671Y-44877933D01*
X78650000Y-44897440D01*
X78950000Y-44897440D01*
X79021323Y-44884020D01*
X79023690Y-44885000D01*
X79066250Y-44885000D01*
X79077871Y-44873379D01*
X79148174Y-44860151D01*
X79262599Y-45031401D01*
X79726599Y-45495401D01*
X79973161Y-45660148D01*
X80035734Y-45672595D01*
X79857328Y-45851000D01*
X70481000Y-45851000D01*
X70481000Y-44986003D01*
X70481001Y-44985998D01*
X70455553Y-44858064D01*
X70519830Y-44871080D01*
G36*
X76408162Y-31309201D02*
X76407838Y-31681167D01*
X76549883Y-32024943D01*
X76812673Y-32288192D01*
X77156201Y-32430838D01*
X77528167Y-32431162D01*
X77871943Y-32289117D01*
X78135192Y-32026327D01*
X78198029Y-31875000D01*
X80708000Y-31875000D01*
X80998839Y-31817148D01*
X81245401Y-31652401D01*
X81367271Y-31530531D01*
X81468110Y-31599431D01*
X81720000Y-31650440D01*
X83220000Y-31650440D01*
X83455317Y-31606162D01*
X83671441Y-31467090D01*
X83816431Y-31254890D01*
X83819081Y-31241803D01*
X83955910Y-31454441D01*
X84168110Y-31599431D01*
X84237000Y-31613382D01*
X84237000Y-35332560D01*
X84122000Y-35332560D01*
X83886683Y-35376838D01*
X83670559Y-35515910D01*
X83525569Y-35728110D01*
X83474560Y-35980000D01*
X83474560Y-38480000D01*
X83518838Y-38715317D01*
X83657910Y-38931441D01*
X83870110Y-39076431D01*
X84122000Y-39127440D01*
X84237000Y-39127440D01*
X84237000Y-39468995D01*
X84236999Y-39469000D01*
X84282949Y-39700000D01*
X84304367Y-39807675D01*
X84451358Y-40027664D01*
X84496210Y-40094790D01*
X85054875Y-40653454D01*
X82597440Y-43110888D01*
X82597440Y-42750000D01*
X82553162Y-42514683D01*
X82414090Y-42298559D01*
X82201890Y-42153569D01*
X81950000Y-42102560D01*
X81650000Y-42102560D01*
X81546329Y-42122067D01*
X81450000Y-42102560D01*
X81150000Y-42102560D01*
X81046329Y-42122067D01*
X80950000Y-42102560D01*
X80650000Y-42102560D01*
X80546329Y-42122067D01*
X80450000Y-42102560D01*
X80150000Y-42102560D01*
X80046329Y-42122067D01*
X79950000Y-42102560D01*
X79650000Y-42102560D01*
X79578677Y-42115980D01*
X79576310Y-42115000D01*
X79533750Y-42115000D01*
X79522129Y-42126621D01*
X79414683Y-42146838D01*
X79300022Y-42220620D01*
X79201890Y-42153569D01*
X79080170Y-42128920D01*
X79066250Y-42115000D01*
X79023690Y-42115000D01*
X79019665Y-42116667D01*
X78950000Y-42102560D01*
X78650000Y-42102560D01*
X78546329Y-42122067D01*
X78450000Y-42102560D01*
X78150000Y-42102560D01*
X78046329Y-42122067D01*
X77950000Y-42102560D01*
X77650000Y-42102560D01*
X77546329Y-42122067D01*
X77450000Y-42102560D01*
X77150000Y-42102560D01*
X77046329Y-42122067D01*
X76950000Y-42102560D01*
X76650000Y-42102560D01*
X76546329Y-42122067D01*
X76450000Y-42102560D01*
X76150000Y-42102560D01*
X76046329Y-42122067D01*
X75950000Y-42102560D01*
X75650000Y-42102560D01*
X75560000Y-42119495D01*
X75560000Y-41689806D01*
X75587401Y-41662405D01*
X75752148Y-41415844D01*
X75810000Y-41125004D01*
X75810000Y-40262463D01*
X75842192Y-40230327D01*
X75984838Y-39886799D01*
X75985162Y-39514833D01*
X75843117Y-39171057D01*
X75580327Y-38907808D01*
X75236799Y-38765162D01*
X74864833Y-38764838D01*
X74521057Y-38906883D01*
X74257808Y-39169673D01*
X74115162Y-39513201D01*
X74114943Y-39764838D01*
X74114827Y-39764838D01*
X73771051Y-39906883D01*
X73507802Y-40169673D01*
X73365156Y-40513201D01*
X73364937Y-40764838D01*
X73364833Y-40764838D01*
X73021057Y-40906883D01*
X72757808Y-41169673D01*
X72615162Y-41513201D01*
X72614838Y-41885167D01*
X72704663Y-42102560D01*
X72650000Y-42102560D01*
X72546329Y-42122067D01*
X72450000Y-42102560D01*
X72150000Y-42102560D01*
X72046329Y-42122067D01*
X71950000Y-42102560D01*
X71650000Y-42102560D01*
X71614577Y-42109225D01*
X71837401Y-41886401D01*
X72002148Y-41639839D01*
X72060000Y-41349000D01*
X72060000Y-41322038D01*
X72160317Y-41303162D01*
X72376441Y-41164090D01*
X72521431Y-40951890D01*
X72572440Y-40700000D01*
X72572440Y-39200000D01*
X72528162Y-38964683D01*
X72389090Y-38748559D01*
X72320994Y-38702031D01*
X72463327Y-38559698D01*
X72560000Y-38326309D01*
X72560000Y-37735750D01*
X72401250Y-37577000D01*
X71427000Y-37577000D01*
X71427000Y-37597000D01*
X71173000Y-37597000D01*
X71173000Y-37577000D01*
X70198750Y-37577000D01*
X70175000Y-37600750D01*
X70151250Y-37577000D01*
X69177000Y-37577000D01*
X69177000Y-37597000D01*
X68923000Y-37597000D01*
X68923000Y-37577000D01*
X67948750Y-37577000D01*
X67790000Y-37735750D01*
X67790000Y-38326309D01*
X67886673Y-38559698D01*
X68027910Y-38700936D01*
X67973559Y-38735910D01*
X67828569Y-38948110D01*
X67808926Y-39045112D01*
X67736799Y-39015162D01*
X67364833Y-39014838D01*
X67181000Y-39090796D01*
X67181000Y-36573691D01*
X67790000Y-36573691D01*
X67790000Y-37164250D01*
X67948750Y-37323000D01*
X68923000Y-37323000D01*
X68923000Y-36223750D01*
X69177000Y-36223750D01*
X69177000Y-37323000D01*
X70151250Y-37323000D01*
X70175000Y-37299250D01*
X70198750Y-37323000D01*
X71173000Y-37323000D01*
X71173000Y-36223750D01*
X71427000Y-36223750D01*
X71427000Y-37323000D01*
X72401250Y-37323000D01*
X72560000Y-37164250D01*
X72560000Y-36573691D01*
X72463327Y-36340302D01*
X72284699Y-36161673D01*
X72051310Y-36065000D01*
X71585750Y-36065000D01*
X71427000Y-36223750D01*
X71173000Y-36223750D01*
X71014250Y-36065000D01*
X70548690Y-36065000D01*
X70315301Y-36161673D01*
X70175000Y-36301975D01*
X70034699Y-36161673D01*
X69801310Y-36065000D01*
X69335750Y-36065000D01*
X69177000Y-36223750D01*
X68923000Y-36223750D01*
X68764250Y-36065000D01*
X68298690Y-36065000D01*
X68065301Y-36161673D01*
X67886673Y-36340302D01*
X67790000Y-36573691D01*
X67181000Y-36573691D01*
X67181000Y-34479212D01*
X67300212Y-34360000D01*
X72959000Y-34360000D01*
X73249839Y-34302148D01*
X73496401Y-34137401D01*
X76467499Y-31166303D01*
X76408162Y-31309201D01*
X76408162Y-31309201D01*
G37*
X76408162Y-31309201D02*
X76407838Y-31681167D01*
X76549883Y-32024943D01*
X76812673Y-32288192D01*
X77156201Y-32430838D01*
X77528167Y-32431162D01*
X77871943Y-32289117D01*
X78135192Y-32026327D01*
X78198029Y-31875000D01*
X80708000Y-31875000D01*
X80998839Y-31817148D01*
X81245401Y-31652401D01*
X81367271Y-31530531D01*
X81468110Y-31599431D01*
X81720000Y-31650440D01*
X83220000Y-31650440D01*
X83455317Y-31606162D01*
X83671441Y-31467090D01*
X83816431Y-31254890D01*
X83819081Y-31241803D01*
X83955910Y-31454441D01*
X84168110Y-31599431D01*
X84237000Y-31613382D01*
X84237000Y-35332560D01*
X84122000Y-35332560D01*
X83886683Y-35376838D01*
X83670559Y-35515910D01*
X83525569Y-35728110D01*
X83474560Y-35980000D01*
X83474560Y-38480000D01*
X83518838Y-38715317D01*
X83657910Y-38931441D01*
X83870110Y-39076431D01*
X84122000Y-39127440D01*
X84237000Y-39127440D01*
X84237000Y-39468995D01*
X84236999Y-39469000D01*
X84282949Y-39700000D01*
X84304367Y-39807675D01*
X84451358Y-40027664D01*
X84496210Y-40094790D01*
X85054875Y-40653454D01*
X82597440Y-43110888D01*
X82597440Y-42750000D01*
X82553162Y-42514683D01*
X82414090Y-42298559D01*
X82201890Y-42153569D01*
X81950000Y-42102560D01*
X81650000Y-42102560D01*
X81546329Y-42122067D01*
X81450000Y-42102560D01*
X81150000Y-42102560D01*
X81046329Y-42122067D01*
X80950000Y-42102560D01*
X80650000Y-42102560D01*
X80546329Y-42122067D01*
X80450000Y-42102560D01*
X80150000Y-42102560D01*
X80046329Y-42122067D01*
X79950000Y-42102560D01*
X79650000Y-42102560D01*
X79578677Y-42115980D01*
X79576310Y-42115000D01*
X79533750Y-42115000D01*
X79522129Y-42126621D01*
X79414683Y-42146838D01*
X79300022Y-42220620D01*
X79201890Y-42153569D01*
X79080170Y-42128920D01*
X79066250Y-42115000D01*
X79023690Y-42115000D01*
X79019665Y-42116667D01*
X78950000Y-42102560D01*
X78650000Y-42102560D01*
X78546329Y-42122067D01*
X78450000Y-42102560D01*
X78150000Y-42102560D01*
X78046329Y-42122067D01*
X77950000Y-42102560D01*
X77650000Y-42102560D01*
X77546329Y-42122067D01*
X77450000Y-42102560D01*
X77150000Y-42102560D01*
X77046329Y-42122067D01*
X76950000Y-42102560D01*
X76650000Y-42102560D01*
X76546329Y-42122067D01*
X76450000Y-42102560D01*
X76150000Y-42102560D01*
X76046329Y-42122067D01*
X75950000Y-42102560D01*
X75650000Y-42102560D01*
X75560000Y-42119495D01*
X75560000Y-41689806D01*
X75587401Y-41662405D01*
X75752148Y-41415844D01*
X75810000Y-41125004D01*
X75810000Y-40262463D01*
X75842192Y-40230327D01*
X75984838Y-39886799D01*
X75985162Y-39514833D01*
X75843117Y-39171057D01*
X75580327Y-38907808D01*
X75236799Y-38765162D01*
X74864833Y-38764838D01*
X74521057Y-38906883D01*
X74257808Y-39169673D01*
X74115162Y-39513201D01*
X74114943Y-39764838D01*
X74114827Y-39764838D01*
X73771051Y-39906883D01*
X73507802Y-40169673D01*
X73365156Y-40513201D01*
X73364937Y-40764838D01*
X73364833Y-40764838D01*
X73021057Y-40906883D01*
X72757808Y-41169673D01*
X72615162Y-41513201D01*
X72614838Y-41885167D01*
X72704663Y-42102560D01*
X72650000Y-42102560D01*
X72546329Y-42122067D01*
X72450000Y-42102560D01*
X72150000Y-42102560D01*
X72046329Y-42122067D01*
X71950000Y-42102560D01*
X71650000Y-42102560D01*
X71614577Y-42109225D01*
X71837401Y-41886401D01*
X72002148Y-41639839D01*
X72060000Y-41349000D01*
X72060000Y-41322038D01*
X72160317Y-41303162D01*
X72376441Y-41164090D01*
X72521431Y-40951890D01*
X72572440Y-40700000D01*
X72572440Y-39200000D01*
X72528162Y-38964683D01*
X72389090Y-38748559D01*
X72320994Y-38702031D01*
X72463327Y-38559698D01*
X72560000Y-38326309D01*
X72560000Y-37735750D01*
X72401250Y-37577000D01*
X71427000Y-37577000D01*
X71427000Y-37597000D01*
X71173000Y-37597000D01*
X71173000Y-37577000D01*
X70198750Y-37577000D01*
X70175000Y-37600750D01*
X70151250Y-37577000D01*
X69177000Y-37577000D01*
X69177000Y-37597000D01*
X68923000Y-37597000D01*
X68923000Y-37577000D01*
X67948750Y-37577000D01*
X67790000Y-37735750D01*
X67790000Y-38326309D01*
X67886673Y-38559698D01*
X68027910Y-38700936D01*
X67973559Y-38735910D01*
X67828569Y-38948110D01*
X67808926Y-39045112D01*
X67736799Y-39015162D01*
X67364833Y-39014838D01*
X67181000Y-39090796D01*
X67181000Y-36573691D01*
X67790000Y-36573691D01*
X67790000Y-37164250D01*
X67948750Y-37323000D01*
X68923000Y-37323000D01*
X68923000Y-36223750D01*
X69177000Y-36223750D01*
X69177000Y-37323000D01*
X70151250Y-37323000D01*
X70175000Y-37299250D01*
X70198750Y-37323000D01*
X71173000Y-37323000D01*
X71173000Y-36223750D01*
X71427000Y-36223750D01*
X71427000Y-37323000D01*
X72401250Y-37323000D01*
X72560000Y-37164250D01*
X72560000Y-36573691D01*
X72463327Y-36340302D01*
X72284699Y-36161673D01*
X72051310Y-36065000D01*
X71585750Y-36065000D01*
X71427000Y-36223750D01*
X71173000Y-36223750D01*
X71014250Y-36065000D01*
X70548690Y-36065000D01*
X70315301Y-36161673D01*
X70175000Y-36301975D01*
X70034699Y-36161673D01*
X69801310Y-36065000D01*
X69335750Y-36065000D01*
X69177000Y-36223750D01*
X68923000Y-36223750D01*
X68764250Y-36065000D01*
X68298690Y-36065000D01*
X68065301Y-36161673D01*
X67886673Y-36340302D01*
X67790000Y-36573691D01*
X67181000Y-36573691D01*
X67181000Y-34479212D01*
X67300212Y-34360000D01*
X72959000Y-34360000D01*
X73249839Y-34302148D01*
X73496401Y-34137401D01*
X76467499Y-31166303D01*
X76408162Y-31309201D01*
G36*
X75056998Y-30427200D02*
X72644198Y-32840000D01*
X68156459Y-32840000D01*
X68266148Y-32675839D01*
X68324000Y-32385000D01*
X68324000Y-30482440D01*
X68564000Y-30482440D01*
X68799317Y-30438162D01*
X68831578Y-30417402D01*
X68852110Y-30431431D01*
X69104000Y-30482440D01*
X69344000Y-30482440D01*
X69344000Y-30552539D01*
X69311808Y-30584675D01*
X69169162Y-30928203D01*
X69168838Y-31300169D01*
X69310883Y-31643945D01*
X69573673Y-31907194D01*
X69917201Y-32049840D01*
X70289167Y-32050164D01*
X70632943Y-31908119D01*
X70896192Y-31645329D01*
X71038838Y-31301801D01*
X71039162Y-30929835D01*
X70897117Y-30586059D01*
X70864000Y-30552884D01*
X70864000Y-30482440D01*
X71104000Y-30482440D01*
X71339317Y-30438162D01*
X71371578Y-30417402D01*
X71392110Y-30431431D01*
X71644000Y-30482440D01*
X73644000Y-30482440D01*
X73879317Y-30438162D01*
X73919070Y-30412581D01*
X74057691Y-30470000D01*
X74898250Y-30470000D01*
X75056998Y-30311252D01*
X75056998Y-30427200D01*
X75056998Y-30427200D01*
G37*
X75056998Y-30427200D02*
X72644198Y-32840000D01*
X68156459Y-32840000D01*
X68266148Y-32675839D01*
X68324000Y-32385000D01*
X68324000Y-30482440D01*
X68564000Y-30482440D01*
X68799317Y-30438162D01*
X68831578Y-30417402D01*
X68852110Y-30431431D01*
X69104000Y-30482440D01*
X69344000Y-30482440D01*
X69344000Y-30552539D01*
X69311808Y-30584675D01*
X69169162Y-30928203D01*
X69168838Y-31300169D01*
X69310883Y-31643945D01*
X69573673Y-31907194D01*
X69917201Y-32049840D01*
X70289167Y-32050164D01*
X70632943Y-31908119D01*
X70896192Y-31645329D01*
X71038838Y-31301801D01*
X71039162Y-30929835D01*
X70897117Y-30586059D01*
X70864000Y-30552884D01*
X70864000Y-30482440D01*
X71104000Y-30482440D01*
X71339317Y-30438162D01*
X71371578Y-30417402D01*
X71392110Y-30431431D01*
X71644000Y-30482440D01*
X73644000Y-30482440D01*
X73879317Y-30438162D01*
X73919070Y-30412581D01*
X74057691Y-30470000D01*
X74898250Y-30470000D01*
X75056998Y-30311252D01*
X75056998Y-30427200D01*
G36*
X75311000Y-28208000D02*
X75331000Y-28208000D01*
X75331000Y-28462000D01*
X75311000Y-28462000D01*
X75311000Y-28482000D01*
X75057000Y-28482000D01*
X75057000Y-28462000D01*
X75037000Y-28462000D01*
X75037000Y-28208000D01*
X75057000Y-28208000D01*
X75057000Y-28188000D01*
X75311000Y-28188000D01*
X75311000Y-28208000D01*
X75311000Y-28208000D01*
G37*
X75311000Y-28208000D02*
X75331000Y-28208000D01*
X75331000Y-28462000D01*
X75311000Y-28462000D01*
X75311000Y-28482000D01*
X75057000Y-28482000D01*
X75057000Y-28462000D01*
X75037000Y-28462000D01*
X75037000Y-28208000D01*
X75057000Y-28208000D01*
X75057000Y-28188000D01*
X75311000Y-28188000D01*
X75311000Y-28208000D01*
M02*
