G04 #@! TF.FileFunction,Copper,L2,Bot,Signal*
%FSLAX46Y46*%
G04 Gerber Fmt 4.6, Leading zero omitted, Abs format (unit mm)*
G04 Created by KiCad (PCBNEW 4.0.2+dfsg1-stable) date Wed 04 Jan 2017 03:35:33 PM JST*
%MOMM*%
G01*
G04 APERTURE LIST*
%ADD10C,0.100000*%
%ADD11C,0.150000*%
%ADD12O,2.032000X1.727200*%
%ADD13R,2.000000X3.000000*%
%ADD14R,3.000000X2.000000*%
%ADD15R,2.032000X2.032000*%
%ADD16O,2.032000X2.032000*%
%ADD17C,1.501140*%
%ADD18C,0.600000*%
%ADD19C,0.250000*%
%ADD20C,0.500000*%
%ADD21C,0.254000*%
G04 APERTURE END LIST*
D10*
D11*
X25000000Y-25000000D02*
X25000000Y25000000D01*
X-25000000Y-25000000D02*
X25000000Y-25000000D01*
X-25000000Y-20000000D02*
X-25000000Y-25000000D01*
X-35000000Y-20000000D02*
X-25000000Y-20000000D01*
X-37000000Y-18000000D02*
X-35000000Y-20000000D01*
X-37000000Y18000000D02*
X-37000000Y-18000000D01*
X-35000000Y20000000D02*
X-37000000Y18000000D01*
X-25000000Y20000000D02*
X-35000000Y20000000D01*
X-25000000Y25000000D02*
X-25000000Y20000000D01*
X25000000Y25000000D02*
X-25000000Y25000000D01*
D12*
X-33500000Y10500000D03*
X-33500000Y7500000D03*
X-33500000Y4500000D03*
X-33500000Y1500000D03*
X-33500000Y-1500000D03*
X-33500000Y-4500000D03*
X-33500000Y-7500000D03*
X-33500000Y-10500000D03*
X-30960000Y10500000D03*
X-30960000Y7500000D03*
X-30960000Y4500000D03*
X-30960000Y1500000D03*
X-30960000Y-1500000D03*
X-30960000Y-4500000D03*
X-30960000Y-7500000D03*
X-30960000Y-10500000D03*
X-28420000Y10500000D03*
X-28420000Y7500000D03*
X-28420000Y4500000D03*
X-28420000Y1500000D03*
X-28420000Y-1500000D03*
X-28420000Y-4500000D03*
X-28420000Y-7500000D03*
X-28420000Y-10500000D03*
D13*
X-8236000Y22865000D03*
X-5696000Y22865000D03*
X-3156000Y22865000D03*
X-616000Y22865000D03*
X1924000Y22865000D03*
D14*
X22865000Y-1397000D03*
X22865000Y-3937000D03*
X22865000Y-6477000D03*
D15*
X-16000000Y23250000D03*
D16*
X-13460000Y23250000D03*
D15*
X-23500000Y-9000000D03*
D16*
X-23500000Y-11540000D03*
D14*
X22865000Y16580000D03*
X22865000Y14040000D03*
X22865000Y11500000D03*
X22865000Y8960000D03*
X22865000Y6420000D03*
D17*
X-4690940Y-20130000D03*
X190940Y-20130000D03*
D18*
X3250000Y16750000D03*
X-19900000Y16800000D03*
X-19900000Y13300000D03*
X-15200000Y-11500000D03*
X-19000000Y-14500000D03*
X15100000Y1200000D03*
X18500000Y4600000D03*
X-29750000Y-17250000D03*
X20250000Y9000000D03*
X-5442000Y-1632002D03*
X-1378000Y-5823000D03*
X-5442000Y-5822996D03*
X3194002Y5861000D03*
X-4679998Y5861000D03*
X-870000Y15894018D03*
X-3537002Y18688000D03*
X18180000Y-4426000D03*
X7766000Y-7728000D03*
X-11030000Y-16110000D03*
X-2140000Y-22206000D03*
X6496000Y-16110000D03*
X3250000Y11750000D03*
X5734000Y400000D03*
X16783000Y13989000D03*
X-9506000Y146000D03*
X-10522004Y-4045000D03*
X-23000000Y-18500000D03*
X-8250000Y11250000D03*
X15500000Y17250000D03*
X-5696006Y1416000D03*
X-3750000Y-10000000D03*
X19704000Y-2394000D03*
X3600000Y800000D03*
X20084990Y-489000D03*
X20085000Y-6477000D03*
X4717996Y-2921000D03*
X3800000Y-2200000D03*
X20084994Y-3937000D03*
X2785872Y-1457069D03*
X22879000Y1289000D03*
X4845000Y22879000D03*
X2250000Y-3000000D03*
X1543000Y19704000D03*
X2999994Y-3750000D03*
X-8000000Y20500000D03*
X3750000Y-4500000D03*
X-13000000Y14750000D03*
X-500000Y9500000D03*
X-15000000Y14000000D03*
X-1500000Y9500000D03*
X-13000000Y13250000D03*
X-2500000Y9500000D03*
X10250000Y750000D03*
X19250000Y6250000D03*
X9250000Y750000D03*
X20250000Y6250000D03*
D19*
X-5696000Y22865000D02*
X-5696000Y22365000D01*
X3250000Y11750000D02*
X3250000Y16750000D01*
X-19900000Y13300000D02*
X-19900000Y16800000D01*
X-33500000Y10500000D02*
X-33500000Y12200000D01*
X-32400000Y13300000D02*
X-19900000Y13300000D01*
X-33500000Y12200000D02*
X-32400000Y13300000D01*
X-16000000Y-11500000D02*
X-15200000Y-11500000D01*
X-19000000Y-14500000D02*
X-16000000Y-11500000D01*
X18500000Y4600000D02*
X15100000Y1200000D01*
X-33500000Y-13500000D02*
X-33500000Y-10500000D01*
X-29750000Y-17250000D02*
X-33500000Y-13500000D01*
X16783000Y13989000D02*
X16783000Y11967000D01*
X19750000Y9000000D02*
X20250000Y9000000D01*
X16783000Y11967000D02*
X19750000Y9000000D01*
X-6712000Y-362002D02*
X-5741999Y-1332003D01*
X-6712000Y3828998D02*
X-6712000Y-362002D01*
X-4679998Y5861000D02*
X-6712000Y3828998D01*
X-5741999Y-1332003D02*
X-5442000Y-1632002D01*
X-5442000Y-5822996D02*
X-5442000Y-1632002D01*
X6496000Y-12554000D02*
X5353000Y-12554000D01*
X-1078001Y-6122999D02*
X-1378000Y-5823000D01*
X5353000Y-12554000D02*
X-1078001Y-6122999D01*
X3194002Y5436736D02*
X3194002Y5861000D01*
X3194002Y2939998D02*
X3194002Y5436736D01*
X5734000Y400000D02*
X3194002Y2939998D01*
X-2140000Y-22206000D02*
X-10522000Y-22206000D01*
X-10522000Y-22206000D02*
X-11030000Y-21698000D01*
X-11030000Y-21698000D02*
X-11030000Y-16110000D01*
X-870000Y15894018D02*
X-3537002Y18561020D01*
X-3537002Y18561020D02*
X-3537002Y18688000D01*
X22865000Y-6477000D02*
X22365000Y-6477000D01*
X18180000Y-7220000D02*
X18180000Y-4426000D01*
X19069000Y-8109000D02*
X18180000Y-7220000D01*
X20733000Y-8109000D02*
X19069000Y-8109000D01*
X22365000Y-6477000D02*
X20733000Y-8109000D01*
X7766000Y-7728000D02*
X6496000Y-8998000D01*
X6496000Y-8998000D02*
X6496000Y-12554000D01*
X6496000Y-12554000D02*
X6496000Y-16110000D01*
X3364264Y11576000D02*
X3250000Y11750000D01*
X14370000Y11576000D02*
X3364264Y11576000D01*
X16783000Y13989000D02*
X14370000Y11576000D01*
X-32620000Y1270000D02*
X-34036000Y1270000D01*
X-9506000Y146000D02*
X-9506000Y-3028996D01*
X-10222005Y-3745001D02*
X-10522004Y-4045000D01*
X-9506000Y-3028996D02*
X-10222005Y-3745001D01*
X-23500000Y-11540000D02*
X-23500000Y-18000000D01*
X-23500000Y-18000000D02*
X-23000000Y-18500000D01*
D20*
X-16000000Y23250000D02*
X-16000000Y13500000D01*
X-13750000Y11250000D02*
X-8250000Y11250000D01*
X-16000000Y13500000D02*
X-13750000Y11250000D01*
X-3750000Y-10000000D02*
X-20500000Y-10000000D01*
X-22040000Y-11540000D02*
X-23500000Y-11540000D01*
X-20500000Y-10000000D02*
X-22040000Y-11540000D01*
X22865000Y16580000D02*
X16170000Y16580000D01*
X16170000Y16580000D02*
X15500000Y17250000D01*
X-5396007Y1116001D02*
X-5696006Y1416000D01*
X-3750000Y-10000000D02*
X-3750000Y-530006D01*
X-3750000Y-530006D02*
X-5396007Y1116001D01*
X22009000Y-3937000D02*
X20466000Y-2394000D01*
X20466000Y-2394000D02*
X19704000Y-2394000D01*
X22865000Y-3937000D02*
X22009000Y-3937000D01*
D19*
X20084990Y-489000D02*
X4889000Y-489000D01*
X3899999Y500001D02*
X3600000Y800000D01*
X4889000Y-489000D02*
X3899999Y500001D01*
X4717996Y-2921000D02*
X5225996Y-2413000D01*
X5225996Y-2413000D02*
X17672000Y-2413000D01*
X17672000Y-2413000D02*
X19100000Y-3841000D01*
X19100000Y-3841000D02*
X19100000Y-4300000D01*
X19100000Y-4300000D02*
X20085000Y-5285000D01*
X20085000Y-5285000D02*
X20085000Y-6477000D01*
X4099999Y-1900001D02*
X3800000Y-2200000D01*
X18047995Y-1900001D02*
X4099999Y-1900001D01*
X20084994Y-3937000D02*
X18047995Y-1900001D01*
X2845941Y-1397000D02*
X2785872Y-1457069D01*
X22865000Y-1397000D02*
X2845941Y-1397000D01*
X22879000Y1289000D02*
X22879000Y-1383000D01*
X22879000Y-1383000D02*
X22865000Y-1397000D01*
X2250000Y-2575736D02*
X2250000Y-3000000D01*
X2004033Y-2329769D02*
X2250000Y-2575736D01*
X2305000Y19069000D02*
X2004033Y18768033D01*
X2305000Y22484000D02*
X2305000Y19069000D01*
X2004033Y18768033D02*
X2004033Y-2329769D01*
X1924000Y22865000D02*
X2305000Y22484000D01*
X4845000Y22879000D02*
X1938000Y22879000D01*
X1938000Y22879000D02*
X1924000Y22865000D01*
X-616000Y20976822D02*
X1554022Y18806800D01*
X-616000Y22865000D02*
X-616000Y20976822D01*
X1543000Y19704000D02*
X1543000Y18817822D01*
X1543000Y18817822D02*
X1554022Y18806800D01*
X2575730Y-3750000D02*
X2999994Y-3750000D01*
X1554022Y-3304022D02*
X2000000Y-3750000D01*
X1554022Y18806800D02*
X1554022Y-3304022D01*
X2000000Y-3750000D02*
X2575730Y-3750000D01*
X-7000000Y20470000D02*
X-7970000Y20470000D01*
X-7970000Y20470000D02*
X-8000000Y20500000D01*
X3325736Y-4500000D02*
X3750000Y-4500000D01*
X2000000Y-4500000D02*
X3325736Y-4500000D01*
X1104011Y-3604011D02*
X2000000Y-4500000D01*
X1104011Y18620400D02*
X1104011Y-3604011D01*
X-745589Y20470000D02*
X1104011Y18620400D01*
X-7051000Y20470000D02*
X-7000000Y20470000D01*
X-7000000Y20470000D02*
X-745589Y20470000D01*
X-12750000Y14500000D02*
X-13000000Y14750000D01*
X-5500000Y14500000D02*
X-12750000Y14500000D01*
X-500000Y9500000D02*
X-5500000Y14500000D01*
X-6000000Y14000000D02*
X-15000000Y14000000D01*
X-1500000Y9500000D02*
X-6000000Y14000000D01*
X-12750000Y13500000D02*
X-13000000Y13250000D01*
X-6500000Y13500000D02*
X-12750000Y13500000D01*
X-2500000Y9500000D02*
X-6500000Y13500000D01*
X15750000Y6250000D02*
X10250000Y750000D01*
X19250000Y6250000D02*
X15750000Y6250000D01*
X15500000Y7000000D02*
X19500000Y7000000D01*
X19500000Y7000000D02*
X20250000Y6250000D01*
X9250000Y750000D02*
X15250000Y6750000D01*
X15250000Y6750000D02*
X15500000Y7000000D01*
D20*
X-8236000Y22865000D02*
X-10615000Y22865000D01*
X-11000000Y23250000D02*
X-13460000Y23250000D01*
X-10615000Y22865000D02*
X-11000000Y23250000D01*
D21*
G36*
X-17663440Y24266000D02*
X-17663440Y22234000D01*
X-17619162Y21998683D01*
X-17480090Y21782559D01*
X-17267890Y21637569D01*
X-17016000Y21586560D01*
X-16885000Y21586560D01*
X-16885000Y13500005D01*
X-16885001Y13500000D01*
X-16844790Y13297852D01*
X-16817633Y13161325D01*
X-16684849Y12962599D01*
X-16625790Y12874210D01*
X-14375792Y10624213D01*
X-14375790Y10624210D01*
X-14183946Y10496025D01*
X-14088674Y10432366D01*
X-13750000Y10364999D01*
X-13749995Y10365000D01*
X-8556822Y10365000D01*
X-8436799Y10315162D01*
X-8064833Y10314838D01*
X-7721057Y10456883D01*
X-7457808Y10719673D01*
X-7315162Y11063201D01*
X-7314838Y11435167D01*
X-7456883Y11778943D01*
X-7719673Y12042192D01*
X-8063201Y12184838D01*
X-8435167Y12185162D01*
X-8556569Y12135000D01*
X-13383421Y12135000D01*
X-14463173Y13214753D01*
X-14437882Y13240000D01*
X-13935009Y13240000D01*
X-13935162Y13064833D01*
X-13793117Y12721057D01*
X-13530327Y12457808D01*
X-13186799Y12315162D01*
X-12814833Y12314838D01*
X-12471057Y12456883D01*
X-12207808Y12719673D01*
X-12199367Y12740000D01*
X-6814802Y12740000D01*
X-3435122Y9360320D01*
X-3435162Y9314833D01*
X-3293117Y8971057D01*
X-3030327Y8707808D01*
X-2686799Y8565162D01*
X-2314833Y8564838D01*
X-1999649Y8695069D01*
X-1686799Y8565162D01*
X-1314833Y8564838D01*
X-999649Y8695069D01*
X-686799Y8565162D01*
X-314833Y8564838D01*
X28943Y8706883D01*
X292192Y8969673D01*
X344011Y9094466D01*
X344011Y-3604011D01*
X401863Y-3894850D01*
X566610Y-4141412D01*
X1462599Y-5037401D01*
X1709161Y-5202148D01*
X2000000Y-5260000D01*
X3187537Y-5260000D01*
X3219673Y-5292192D01*
X3563201Y-5434838D01*
X3935167Y-5435162D01*
X4278943Y-5293117D01*
X4542192Y-5030327D01*
X4684838Y-4686799D01*
X4685162Y-4314833D01*
X4543117Y-3971057D01*
X4355107Y-3782719D01*
X4531197Y-3855838D01*
X4903163Y-3856162D01*
X5246939Y-3714117D01*
X5510188Y-3451327D01*
X5625760Y-3173000D01*
X17357198Y-3173000D01*
X18340000Y-4155802D01*
X18340000Y-4300000D01*
X18397852Y-4590839D01*
X18562599Y-4837401D01*
X19325000Y-5599802D01*
X19325000Y-5914537D01*
X19292808Y-5946673D01*
X19150162Y-6290201D01*
X19149838Y-6662167D01*
X19291883Y-7005943D01*
X19554673Y-7269192D01*
X19898201Y-7411838D01*
X20270167Y-7412162D01*
X20613943Y-7270117D01*
X20730000Y-7154262D01*
X20730000Y-7603309D01*
X20826673Y-7836698D01*
X21005301Y-8015327D01*
X21238690Y-8112000D01*
X22579250Y-8112000D01*
X22738000Y-7953250D01*
X22738000Y-6604000D01*
X22718000Y-6604000D01*
X22718000Y-6350000D01*
X22738000Y-6350000D01*
X22738000Y-6330000D01*
X22992000Y-6330000D01*
X22992000Y-6350000D01*
X23012000Y-6350000D01*
X23012000Y-6604000D01*
X22992000Y-6604000D01*
X22992000Y-7953250D01*
X23150750Y-8112000D01*
X24290000Y-8112000D01*
X24290000Y-21263500D01*
X24195845Y-21035628D01*
X23567679Y-20406364D01*
X22746519Y-20065389D01*
X21857381Y-20064613D01*
X21035628Y-20404155D01*
X20406364Y-21032321D01*
X20065389Y-21853481D01*
X20064613Y-22742619D01*
X20404155Y-23564372D01*
X21032321Y-24193636D01*
X21264392Y-24290000D01*
X-21263500Y-24290000D01*
X-21035628Y-24195845D01*
X-20406364Y-23567679D01*
X-20065389Y-22746519D01*
X-20064613Y-21857381D01*
X-20404155Y-21035628D01*
X-21032321Y-20406364D01*
X-21037055Y-20404398D01*
X-6076750Y-20404398D01*
X-5866254Y-20913837D01*
X-5476827Y-21303944D01*
X-4967756Y-21515329D01*
X-4416542Y-21515810D01*
X-3907103Y-21305314D01*
X-3516996Y-20915887D01*
X-3305611Y-20406816D01*
X-3305609Y-20404398D01*
X-1194870Y-20404398D01*
X-984374Y-20913837D01*
X-594947Y-21303944D01*
X-85876Y-21515329D01*
X465338Y-21515810D01*
X974777Y-21305314D01*
X1364884Y-20915887D01*
X1576269Y-20406816D01*
X1576750Y-19855602D01*
X1366254Y-19346163D01*
X976827Y-18956056D01*
X467756Y-18744671D01*
X-83458Y-18744190D01*
X-592897Y-18954686D01*
X-983004Y-19344113D01*
X-1194389Y-19853184D01*
X-1194870Y-20404398D01*
X-3305609Y-20404398D01*
X-3305130Y-19855602D01*
X-3515626Y-19346163D01*
X-3905053Y-18956056D01*
X-4414124Y-18744671D01*
X-4965338Y-18744190D01*
X-5474777Y-18954686D01*
X-5864884Y-19344113D01*
X-6076269Y-19853184D01*
X-6076750Y-20404398D01*
X-21037055Y-20404398D01*
X-21853481Y-20065389D01*
X-22742619Y-20064613D01*
X-23564372Y-20404155D01*
X-24193636Y-21032321D01*
X-24290000Y-21264392D01*
X-24290000Y-20000000D01*
X-24344046Y-19728295D01*
X-24497954Y-19497954D01*
X-24728295Y-19344046D01*
X-25000000Y-19290000D01*
X-34705908Y-19290000D01*
X-36290000Y-17705908D01*
X-36290000Y-10859026D01*
X-35107358Y-10859026D01*
X-35104709Y-10874791D01*
X-34850732Y-11402036D01*
X-34414320Y-11791954D01*
X-33861913Y-11985184D01*
X-33627000Y-11840924D01*
X-33627000Y-10627000D01*
X-34986217Y-10627000D01*
X-35107358Y-10859026D01*
X-36290000Y-10859026D01*
X-36290000Y-10140974D01*
X-35107358Y-10140974D01*
X-34986217Y-10373000D01*
X-33627000Y-10373000D01*
X-33627000Y-9159076D01*
X-33373000Y-9159076D01*
X-33373000Y-10373000D01*
X-33353000Y-10373000D01*
X-33353000Y-10627000D01*
X-33373000Y-10627000D01*
X-33373000Y-11840924D01*
X-33138087Y-11985184D01*
X-32585680Y-11791954D01*
X-32249754Y-11491816D01*
X-32204415Y-11559670D01*
X-31718234Y-11884526D01*
X-31144745Y-11998600D01*
X-30775255Y-11998600D01*
X-30201766Y-11884526D01*
X-29715585Y-11559670D01*
X-29690000Y-11521379D01*
X-29664415Y-11559670D01*
X-29178234Y-11884526D01*
X-28604745Y-11998600D01*
X-28235255Y-11998600D01*
X-27661766Y-11884526D01*
X-27175585Y-11559670D01*
X-27162442Y-11540000D01*
X-25183345Y-11540000D01*
X-25057670Y-12171810D01*
X-24699778Y-12707433D01*
X-24260000Y-13001283D01*
X-24260000Y-18000000D01*
X-24202148Y-18290839D01*
X-24037401Y-18537401D01*
X-23935122Y-18639680D01*
X-23935162Y-18685167D01*
X-23793117Y-19028943D01*
X-23530327Y-19292192D01*
X-23186799Y-19434838D01*
X-22814833Y-19435162D01*
X-22471057Y-19293117D01*
X-22207808Y-19030327D01*
X-22065162Y-18686799D01*
X-22064838Y-18314833D01*
X-22206883Y-17971057D01*
X-22469673Y-17707808D01*
X-22740000Y-17595558D01*
X-22740000Y-13001283D01*
X-22300222Y-12707433D01*
X-22111506Y-12425000D01*
X-22040005Y-12425000D01*
X-22040000Y-12425001D01*
X-21757516Y-12368810D01*
X-21701325Y-12357633D01*
X-21414210Y-12165790D01*
X-20133421Y-10885000D01*
X-4056822Y-10885000D01*
X-3936799Y-10934838D01*
X-3564833Y-10935162D01*
X-3221057Y-10793117D01*
X-2957808Y-10530327D01*
X-2815162Y-10186799D01*
X-2814838Y-9814833D01*
X-2865000Y-9693431D01*
X-2865000Y-530006D01*
X-2932367Y-191331D01*
X-3124210Y95784D01*
X-3124213Y95786D01*
X-4770217Y1741791D01*
X-4770220Y1741793D01*
X-4853261Y1824835D01*
X-4902889Y1944943D01*
X-5165679Y2208192D01*
X-5509207Y2350838D01*
X-5881173Y2351162D01*
X-6224949Y2209117D01*
X-6488198Y1946327D01*
X-6630844Y1602799D01*
X-6631168Y1230833D01*
X-6489123Y887057D01*
X-6226333Y623808D01*
X-6105019Y573434D01*
X-6021799Y490214D01*
X-6021797Y490211D01*
X-4635000Y-896585D01*
X-4635000Y-9115000D01*
X-20499995Y-9115000D01*
X-20500000Y-9114999D01*
X-20782484Y-9171190D01*
X-20838675Y-9182367D01*
X-21125790Y-9374210D01*
X-21125792Y-9374213D01*
X-21854076Y-10102497D01*
X-21836560Y-10016000D01*
X-21836560Y-7984000D01*
X-21880838Y-7748683D01*
X-22019910Y-7532559D01*
X-22232110Y-7387569D01*
X-22484000Y-7336560D01*
X-24516000Y-7336560D01*
X-24751317Y-7380838D01*
X-24967441Y-7519910D01*
X-25112431Y-7732110D01*
X-25163440Y-7984000D01*
X-25163440Y-10016000D01*
X-25119162Y-10251317D01*
X-24980090Y-10467441D01*
X-24831163Y-10569198D01*
X-25057670Y-10908190D01*
X-25183345Y-11540000D01*
X-27162442Y-11540000D01*
X-26850729Y-11073489D01*
X-26736655Y-10500000D01*
X-26850729Y-9926511D01*
X-27175585Y-9440330D01*
X-27661766Y-9115474D01*
X-28235255Y-9001400D01*
X-28604745Y-9001400D01*
X-29178234Y-9115474D01*
X-29664415Y-9440330D01*
X-29690000Y-9478621D01*
X-29715585Y-9440330D01*
X-30201766Y-9115474D01*
X-30775255Y-9001400D01*
X-31144745Y-9001400D01*
X-31718234Y-9115474D01*
X-32204415Y-9440330D01*
X-32249754Y-9508184D01*
X-32585680Y-9208046D01*
X-33138087Y-9014816D01*
X-33373000Y-9159076D01*
X-33627000Y-9159076D01*
X-33861913Y-9014816D01*
X-34414320Y-9208046D01*
X-34850732Y-9597964D01*
X-35104709Y-10125209D01*
X-35107358Y-10140974D01*
X-36290000Y-10140974D01*
X-36290000Y-7859026D01*
X-35107358Y-7859026D01*
X-35104709Y-7874791D01*
X-34850732Y-8402036D01*
X-34414320Y-8791954D01*
X-33861913Y-8985184D01*
X-33627000Y-8840924D01*
X-33627000Y-7627000D01*
X-34986217Y-7627000D01*
X-35107358Y-7859026D01*
X-36290000Y-7859026D01*
X-36290000Y-7140974D01*
X-35107358Y-7140974D01*
X-34986217Y-7373000D01*
X-33627000Y-7373000D01*
X-33627000Y-6159076D01*
X-33373000Y-6159076D01*
X-33373000Y-7373000D01*
X-33353000Y-7373000D01*
X-33353000Y-7627000D01*
X-33373000Y-7627000D01*
X-33373000Y-8840924D01*
X-33138087Y-8985184D01*
X-32585680Y-8791954D01*
X-32249754Y-8491816D01*
X-32204415Y-8559670D01*
X-31718234Y-8884526D01*
X-31144745Y-8998600D01*
X-30775255Y-8998600D01*
X-30201766Y-8884526D01*
X-29715585Y-8559670D01*
X-29690000Y-8521379D01*
X-29664415Y-8559670D01*
X-29178234Y-8884526D01*
X-28604745Y-8998600D01*
X-28235255Y-8998600D01*
X-27661766Y-8884526D01*
X-27175585Y-8559670D01*
X-26850729Y-8073489D01*
X-26736655Y-7500000D01*
X-26850729Y-6926511D01*
X-27175585Y-6440330D01*
X-27661766Y-6115474D01*
X-28235255Y-6001400D01*
X-28604745Y-6001400D01*
X-29178234Y-6115474D01*
X-29664415Y-6440330D01*
X-29690000Y-6478621D01*
X-29715585Y-6440330D01*
X-30201766Y-6115474D01*
X-30775255Y-6001400D01*
X-31144745Y-6001400D01*
X-31718234Y-6115474D01*
X-32204415Y-6440330D01*
X-32249754Y-6508184D01*
X-32585680Y-6208046D01*
X-33138087Y-6014816D01*
X-33373000Y-6159076D01*
X-33627000Y-6159076D01*
X-33861913Y-6014816D01*
X-34414320Y-6208046D01*
X-34850732Y-6597964D01*
X-35104709Y-7125209D01*
X-35107358Y-7140974D01*
X-36290000Y-7140974D01*
X-36290000Y-4859026D01*
X-35107358Y-4859026D01*
X-35104709Y-4874791D01*
X-34850732Y-5402036D01*
X-34414320Y-5791954D01*
X-33861913Y-5985184D01*
X-33627000Y-5840924D01*
X-33627000Y-4627000D01*
X-34986217Y-4627000D01*
X-35107358Y-4859026D01*
X-36290000Y-4859026D01*
X-36290000Y-4140974D01*
X-35107358Y-4140974D01*
X-34986217Y-4373000D01*
X-33627000Y-4373000D01*
X-33627000Y-3159076D01*
X-33373000Y-3159076D01*
X-33373000Y-4373000D01*
X-33353000Y-4373000D01*
X-33353000Y-4627000D01*
X-33373000Y-4627000D01*
X-33373000Y-5840924D01*
X-33138087Y-5985184D01*
X-32585680Y-5791954D01*
X-32249754Y-5491816D01*
X-32204415Y-5559670D01*
X-31718234Y-5884526D01*
X-31144745Y-5998600D01*
X-30775255Y-5998600D01*
X-30201766Y-5884526D01*
X-29715585Y-5559670D01*
X-29690000Y-5521379D01*
X-29664415Y-5559670D01*
X-29178234Y-5884526D01*
X-28604745Y-5998600D01*
X-28235255Y-5998600D01*
X-27661766Y-5884526D01*
X-27175585Y-5559670D01*
X-26850729Y-5073489D01*
X-26736655Y-4500000D01*
X-26850729Y-3926511D01*
X-27175585Y-3440330D01*
X-27661766Y-3115474D01*
X-28235255Y-3001400D01*
X-28604745Y-3001400D01*
X-29178234Y-3115474D01*
X-29664415Y-3440330D01*
X-29690000Y-3478621D01*
X-29715585Y-3440330D01*
X-30201766Y-3115474D01*
X-30775255Y-3001400D01*
X-31144745Y-3001400D01*
X-31718234Y-3115474D01*
X-32204415Y-3440330D01*
X-32249754Y-3508184D01*
X-32585680Y-3208046D01*
X-33138087Y-3014816D01*
X-33373000Y-3159076D01*
X-33627000Y-3159076D01*
X-33861913Y-3014816D01*
X-34414320Y-3208046D01*
X-34850732Y-3597964D01*
X-35104709Y-4125209D01*
X-35107358Y-4140974D01*
X-36290000Y-4140974D01*
X-36290000Y-1859026D01*
X-35107358Y-1859026D01*
X-35104709Y-1874791D01*
X-34850732Y-2402036D01*
X-34414320Y-2791954D01*
X-33861913Y-2985184D01*
X-33627000Y-2840924D01*
X-33627000Y-1627000D01*
X-34986217Y-1627000D01*
X-35107358Y-1859026D01*
X-36290000Y-1859026D01*
X-36290000Y-1140974D01*
X-35107358Y-1140974D01*
X-34986217Y-1373000D01*
X-33627000Y-1373000D01*
X-33627000Y-159076D01*
X-33373000Y-159076D01*
X-33373000Y-1373000D01*
X-33353000Y-1373000D01*
X-33353000Y-1627000D01*
X-33373000Y-1627000D01*
X-33373000Y-2840924D01*
X-33138087Y-2985184D01*
X-32585680Y-2791954D01*
X-32249754Y-2491816D01*
X-32204415Y-2559670D01*
X-31718234Y-2884526D01*
X-31144745Y-2998600D01*
X-30775255Y-2998600D01*
X-30201766Y-2884526D01*
X-29715585Y-2559670D01*
X-29690000Y-2521379D01*
X-29664415Y-2559670D01*
X-29178234Y-2884526D01*
X-28604745Y-2998600D01*
X-28235255Y-2998600D01*
X-27661766Y-2884526D01*
X-27175585Y-2559670D01*
X-26850729Y-2073489D01*
X-26736655Y-1500000D01*
X-26850729Y-926511D01*
X-27175585Y-440330D01*
X-27661766Y-115474D01*
X-28235255Y-1400D01*
X-28604745Y-1400D01*
X-29178234Y-115474D01*
X-29664415Y-440330D01*
X-29690000Y-478621D01*
X-29715585Y-440330D01*
X-30201766Y-115474D01*
X-30775255Y-1400D01*
X-31144745Y-1400D01*
X-31718234Y-115474D01*
X-32204415Y-440330D01*
X-32249754Y-508184D01*
X-32585680Y-208046D01*
X-33138087Y-14816D01*
X-33373000Y-159076D01*
X-33627000Y-159076D01*
X-33861913Y-14816D01*
X-34414320Y-208046D01*
X-34850732Y-597964D01*
X-35104709Y-1125209D01*
X-35107358Y-1140974D01*
X-36290000Y-1140974D01*
X-36290000Y1140974D01*
X-35107358Y1140974D01*
X-35104709Y1125209D01*
X-34850732Y597964D01*
X-34414320Y208046D01*
X-33861913Y14816D01*
X-33627000Y159076D01*
X-33627000Y1373000D01*
X-34986217Y1373000D01*
X-35107358Y1140974D01*
X-36290000Y1140974D01*
X-36290000Y1859026D01*
X-35107358Y1859026D01*
X-34986217Y1627000D01*
X-33627000Y1627000D01*
X-33627000Y2840924D01*
X-33373000Y2840924D01*
X-33373000Y1627000D01*
X-33353000Y1627000D01*
X-33353000Y1373000D01*
X-33373000Y1373000D01*
X-33373000Y159076D01*
X-33138087Y14816D01*
X-32585680Y208046D01*
X-32249754Y508184D01*
X-32204415Y440330D01*
X-31718234Y115474D01*
X-31144745Y1400D01*
X-30775255Y1400D01*
X-30201766Y115474D01*
X-29715585Y440330D01*
X-29690000Y478621D01*
X-29664415Y440330D01*
X-29178234Y115474D01*
X-28604745Y1400D01*
X-28235255Y1400D01*
X-27661766Y115474D01*
X-27175585Y440330D01*
X-26850729Y926511D01*
X-26736655Y1500000D01*
X-26850729Y2073489D01*
X-27175585Y2559670D01*
X-27661766Y2884526D01*
X-28235255Y2998600D01*
X-28604745Y2998600D01*
X-29178234Y2884526D01*
X-29664415Y2559670D01*
X-29690000Y2521379D01*
X-29715585Y2559670D01*
X-30201766Y2884526D01*
X-30775255Y2998600D01*
X-31144745Y2998600D01*
X-31718234Y2884526D01*
X-32204415Y2559670D01*
X-32249754Y2491816D01*
X-32585680Y2791954D01*
X-33138087Y2985184D01*
X-33373000Y2840924D01*
X-33627000Y2840924D01*
X-33861913Y2985184D01*
X-34414320Y2791954D01*
X-34850732Y2402036D01*
X-35104709Y1874791D01*
X-35107358Y1859026D01*
X-36290000Y1859026D01*
X-36290000Y4140974D01*
X-35107358Y4140974D01*
X-35104709Y4125209D01*
X-34850732Y3597964D01*
X-34414320Y3208046D01*
X-33861913Y3014816D01*
X-33627000Y3159076D01*
X-33627000Y4373000D01*
X-34986217Y4373000D01*
X-35107358Y4140974D01*
X-36290000Y4140974D01*
X-36290000Y4859026D01*
X-35107358Y4859026D01*
X-34986217Y4627000D01*
X-33627000Y4627000D01*
X-33627000Y5840924D01*
X-33373000Y5840924D01*
X-33373000Y4627000D01*
X-33353000Y4627000D01*
X-33353000Y4373000D01*
X-33373000Y4373000D01*
X-33373000Y3159076D01*
X-33138087Y3014816D01*
X-32585680Y3208046D01*
X-32249754Y3508184D01*
X-32204415Y3440330D01*
X-31718234Y3115474D01*
X-31144745Y3001400D01*
X-30775255Y3001400D01*
X-30201766Y3115474D01*
X-29715585Y3440330D01*
X-29690000Y3478621D01*
X-29664415Y3440330D01*
X-29178234Y3115474D01*
X-28604745Y3001400D01*
X-28235255Y3001400D01*
X-27661766Y3115474D01*
X-27175585Y3440330D01*
X-26850729Y3926511D01*
X-26736655Y4500000D01*
X-26850729Y5073489D01*
X-27175585Y5559670D01*
X-27661766Y5884526D01*
X-28235255Y5998600D01*
X-28604745Y5998600D01*
X-29178234Y5884526D01*
X-29664415Y5559670D01*
X-29690000Y5521379D01*
X-29715585Y5559670D01*
X-30201766Y5884526D01*
X-30775255Y5998600D01*
X-31144745Y5998600D01*
X-31718234Y5884526D01*
X-32204415Y5559670D01*
X-32249754Y5491816D01*
X-32585680Y5791954D01*
X-33138087Y5985184D01*
X-33373000Y5840924D01*
X-33627000Y5840924D01*
X-33861913Y5985184D01*
X-34414320Y5791954D01*
X-34850732Y5402036D01*
X-35104709Y4874791D01*
X-35107358Y4859026D01*
X-36290000Y4859026D01*
X-36290000Y7140974D01*
X-35107358Y7140974D01*
X-35104709Y7125209D01*
X-34850732Y6597964D01*
X-34414320Y6208046D01*
X-33861913Y6014816D01*
X-33627000Y6159076D01*
X-33627000Y7373000D01*
X-34986217Y7373000D01*
X-35107358Y7140974D01*
X-36290000Y7140974D01*
X-36290000Y7859026D01*
X-35107358Y7859026D01*
X-34986217Y7627000D01*
X-33627000Y7627000D01*
X-33627000Y8840924D01*
X-33373000Y8840924D01*
X-33373000Y7627000D01*
X-33353000Y7627000D01*
X-33353000Y7373000D01*
X-33373000Y7373000D01*
X-33373000Y6159076D01*
X-33138087Y6014816D01*
X-32585680Y6208046D01*
X-32249754Y6508184D01*
X-32204415Y6440330D01*
X-31718234Y6115474D01*
X-31144745Y6001400D01*
X-30775255Y6001400D01*
X-30201766Y6115474D01*
X-29715585Y6440330D01*
X-29690000Y6478621D01*
X-29664415Y6440330D01*
X-29178234Y6115474D01*
X-28604745Y6001400D01*
X-28235255Y6001400D01*
X-27661766Y6115474D01*
X-27175585Y6440330D01*
X-26850729Y6926511D01*
X-26736655Y7500000D01*
X-26850729Y8073489D01*
X-27175585Y8559670D01*
X-27661766Y8884526D01*
X-28235255Y8998600D01*
X-28604745Y8998600D01*
X-29178234Y8884526D01*
X-29664415Y8559670D01*
X-29690000Y8521379D01*
X-29715585Y8559670D01*
X-30201766Y8884526D01*
X-30775255Y8998600D01*
X-31144745Y8998600D01*
X-31718234Y8884526D01*
X-32204415Y8559670D01*
X-32249754Y8491816D01*
X-32585680Y8791954D01*
X-33138087Y8985184D01*
X-33373000Y8840924D01*
X-33627000Y8840924D01*
X-33861913Y8985184D01*
X-34414320Y8791954D01*
X-34850732Y8402036D01*
X-35104709Y7874791D01*
X-35107358Y7859026D01*
X-36290000Y7859026D01*
X-36290000Y10140974D01*
X-35107358Y10140974D01*
X-35104709Y10125209D01*
X-34850732Y9597964D01*
X-34414320Y9208046D01*
X-33861913Y9014816D01*
X-33627000Y9159076D01*
X-33627000Y10373000D01*
X-34986217Y10373000D01*
X-35107358Y10140974D01*
X-36290000Y10140974D01*
X-36290000Y10859026D01*
X-35107358Y10859026D01*
X-34986217Y10627000D01*
X-33627000Y10627000D01*
X-33627000Y11840924D01*
X-33373000Y11840924D01*
X-33373000Y10627000D01*
X-33353000Y10627000D01*
X-33353000Y10373000D01*
X-33373000Y10373000D01*
X-33373000Y9159076D01*
X-33138087Y9014816D01*
X-32585680Y9208046D01*
X-32249754Y9508184D01*
X-32204415Y9440330D01*
X-31718234Y9115474D01*
X-31144745Y9001400D01*
X-30775255Y9001400D01*
X-30201766Y9115474D01*
X-29715585Y9440330D01*
X-29690000Y9478621D01*
X-29664415Y9440330D01*
X-29178234Y9115474D01*
X-28604745Y9001400D01*
X-28235255Y9001400D01*
X-27661766Y9115474D01*
X-27175585Y9440330D01*
X-26850729Y9926511D01*
X-26736655Y10500000D01*
X-26850729Y11073489D01*
X-27175585Y11559670D01*
X-27661766Y11884526D01*
X-28235255Y11998600D01*
X-28604745Y11998600D01*
X-29178234Y11884526D01*
X-29664415Y11559670D01*
X-29690000Y11521379D01*
X-29715585Y11559670D01*
X-30201766Y11884526D01*
X-30775255Y11998600D01*
X-31144745Y11998600D01*
X-31718234Y11884526D01*
X-32204415Y11559670D01*
X-32249754Y11491816D01*
X-32585680Y11791954D01*
X-33138087Y11985184D01*
X-33373000Y11840924D01*
X-33627000Y11840924D01*
X-33861913Y11985184D01*
X-34414320Y11791954D01*
X-34850732Y11402036D01*
X-35104709Y10874791D01*
X-35107358Y10859026D01*
X-36290000Y10859026D01*
X-36290000Y17705908D01*
X-34705908Y19290000D01*
X-25000000Y19290000D01*
X-24728295Y19344046D01*
X-24497954Y19497954D01*
X-24344046Y19728295D01*
X-24290000Y20000000D01*
X-24290000Y21263500D01*
X-24195845Y21035628D01*
X-23567679Y20406364D01*
X-22746519Y20065389D01*
X-21857381Y20064613D01*
X-21035628Y20404155D01*
X-20406364Y21032321D01*
X-20065389Y21853481D01*
X-20064613Y22742619D01*
X-20404155Y23564372D01*
X-21032321Y24193636D01*
X-21264392Y24290000D01*
X-17658580Y24290000D01*
X-17663440Y24266000D01*
X-17663440Y24266000D01*
G37*
X-17663440Y24266000D02*
X-17663440Y22234000D01*
X-17619162Y21998683D01*
X-17480090Y21782559D01*
X-17267890Y21637569D01*
X-17016000Y21586560D01*
X-16885000Y21586560D01*
X-16885000Y13500005D01*
X-16885001Y13500000D01*
X-16844790Y13297852D01*
X-16817633Y13161325D01*
X-16684849Y12962599D01*
X-16625790Y12874210D01*
X-14375792Y10624213D01*
X-14375790Y10624210D01*
X-14183946Y10496025D01*
X-14088674Y10432366D01*
X-13750000Y10364999D01*
X-13749995Y10365000D01*
X-8556822Y10365000D01*
X-8436799Y10315162D01*
X-8064833Y10314838D01*
X-7721057Y10456883D01*
X-7457808Y10719673D01*
X-7315162Y11063201D01*
X-7314838Y11435167D01*
X-7456883Y11778943D01*
X-7719673Y12042192D01*
X-8063201Y12184838D01*
X-8435167Y12185162D01*
X-8556569Y12135000D01*
X-13383421Y12135000D01*
X-14463173Y13214753D01*
X-14437882Y13240000D01*
X-13935009Y13240000D01*
X-13935162Y13064833D01*
X-13793117Y12721057D01*
X-13530327Y12457808D01*
X-13186799Y12315162D01*
X-12814833Y12314838D01*
X-12471057Y12456883D01*
X-12207808Y12719673D01*
X-12199367Y12740000D01*
X-6814802Y12740000D01*
X-3435122Y9360320D01*
X-3435162Y9314833D01*
X-3293117Y8971057D01*
X-3030327Y8707808D01*
X-2686799Y8565162D01*
X-2314833Y8564838D01*
X-1999649Y8695069D01*
X-1686799Y8565162D01*
X-1314833Y8564838D01*
X-999649Y8695069D01*
X-686799Y8565162D01*
X-314833Y8564838D01*
X28943Y8706883D01*
X292192Y8969673D01*
X344011Y9094466D01*
X344011Y-3604011D01*
X401863Y-3894850D01*
X566610Y-4141412D01*
X1462599Y-5037401D01*
X1709161Y-5202148D01*
X2000000Y-5260000D01*
X3187537Y-5260000D01*
X3219673Y-5292192D01*
X3563201Y-5434838D01*
X3935167Y-5435162D01*
X4278943Y-5293117D01*
X4542192Y-5030327D01*
X4684838Y-4686799D01*
X4685162Y-4314833D01*
X4543117Y-3971057D01*
X4355107Y-3782719D01*
X4531197Y-3855838D01*
X4903163Y-3856162D01*
X5246939Y-3714117D01*
X5510188Y-3451327D01*
X5625760Y-3173000D01*
X17357198Y-3173000D01*
X18340000Y-4155802D01*
X18340000Y-4300000D01*
X18397852Y-4590839D01*
X18562599Y-4837401D01*
X19325000Y-5599802D01*
X19325000Y-5914537D01*
X19292808Y-5946673D01*
X19150162Y-6290201D01*
X19149838Y-6662167D01*
X19291883Y-7005943D01*
X19554673Y-7269192D01*
X19898201Y-7411838D01*
X20270167Y-7412162D01*
X20613943Y-7270117D01*
X20730000Y-7154262D01*
X20730000Y-7603309D01*
X20826673Y-7836698D01*
X21005301Y-8015327D01*
X21238690Y-8112000D01*
X22579250Y-8112000D01*
X22738000Y-7953250D01*
X22738000Y-6604000D01*
X22718000Y-6604000D01*
X22718000Y-6350000D01*
X22738000Y-6350000D01*
X22738000Y-6330000D01*
X22992000Y-6330000D01*
X22992000Y-6350000D01*
X23012000Y-6350000D01*
X23012000Y-6604000D01*
X22992000Y-6604000D01*
X22992000Y-7953250D01*
X23150750Y-8112000D01*
X24290000Y-8112000D01*
X24290000Y-21263500D01*
X24195845Y-21035628D01*
X23567679Y-20406364D01*
X22746519Y-20065389D01*
X21857381Y-20064613D01*
X21035628Y-20404155D01*
X20406364Y-21032321D01*
X20065389Y-21853481D01*
X20064613Y-22742619D01*
X20404155Y-23564372D01*
X21032321Y-24193636D01*
X21264392Y-24290000D01*
X-21263500Y-24290000D01*
X-21035628Y-24195845D01*
X-20406364Y-23567679D01*
X-20065389Y-22746519D01*
X-20064613Y-21857381D01*
X-20404155Y-21035628D01*
X-21032321Y-20406364D01*
X-21037055Y-20404398D01*
X-6076750Y-20404398D01*
X-5866254Y-20913837D01*
X-5476827Y-21303944D01*
X-4967756Y-21515329D01*
X-4416542Y-21515810D01*
X-3907103Y-21305314D01*
X-3516996Y-20915887D01*
X-3305611Y-20406816D01*
X-3305609Y-20404398D01*
X-1194870Y-20404398D01*
X-984374Y-20913837D01*
X-594947Y-21303944D01*
X-85876Y-21515329D01*
X465338Y-21515810D01*
X974777Y-21305314D01*
X1364884Y-20915887D01*
X1576269Y-20406816D01*
X1576750Y-19855602D01*
X1366254Y-19346163D01*
X976827Y-18956056D01*
X467756Y-18744671D01*
X-83458Y-18744190D01*
X-592897Y-18954686D01*
X-983004Y-19344113D01*
X-1194389Y-19853184D01*
X-1194870Y-20404398D01*
X-3305609Y-20404398D01*
X-3305130Y-19855602D01*
X-3515626Y-19346163D01*
X-3905053Y-18956056D01*
X-4414124Y-18744671D01*
X-4965338Y-18744190D01*
X-5474777Y-18954686D01*
X-5864884Y-19344113D01*
X-6076269Y-19853184D01*
X-6076750Y-20404398D01*
X-21037055Y-20404398D01*
X-21853481Y-20065389D01*
X-22742619Y-20064613D01*
X-23564372Y-20404155D01*
X-24193636Y-21032321D01*
X-24290000Y-21264392D01*
X-24290000Y-20000000D01*
X-24344046Y-19728295D01*
X-24497954Y-19497954D01*
X-24728295Y-19344046D01*
X-25000000Y-19290000D01*
X-34705908Y-19290000D01*
X-36290000Y-17705908D01*
X-36290000Y-10859026D01*
X-35107358Y-10859026D01*
X-35104709Y-10874791D01*
X-34850732Y-11402036D01*
X-34414320Y-11791954D01*
X-33861913Y-11985184D01*
X-33627000Y-11840924D01*
X-33627000Y-10627000D01*
X-34986217Y-10627000D01*
X-35107358Y-10859026D01*
X-36290000Y-10859026D01*
X-36290000Y-10140974D01*
X-35107358Y-10140974D01*
X-34986217Y-10373000D01*
X-33627000Y-10373000D01*
X-33627000Y-9159076D01*
X-33373000Y-9159076D01*
X-33373000Y-10373000D01*
X-33353000Y-10373000D01*
X-33353000Y-10627000D01*
X-33373000Y-10627000D01*
X-33373000Y-11840924D01*
X-33138087Y-11985184D01*
X-32585680Y-11791954D01*
X-32249754Y-11491816D01*
X-32204415Y-11559670D01*
X-31718234Y-11884526D01*
X-31144745Y-11998600D01*
X-30775255Y-11998600D01*
X-30201766Y-11884526D01*
X-29715585Y-11559670D01*
X-29690000Y-11521379D01*
X-29664415Y-11559670D01*
X-29178234Y-11884526D01*
X-28604745Y-11998600D01*
X-28235255Y-11998600D01*
X-27661766Y-11884526D01*
X-27175585Y-11559670D01*
X-27162442Y-11540000D01*
X-25183345Y-11540000D01*
X-25057670Y-12171810D01*
X-24699778Y-12707433D01*
X-24260000Y-13001283D01*
X-24260000Y-18000000D01*
X-24202148Y-18290839D01*
X-24037401Y-18537401D01*
X-23935122Y-18639680D01*
X-23935162Y-18685167D01*
X-23793117Y-19028943D01*
X-23530327Y-19292192D01*
X-23186799Y-19434838D01*
X-22814833Y-19435162D01*
X-22471057Y-19293117D01*
X-22207808Y-19030327D01*
X-22065162Y-18686799D01*
X-22064838Y-18314833D01*
X-22206883Y-17971057D01*
X-22469673Y-17707808D01*
X-22740000Y-17595558D01*
X-22740000Y-13001283D01*
X-22300222Y-12707433D01*
X-22111506Y-12425000D01*
X-22040005Y-12425000D01*
X-22040000Y-12425001D01*
X-21757516Y-12368810D01*
X-21701325Y-12357633D01*
X-21414210Y-12165790D01*
X-20133421Y-10885000D01*
X-4056822Y-10885000D01*
X-3936799Y-10934838D01*
X-3564833Y-10935162D01*
X-3221057Y-10793117D01*
X-2957808Y-10530327D01*
X-2815162Y-10186799D01*
X-2814838Y-9814833D01*
X-2865000Y-9693431D01*
X-2865000Y-530006D01*
X-2932367Y-191331D01*
X-3124210Y95784D01*
X-3124213Y95786D01*
X-4770217Y1741791D01*
X-4770220Y1741793D01*
X-4853261Y1824835D01*
X-4902889Y1944943D01*
X-5165679Y2208192D01*
X-5509207Y2350838D01*
X-5881173Y2351162D01*
X-6224949Y2209117D01*
X-6488198Y1946327D01*
X-6630844Y1602799D01*
X-6631168Y1230833D01*
X-6489123Y887057D01*
X-6226333Y623808D01*
X-6105019Y573434D01*
X-6021799Y490214D01*
X-6021797Y490211D01*
X-4635000Y-896585D01*
X-4635000Y-9115000D01*
X-20499995Y-9115000D01*
X-20500000Y-9114999D01*
X-20782484Y-9171190D01*
X-20838675Y-9182367D01*
X-21125790Y-9374210D01*
X-21125792Y-9374213D01*
X-21854076Y-10102497D01*
X-21836560Y-10016000D01*
X-21836560Y-7984000D01*
X-21880838Y-7748683D01*
X-22019910Y-7532559D01*
X-22232110Y-7387569D01*
X-22484000Y-7336560D01*
X-24516000Y-7336560D01*
X-24751317Y-7380838D01*
X-24967441Y-7519910D01*
X-25112431Y-7732110D01*
X-25163440Y-7984000D01*
X-25163440Y-10016000D01*
X-25119162Y-10251317D01*
X-24980090Y-10467441D01*
X-24831163Y-10569198D01*
X-25057670Y-10908190D01*
X-25183345Y-11540000D01*
X-27162442Y-11540000D01*
X-26850729Y-11073489D01*
X-26736655Y-10500000D01*
X-26850729Y-9926511D01*
X-27175585Y-9440330D01*
X-27661766Y-9115474D01*
X-28235255Y-9001400D01*
X-28604745Y-9001400D01*
X-29178234Y-9115474D01*
X-29664415Y-9440330D01*
X-29690000Y-9478621D01*
X-29715585Y-9440330D01*
X-30201766Y-9115474D01*
X-30775255Y-9001400D01*
X-31144745Y-9001400D01*
X-31718234Y-9115474D01*
X-32204415Y-9440330D01*
X-32249754Y-9508184D01*
X-32585680Y-9208046D01*
X-33138087Y-9014816D01*
X-33373000Y-9159076D01*
X-33627000Y-9159076D01*
X-33861913Y-9014816D01*
X-34414320Y-9208046D01*
X-34850732Y-9597964D01*
X-35104709Y-10125209D01*
X-35107358Y-10140974D01*
X-36290000Y-10140974D01*
X-36290000Y-7859026D01*
X-35107358Y-7859026D01*
X-35104709Y-7874791D01*
X-34850732Y-8402036D01*
X-34414320Y-8791954D01*
X-33861913Y-8985184D01*
X-33627000Y-8840924D01*
X-33627000Y-7627000D01*
X-34986217Y-7627000D01*
X-35107358Y-7859026D01*
X-36290000Y-7859026D01*
X-36290000Y-7140974D01*
X-35107358Y-7140974D01*
X-34986217Y-7373000D01*
X-33627000Y-7373000D01*
X-33627000Y-6159076D01*
X-33373000Y-6159076D01*
X-33373000Y-7373000D01*
X-33353000Y-7373000D01*
X-33353000Y-7627000D01*
X-33373000Y-7627000D01*
X-33373000Y-8840924D01*
X-33138087Y-8985184D01*
X-32585680Y-8791954D01*
X-32249754Y-8491816D01*
X-32204415Y-8559670D01*
X-31718234Y-8884526D01*
X-31144745Y-8998600D01*
X-30775255Y-8998600D01*
X-30201766Y-8884526D01*
X-29715585Y-8559670D01*
X-29690000Y-8521379D01*
X-29664415Y-8559670D01*
X-29178234Y-8884526D01*
X-28604745Y-8998600D01*
X-28235255Y-8998600D01*
X-27661766Y-8884526D01*
X-27175585Y-8559670D01*
X-26850729Y-8073489D01*
X-26736655Y-7500000D01*
X-26850729Y-6926511D01*
X-27175585Y-6440330D01*
X-27661766Y-6115474D01*
X-28235255Y-6001400D01*
X-28604745Y-6001400D01*
X-29178234Y-6115474D01*
X-29664415Y-6440330D01*
X-29690000Y-6478621D01*
X-29715585Y-6440330D01*
X-30201766Y-6115474D01*
X-30775255Y-6001400D01*
X-31144745Y-6001400D01*
X-31718234Y-6115474D01*
X-32204415Y-6440330D01*
X-32249754Y-6508184D01*
X-32585680Y-6208046D01*
X-33138087Y-6014816D01*
X-33373000Y-6159076D01*
X-33627000Y-6159076D01*
X-33861913Y-6014816D01*
X-34414320Y-6208046D01*
X-34850732Y-6597964D01*
X-35104709Y-7125209D01*
X-35107358Y-7140974D01*
X-36290000Y-7140974D01*
X-36290000Y-4859026D01*
X-35107358Y-4859026D01*
X-35104709Y-4874791D01*
X-34850732Y-5402036D01*
X-34414320Y-5791954D01*
X-33861913Y-5985184D01*
X-33627000Y-5840924D01*
X-33627000Y-4627000D01*
X-34986217Y-4627000D01*
X-35107358Y-4859026D01*
X-36290000Y-4859026D01*
X-36290000Y-4140974D01*
X-35107358Y-4140974D01*
X-34986217Y-4373000D01*
X-33627000Y-4373000D01*
X-33627000Y-3159076D01*
X-33373000Y-3159076D01*
X-33373000Y-4373000D01*
X-33353000Y-4373000D01*
X-33353000Y-4627000D01*
X-33373000Y-4627000D01*
X-33373000Y-5840924D01*
X-33138087Y-5985184D01*
X-32585680Y-5791954D01*
X-32249754Y-5491816D01*
X-32204415Y-5559670D01*
X-31718234Y-5884526D01*
X-31144745Y-5998600D01*
X-30775255Y-5998600D01*
X-30201766Y-5884526D01*
X-29715585Y-5559670D01*
X-29690000Y-5521379D01*
X-29664415Y-5559670D01*
X-29178234Y-5884526D01*
X-28604745Y-5998600D01*
X-28235255Y-5998600D01*
X-27661766Y-5884526D01*
X-27175585Y-5559670D01*
X-26850729Y-5073489D01*
X-26736655Y-4500000D01*
X-26850729Y-3926511D01*
X-27175585Y-3440330D01*
X-27661766Y-3115474D01*
X-28235255Y-3001400D01*
X-28604745Y-3001400D01*
X-29178234Y-3115474D01*
X-29664415Y-3440330D01*
X-29690000Y-3478621D01*
X-29715585Y-3440330D01*
X-30201766Y-3115474D01*
X-30775255Y-3001400D01*
X-31144745Y-3001400D01*
X-31718234Y-3115474D01*
X-32204415Y-3440330D01*
X-32249754Y-3508184D01*
X-32585680Y-3208046D01*
X-33138087Y-3014816D01*
X-33373000Y-3159076D01*
X-33627000Y-3159076D01*
X-33861913Y-3014816D01*
X-34414320Y-3208046D01*
X-34850732Y-3597964D01*
X-35104709Y-4125209D01*
X-35107358Y-4140974D01*
X-36290000Y-4140974D01*
X-36290000Y-1859026D01*
X-35107358Y-1859026D01*
X-35104709Y-1874791D01*
X-34850732Y-2402036D01*
X-34414320Y-2791954D01*
X-33861913Y-2985184D01*
X-33627000Y-2840924D01*
X-33627000Y-1627000D01*
X-34986217Y-1627000D01*
X-35107358Y-1859026D01*
X-36290000Y-1859026D01*
X-36290000Y-1140974D01*
X-35107358Y-1140974D01*
X-34986217Y-1373000D01*
X-33627000Y-1373000D01*
X-33627000Y-159076D01*
X-33373000Y-159076D01*
X-33373000Y-1373000D01*
X-33353000Y-1373000D01*
X-33353000Y-1627000D01*
X-33373000Y-1627000D01*
X-33373000Y-2840924D01*
X-33138087Y-2985184D01*
X-32585680Y-2791954D01*
X-32249754Y-2491816D01*
X-32204415Y-2559670D01*
X-31718234Y-2884526D01*
X-31144745Y-2998600D01*
X-30775255Y-2998600D01*
X-30201766Y-2884526D01*
X-29715585Y-2559670D01*
X-29690000Y-2521379D01*
X-29664415Y-2559670D01*
X-29178234Y-2884526D01*
X-28604745Y-2998600D01*
X-28235255Y-2998600D01*
X-27661766Y-2884526D01*
X-27175585Y-2559670D01*
X-26850729Y-2073489D01*
X-26736655Y-1500000D01*
X-26850729Y-926511D01*
X-27175585Y-440330D01*
X-27661766Y-115474D01*
X-28235255Y-1400D01*
X-28604745Y-1400D01*
X-29178234Y-115474D01*
X-29664415Y-440330D01*
X-29690000Y-478621D01*
X-29715585Y-440330D01*
X-30201766Y-115474D01*
X-30775255Y-1400D01*
X-31144745Y-1400D01*
X-31718234Y-115474D01*
X-32204415Y-440330D01*
X-32249754Y-508184D01*
X-32585680Y-208046D01*
X-33138087Y-14816D01*
X-33373000Y-159076D01*
X-33627000Y-159076D01*
X-33861913Y-14816D01*
X-34414320Y-208046D01*
X-34850732Y-597964D01*
X-35104709Y-1125209D01*
X-35107358Y-1140974D01*
X-36290000Y-1140974D01*
X-36290000Y1140974D01*
X-35107358Y1140974D01*
X-35104709Y1125209D01*
X-34850732Y597964D01*
X-34414320Y208046D01*
X-33861913Y14816D01*
X-33627000Y159076D01*
X-33627000Y1373000D01*
X-34986217Y1373000D01*
X-35107358Y1140974D01*
X-36290000Y1140974D01*
X-36290000Y1859026D01*
X-35107358Y1859026D01*
X-34986217Y1627000D01*
X-33627000Y1627000D01*
X-33627000Y2840924D01*
X-33373000Y2840924D01*
X-33373000Y1627000D01*
X-33353000Y1627000D01*
X-33353000Y1373000D01*
X-33373000Y1373000D01*
X-33373000Y159076D01*
X-33138087Y14816D01*
X-32585680Y208046D01*
X-32249754Y508184D01*
X-32204415Y440330D01*
X-31718234Y115474D01*
X-31144745Y1400D01*
X-30775255Y1400D01*
X-30201766Y115474D01*
X-29715585Y440330D01*
X-29690000Y478621D01*
X-29664415Y440330D01*
X-29178234Y115474D01*
X-28604745Y1400D01*
X-28235255Y1400D01*
X-27661766Y115474D01*
X-27175585Y440330D01*
X-26850729Y926511D01*
X-26736655Y1500000D01*
X-26850729Y2073489D01*
X-27175585Y2559670D01*
X-27661766Y2884526D01*
X-28235255Y2998600D01*
X-28604745Y2998600D01*
X-29178234Y2884526D01*
X-29664415Y2559670D01*
X-29690000Y2521379D01*
X-29715585Y2559670D01*
X-30201766Y2884526D01*
X-30775255Y2998600D01*
X-31144745Y2998600D01*
X-31718234Y2884526D01*
X-32204415Y2559670D01*
X-32249754Y2491816D01*
X-32585680Y2791954D01*
X-33138087Y2985184D01*
X-33373000Y2840924D01*
X-33627000Y2840924D01*
X-33861913Y2985184D01*
X-34414320Y2791954D01*
X-34850732Y2402036D01*
X-35104709Y1874791D01*
X-35107358Y1859026D01*
X-36290000Y1859026D01*
X-36290000Y4140974D01*
X-35107358Y4140974D01*
X-35104709Y4125209D01*
X-34850732Y3597964D01*
X-34414320Y3208046D01*
X-33861913Y3014816D01*
X-33627000Y3159076D01*
X-33627000Y4373000D01*
X-34986217Y4373000D01*
X-35107358Y4140974D01*
X-36290000Y4140974D01*
X-36290000Y4859026D01*
X-35107358Y4859026D01*
X-34986217Y4627000D01*
X-33627000Y4627000D01*
X-33627000Y5840924D01*
X-33373000Y5840924D01*
X-33373000Y4627000D01*
X-33353000Y4627000D01*
X-33353000Y4373000D01*
X-33373000Y4373000D01*
X-33373000Y3159076D01*
X-33138087Y3014816D01*
X-32585680Y3208046D01*
X-32249754Y3508184D01*
X-32204415Y3440330D01*
X-31718234Y3115474D01*
X-31144745Y3001400D01*
X-30775255Y3001400D01*
X-30201766Y3115474D01*
X-29715585Y3440330D01*
X-29690000Y3478621D01*
X-29664415Y3440330D01*
X-29178234Y3115474D01*
X-28604745Y3001400D01*
X-28235255Y3001400D01*
X-27661766Y3115474D01*
X-27175585Y3440330D01*
X-26850729Y3926511D01*
X-26736655Y4500000D01*
X-26850729Y5073489D01*
X-27175585Y5559670D01*
X-27661766Y5884526D01*
X-28235255Y5998600D01*
X-28604745Y5998600D01*
X-29178234Y5884526D01*
X-29664415Y5559670D01*
X-29690000Y5521379D01*
X-29715585Y5559670D01*
X-30201766Y5884526D01*
X-30775255Y5998600D01*
X-31144745Y5998600D01*
X-31718234Y5884526D01*
X-32204415Y5559670D01*
X-32249754Y5491816D01*
X-32585680Y5791954D01*
X-33138087Y5985184D01*
X-33373000Y5840924D01*
X-33627000Y5840924D01*
X-33861913Y5985184D01*
X-34414320Y5791954D01*
X-34850732Y5402036D01*
X-35104709Y4874791D01*
X-35107358Y4859026D01*
X-36290000Y4859026D01*
X-36290000Y7140974D01*
X-35107358Y7140974D01*
X-35104709Y7125209D01*
X-34850732Y6597964D01*
X-34414320Y6208046D01*
X-33861913Y6014816D01*
X-33627000Y6159076D01*
X-33627000Y7373000D01*
X-34986217Y7373000D01*
X-35107358Y7140974D01*
X-36290000Y7140974D01*
X-36290000Y7859026D01*
X-35107358Y7859026D01*
X-34986217Y7627000D01*
X-33627000Y7627000D01*
X-33627000Y8840924D01*
X-33373000Y8840924D01*
X-33373000Y7627000D01*
X-33353000Y7627000D01*
X-33353000Y7373000D01*
X-33373000Y7373000D01*
X-33373000Y6159076D01*
X-33138087Y6014816D01*
X-32585680Y6208046D01*
X-32249754Y6508184D01*
X-32204415Y6440330D01*
X-31718234Y6115474D01*
X-31144745Y6001400D01*
X-30775255Y6001400D01*
X-30201766Y6115474D01*
X-29715585Y6440330D01*
X-29690000Y6478621D01*
X-29664415Y6440330D01*
X-29178234Y6115474D01*
X-28604745Y6001400D01*
X-28235255Y6001400D01*
X-27661766Y6115474D01*
X-27175585Y6440330D01*
X-26850729Y6926511D01*
X-26736655Y7500000D01*
X-26850729Y8073489D01*
X-27175585Y8559670D01*
X-27661766Y8884526D01*
X-28235255Y8998600D01*
X-28604745Y8998600D01*
X-29178234Y8884526D01*
X-29664415Y8559670D01*
X-29690000Y8521379D01*
X-29715585Y8559670D01*
X-30201766Y8884526D01*
X-30775255Y8998600D01*
X-31144745Y8998600D01*
X-31718234Y8884526D01*
X-32204415Y8559670D01*
X-32249754Y8491816D01*
X-32585680Y8791954D01*
X-33138087Y8985184D01*
X-33373000Y8840924D01*
X-33627000Y8840924D01*
X-33861913Y8985184D01*
X-34414320Y8791954D01*
X-34850732Y8402036D01*
X-35104709Y7874791D01*
X-35107358Y7859026D01*
X-36290000Y7859026D01*
X-36290000Y10140974D01*
X-35107358Y10140974D01*
X-35104709Y10125209D01*
X-34850732Y9597964D01*
X-34414320Y9208046D01*
X-33861913Y9014816D01*
X-33627000Y9159076D01*
X-33627000Y10373000D01*
X-34986217Y10373000D01*
X-35107358Y10140974D01*
X-36290000Y10140974D01*
X-36290000Y10859026D01*
X-35107358Y10859026D01*
X-34986217Y10627000D01*
X-33627000Y10627000D01*
X-33627000Y11840924D01*
X-33373000Y11840924D01*
X-33373000Y10627000D01*
X-33353000Y10627000D01*
X-33353000Y10373000D01*
X-33373000Y10373000D01*
X-33373000Y9159076D01*
X-33138087Y9014816D01*
X-32585680Y9208046D01*
X-32249754Y9508184D01*
X-32204415Y9440330D01*
X-31718234Y9115474D01*
X-31144745Y9001400D01*
X-30775255Y9001400D01*
X-30201766Y9115474D01*
X-29715585Y9440330D01*
X-29690000Y9478621D01*
X-29664415Y9440330D01*
X-29178234Y9115474D01*
X-28604745Y9001400D01*
X-28235255Y9001400D01*
X-27661766Y9115474D01*
X-27175585Y9440330D01*
X-26850729Y9926511D01*
X-26736655Y10500000D01*
X-26850729Y11073489D01*
X-27175585Y11559670D01*
X-27661766Y11884526D01*
X-28235255Y11998600D01*
X-28604745Y11998600D01*
X-29178234Y11884526D01*
X-29664415Y11559670D01*
X-29690000Y11521379D01*
X-29715585Y11559670D01*
X-30201766Y11884526D01*
X-30775255Y11998600D01*
X-31144745Y11998600D01*
X-31718234Y11884526D01*
X-32204415Y11559670D01*
X-32249754Y11491816D01*
X-32585680Y11791954D01*
X-33138087Y11985184D01*
X-33373000Y11840924D01*
X-33627000Y11840924D01*
X-33861913Y11985184D01*
X-34414320Y11791954D01*
X-34850732Y11402036D01*
X-35104709Y10874791D01*
X-35107358Y10859026D01*
X-36290000Y10859026D01*
X-36290000Y17705908D01*
X-34705908Y19290000D01*
X-25000000Y19290000D01*
X-24728295Y19344046D01*
X-24497954Y19497954D01*
X-24344046Y19728295D01*
X-24290000Y20000000D01*
X-24290000Y21263500D01*
X-24195845Y21035628D01*
X-23567679Y20406364D01*
X-22746519Y20065389D01*
X-21857381Y20064613D01*
X-21035628Y20404155D01*
X-20406364Y21032321D01*
X-20065389Y21853481D01*
X-20064613Y22742619D01*
X-20404155Y23564372D01*
X-21032321Y24193636D01*
X-21264392Y24290000D01*
X-17658580Y24290000D01*
X-17663440Y24266000D01*
G36*
X18719673Y5457808D02*
X19063201Y5315162D01*
X19435167Y5314838D01*
X19750351Y5445069D01*
X20063201Y5315162D01*
X20435167Y5314838D01*
X20717560Y5431520D01*
X20717560Y5420000D01*
X20761838Y5184683D01*
X20900910Y4968559D01*
X21113110Y4823569D01*
X21365000Y4772560D01*
X24290000Y4772560D01*
X24290000Y250440D01*
X23639000Y250440D01*
X23639000Y726537D01*
X23671192Y758673D01*
X23813838Y1102201D01*
X23814162Y1474167D01*
X23672117Y1817943D01*
X23409327Y2081192D01*
X23065799Y2223838D01*
X22693833Y2224162D01*
X22350057Y2082117D01*
X22086808Y1819327D01*
X21944162Y1475799D01*
X21943838Y1103833D01*
X22085883Y760057D01*
X22119000Y726882D01*
X22119000Y250440D01*
X21365000Y250440D01*
X21129683Y206162D01*
X20913559Y67090D01*
X20884477Y24527D01*
X20878107Y39943D01*
X20615317Y303192D01*
X20271789Y445838D01*
X19899823Y446162D01*
X19556047Y304117D01*
X19522872Y271000D01*
X11063505Y271000D01*
X11184838Y563201D01*
X11184879Y610077D01*
X16064802Y5490000D01*
X18687537Y5490000D01*
X18719673Y5457808D01*
X18719673Y5457808D01*
G37*
X18719673Y5457808D02*
X19063201Y5315162D01*
X19435167Y5314838D01*
X19750351Y5445069D01*
X20063201Y5315162D01*
X20435167Y5314838D01*
X20717560Y5431520D01*
X20717560Y5420000D01*
X20761838Y5184683D01*
X20900910Y4968559D01*
X21113110Y4823569D01*
X21365000Y4772560D01*
X24290000Y4772560D01*
X24290000Y250440D01*
X23639000Y250440D01*
X23639000Y726537D01*
X23671192Y758673D01*
X23813838Y1102201D01*
X23814162Y1474167D01*
X23672117Y1817943D01*
X23409327Y2081192D01*
X23065799Y2223838D01*
X22693833Y2224162D01*
X22350057Y2082117D01*
X22086808Y1819327D01*
X21944162Y1475799D01*
X21943838Y1103833D01*
X22085883Y760057D01*
X22119000Y726882D01*
X22119000Y250440D01*
X21365000Y250440D01*
X21129683Y206162D01*
X20913559Y67090D01*
X20884477Y24527D01*
X20878107Y39943D01*
X20615317Y303192D01*
X20271789Y445838D01*
X19899823Y446162D01*
X19556047Y304117D01*
X19522872Y271000D01*
X11063505Y271000D01*
X11184838Y563201D01*
X11184879Y610077D01*
X16064802Y5490000D01*
X18687537Y5490000D01*
X18719673Y5457808D01*
G36*
X21035628Y24195845D02*
X20406364Y23567679D01*
X20065389Y22746519D01*
X20064613Y21857381D01*
X20404155Y21035628D01*
X21032321Y20406364D01*
X21853481Y20065389D01*
X22742619Y20064613D01*
X23564372Y20404155D01*
X24193636Y21032321D01*
X24290000Y21264392D01*
X24290000Y18227440D01*
X21365000Y18227440D01*
X21129683Y18183162D01*
X20913559Y18044090D01*
X20768569Y17831890D01*
X20717560Y17580000D01*
X20717560Y17465000D01*
X16536579Y17465000D01*
X16342744Y17658835D01*
X16293117Y17778943D01*
X16030327Y18042192D01*
X15686799Y18184838D01*
X15314833Y18185162D01*
X14971057Y18043117D01*
X14707808Y17780327D01*
X14565162Y17436799D01*
X14564838Y17064833D01*
X14706883Y16721057D01*
X14969673Y16457808D01*
X15090986Y16407434D01*
X15544208Y15954213D01*
X15544210Y15954210D01*
X15831325Y15762367D01*
X16170000Y15694999D01*
X16170005Y15695000D01*
X20717560Y15695000D01*
X20717560Y15580000D01*
X20761838Y15344683D01*
X20782598Y15312422D01*
X20768569Y15291890D01*
X20717560Y15040000D01*
X20717560Y13040000D01*
X20761838Y12804683D01*
X20782598Y12772422D01*
X20768569Y12751890D01*
X20717560Y12500000D01*
X20717560Y10500000D01*
X20761838Y10264683D01*
X20782598Y10232422D01*
X20768569Y10211890D01*
X20717560Y9960000D01*
X20717560Y7960000D01*
X20761838Y7724683D01*
X20782598Y7692422D01*
X20768569Y7671890D01*
X20717560Y7420000D01*
X20717560Y7068255D01*
X20436799Y7184838D01*
X20389923Y7184879D01*
X20037401Y7537401D01*
X19790839Y7702148D01*
X19500000Y7760000D01*
X15500000Y7760000D01*
X15209160Y7702148D01*
X14962599Y7537401D01*
X9110320Y1685122D01*
X9064833Y1685162D01*
X8721057Y1543117D01*
X8457808Y1280327D01*
X8315162Y936799D01*
X8314838Y564833D01*
X8436247Y271000D01*
X5203802Y271000D01*
X4535122Y939680D01*
X4535162Y985167D01*
X4393117Y1328943D01*
X4130327Y1592192D01*
X3786799Y1734838D01*
X3414833Y1735162D01*
X3071057Y1593117D01*
X2807808Y1330327D01*
X2764033Y1224906D01*
X2764033Y18453231D01*
X2842401Y18531599D01*
X3007148Y18778161D01*
X3065000Y19069000D01*
X3065000Y20744091D01*
X3159317Y20761838D01*
X3375441Y20900910D01*
X3520431Y21113110D01*
X3571440Y21365000D01*
X3571440Y22119000D01*
X4282537Y22119000D01*
X4314673Y22086808D01*
X4658201Y21944162D01*
X5030167Y21943838D01*
X5373943Y22085883D01*
X5637192Y22348673D01*
X5779838Y22692201D01*
X5780162Y23064167D01*
X5638117Y23407943D01*
X5375327Y23671192D01*
X5031799Y23813838D01*
X4659833Y23814162D01*
X4316057Y23672117D01*
X4282882Y23639000D01*
X3571440Y23639000D01*
X3571440Y24290000D01*
X21263500Y24290000D01*
X21035628Y24195845D01*
X21035628Y24195845D01*
G37*
X21035628Y24195845D02*
X20406364Y23567679D01*
X20065389Y22746519D01*
X20064613Y21857381D01*
X20404155Y21035628D01*
X21032321Y20406364D01*
X21853481Y20065389D01*
X22742619Y20064613D01*
X23564372Y20404155D01*
X24193636Y21032321D01*
X24290000Y21264392D01*
X24290000Y18227440D01*
X21365000Y18227440D01*
X21129683Y18183162D01*
X20913559Y18044090D01*
X20768569Y17831890D01*
X20717560Y17580000D01*
X20717560Y17465000D01*
X16536579Y17465000D01*
X16342744Y17658835D01*
X16293117Y17778943D01*
X16030327Y18042192D01*
X15686799Y18184838D01*
X15314833Y18185162D01*
X14971057Y18043117D01*
X14707808Y17780327D01*
X14565162Y17436799D01*
X14564838Y17064833D01*
X14706883Y16721057D01*
X14969673Y16457808D01*
X15090986Y16407434D01*
X15544208Y15954213D01*
X15544210Y15954210D01*
X15831325Y15762367D01*
X16170000Y15694999D01*
X16170005Y15695000D01*
X20717560Y15695000D01*
X20717560Y15580000D01*
X20761838Y15344683D01*
X20782598Y15312422D01*
X20768569Y15291890D01*
X20717560Y15040000D01*
X20717560Y13040000D01*
X20761838Y12804683D01*
X20782598Y12772422D01*
X20768569Y12751890D01*
X20717560Y12500000D01*
X20717560Y10500000D01*
X20761838Y10264683D01*
X20782598Y10232422D01*
X20768569Y10211890D01*
X20717560Y9960000D01*
X20717560Y7960000D01*
X20761838Y7724683D01*
X20782598Y7692422D01*
X20768569Y7671890D01*
X20717560Y7420000D01*
X20717560Y7068255D01*
X20436799Y7184838D01*
X20389923Y7184879D01*
X20037401Y7537401D01*
X19790839Y7702148D01*
X19500000Y7760000D01*
X15500000Y7760000D01*
X15209160Y7702148D01*
X14962599Y7537401D01*
X9110320Y1685122D01*
X9064833Y1685162D01*
X8721057Y1543117D01*
X8457808Y1280327D01*
X8315162Y936799D01*
X8314838Y564833D01*
X8436247Y271000D01*
X5203802Y271000D01*
X4535122Y939680D01*
X4535162Y985167D01*
X4393117Y1328943D01*
X4130327Y1592192D01*
X3786799Y1734838D01*
X3414833Y1735162D01*
X3071057Y1593117D01*
X2807808Y1330327D01*
X2764033Y1224906D01*
X2764033Y18453231D01*
X2842401Y18531599D01*
X3007148Y18778161D01*
X3065000Y19069000D01*
X3065000Y20744091D01*
X3159317Y20761838D01*
X3375441Y20900910D01*
X3520431Y21113110D01*
X3571440Y21365000D01*
X3571440Y22119000D01*
X4282537Y22119000D01*
X4314673Y22086808D01*
X4658201Y21944162D01*
X5030167Y21943838D01*
X5373943Y22085883D01*
X5637192Y22348673D01*
X5779838Y22692201D01*
X5780162Y23064167D01*
X5638117Y23407943D01*
X5375327Y23671192D01*
X5031799Y23813838D01*
X4659833Y23814162D01*
X4316057Y23672117D01*
X4282882Y23639000D01*
X3571440Y23639000D01*
X3571440Y24290000D01*
X21263500Y24290000D01*
X21035628Y24195845D01*
G36*
X-11240792Y22239213D02*
X-11240790Y22239210D01*
X-10993775Y22074161D01*
X-10953675Y22047367D01*
X-10615000Y21979999D01*
X-10614995Y21980000D01*
X-9883440Y21980000D01*
X-9883440Y21365000D01*
X-9839162Y21129683D01*
X-9700090Y20913559D01*
X-9487890Y20768569D01*
X-9236000Y20717560D01*
X-8922065Y20717560D01*
X-8934838Y20686799D01*
X-8935162Y20314833D01*
X-8793117Y19971057D01*
X-8530327Y19707808D01*
X-8186799Y19565162D01*
X-7814833Y19564838D01*
X-7471057Y19706883D01*
X-7467935Y19710000D01*
X-1060391Y19710000D01*
X344011Y18305598D01*
X344011Y9905770D01*
X293117Y10028943D01*
X30327Y10292192D01*
X-313201Y10434838D01*
X-360077Y10434879D01*
X-4962599Y15037401D01*
X-5209161Y15202148D01*
X-5500000Y15260000D01*
X-12199056Y15260000D01*
X-12206883Y15278943D01*
X-12469673Y15542192D01*
X-12813201Y15684838D01*
X-13185167Y15685162D01*
X-13528943Y15543117D01*
X-13792192Y15280327D01*
X-13934838Y14936799D01*
X-13934992Y14760000D01*
X-14437537Y14760000D01*
X-14469673Y14792192D01*
X-14813201Y14934838D01*
X-15115000Y14935101D01*
X-15115000Y21586560D01*
X-14984000Y21586560D01*
X-14748683Y21630838D01*
X-14532559Y21769910D01*
X-14430802Y21918837D01*
X-14091810Y21692330D01*
X-13460000Y21566655D01*
X-12828190Y21692330D01*
X-12292567Y22050222D01*
X-12082239Y22365000D01*
X-11366579Y22365000D01*
X-11240792Y22239213D01*
X-11240792Y22239213D01*
G37*
X-11240792Y22239213D02*
X-11240790Y22239210D01*
X-10993775Y22074161D01*
X-10953675Y22047367D01*
X-10615000Y21979999D01*
X-10614995Y21980000D01*
X-9883440Y21980000D01*
X-9883440Y21365000D01*
X-9839162Y21129683D01*
X-9700090Y20913559D01*
X-9487890Y20768569D01*
X-9236000Y20717560D01*
X-8922065Y20717560D01*
X-8934838Y20686799D01*
X-8935162Y20314833D01*
X-8793117Y19971057D01*
X-8530327Y19707808D01*
X-8186799Y19565162D01*
X-7814833Y19564838D01*
X-7471057Y19706883D01*
X-7467935Y19710000D01*
X-1060391Y19710000D01*
X344011Y18305598D01*
X344011Y9905770D01*
X293117Y10028943D01*
X30327Y10292192D01*
X-313201Y10434838D01*
X-360077Y10434879D01*
X-4962599Y15037401D01*
X-5209161Y15202148D01*
X-5500000Y15260000D01*
X-12199056Y15260000D01*
X-12206883Y15278943D01*
X-12469673Y15542192D01*
X-12813201Y15684838D01*
X-13185167Y15685162D01*
X-13528943Y15543117D01*
X-13792192Y15280327D01*
X-13934838Y14936799D01*
X-13934992Y14760000D01*
X-14437537Y14760000D01*
X-14469673Y14792192D01*
X-14813201Y14934838D01*
X-15115000Y14935101D01*
X-15115000Y21586560D01*
X-14984000Y21586560D01*
X-14748683Y21630838D01*
X-14532559Y21769910D01*
X-14430802Y21918837D01*
X-14091810Y21692330D01*
X-13460000Y21566655D01*
X-12828190Y21692330D01*
X-12292567Y22050222D01*
X-12082239Y22365000D01*
X-11366579Y22365000D01*
X-11240792Y22239213D01*
M02*
