M48
;DRILL file {KiCad 4.0.2+dfsg1-stable} date Wed 04 Jan 2017 03:35:35 PM JST
;FORMAT={-:-/ absolute / inch / decimal}
FMAT,2
INCH,TZ
T1C0.016
T2C0.032
T3C0.040
%
G90
G05
M72
T1
X-1.1713Y-0.6791
X-0.9055Y-0.7283
X-0.7835Y0.6614
X-0.7835Y0.5236
X-0.748Y-0.5709
X-0.5984Y-0.4528
X-0.5906Y0.5512
X-0.5118Y0.5807
X-0.5118Y0.5217
X-0.4343Y-0.6343
X-0.4143Y-0.1593
X-0.3743Y0.0057
X-0.3248Y0.4429
X-0.315Y0.8071
X-0.2243Y0.0557
X-0.2143Y-0.0643
X-0.2143Y-0.2293
X-0.1843Y0.2307
X-0.1476Y-0.3937
X-0.1393Y0.7357
X-0.0984Y0.374
X-0.0843Y-0.8743
X-0.0591Y0.374
X-0.0543Y-0.2293
X-0.0343Y0.6257
X-0.0197Y0.374
X0.0607Y0.7757
X0.0886Y-0.1181
X0.1097Y-0.0574
X0.1181Y-0.1476
X0.1257Y0.2307
X0.128Y0.6594
X0.128Y0.4626
X0.1417Y0.0315
X0.1476Y-0.1772
X0.1496Y-0.0866
X0.1857Y-0.115
X0.1907Y0.9007
X0.2257Y0.0157
X0.2557Y-0.6343
X0.3057Y-0.3043
X0.3642Y0.0295
X0.4035Y0.0295
X0.5945Y0.0472
X0.6102Y0.6791
X0.6607Y0.5507
X0.7157Y-0.1743
X0.7283Y0.1811
X0.7579Y0.2461
X0.7757Y-0.0943
X0.7907Y-0.0193
X0.7907Y-0.155
X0.7907Y-0.255
X0.7972Y0.3543
X0.7972Y0.2461
X0.9007Y0.0507
T2
X-0.1847Y-0.7925
X0.0075Y-0.7925
T3
X-1.3189Y0.4134
X-1.3189Y0.2953
X-1.3189Y0.1772
X-1.3189Y0.0591
X-1.3189Y-0.0591
X-1.3189Y-0.1772
X-1.3189Y-0.2953
X-1.3189Y-0.4134
X-1.2189Y0.4134
X-1.2189Y0.2953
X-1.2189Y0.1772
X-1.2189Y0.0591
X-1.2189Y-0.0591
X-1.2189Y-0.1772
X-1.2189Y-0.2953
X-1.2189Y-0.4134
X-1.1189Y0.4134
X-1.1189Y0.2953
X-1.1189Y0.1772
X-1.1189Y0.0591
X-1.1189Y-0.0591
X-1.1189Y-0.1772
X-1.1189Y-0.2953
X-1.1189Y-0.4134
X-0.9252Y-0.3543
X-0.9252Y-0.4543
X-0.6299Y0.9154
X-0.5299Y0.9154
T0
M30
