G04 #@! TF.FileFunction,Legend,Top*
%FSLAX46Y46*%
G04 Gerber Fmt 4.6, Leading zero omitted, Abs format (unit mm)*
G04 Created by KiCad (PCBNEW 4.0.2+dfsg1-stable) date Wed 04 Jan 2017 03:35:33 PM JST*
%MOMM*%
G01*
G04 APERTURE LIST*
%ADD10C,0.100000*%
%ADD11C,0.150000*%
%ADD12C,0.300000*%
%ADD13C,0.120000*%
G04 APERTURE END LIST*
D10*
D11*
X10583846Y-20448672D02*
X11156266Y-21021091D01*
X11257281Y-21054763D01*
X11324625Y-21054763D01*
X11425640Y-21021091D01*
X11560327Y-20886404D01*
X11593999Y-20785389D01*
X11593999Y-20718045D01*
X11560327Y-20617030D01*
X10987908Y-20044610D01*
X11560327Y-19943595D02*
X12031732Y-20415000D01*
X11627670Y-20010939D02*
X11627670Y-19943595D01*
X11661342Y-19842580D01*
X11762358Y-19741564D01*
X11863373Y-19707892D01*
X11964388Y-19741564D01*
X12334778Y-20111954D01*
X12671495Y-19775236D02*
X12200090Y-19303832D01*
X11964388Y-19068130D02*
X11964388Y-19135473D01*
X12031732Y-19135473D01*
X12031732Y-19068130D01*
X11964388Y-19068130D01*
X12031732Y-19135473D01*
X12469464Y-19034458D02*
X13109227Y-19337504D01*
X12806182Y-18697740D01*
X13782663Y-18596725D02*
X13748991Y-18697740D01*
X13614304Y-18832428D01*
X13513288Y-18866099D01*
X13412273Y-18832428D01*
X13142899Y-18563053D01*
X13109227Y-18462038D01*
X13142899Y-18361023D01*
X13277586Y-18226335D01*
X13378602Y-18192664D01*
X13479617Y-18226335D01*
X13546961Y-18293680D01*
X13277586Y-18697741D01*
X14153052Y-18293680D02*
X13681647Y-17822275D01*
X13816334Y-17956962D02*
X13782662Y-17855946D01*
X13782662Y-17788603D01*
X13816334Y-17687588D01*
X13883678Y-17620244D01*
X14523441Y-17855946D02*
X14624457Y-17822275D01*
X14759143Y-17687588D01*
X14792816Y-17586572D01*
X14759144Y-17485557D01*
X14725472Y-17451885D01*
X14624457Y-17418213D01*
X14523441Y-17451886D01*
X14422426Y-17552901D01*
X14321411Y-17586573D01*
X14220395Y-17552900D01*
X14186724Y-17519229D01*
X14153052Y-17418213D01*
X14186724Y-17317198D01*
X14287739Y-17216183D01*
X14388755Y-17182511D01*
X15163205Y-17283527D02*
X14691800Y-16812122D01*
X14456098Y-16576420D02*
X14456098Y-16643763D01*
X14523441Y-16643763D01*
X14523441Y-16576420D01*
X14456098Y-16576420D01*
X14523441Y-16643763D01*
X14927502Y-16576420D02*
X15196876Y-16307046D01*
X14792815Y-16239703D02*
X15398907Y-16845794D01*
X15499922Y-16879466D01*
X15600937Y-16845794D01*
X15668281Y-16778451D01*
X15365235Y-16138687D02*
X16004998Y-16441733D01*
X15701953Y-15801969D02*
X16004998Y-16441733D01*
X16106014Y-16677435D01*
X16106014Y-16744778D01*
X16072342Y-16845794D01*
X17082495Y-15364237D02*
X16981480Y-15397908D01*
X16914136Y-15397908D01*
X16813121Y-15364237D01*
X16611090Y-15162206D01*
X16577418Y-15061190D01*
X16577418Y-14993847D01*
X16611090Y-14892832D01*
X16712106Y-14791816D01*
X16813121Y-14758144D01*
X16880465Y-14758144D01*
X16981480Y-14791816D01*
X17183511Y-14993847D01*
X17217182Y-15094862D01*
X17217182Y-15162206D01*
X17183511Y-15263221D01*
X17082495Y-15364237D01*
X17048823Y-14455099D02*
X17318197Y-14185725D01*
X17621243Y-14825488D02*
X17015151Y-14219397D01*
X16981480Y-14118382D01*
X17015151Y-14017366D01*
X17082495Y-13950023D01*
X17755931Y-13276587D02*
X18159992Y-12872526D01*
X18665068Y-13781664D02*
X17957961Y-13074557D01*
X19203816Y-13242915D02*
X19102801Y-13276587D01*
X19035457Y-13276587D01*
X18934442Y-13242915D01*
X18732411Y-13040884D01*
X18698739Y-12939869D01*
X18698739Y-12872526D01*
X18732411Y-12771511D01*
X18833427Y-12670495D01*
X18934442Y-12636823D01*
X19001786Y-12636823D01*
X19102801Y-12670495D01*
X19304832Y-12872526D01*
X19338503Y-12973541D01*
X19338503Y-13040884D01*
X19304832Y-13141900D01*
X19203816Y-13242915D01*
X19742564Y-12704167D02*
X19035457Y-11997060D01*
X19540534Y-12367450D02*
X20011939Y-12434793D01*
X19540534Y-11963388D02*
X19540534Y-12502137D01*
X19776236Y-11727686D02*
X20415999Y-12030732D01*
X20112954Y-11390968D02*
X20415999Y-12030732D01*
X20517014Y-12266434D01*
X20517014Y-12333778D01*
X20483343Y-12434793D01*
X20954747Y-11491984D02*
X20853732Y-11525656D01*
X20786389Y-11525656D01*
X20685374Y-11491984D01*
X20483343Y-11289953D01*
X20449671Y-11188938D01*
X20449671Y-11121594D01*
X20483343Y-11020579D01*
X20584358Y-10919563D01*
X20685374Y-10885892D01*
X20752717Y-10885892D01*
X20853732Y-10919563D01*
X21055763Y-11121594D01*
X21089435Y-11222610D01*
X21089435Y-11289953D01*
X21055763Y-11390968D01*
X20954747Y-11491984D01*
X12184939Y-21713045D02*
X12319626Y-21645702D01*
X12386970Y-21645703D01*
X12487985Y-21679374D01*
X12589000Y-21780390D01*
X12622672Y-21881405D01*
X12622672Y-21948748D01*
X12589000Y-22049763D01*
X12319626Y-22319138D01*
X11612519Y-21612031D01*
X11848222Y-21376328D01*
X11949237Y-21342657D01*
X12016580Y-21342657D01*
X12117595Y-21376328D01*
X12184939Y-21443672D01*
X12218610Y-21544687D01*
X12218610Y-21612030D01*
X12184939Y-21713045D01*
X11949236Y-21948748D01*
X13363450Y-21275313D02*
X13026732Y-21612031D01*
X12319626Y-20904924D01*
X13329779Y-20770237D02*
X13868527Y-20231489D01*
X14811336Y-19692741D02*
X14811336Y-19760084D01*
X14743992Y-19894771D01*
X14676649Y-19962115D01*
X14541961Y-20029459D01*
X14407274Y-20029459D01*
X14306259Y-19995787D01*
X14137900Y-19894772D01*
X14036885Y-19793756D01*
X13935869Y-19625398D01*
X13902198Y-19524382D01*
X13902198Y-19389696D01*
X13969542Y-19255008D01*
X14036885Y-19187664D01*
X14171572Y-19120321D01*
X14238916Y-19120321D01*
X14609304Y-19086649D02*
X14878678Y-18817276D01*
X14474618Y-18749932D02*
X15080709Y-19356024D01*
X15181724Y-19389696D01*
X15282740Y-19356024D01*
X15350083Y-19288680D01*
X15585786Y-19052978D02*
X15114381Y-18581573D01*
X15249068Y-18716260D02*
X15215396Y-18615245D01*
X15215396Y-18547901D01*
X15249068Y-18446886D01*
X15316412Y-18379542D01*
X16124534Y-18514229D02*
X16023519Y-18547901D01*
X15922504Y-18514229D01*
X15316412Y-17908138D01*
X16360237Y-17335717D02*
X16629610Y-17066343D01*
X16225550Y-16999000D02*
X16831641Y-17605092D01*
X16932657Y-17638763D01*
X17033672Y-17605092D01*
X17101015Y-17537748D01*
X17437733Y-17201030D02*
X17336718Y-17234702D01*
X17269374Y-17234702D01*
X17168359Y-17201030D01*
X16966328Y-16998999D01*
X16932657Y-16897984D01*
X16932657Y-16830641D01*
X16966328Y-16729626D01*
X17067344Y-16628610D01*
X17168359Y-16594938D01*
X17235703Y-16594938D01*
X17336718Y-16628610D01*
X17538749Y-16830641D01*
X17572421Y-16931656D01*
X17572421Y-16998999D01*
X17538749Y-17100014D01*
X17437733Y-17201030D01*
X18515229Y-16123534D02*
X17808123Y-15416427D01*
X18077497Y-15147053D01*
X18178512Y-15113381D01*
X18245856Y-15113381D01*
X18346871Y-15147053D01*
X18447886Y-15248068D01*
X18481558Y-15349083D01*
X18481558Y-15416426D01*
X18447886Y-15517442D01*
X18178512Y-15786816D01*
X18447886Y-14776664D02*
X19323351Y-15315412D01*
X18952962Y-14675648D01*
X19592726Y-15046038D01*
X19053978Y-14170572D01*
X20030458Y-14608305D02*
X19323351Y-13901198D01*
X20064131Y-14170572D01*
X19794756Y-13429794D01*
X20501863Y-14136900D01*
X20569206Y-12655343D02*
X21512015Y-13126748D01*
X21040611Y-12183939D01*
X21309985Y-12049252D02*
X21309985Y-11981908D01*
X21343657Y-11880893D01*
X21512016Y-11712534D01*
X21613031Y-11678862D01*
X21680374Y-11678862D01*
X21781390Y-11712534D01*
X21848733Y-11779877D01*
X21916076Y-11914564D01*
X21916076Y-12722687D01*
X22353809Y-12284954D01*
X14072242Y-22623867D02*
X14072242Y-22691210D01*
X14004898Y-22825897D01*
X13937555Y-22893240D01*
X13802867Y-22960585D01*
X13668181Y-22960585D01*
X13567165Y-22926913D01*
X13398807Y-22825898D01*
X13297791Y-22724882D01*
X13196776Y-22556523D01*
X13163104Y-22455508D01*
X13163104Y-22320821D01*
X13230448Y-22186134D01*
X13297792Y-22118790D01*
X13432478Y-22051447D01*
X13499822Y-22051447D01*
X14442631Y-22388165D02*
X13735524Y-21681058D01*
X14745677Y-22085118D02*
X14375287Y-21714729D01*
X14274272Y-21681057D01*
X14173257Y-21714729D01*
X14072241Y-21815745D01*
X14038569Y-21916760D01*
X14038569Y-21984103D01*
X15082394Y-21748401D02*
X14610989Y-21276997D01*
X14745676Y-21411683D02*
X14712004Y-21310668D01*
X14712004Y-21243325D01*
X14745676Y-21142310D01*
X14813020Y-21074966D01*
X15520127Y-21310668D02*
X15048722Y-20839263D01*
X14813020Y-20603561D02*
X14813020Y-20670905D01*
X14880364Y-20670905D01*
X14880364Y-20603561D01*
X14813020Y-20603561D01*
X14880364Y-20670905D01*
X15789501Y-20973951D02*
X15890516Y-20940279D01*
X16025203Y-20805592D01*
X16058875Y-20704577D01*
X16025204Y-20603561D01*
X15991532Y-20569890D01*
X15890517Y-20536218D01*
X15789501Y-20569890D01*
X15688486Y-20670906D01*
X15587471Y-20704577D01*
X15486455Y-20670905D01*
X15452783Y-20637233D01*
X15419111Y-20536218D01*
X15452783Y-20435203D01*
X15553798Y-20334188D01*
X15654814Y-20300515D01*
X17372074Y-19458722D02*
X16799653Y-19357706D01*
X16968012Y-19862783D02*
X16260906Y-19155676D01*
X16530280Y-18886302D01*
X16631295Y-18852630D01*
X16698639Y-18852630D01*
X16799654Y-18886302D01*
X16900669Y-18987317D01*
X16934341Y-19088332D01*
X16934341Y-19155675D01*
X16900669Y-19256691D01*
X16631295Y-19526065D01*
X17978165Y-18852630D02*
X17607776Y-18482240D01*
X17506761Y-18448569D01*
X17405745Y-18482240D01*
X17271058Y-18616928D01*
X17237386Y-18717943D01*
X17944494Y-18818958D02*
X17910822Y-18919973D01*
X17742463Y-19088333D01*
X17641447Y-19122004D01*
X17540432Y-19088333D01*
X17473089Y-19020989D01*
X17439417Y-18919974D01*
X17473089Y-18818959D01*
X17641448Y-18650600D01*
X17675120Y-18549585D01*
X18617929Y-18212867D02*
X18247539Y-17842477D01*
X18146524Y-17808805D01*
X18045509Y-17842477D01*
X17910821Y-17977165D01*
X17877149Y-18078180D01*
X18584257Y-18179195D02*
X18550585Y-18280210D01*
X18382226Y-18448569D01*
X18281211Y-18482241D01*
X18180196Y-18448569D01*
X18112852Y-18381226D01*
X18079180Y-18280211D01*
X18112852Y-18179196D01*
X18281212Y-18010836D01*
X18314883Y-17909821D01*
X18954646Y-17876149D02*
X18247539Y-17169043D01*
X18516913Y-17438416D02*
X18550585Y-17337401D01*
X18685272Y-17202714D01*
X18786287Y-17169042D01*
X18853631Y-17169042D01*
X18954646Y-17202714D01*
X19156677Y-17404745D01*
X19190349Y-17505760D01*
X19190349Y-17573103D01*
X19156677Y-17674118D01*
X19021989Y-17808806D01*
X18920974Y-17842478D01*
X19830112Y-16933340D02*
X19796440Y-17034355D01*
X19661753Y-17169043D01*
X19560737Y-17202714D01*
X19459722Y-17169043D01*
X19190348Y-16899668D01*
X19156676Y-16798653D01*
X19190348Y-16697638D01*
X19325035Y-16562950D01*
X19426051Y-16529279D01*
X19527066Y-16562950D01*
X19594410Y-16630295D01*
X19325035Y-17034356D01*
X20065814Y-15485455D02*
X20065814Y-15418111D01*
X20099486Y-15317096D01*
X20267845Y-15148737D01*
X20368860Y-15115065D01*
X20436204Y-15115065D01*
X20537219Y-15148737D01*
X20604562Y-15216080D01*
X20671906Y-15350767D01*
X20671906Y-16158890D01*
X21109639Y-15721157D01*
X20840264Y-14576318D02*
X20907608Y-14508973D01*
X21008623Y-14475302D01*
X21075967Y-14475302D01*
X21176982Y-14508973D01*
X21345341Y-14609989D01*
X21513700Y-14778348D01*
X21614715Y-14946706D01*
X21648387Y-15047722D01*
X21648387Y-15115065D01*
X21614715Y-15216080D01*
X21547371Y-15283424D01*
X21446356Y-15317096D01*
X21379012Y-15317096D01*
X21277997Y-15283424D01*
X21109639Y-15182409D01*
X20941279Y-15014050D01*
X20840264Y-14845691D01*
X20806592Y-14744676D01*
X20806592Y-14677333D01*
X20840264Y-14576318D01*
X22456509Y-14374287D02*
X22052447Y-14778348D01*
X22254478Y-14576318D02*
X21547371Y-13869211D01*
X21581043Y-14037569D01*
X21581043Y-14172256D01*
X21547371Y-14273271D01*
X21985104Y-13431478D02*
X22456509Y-12960073D01*
X22860569Y-13970226D01*
X25000000Y-25000000D02*
X25000000Y25000000D01*
X-25000000Y-25000000D02*
X25000000Y-25000000D01*
X-25000000Y-20000000D02*
X-25000000Y-25000000D01*
X-35000000Y-20000000D02*
X-25000000Y-20000000D01*
X-37000000Y-18000000D02*
X-35000000Y-20000000D01*
X-37000000Y18000000D02*
X-37000000Y-18000000D01*
X-35000000Y20000000D02*
X-37000000Y18000000D01*
X-25000000Y20000000D02*
X-35000000Y20000000D01*
X-25000000Y25000000D02*
X-25000000Y20000000D01*
X25000000Y25000000D02*
X-25000000Y25000000D01*
D12*
X-35571429Y-10357144D02*
X-35500000Y-10214286D01*
X-35428571Y-10142858D01*
X-35285714Y-10071429D01*
X-35214286Y-10071429D01*
X-35071429Y-10142858D01*
X-35000000Y-10214286D01*
X-34928571Y-10357144D01*
X-34928571Y-10642858D01*
X-35000000Y-10785715D01*
X-35071429Y-10857144D01*
X-35214286Y-10928572D01*
X-35285714Y-10928572D01*
X-35428571Y-10857144D01*
X-35500000Y-10785715D01*
X-35571429Y-10642858D01*
X-35571429Y-10357144D01*
X-35642857Y-10214286D01*
X-35714286Y-10142858D01*
X-35857143Y-10071429D01*
X-36142857Y-10071429D01*
X-36285714Y-10142858D01*
X-36357143Y-10214286D01*
X-36428571Y-10357144D01*
X-36428571Y-10642858D01*
X-36357143Y-10785715D01*
X-36285714Y-10857144D01*
X-36142857Y-10928572D01*
X-35857143Y-10928572D01*
X-35714286Y-10857144D01*
X-35642857Y-10785715D01*
X-35571429Y-10642858D01*
X-34928571Y-7000001D02*
X-34928571Y-8000001D01*
X-36428571Y-7357144D01*
X-34928571Y-4785715D02*
X-34928571Y-4500001D01*
X-35000000Y-4357144D01*
X-35071429Y-4285715D01*
X-35285714Y-4142858D01*
X-35571429Y-4071429D01*
X-36142857Y-4071429D01*
X-36285714Y-4142858D01*
X-36357143Y-4214286D01*
X-36428571Y-4357144D01*
X-36428571Y-4642858D01*
X-36357143Y-4785715D01*
X-36285714Y-4857144D01*
X-36142857Y-4928572D01*
X-35785714Y-4928572D01*
X-35642857Y-4857144D01*
X-35571429Y-4785715D01*
X-35500000Y-4642858D01*
X-35500000Y-4357144D01*
X-35571429Y-4214286D01*
X-35642857Y-4142858D01*
X-35785714Y-4071429D01*
X-34928571Y-1857144D02*
X-34928571Y-1142858D01*
X-35642857Y-1071429D01*
X-35571429Y-1142858D01*
X-35500000Y-1285715D01*
X-35500000Y-1642858D01*
X-35571429Y-1785715D01*
X-35642857Y-1857144D01*
X-35785714Y-1928572D01*
X-36142857Y-1928572D01*
X-36285714Y-1857144D01*
X-36357143Y-1785715D01*
X-36428571Y-1642858D01*
X-36428571Y-1285715D01*
X-36357143Y-1142858D01*
X-36285714Y-1071429D01*
X-35428571Y1214285D02*
X-36428571Y1214285D01*
X-34857143Y1571428D02*
X-35928571Y1928571D01*
X-35928571Y999999D01*
X-34928571Y4999999D02*
X-34928571Y4071428D01*
X-35500000Y4571428D01*
X-35500000Y4357142D01*
X-35571429Y4214285D01*
X-35642857Y4142856D01*
X-35785714Y4071428D01*
X-36142857Y4071428D01*
X-36285714Y4142856D01*
X-36357143Y4214285D01*
X-36428571Y4357142D01*
X-36428571Y4785714D01*
X-36357143Y4928571D01*
X-36285714Y4999999D01*
X-35071429Y7928571D02*
X-35000000Y7857142D01*
X-34928571Y7714285D01*
X-34928571Y7357142D01*
X-35000000Y7214285D01*
X-35071429Y7142856D01*
X-35214286Y7071428D01*
X-35357143Y7071428D01*
X-35571429Y7142856D01*
X-36428571Y7999999D01*
X-36428571Y7071428D01*
X-36428571Y10071428D02*
X-36428571Y10928571D01*
X-36428571Y10499999D02*
X-34928571Y10499999D01*
X-35142857Y10642856D01*
X-35285714Y10785714D01*
X-35357143Y10928571D01*
X-27678571Y-12107143D02*
X-27678571Y-12392857D01*
X-27750000Y-12535715D01*
X-27892857Y-12678572D01*
X-28178571Y-12750000D01*
X-28678571Y-12750000D01*
X-28964286Y-12678572D01*
X-29107143Y-12535715D01*
X-29178571Y-12392857D01*
X-29178571Y-12107143D01*
X-29107143Y-11964286D01*
X-28964286Y-11821429D01*
X-28678571Y-11750000D01*
X-28178571Y-11750000D01*
X-27892857Y-11821429D01*
X-27750000Y-11964286D01*
X-27678571Y-12107143D01*
X-31678571Y-12714286D02*
X-30964286Y-12214286D01*
X-31678571Y-11857143D02*
X-30178571Y-11857143D01*
X-30178571Y-12428571D01*
X-30250000Y-12571429D01*
X-30321429Y-12642857D01*
X-30464286Y-12714286D01*
X-30678571Y-12714286D01*
X-30821429Y-12642857D01*
X-30892857Y-12571429D01*
X-30964286Y-12428571D01*
X-30964286Y-11857143D01*
X-33392857Y-12357143D02*
X-33464286Y-12571429D01*
X-33535714Y-12642857D01*
X-33678571Y-12714286D01*
X-33892857Y-12714286D01*
X-34035714Y-12642857D01*
X-34107143Y-12571429D01*
X-34178571Y-12428571D01*
X-34178571Y-11857143D01*
X-32678571Y-11857143D01*
X-32678571Y-12357143D01*
X-32750000Y-12500000D01*
X-32821429Y-12571429D01*
X-32964286Y-12642857D01*
X-33107143Y-12642857D01*
X-33250000Y-12571429D01*
X-33321429Y-12500000D01*
X-33392857Y-12357143D01*
X-33392857Y-11857143D01*
X-27678571Y12892857D02*
X-29178571Y12535714D01*
X-28107143Y12250000D01*
X-29178571Y11964286D01*
X-27678571Y11607143D01*
X-31678571Y11785714D02*
X-30964286Y12285714D01*
X-31678571Y12642857D02*
X-30178571Y12642857D01*
X-30178571Y12071429D01*
X-30250000Y11928571D01*
X-30321429Y11857143D01*
X-30464286Y11785714D01*
X-30678571Y11785714D01*
X-30821429Y11857143D01*
X-30892857Y11928571D01*
X-30964286Y12071429D01*
X-30964286Y12642857D01*
X-33392857Y12142857D02*
X-33464286Y11928571D01*
X-33535714Y11857143D01*
X-33678571Y11785714D01*
X-33892857Y11785714D01*
X-34035714Y11857143D01*
X-34107143Y11928571D01*
X-34178571Y12071429D01*
X-34178571Y12642857D01*
X-32678571Y12642857D01*
X-32678571Y12142857D01*
X-32750000Y12000000D01*
X-32821429Y11928571D01*
X-32964286Y11857143D01*
X-33107143Y11857143D01*
X-33250000Y11928571D01*
X-33321429Y12000000D01*
X-33392857Y12142857D01*
X-33392857Y12642857D01*
D11*
X-31400000Y19250000D02*
X-34100000Y19250000D01*
X-31400000Y17750000D02*
X-34100000Y17750000D01*
X-32900000Y18650000D02*
X-32900000Y18400000D01*
X-32900000Y18400000D02*
X-32750000Y18550000D01*
X-32650000Y18150000D02*
X-32650000Y18850000D01*
X-33000000Y18500000D02*
X-33350000Y18500000D01*
X-32650000Y18500000D02*
X-33000000Y18150000D01*
X-33000000Y18150000D02*
X-33000000Y18850000D01*
X-33000000Y18850000D02*
X-32650000Y18500000D01*
X-7175000Y7175000D02*
X-7175000Y6375000D01*
X7175000Y7175000D02*
X7175000Y6375000D01*
X7175000Y-7175000D02*
X7175000Y-6375000D01*
X-7175000Y-7175000D02*
X-7175000Y-6375000D01*
X-7175000Y7175000D02*
X-6375000Y7175000D01*
X-7175000Y-7175000D02*
X-6375000Y-7175000D01*
X7175000Y-7175000D02*
X6375000Y-7175000D01*
X7175000Y7175000D02*
X6375000Y7175000D01*
X-7175000Y6375000D02*
X-8450000Y6375000D01*
X-8000000Y-16980000D02*
X-7000000Y-16980000D01*
X-7000000Y-15280000D02*
X-8000000Y-15280000D01*
X3500000Y-15280000D02*
X2500000Y-15280000D01*
X2500000Y-16980000D02*
X3500000Y-16980000D01*
X-5350000Y13000000D02*
X-5350000Y12000000D01*
X-3650000Y12000000D02*
X-3650000Y13000000D01*
X-7600000Y13000000D02*
X-7600000Y12000000D01*
X-5900000Y12000000D02*
X-5900000Y13000000D01*
X-5500000Y-13100000D02*
X-4500000Y-13100000D01*
X-4500000Y-11400000D02*
X-5500000Y-11400000D01*
X-13000000Y650000D02*
X-12000000Y650000D01*
X-12000000Y2350000D02*
X-13000000Y2350000D01*
X-32900000Y16750000D02*
X-35600000Y16750000D01*
X-32900000Y15250000D02*
X-35600000Y15250000D01*
X-34400000Y16150000D02*
X-34400000Y15900000D01*
X-34400000Y15900000D02*
X-34250000Y16050000D01*
X-34150000Y15650000D02*
X-34150000Y16350000D01*
X-34500000Y16000000D02*
X-34850000Y16000000D01*
X-34150000Y16000000D02*
X-34500000Y15650000D01*
X-34500000Y15650000D02*
X-34500000Y16350000D01*
X-34500000Y16350000D02*
X-34150000Y16000000D01*
X-32900000Y-13250000D02*
X-35600000Y-13250000D01*
X-32900000Y-14750000D02*
X-35600000Y-14750000D01*
X-34400000Y-13850000D02*
X-34400000Y-14100000D01*
X-34400000Y-14100000D02*
X-34250000Y-13950000D01*
X-34150000Y-14350000D02*
X-34150000Y-13650000D01*
X-34500000Y-14000000D02*
X-34850000Y-14000000D01*
X-34150000Y-14000000D02*
X-34500000Y-14350000D01*
X-34500000Y-14350000D02*
X-34500000Y-13650000D01*
X-34500000Y-13650000D02*
X-34150000Y-14000000D01*
X-34600000Y-19250000D02*
X-31900000Y-19250000D01*
X-34600000Y-17750000D02*
X-31900000Y-17750000D01*
X-33100000Y-18650000D02*
X-33100000Y-18400000D01*
X-33100000Y-18400000D02*
X-33250000Y-18550000D01*
X-33350000Y-18150000D02*
X-33350000Y-18850000D01*
X-33000000Y-18500000D02*
X-32650000Y-18500000D01*
X-33350000Y-18500000D02*
X-33000000Y-18150000D01*
X-33000000Y-18150000D02*
X-33000000Y-18850000D01*
X-33000000Y-18850000D02*
X-33350000Y-18500000D01*
X-32900000Y14750000D02*
X-35600000Y14750000D01*
X-32900000Y13250000D02*
X-35600000Y13250000D01*
X-34400000Y14150000D02*
X-34400000Y13900000D01*
X-34400000Y13900000D02*
X-34250000Y14050000D01*
X-34150000Y13650000D02*
X-34150000Y14350000D01*
X-34500000Y14000000D02*
X-34850000Y14000000D01*
X-34150000Y14000000D02*
X-34500000Y13650000D01*
X-34500000Y13650000D02*
X-34500000Y14350000D01*
X-34500000Y14350000D02*
X-34150000Y14000000D01*
X-32900000Y-15250000D02*
X-35600000Y-15250000D01*
X-32900000Y-16750000D02*
X-35600000Y-16750000D01*
X-34400000Y-15850000D02*
X-34400000Y-16100000D01*
X-34400000Y-16100000D02*
X-34250000Y-15950000D01*
X-34150000Y-16350000D02*
X-34150000Y-15650000D01*
X-34500000Y-16000000D02*
X-34850000Y-16000000D01*
X-34150000Y-16000000D02*
X-34500000Y-16350000D01*
X-34500000Y-16350000D02*
X-34500000Y-15650000D01*
X-34500000Y-15650000D02*
X-34150000Y-16000000D01*
X20882000Y3688000D02*
X22082000Y3688000D01*
X22082000Y1938000D02*
X20882000Y1938000D01*
X-25400000Y15125000D02*
X-26600000Y15125000D01*
X-26600000Y16875000D02*
X-25400000Y16875000D01*
X-25400000Y-14875000D02*
X-26600000Y-14875000D01*
X-26600000Y-13125000D02*
X-25400000Y-13125000D01*
X-25400000Y17625000D02*
X-26600000Y17625000D01*
X-26600000Y19375000D02*
X-25400000Y19375000D01*
X-25400000Y13125000D02*
X-26600000Y13125000D01*
X-26600000Y14875000D02*
X-25400000Y14875000D01*
X-25400000Y-16875000D02*
X-26600000Y-16875000D01*
X-26600000Y-15125000D02*
X-25400000Y-15125000D01*
X-25400000Y-19375000D02*
X-26600000Y-19375000D01*
X-26600000Y-17625000D02*
X-25400000Y-17625000D01*
X-2850000Y-15255000D02*
X-1650000Y-15255000D01*
X-1650000Y-17005000D02*
X-2850000Y-17005000D01*
X8620000Y19972000D02*
X7420000Y19972000D01*
X7420000Y21722000D02*
X8620000Y21722000D01*
X8620000Y22004000D02*
X7420000Y22004000D01*
X7420000Y23754000D02*
X8620000Y23754000D01*
X12322000Y15445000D02*
X10322000Y15445000D01*
X10322000Y12495000D02*
X12322000Y12495000D01*
X3702000Y20682000D02*
X-10014000Y20682000D01*
X3702000Y20682000D02*
X3702000Y25000000D01*
X-10014000Y20682000D02*
X-10014000Y25000000D01*
X20682000Y-8255000D02*
X20682000Y381000D01*
X20682000Y-8255000D02*
X25000000Y-8255000D01*
X20682000Y381000D02*
X25000000Y381000D01*
X-14730000Y24520000D02*
X-12190000Y24520000D01*
X-17550000Y24800000D02*
X-16000000Y24800000D01*
X-14730000Y24520000D02*
X-14730000Y21980000D01*
X-16000000Y21700000D02*
X-17550000Y21700000D01*
X-17550000Y21700000D02*
X-17550000Y24800000D01*
X-14730000Y21980000D02*
X-12190000Y21980000D01*
X-12190000Y21980000D02*
X-12190000Y24520000D01*
X-22230000Y-10270000D02*
X-22230000Y-12810000D01*
X-21950000Y-7450000D02*
X-21950000Y-9000000D01*
X-22230000Y-10270000D02*
X-24770000Y-10270000D01*
X-25050000Y-9000000D02*
X-25050000Y-7450000D01*
X-25050000Y-7450000D02*
X-21950000Y-7450000D01*
X-24770000Y-10270000D02*
X-24770000Y-12810000D01*
X-24770000Y-12810000D02*
X-22230000Y-12810000D01*
D13*
X-19260000Y20080000D02*
X-19260000Y19150000D01*
X-19260000Y16920000D02*
X-19260000Y17850000D01*
X-19260000Y16920000D02*
X-16100000Y16920000D01*
X-19260000Y20080000D02*
X-17800000Y20080000D01*
X-19260000Y16580000D02*
X-19260000Y15650000D01*
X-19260000Y13420000D02*
X-19260000Y14350000D01*
X-19260000Y13420000D02*
X-16100000Y13420000D01*
X-19260000Y16580000D02*
X-17800000Y16580000D01*
X-19260000Y13080000D02*
X-19260000Y12150000D01*
X-19260000Y9920000D02*
X-19260000Y10850000D01*
X-19260000Y9920000D02*
X-16100000Y9920000D01*
X-19260000Y13080000D02*
X-17800000Y13080000D01*
X-19260000Y-10920000D02*
X-19260000Y-11850000D01*
X-19260000Y-14080000D02*
X-19260000Y-13150000D01*
X-19260000Y-14080000D02*
X-16100000Y-14080000D01*
X-19260000Y-10920000D02*
X-17800000Y-10920000D01*
X-19260000Y-14420000D02*
X-19260000Y-15350000D01*
X-19260000Y-17580000D02*
X-19260000Y-16650000D01*
X-19260000Y-17580000D02*
X-16100000Y-17580000D01*
X-19260000Y-14420000D02*
X-17800000Y-14420000D01*
D11*
X20682000Y4642000D02*
X20682000Y18358000D01*
X20682000Y4642000D02*
X25000000Y4642000D01*
X20682000Y18358000D02*
X25000000Y18358000D01*
X2449000Y-19129240D02*
X2649660Y-19530560D01*
X2649660Y-19530560D02*
X2751260Y-20130000D01*
X2751260Y-20130000D02*
X2649660Y-20630380D01*
X2649660Y-20630380D02*
X2250880Y-21328880D01*
X2250880Y-21328880D02*
X1648900Y-21730200D01*
X1648900Y-21730200D02*
X1049460Y-21930860D01*
X1049460Y-21930860D02*
X-5549460Y-21930860D01*
X-5549460Y-21930860D02*
X-6250500Y-21730200D01*
X-6250500Y-21730200D02*
X-6649280Y-21430480D01*
X-6649280Y-21430480D02*
X-7050600Y-20930100D01*
X-7050600Y-20930100D02*
X-7251260Y-20330660D01*
X-7251260Y-20330660D02*
X-7251260Y-19830280D01*
X-7251260Y-19830280D02*
X-7050600Y-19329900D01*
X-7050600Y-19329900D02*
X-6550220Y-18730460D01*
X-6550220Y-18730460D02*
X-6049840Y-18430740D01*
X-6049840Y-18430740D02*
X-5549460Y-18329140D01*
X-5450400Y-18329140D02*
X1151060Y-18329140D01*
X1151060Y-18329140D02*
X1549840Y-18430740D01*
X1549840Y-18430740D02*
X2050220Y-18730460D01*
X2050220Y-18730460D02*
X2550600Y-19230840D01*
X-5440240Y-17800820D02*
X-5899980Y-17849080D01*
X-5899980Y-17849080D02*
X-6298760Y-17960840D01*
X-6298760Y-17960840D02*
X-6730560Y-18179280D01*
X-6730560Y-18179280D02*
X-7020120Y-18410420D01*
X-7020120Y-18410420D02*
X-7350320Y-18760940D01*
X-7350320Y-18760940D02*
X-7639880Y-19299420D01*
X-7639880Y-19299420D02*
X-7769420Y-19898860D01*
X-7769420Y-19898860D02*
X-7769420Y-20409400D01*
X-7769420Y-20409400D02*
X-7599240Y-21110440D01*
X-7599240Y-21110440D02*
X-7200460Y-21699720D01*
X-7200460Y-21699720D02*
X-6740720Y-22070560D01*
X-6740720Y-22070560D02*
X-6319080Y-22278840D01*
X-6319080Y-22278840D02*
X-5869500Y-22438860D01*
X-5869500Y-22438860D02*
X-5430080Y-22469340D01*
X1910520Y-22250900D02*
X2288980Y-22029920D01*
X2288980Y-22029920D02*
X2609020Y-21750520D01*
X2609020Y-21750520D02*
X2860480Y-21420320D01*
X2860480Y-21420320D02*
X3160200Y-20869140D01*
X3160200Y-20869140D02*
X3269420Y-20399240D01*
X3269420Y-20399240D02*
X3289740Y-19939500D01*
X3289740Y-19939500D02*
X3200840Y-19479760D01*
X3200840Y-19479760D02*
X3010340Y-19030180D01*
X3010340Y-19030180D02*
X2649660Y-18560280D01*
X2649660Y-18560280D02*
X2299140Y-18240240D01*
X2299140Y-18240240D02*
X1910520Y-18009100D01*
X1910520Y-18009100D02*
X1481260Y-17869400D01*
X1481260Y-17869400D02*
X1039300Y-17800820D01*
X-5450400Y-22459180D02*
X1001200Y-22459180D01*
X1001200Y-22459180D02*
X1420300Y-22421080D01*
X1420300Y-22421080D02*
X1910520Y-22250900D01*
X-5450400Y-17800820D02*
X1001200Y-17800820D01*
X-30738095Y18047619D02*
X-30738095Y19047619D01*
X-30500000Y19047619D01*
X-30357142Y19000000D01*
X-30261904Y18904762D01*
X-30214285Y18809524D01*
X-30166666Y18619048D01*
X-30166666Y18476190D01*
X-30214285Y18285714D01*
X-30261904Y18190476D01*
X-30357142Y18095238D01*
X-30500000Y18047619D01*
X-30738095Y18047619D01*
X-29309523Y18714286D02*
X-29309523Y18047619D01*
X-29547619Y19095238D02*
X-29785714Y18380952D01*
X-29166666Y18380952D01*
X-976190Y547619D02*
X-976190Y1547619D01*
X71429Y642857D02*
X23810Y595238D01*
X-119047Y547619D01*
X-214285Y547619D01*
X-357143Y595238D01*
X-452381Y690476D01*
X-500000Y785714D01*
X-547619Y976190D01*
X-547619Y1119048D01*
X-500000Y1309524D01*
X-452381Y1404762D01*
X-357143Y1500000D01*
X-214285Y1547619D01*
X-119047Y1547619D01*
X23810Y1500000D01*
X71429Y1452381D01*
X1023810Y547619D02*
X452381Y547619D01*
X738095Y547619D02*
X738095Y1547619D01*
X642857Y1404762D01*
X547619Y1309524D01*
X452381Y1261905D01*
X-7666666Y-14607143D02*
X-7714285Y-14654762D01*
X-7857142Y-14702381D01*
X-7952380Y-14702381D01*
X-8095238Y-14654762D01*
X-8190476Y-14559524D01*
X-8238095Y-14464286D01*
X-8285714Y-14273810D01*
X-8285714Y-14130952D01*
X-8238095Y-13940476D01*
X-8190476Y-13845238D01*
X-8095238Y-13750000D01*
X-7952380Y-13702381D01*
X-7857142Y-13702381D01*
X-7714285Y-13750000D01*
X-7666666Y-13797619D01*
X-6714285Y-14702381D02*
X-7285714Y-14702381D01*
X-7000000Y-14702381D02*
X-7000000Y-13702381D01*
X-7095238Y-13845238D01*
X-7190476Y-13940476D01*
X-7285714Y-13988095D01*
X2833334Y-14607143D02*
X2785715Y-14654762D01*
X2642858Y-14702381D01*
X2547620Y-14702381D01*
X2404762Y-14654762D01*
X2309524Y-14559524D01*
X2261905Y-14464286D01*
X2214286Y-14273810D01*
X2214286Y-14130952D01*
X2261905Y-13940476D01*
X2309524Y-13845238D01*
X2404762Y-13750000D01*
X2547620Y-13702381D01*
X2642858Y-13702381D01*
X2785715Y-13750000D01*
X2833334Y-13797619D01*
X3214286Y-13797619D02*
X3261905Y-13750000D01*
X3357143Y-13702381D01*
X3595239Y-13702381D01*
X3690477Y-13750000D01*
X3738096Y-13797619D01*
X3785715Y-13892857D01*
X3785715Y-13988095D01*
X3738096Y-14130952D01*
X3166667Y-14702381D01*
X3785715Y-14702381D01*
X-2142857Y12333334D02*
X-2095238Y12285715D01*
X-2047619Y12142858D01*
X-2047619Y12047620D01*
X-2095238Y11904762D01*
X-2190476Y11809524D01*
X-2285714Y11761905D01*
X-2476190Y11714286D01*
X-2619048Y11714286D01*
X-2809524Y11761905D01*
X-2904762Y11809524D01*
X-3000000Y11904762D01*
X-3047619Y12047620D01*
X-3047619Y12142858D01*
X-3000000Y12285715D01*
X-2952381Y12333334D01*
X-3047619Y12666667D02*
X-3047619Y13285715D01*
X-2666667Y12952381D01*
X-2666667Y13095239D01*
X-2619048Y13190477D01*
X-2571429Y13238096D01*
X-2476190Y13285715D01*
X-2238095Y13285715D01*
X-2142857Y13238096D01*
X-2095238Y13190477D01*
X-2047619Y13095239D01*
X-2047619Y12809524D01*
X-2095238Y12714286D01*
X-2142857Y12666667D01*
X-8392857Y12333334D02*
X-8345238Y12285715D01*
X-8297619Y12142858D01*
X-8297619Y12047620D01*
X-8345238Y11904762D01*
X-8440476Y11809524D01*
X-8535714Y11761905D01*
X-8726190Y11714286D01*
X-8869048Y11714286D01*
X-9059524Y11761905D01*
X-9154762Y11809524D01*
X-9250000Y11904762D01*
X-9297619Y12047620D01*
X-9297619Y12142858D01*
X-9250000Y12285715D01*
X-9202381Y12333334D01*
X-8964286Y13190477D02*
X-8297619Y13190477D01*
X-9345238Y12952381D02*
X-8630952Y12714286D01*
X-8630952Y13333334D01*
X-5166666Y-10857143D02*
X-5214285Y-10904762D01*
X-5357142Y-10952381D01*
X-5452380Y-10952381D01*
X-5595238Y-10904762D01*
X-5690476Y-10809524D01*
X-5738095Y-10714286D01*
X-5785714Y-10523810D01*
X-5785714Y-10380952D01*
X-5738095Y-10190476D01*
X-5690476Y-10095238D01*
X-5595238Y-10000000D01*
X-5452380Y-9952381D01*
X-5357142Y-9952381D01*
X-5214285Y-10000000D01*
X-5166666Y-10047619D01*
X-4261904Y-9952381D02*
X-4738095Y-9952381D01*
X-4785714Y-10428571D01*
X-4738095Y-10380952D01*
X-4642857Y-10333333D01*
X-4404761Y-10333333D01*
X-4309523Y-10380952D01*
X-4261904Y-10428571D01*
X-4214285Y-10523810D01*
X-4214285Y-10761905D01*
X-4261904Y-10857143D01*
X-4309523Y-10904762D01*
X-4404761Y-10952381D01*
X-4642857Y-10952381D01*
X-4738095Y-10904762D01*
X-4785714Y-10857143D01*
X-16166666Y1142857D02*
X-16214285Y1095238D01*
X-16357142Y1047619D01*
X-16452380Y1047619D01*
X-16595238Y1095238D01*
X-16690476Y1190476D01*
X-16738095Y1285714D01*
X-16785714Y1476190D01*
X-16785714Y1619048D01*
X-16738095Y1809524D01*
X-16690476Y1904762D01*
X-16595238Y2000000D01*
X-16452380Y2047619D01*
X-16357142Y2047619D01*
X-16214285Y2000000D01*
X-16166666Y1952381D01*
X-15309523Y2047619D02*
X-15500000Y2047619D01*
X-15595238Y2000000D01*
X-15642857Y1952381D01*
X-15738095Y1809524D01*
X-15785714Y1619048D01*
X-15785714Y1238095D01*
X-15738095Y1142857D01*
X-15690476Y1095238D01*
X-15595238Y1047619D01*
X-15404761Y1047619D01*
X-15309523Y1095238D01*
X-15261904Y1142857D01*
X-15214285Y1238095D01*
X-15214285Y1476190D01*
X-15261904Y1571429D01*
X-15309523Y1619048D01*
X-15404761Y1666667D01*
X-15595238Y1666667D01*
X-15690476Y1619048D01*
X-15738095Y1571429D01*
X-15785714Y1476190D01*
X-32238095Y15547619D02*
X-32238095Y16547619D01*
X-32000000Y16547619D01*
X-31857142Y16500000D01*
X-31761904Y16404762D01*
X-31714285Y16309524D01*
X-31666666Y16119048D01*
X-31666666Y15976190D01*
X-31714285Y15785714D01*
X-31761904Y15690476D01*
X-31857142Y15595238D01*
X-32000000Y15547619D01*
X-32238095Y15547619D01*
X-30714285Y15547619D02*
X-31285714Y15547619D01*
X-31000000Y15547619D02*
X-31000000Y16547619D01*
X-31095238Y16404762D01*
X-31190476Y16309524D01*
X-31285714Y16261905D01*
X-32238095Y-14452381D02*
X-32238095Y-13452381D01*
X-32000000Y-13452381D01*
X-31857142Y-13500000D01*
X-31761904Y-13595238D01*
X-31714285Y-13690476D01*
X-31666666Y-13880952D01*
X-31666666Y-14023810D01*
X-31714285Y-14214286D01*
X-31761904Y-14309524D01*
X-31857142Y-14404762D01*
X-32000000Y-14452381D01*
X-32238095Y-14452381D01*
X-31285714Y-13547619D02*
X-31238095Y-13500000D01*
X-31142857Y-13452381D01*
X-30904761Y-13452381D01*
X-30809523Y-13500000D01*
X-30761904Y-13547619D01*
X-30714285Y-13642857D01*
X-30714285Y-13738095D01*
X-30761904Y-13880952D01*
X-31333333Y-14452381D01*
X-30714285Y-14452381D01*
X-30738095Y-18952381D02*
X-30738095Y-17952381D01*
X-30500000Y-17952381D01*
X-30357142Y-18000000D01*
X-30261904Y-18095238D01*
X-30214285Y-18190476D01*
X-30166666Y-18380952D01*
X-30166666Y-18523810D01*
X-30214285Y-18714286D01*
X-30261904Y-18809524D01*
X-30357142Y-18904762D01*
X-30500000Y-18952381D01*
X-30738095Y-18952381D01*
X-29833333Y-17952381D02*
X-29214285Y-17952381D01*
X-29547619Y-18333333D01*
X-29404761Y-18333333D01*
X-29309523Y-18380952D01*
X-29261904Y-18428571D01*
X-29214285Y-18523810D01*
X-29214285Y-18761905D01*
X-29261904Y-18857143D01*
X-29309523Y-18904762D01*
X-29404761Y-18952381D01*
X-29690476Y-18952381D01*
X-29785714Y-18904762D01*
X-29833333Y-18857143D01*
X-32238095Y13547619D02*
X-32238095Y14547619D01*
X-32000000Y14547619D01*
X-31857142Y14500000D01*
X-31761904Y14404762D01*
X-31714285Y14309524D01*
X-31666666Y14119048D01*
X-31666666Y13976190D01*
X-31714285Y13785714D01*
X-31761904Y13690476D01*
X-31857142Y13595238D01*
X-32000000Y13547619D01*
X-32238095Y13547619D01*
X-30761904Y14547619D02*
X-31238095Y14547619D01*
X-31285714Y14071429D01*
X-31238095Y14119048D01*
X-31142857Y14166667D01*
X-30904761Y14166667D01*
X-30809523Y14119048D01*
X-30761904Y14071429D01*
X-30714285Y13976190D01*
X-30714285Y13738095D01*
X-30761904Y13642857D01*
X-30809523Y13595238D01*
X-30904761Y13547619D01*
X-31142857Y13547619D01*
X-31238095Y13595238D01*
X-31285714Y13642857D01*
X-32238095Y-16452381D02*
X-32238095Y-15452381D01*
X-32000000Y-15452381D01*
X-31857142Y-15500000D01*
X-31761904Y-15595238D01*
X-31714285Y-15690476D01*
X-31666666Y-15880952D01*
X-31666666Y-16023810D01*
X-31714285Y-16214286D01*
X-31761904Y-16309524D01*
X-31857142Y-16404762D01*
X-32000000Y-16452381D01*
X-32238095Y-16452381D01*
X-30809523Y-15452381D02*
X-31000000Y-15452381D01*
X-31095238Y-15500000D01*
X-31142857Y-15547619D01*
X-31238095Y-15690476D01*
X-31285714Y-15880952D01*
X-31285714Y-16261905D01*
X-31238095Y-16357143D01*
X-31190476Y-16404762D01*
X-31095238Y-16452381D01*
X-30904761Y-16452381D01*
X-30809523Y-16404762D01*
X-30761904Y-16357143D01*
X-30714285Y-16261905D01*
X-30714285Y-16023810D01*
X-30761904Y-15928571D01*
X-30809523Y-15880952D01*
X-30904761Y-15833333D01*
X-31095238Y-15833333D01*
X-31190476Y-15880952D01*
X-31238095Y-15928571D01*
X-31285714Y-16023810D01*
X17833334Y2297619D02*
X17500000Y2773810D01*
X17261905Y2297619D02*
X17261905Y3297619D01*
X17642858Y3297619D01*
X17738096Y3250000D01*
X17785715Y3202381D01*
X17833334Y3107143D01*
X17833334Y2964286D01*
X17785715Y2869048D01*
X17738096Y2821429D01*
X17642858Y2773810D01*
X17261905Y2773810D01*
X18785715Y2297619D02*
X18214286Y2297619D01*
X18500000Y2297619D02*
X18500000Y3297619D01*
X18404762Y3154762D01*
X18309524Y3059524D01*
X18214286Y3011905D01*
X-22666666Y15547619D02*
X-23000000Y16023810D01*
X-23238095Y15547619D02*
X-23238095Y16547619D01*
X-22857142Y16547619D01*
X-22761904Y16500000D01*
X-22714285Y16452381D01*
X-22666666Y16357143D01*
X-22666666Y16214286D01*
X-22714285Y16119048D01*
X-22761904Y16071429D01*
X-22857142Y16023810D01*
X-23238095Y16023810D01*
X-22285714Y16452381D02*
X-22238095Y16500000D01*
X-22142857Y16547619D01*
X-21904761Y16547619D01*
X-21809523Y16500000D01*
X-21761904Y16452381D01*
X-21714285Y16357143D01*
X-21714285Y16261905D01*
X-21761904Y16119048D01*
X-22333333Y15547619D01*
X-21714285Y15547619D01*
X-22666666Y-14452381D02*
X-23000000Y-13976190D01*
X-23238095Y-14452381D02*
X-23238095Y-13452381D01*
X-22857142Y-13452381D01*
X-22761904Y-13500000D01*
X-22714285Y-13547619D01*
X-22666666Y-13642857D01*
X-22666666Y-13785714D01*
X-22714285Y-13880952D01*
X-22761904Y-13928571D01*
X-22857142Y-13976190D01*
X-23238095Y-13976190D01*
X-22333333Y-13452381D02*
X-21714285Y-13452381D01*
X-22047619Y-13833333D01*
X-21904761Y-13833333D01*
X-21809523Y-13880952D01*
X-21761904Y-13928571D01*
X-21714285Y-14023810D01*
X-21714285Y-14261905D01*
X-21761904Y-14357143D01*
X-21809523Y-14404762D01*
X-21904761Y-14452381D01*
X-22190476Y-14452381D01*
X-22285714Y-14404762D01*
X-22333333Y-14357143D01*
X-22666666Y18047619D02*
X-23000000Y18523810D01*
X-23238095Y18047619D02*
X-23238095Y19047619D01*
X-22857142Y19047619D01*
X-22761904Y19000000D01*
X-22714285Y18952381D01*
X-22666666Y18857143D01*
X-22666666Y18714286D01*
X-22714285Y18619048D01*
X-22761904Y18571429D01*
X-22857142Y18523810D01*
X-23238095Y18523810D01*
X-21809523Y18714286D02*
X-21809523Y18047619D01*
X-22047619Y19095238D02*
X-22285714Y18380952D01*
X-21666666Y18380952D01*
X-22666666Y13547619D02*
X-23000000Y14023810D01*
X-23238095Y13547619D02*
X-23238095Y14547619D01*
X-22857142Y14547619D01*
X-22761904Y14500000D01*
X-22714285Y14452381D01*
X-22666666Y14357143D01*
X-22666666Y14214286D01*
X-22714285Y14119048D01*
X-22761904Y14071429D01*
X-22857142Y14023810D01*
X-23238095Y14023810D01*
X-21761904Y14547619D02*
X-22238095Y14547619D01*
X-22285714Y14071429D01*
X-22238095Y14119048D01*
X-22142857Y14166667D01*
X-21904761Y14166667D01*
X-21809523Y14119048D01*
X-21761904Y14071429D01*
X-21714285Y13976190D01*
X-21714285Y13738095D01*
X-21761904Y13642857D01*
X-21809523Y13595238D01*
X-21904761Y13547619D01*
X-22142857Y13547619D01*
X-22238095Y13595238D01*
X-22285714Y13642857D01*
X-22666666Y-16452381D02*
X-23000000Y-15976190D01*
X-23238095Y-16452381D02*
X-23238095Y-15452381D01*
X-22857142Y-15452381D01*
X-22761904Y-15500000D01*
X-22714285Y-15547619D01*
X-22666666Y-15642857D01*
X-22666666Y-15785714D01*
X-22714285Y-15880952D01*
X-22761904Y-15928571D01*
X-22857142Y-15976190D01*
X-23238095Y-15976190D01*
X-21809523Y-15452381D02*
X-22000000Y-15452381D01*
X-22095238Y-15500000D01*
X-22142857Y-15547619D01*
X-22238095Y-15690476D01*
X-22285714Y-15880952D01*
X-22285714Y-16261905D01*
X-22238095Y-16357143D01*
X-22190476Y-16404762D01*
X-22095238Y-16452381D01*
X-21904761Y-16452381D01*
X-21809523Y-16404762D01*
X-21761904Y-16357143D01*
X-21714285Y-16261905D01*
X-21714285Y-16023810D01*
X-21761904Y-15928571D01*
X-21809523Y-15880952D01*
X-21904761Y-15833333D01*
X-22095238Y-15833333D01*
X-22190476Y-15880952D01*
X-22238095Y-15928571D01*
X-22285714Y-16023810D01*
X-22666666Y-18952381D02*
X-23000000Y-18476190D01*
X-23238095Y-18952381D02*
X-23238095Y-17952381D01*
X-22857142Y-17952381D01*
X-22761904Y-18000000D01*
X-22714285Y-18047619D01*
X-22666666Y-18142857D01*
X-22666666Y-18285714D01*
X-22714285Y-18380952D01*
X-22761904Y-18428571D01*
X-22857142Y-18476190D01*
X-23238095Y-18476190D01*
X-22333333Y-17952381D02*
X-21666666Y-17952381D01*
X-22095238Y-18952381D01*
X-2416666Y-14702381D02*
X-2750000Y-14226190D01*
X-2988095Y-14702381D02*
X-2988095Y-13702381D01*
X-2607142Y-13702381D01*
X-2511904Y-13750000D01*
X-2464285Y-13797619D01*
X-2416666Y-13892857D01*
X-2416666Y-14035714D01*
X-2464285Y-14130952D01*
X-2511904Y-14178571D01*
X-2607142Y-14226190D01*
X-2988095Y-14226190D01*
X-1845238Y-14130952D02*
X-1940476Y-14083333D01*
X-1988095Y-14035714D01*
X-2035714Y-13940476D01*
X-2035714Y-13892857D01*
X-1988095Y-13797619D01*
X-1940476Y-13750000D01*
X-1845238Y-13702381D01*
X-1654761Y-13702381D01*
X-1559523Y-13750000D01*
X-1511904Y-13797619D01*
X-1464285Y-13892857D01*
X-1464285Y-13940476D01*
X-1511904Y-14035714D01*
X-1559523Y-14083333D01*
X-1654761Y-14130952D01*
X-1845238Y-14130952D01*
X-1940476Y-14178571D01*
X-1988095Y-14226190D01*
X-2035714Y-14321429D01*
X-2035714Y-14511905D01*
X-1988095Y-14607143D01*
X-1940476Y-14654762D01*
X-1845238Y-14702381D01*
X-1654761Y-14702381D01*
X-1559523Y-14654762D01*
X-1511904Y-14607143D01*
X-1464285Y-14511905D01*
X-1464285Y-14321429D01*
X-1511904Y-14226190D01*
X-1559523Y-14178571D01*
X-1654761Y-14130952D01*
X11409334Y20394619D02*
X11076000Y20870810D01*
X10837905Y20394619D02*
X10837905Y21394619D01*
X11218858Y21394619D01*
X11314096Y21347000D01*
X11361715Y21299381D01*
X11409334Y21204143D01*
X11409334Y21061286D01*
X11361715Y20966048D01*
X11314096Y20918429D01*
X11218858Y20870810D01*
X10837905Y20870810D01*
X11885524Y20394619D02*
X12076000Y20394619D01*
X12171239Y20442238D01*
X12218858Y20489857D01*
X12314096Y20632714D01*
X12361715Y20823190D01*
X12361715Y21204143D01*
X12314096Y21299381D01*
X12266477Y21347000D01*
X12171239Y21394619D01*
X11980762Y21394619D01*
X11885524Y21347000D01*
X11837905Y21299381D01*
X11790286Y21204143D01*
X11790286Y20966048D01*
X11837905Y20870810D01*
X11885524Y20823190D01*
X11980762Y20775571D01*
X12171239Y20775571D01*
X12266477Y20823190D01*
X12314096Y20870810D01*
X12361715Y20966048D01*
X11441143Y22426619D02*
X11107809Y22902810D01*
X10869714Y22426619D02*
X10869714Y23426619D01*
X11250667Y23426619D01*
X11345905Y23379000D01*
X11393524Y23331381D01*
X11441143Y23236143D01*
X11441143Y23093286D01*
X11393524Y22998048D01*
X11345905Y22950429D01*
X11250667Y22902810D01*
X10869714Y22902810D01*
X12393524Y22426619D02*
X11822095Y22426619D01*
X12107809Y22426619D02*
X12107809Y23426619D01*
X12012571Y23283762D01*
X11917333Y23188524D01*
X11822095Y23140905D01*
X13012571Y23426619D02*
X13107810Y23426619D01*
X13203048Y23379000D01*
X13250667Y23331381D01*
X13298286Y23236143D01*
X13345905Y23045667D01*
X13345905Y22807571D01*
X13298286Y22617095D01*
X13250667Y22521857D01*
X13203048Y22474238D01*
X13107810Y22426619D01*
X13012571Y22426619D01*
X12917333Y22474238D01*
X12869714Y22521857D01*
X12822095Y22617095D01*
X12774476Y22807571D01*
X12774476Y23045667D01*
X12822095Y23236143D01*
X12869714Y23331381D01*
X12917333Y23379000D01*
X13012571Y23426619D01*
X11155334Y16044857D02*
X11107715Y15997238D01*
X10964858Y15949619D01*
X10869620Y15949619D01*
X10726762Y15997238D01*
X10631524Y16092476D01*
X10583905Y16187714D01*
X10536286Y16378190D01*
X10536286Y16521048D01*
X10583905Y16711524D01*
X10631524Y16806762D01*
X10726762Y16902000D01*
X10869620Y16949619D01*
X10964858Y16949619D01*
X11107715Y16902000D01*
X11155334Y16854381D01*
X11488667Y16949619D02*
X12155334Y16949619D01*
X11726762Y15949619D01*
X-4346476Y19345238D02*
X-4203619Y19297619D01*
X-3965523Y19297619D01*
X-3870285Y19345238D01*
X-3822666Y19392857D01*
X-3775047Y19488095D01*
X-3775047Y19583333D01*
X-3822666Y19678571D01*
X-3870285Y19726190D01*
X-3965523Y19773810D01*
X-4156000Y19821429D01*
X-4251238Y19869048D01*
X-4298857Y19916667D01*
X-4346476Y20011905D01*
X-4346476Y20107143D01*
X-4298857Y20202381D01*
X-4251238Y20250000D01*
X-4156000Y20297619D01*
X-3917904Y20297619D01*
X-3775047Y20250000D01*
X-3489333Y20297619D02*
X-3156000Y19297619D01*
X-2822666Y20297619D01*
X-2536952Y20202381D02*
X-2489333Y20250000D01*
X-2394095Y20297619D01*
X-2155999Y20297619D01*
X-2060761Y20250000D01*
X-2013142Y20202381D01*
X-1965523Y20107143D01*
X-1965523Y20011905D01*
X-2013142Y19869048D01*
X-2584571Y19297619D01*
X-1965523Y19297619D01*
X-10490285Y22007619D02*
X-11061714Y22007619D01*
X-10776000Y22007619D02*
X-10776000Y23007619D01*
X-10871238Y22864762D01*
X-10966476Y22769524D01*
X-11061714Y22721905D01*
X20154762Y-5127476D02*
X20202381Y-4984619D01*
X20202381Y-4746523D01*
X20154762Y-4651285D01*
X20107143Y-4603666D01*
X20011905Y-4556047D01*
X19916667Y-4556047D01*
X19821429Y-4603666D01*
X19773810Y-4651285D01*
X19726190Y-4746523D01*
X19678571Y-4937000D01*
X19630952Y-5032238D01*
X19583333Y-5079857D01*
X19488095Y-5127476D01*
X19392857Y-5127476D01*
X19297619Y-5079857D01*
X19250000Y-5032238D01*
X19202381Y-4937000D01*
X19202381Y-4698904D01*
X19250000Y-4556047D01*
X19202381Y-4270333D02*
X20202381Y-3937000D01*
X19202381Y-3603666D01*
X20202381Y-2746523D02*
X20202381Y-3317952D01*
X20202381Y-3032238D02*
X19202381Y-3032238D01*
X19345238Y-3127476D01*
X19440476Y-3222714D01*
X19488095Y-3317952D01*
X22912381Y1428715D02*
X22912381Y857286D01*
X22912381Y1143000D02*
X21912381Y1143000D01*
X22055238Y1047762D01*
X22150476Y952524D01*
X22198095Y857286D01*
X-19047619Y22416667D02*
X-18333333Y22416667D01*
X-18190476Y22369047D01*
X-18095238Y22273809D01*
X-18047619Y22130952D01*
X-18047619Y22035714D01*
X-18047619Y22892857D02*
X-19047619Y22892857D01*
X-19047619Y23273810D01*
X-19000000Y23369048D01*
X-18952381Y23416667D01*
X-18857143Y23464286D01*
X-18714286Y23464286D01*
X-18619048Y23416667D01*
X-18571429Y23369048D01*
X-18523810Y23273810D01*
X-18523810Y22892857D01*
X-18047619Y24416667D02*
X-18047619Y23845238D01*
X-18047619Y24130952D02*
X-19047619Y24130952D01*
X-18904762Y24035714D01*
X-18809524Y23940476D01*
X-18761905Y23845238D01*
X-24333333Y-5952381D02*
X-24333333Y-6666667D01*
X-24380953Y-6809524D01*
X-24476191Y-6904762D01*
X-24619048Y-6952381D01*
X-24714286Y-6952381D01*
X-23857143Y-6952381D02*
X-23857143Y-5952381D01*
X-23476190Y-5952381D01*
X-23380952Y-6000000D01*
X-23333333Y-6047619D01*
X-23285714Y-6142857D01*
X-23285714Y-6285714D01*
X-23333333Y-6380952D01*
X-23380952Y-6428571D01*
X-23476190Y-6476190D01*
X-23857143Y-6476190D01*
X-22904762Y-6047619D02*
X-22857143Y-6000000D01*
X-22761905Y-5952381D01*
X-22523809Y-5952381D01*
X-22428571Y-6000000D01*
X-22380952Y-6047619D01*
X-22333333Y-6142857D01*
X-22333333Y-6238095D01*
X-22380952Y-6380952D01*
X-22952381Y-6952381D01*
X-22333333Y-6952381D01*
X-14595238Y17952381D02*
X-14690476Y18000000D01*
X-14785714Y18095238D01*
X-14928571Y18238095D01*
X-15023810Y18285714D01*
X-15119048Y18285714D01*
X-15071429Y18047619D02*
X-15166667Y18095238D01*
X-15261905Y18190476D01*
X-15309524Y18380952D01*
X-15309524Y18714286D01*
X-15261905Y18904762D01*
X-15166667Y19000000D01*
X-15071429Y19047619D01*
X-14880952Y19047619D01*
X-14785714Y19000000D01*
X-14690476Y18904762D01*
X-14642857Y18714286D01*
X-14642857Y18380952D01*
X-14690476Y18190476D01*
X-14785714Y18095238D01*
X-14880952Y18047619D01*
X-15071429Y18047619D01*
X-13690476Y18047619D02*
X-14261905Y18047619D01*
X-13976191Y18047619D02*
X-13976191Y19047619D01*
X-14071429Y18904762D01*
X-14166667Y18809524D01*
X-14261905Y18761905D01*
X-14595238Y14452381D02*
X-14690476Y14500000D01*
X-14785714Y14595238D01*
X-14928571Y14738095D01*
X-15023810Y14785714D01*
X-15119048Y14785714D01*
X-15071429Y14547619D02*
X-15166667Y14595238D01*
X-15261905Y14690476D01*
X-15309524Y14880952D01*
X-15309524Y15214286D01*
X-15261905Y15404762D01*
X-15166667Y15500000D01*
X-15071429Y15547619D01*
X-14880952Y15547619D01*
X-14785714Y15500000D01*
X-14690476Y15404762D01*
X-14642857Y15214286D01*
X-14642857Y14880952D01*
X-14690476Y14690476D01*
X-14785714Y14595238D01*
X-14880952Y14547619D01*
X-15071429Y14547619D01*
X-14261905Y15452381D02*
X-14214286Y15500000D01*
X-14119048Y15547619D01*
X-13880952Y15547619D01*
X-13785714Y15500000D01*
X-13738095Y15452381D01*
X-13690476Y15357143D01*
X-13690476Y15261905D01*
X-13738095Y15119048D01*
X-14309524Y14547619D01*
X-13690476Y14547619D01*
X-14595238Y10952381D02*
X-14690476Y11000000D01*
X-14785714Y11095238D01*
X-14928571Y11238095D01*
X-15023810Y11285714D01*
X-15119048Y11285714D01*
X-15071429Y11047619D02*
X-15166667Y11095238D01*
X-15261905Y11190476D01*
X-15309524Y11380952D01*
X-15309524Y11714286D01*
X-15261905Y11904762D01*
X-15166667Y12000000D01*
X-15071429Y12047619D01*
X-14880952Y12047619D01*
X-14785714Y12000000D01*
X-14690476Y11904762D01*
X-14642857Y11714286D01*
X-14642857Y11380952D01*
X-14690476Y11190476D01*
X-14785714Y11095238D01*
X-14880952Y11047619D01*
X-15071429Y11047619D01*
X-14309524Y12047619D02*
X-13690476Y12047619D01*
X-14023810Y11666667D01*
X-13880952Y11666667D01*
X-13785714Y11619048D01*
X-13738095Y11571429D01*
X-13690476Y11476190D01*
X-13690476Y11238095D01*
X-13738095Y11142857D01*
X-13785714Y11095238D01*
X-13880952Y11047619D01*
X-14166667Y11047619D01*
X-14261905Y11095238D01*
X-14309524Y11142857D01*
X-14595238Y-13047619D02*
X-14690476Y-13000000D01*
X-14785714Y-12904762D01*
X-14928571Y-12761905D01*
X-15023810Y-12714286D01*
X-15119048Y-12714286D01*
X-15071429Y-12952381D02*
X-15166667Y-12904762D01*
X-15261905Y-12809524D01*
X-15309524Y-12619048D01*
X-15309524Y-12285714D01*
X-15261905Y-12095238D01*
X-15166667Y-12000000D01*
X-15071429Y-11952381D01*
X-14880952Y-11952381D01*
X-14785714Y-12000000D01*
X-14690476Y-12095238D01*
X-14642857Y-12285714D01*
X-14642857Y-12619048D01*
X-14690476Y-12809524D01*
X-14785714Y-12904762D01*
X-14880952Y-12952381D01*
X-15071429Y-12952381D01*
X-13785714Y-12285714D02*
X-13785714Y-12952381D01*
X-14023810Y-11904762D02*
X-14261905Y-12619048D01*
X-13642857Y-12619048D01*
X-14595238Y-16547619D02*
X-14690476Y-16500000D01*
X-14785714Y-16404762D01*
X-14928571Y-16261905D01*
X-15023810Y-16214286D01*
X-15119048Y-16214286D01*
X-15071429Y-16452381D02*
X-15166667Y-16404762D01*
X-15261905Y-16309524D01*
X-15309524Y-16119048D01*
X-15309524Y-15785714D01*
X-15261905Y-15595238D01*
X-15166667Y-15500000D01*
X-15071429Y-15452381D01*
X-14880952Y-15452381D01*
X-14785714Y-15500000D01*
X-14690476Y-15595238D01*
X-14642857Y-15785714D01*
X-14642857Y-16119048D01*
X-14690476Y-16309524D01*
X-14785714Y-16404762D01*
X-14880952Y-16452381D01*
X-15071429Y-16452381D01*
X-13738095Y-15452381D02*
X-14214286Y-15452381D01*
X-14261905Y-15928571D01*
X-14214286Y-15880952D01*
X-14119048Y-15833333D01*
X-13880952Y-15833333D01*
X-13785714Y-15880952D01*
X-13738095Y-15928571D01*
X-13690476Y-16023810D01*
X-13690476Y-16261905D01*
X-13738095Y-16357143D01*
X-13785714Y-16404762D01*
X-13880952Y-16452381D01*
X-14119048Y-16452381D01*
X-14214286Y-16404762D01*
X-14261905Y-16357143D01*
X20154762Y10309524D02*
X20202381Y10452381D01*
X20202381Y10690477D01*
X20154762Y10785715D01*
X20107143Y10833334D01*
X20011905Y10880953D01*
X19916667Y10880953D01*
X19821429Y10833334D01*
X19773810Y10785715D01*
X19726190Y10690477D01*
X19678571Y10500000D01*
X19630952Y10404762D01*
X19583333Y10357143D01*
X19488095Y10309524D01*
X19392857Y10309524D01*
X19297619Y10357143D01*
X19250000Y10404762D01*
X19202381Y10500000D01*
X19202381Y10738096D01*
X19250000Y10880953D01*
X19202381Y11166667D02*
X20202381Y11500000D01*
X19202381Y11833334D01*
X19202381Y12071429D02*
X19202381Y12690477D01*
X19583333Y12357143D01*
X19583333Y12500001D01*
X19630952Y12595239D01*
X19678571Y12642858D01*
X19773810Y12690477D01*
X20011905Y12690477D01*
X20107143Y12642858D01*
X20154762Y12595239D01*
X20202381Y12500001D01*
X20202381Y12214286D01*
X20154762Y12119048D01*
X20107143Y12071429D01*
X22912381Y19405715D02*
X22912381Y18834286D01*
X22912381Y19120000D02*
X21912381Y19120000D01*
X22055238Y19024762D01*
X22150476Y18929524D01*
X22198095Y18834286D01*
X-2726191Y-20226190D02*
X-2726191Y-20702381D01*
X-3059524Y-19702381D02*
X-2726191Y-20226190D01*
X-2392857Y-19702381D01*
X-1535714Y-20702381D02*
X-2107143Y-20702381D01*
X-1821429Y-20702381D02*
X-1821429Y-19702381D01*
X-1916667Y-19845238D01*
X-2011905Y-19940476D01*
X-2107143Y-19988095D01*
M02*
