G04 #@! TF.FileFunction,Copper,L2,Bot,Signal*
%FSLAX46Y46*%
G04 Gerber Fmt 4.6, Leading zero omitted, Abs format (unit mm)*
G04 Created by KiCad (PCBNEW 4.0.4+e1-6308~48~ubuntu16.04.1-stable) date Sat Dec 17 16:05:02 2016*
%MOMM*%
%LPD*%
G01*
G04 APERTURE LIST*
%ADD10C,0.100000*%
%ADD11C,0.150000*%
%ADD12O,2.032000X1.727200*%
%ADD13R,2.000000X3.000000*%
%ADD14R,3.000000X2.000000*%
%ADD15R,2.032000X2.032000*%
%ADD16O,2.032000X2.032000*%
%ADD17C,0.600000*%
%ADD18C,0.250000*%
%ADD19C,0.500000*%
G04 APERTURE END LIST*
D10*
D11*
X25000000Y-25000000D02*
X25000000Y25000000D01*
X-25000000Y-25000000D02*
X25000000Y-25000000D01*
X-25000000Y-20000000D02*
X-25000000Y-25000000D01*
X-35000000Y-20000000D02*
X-25000000Y-20000000D01*
X-37000000Y-18000000D02*
X-35000000Y-20000000D01*
X-40000000Y18000000D02*
X-40000000Y-18000000D01*
X-35000000Y20000000D02*
X-37000000Y18000000D01*
X-25000000Y20000000D02*
X-35000000Y20000000D01*
X-25000000Y25000000D02*
X-25000000Y20000000D01*
X25000000Y25000000D02*
X-25000000Y25000000D01*
D12*
X-32620000Y8890000D03*
X-32620000Y6350000D03*
X-32620000Y3810000D03*
X-32620000Y1270000D03*
X-32620000Y-1270000D03*
X-32620000Y-3810000D03*
X-32620000Y-6350000D03*
X-32620000Y-8890000D03*
X-30080000Y8890000D03*
X-30080000Y6350000D03*
X-30080000Y3810000D03*
X-30080000Y1270000D03*
X-30080000Y-1270000D03*
X-30080000Y-3810000D03*
X-30080000Y-6350000D03*
X-30080000Y-8890000D03*
X-27540000Y8890000D03*
X-27540000Y6350000D03*
X-27540000Y3810000D03*
X-27540000Y1270000D03*
X-27540000Y-1270000D03*
X-27540000Y-3810000D03*
X-27540000Y-6350000D03*
X-27540000Y-8890000D03*
D13*
X-8236000Y22865000D03*
X-5696000Y22865000D03*
X-3156000Y22865000D03*
X-616000Y22865000D03*
X1924000Y22865000D03*
D14*
X22865000Y-1397000D03*
X22865000Y-3937000D03*
X22865000Y-6477000D03*
D15*
X-15800000Y22200000D03*
D16*
X-13260000Y22200000D03*
D15*
X-22000000Y-8800000D03*
D16*
X-19460000Y-8800000D03*
D13*
X3280000Y-26665000D03*
X740000Y-26665000D03*
X-1800000Y-26665000D03*
X-4340000Y-26665000D03*
X-6880000Y-26665000D03*
D17*
X-5696000Y20084998D03*
X4499996Y-5250000D03*
X-5442000Y-1632002D03*
X-1378000Y-5823000D03*
X-5442000Y-5822996D03*
X3194002Y5861000D03*
X-4679998Y5861000D03*
X10560000Y400000D03*
X10560000Y8782000D03*
X-3537002Y18688000D03*
X-23857000Y5607000D03*
X-25381000Y1416004D03*
X-35541000Y11068000D03*
X-17634000Y1543000D03*
X16910000Y400000D03*
X7766000Y-7728000D03*
X18180000Y-4426000D03*
X-11030000Y-16110000D03*
X-2140000Y-22206000D03*
X6496000Y-16110000D03*
X3194000Y16910000D03*
X2940000Y11576000D03*
X5734000Y400000D03*
X-17380000Y16402000D03*
X-18396003Y11576000D03*
X-12046004Y7766000D03*
X-870000Y15894018D03*
X-12046000Y12338000D03*
X16783000Y13989000D03*
X-35414000Y-108000D03*
X-9506000Y146000D03*
X-35414000Y-11284000D03*
X-10522004Y-4045000D03*
X-22967994Y-4045000D03*
X-5696006Y1416000D03*
X-3750000Y-10000000D03*
X19704000Y-2394000D03*
X3600000Y800000D03*
X20084990Y-489000D03*
X20085000Y-6477000D03*
X4717996Y-2921000D03*
X3800000Y-2200000D03*
X20084994Y-3937000D03*
X2785872Y-1457069D03*
X22879000Y1289000D03*
X4845000Y22879000D03*
X2250000Y-3000000D03*
X1543000Y19704000D03*
X2999994Y-3750000D03*
X3750000Y-4500000D03*
D18*
X-996998Y20084998D02*
X-5696000Y20084998D01*
X654000Y18434000D02*
X-996998Y20084998D01*
X654000Y-3851824D02*
X654000Y18434000D01*
X2052176Y-5250000D02*
X654000Y-3851824D01*
X4499996Y-5250000D02*
X2052176Y-5250000D01*
X-6712000Y-362002D02*
X-5741999Y-1332003D01*
X-6712000Y3828998D02*
X-6712000Y-362002D01*
X-4679998Y5861000D02*
X-6712000Y3828998D01*
X-5741999Y-1332003D02*
X-5442000Y-1632002D01*
X-5442000Y-5822996D02*
X-5442000Y-1632002D01*
X6496000Y-12554000D02*
X5353000Y-12554000D01*
X-1078001Y-6122999D02*
X-1378000Y-5823000D01*
X5353000Y-12554000D02*
X-1078001Y-6122999D01*
X3194002Y5436736D02*
X3194002Y5861000D01*
X3194002Y2939998D02*
X3194002Y5436736D01*
X5734000Y400000D02*
X3194002Y2939998D01*
X-2140000Y-22206000D02*
X-10522000Y-22206000D01*
X-10522000Y-22206000D02*
X-11030000Y-21698000D01*
X-11030000Y-21698000D02*
X-11030000Y-16110000D01*
X10560000Y400000D02*
X16910000Y400000D01*
X6033999Y4255999D02*
X10560000Y8782000D01*
X5734000Y400000D02*
X6033999Y699999D01*
X6033999Y699999D02*
X6033999Y4255999D01*
X-3537002Y18561020D02*
X-3537002Y18688000D01*
X-870000Y15894018D02*
X-3537002Y18561020D01*
X22865000Y-6477000D02*
X22365000Y-6477000D01*
X18180000Y-7220000D02*
X18180000Y-4426000D01*
X22365000Y-6477000D02*
X20733000Y-8109000D01*
X20733000Y-8109000D02*
X19069000Y-8109000D01*
X19069000Y-8109000D02*
X18180000Y-7220000D01*
X-18396003Y11576000D02*
X-18396003Y6749997D01*
X-18396003Y6749997D02*
X-22876002Y2269998D01*
X-22876002Y2269998D02*
X-23984000Y2269998D01*
X-23984000Y2269998D02*
X-23984000Y5480000D01*
X-23984000Y5480000D02*
X-23857000Y5607000D01*
X-23984000Y2305000D02*
X-24872996Y1416004D01*
X-24872996Y1416004D02*
X-24956736Y1416004D01*
X-24956736Y1416004D02*
X-25381000Y1416004D01*
X-35541000Y11068000D02*
X-35541000Y10052000D01*
X-34379000Y8890000D02*
X-32620000Y8890000D01*
X-35541000Y10052000D02*
X-34379000Y8890000D01*
X-12046004Y7130996D02*
X-17334001Y1842999D01*
X-12046004Y7766000D02*
X-12046004Y7130996D01*
X-17334001Y1842999D02*
X-17634000Y1543000D01*
X7766000Y-7728000D02*
X6496000Y-8998000D01*
X6496000Y-8998000D02*
X6496000Y-12554000D01*
X6496000Y-12554000D02*
X6496000Y-16110000D01*
X2940000Y11576000D02*
X2940000Y16656000D01*
X2940000Y16656000D02*
X3194000Y16910000D01*
X3364264Y11576000D02*
X2940000Y11576000D01*
X14370000Y11576000D02*
X3364264Y11576000D01*
X16783000Y13989000D02*
X14370000Y11576000D01*
X-17080001Y16102001D02*
X-17380000Y16402000D01*
X-13316000Y12338000D02*
X-17080001Y16102001D01*
X-12046000Y12338000D02*
X-13316000Y12338000D01*
X-32620000Y8890000D02*
X-32467600Y8890000D01*
X-32620000Y1270000D02*
X-34036000Y1270000D01*
X-34036000Y1270000D02*
X-35414000Y-108000D01*
X-9506000Y146000D02*
X-9506000Y-3028996D01*
X-35414000Y-11284000D02*
X-26397000Y-11284000D01*
X-10222005Y-3745001D02*
X-10522004Y-4045000D01*
X-9506000Y-3028996D02*
X-10222005Y-3745001D01*
X-22967994Y-4469264D02*
X-22967994Y-4045000D01*
D19*
X-5396007Y1116001D02*
X-5696006Y1416000D01*
X-3750000Y-530006D02*
X-5396007Y1116001D01*
X-3750000Y-10000000D02*
X-3750000Y-530006D01*
X22009000Y-3937000D02*
X20466000Y-2394000D01*
X20466000Y-2394000D02*
X19704000Y-2394000D01*
X22865000Y-3937000D02*
X22009000Y-3937000D01*
D18*
X20084990Y-489000D02*
X4889000Y-489000D01*
X3899999Y500001D02*
X3600000Y800000D01*
X4889000Y-489000D02*
X3899999Y500001D01*
X4717996Y-2921000D02*
X5225996Y-2413000D01*
X5225996Y-2413000D02*
X17672000Y-2413000D01*
X17672000Y-2413000D02*
X19100000Y-3841000D01*
X19100000Y-3841000D02*
X19100000Y-4300000D01*
X19100000Y-4300000D02*
X20085000Y-5285000D01*
X20085000Y-5285000D02*
X20085000Y-6477000D01*
X4099999Y-1900001D02*
X3800000Y-2200000D01*
X18047995Y-1900001D02*
X4099999Y-1900001D01*
X20084994Y-3937000D02*
X18047995Y-1900001D01*
X2845941Y-1397000D02*
X2785872Y-1457069D01*
X22865000Y-1397000D02*
X2845941Y-1397000D01*
X22879000Y1289000D02*
X22879000Y-1383000D01*
X22879000Y-1383000D02*
X22865000Y-1397000D01*
X2250000Y-2575736D02*
X2250000Y-3000000D01*
X2004033Y-2329769D02*
X2250000Y-2575736D01*
X2305000Y19069000D02*
X2004033Y18768033D01*
X2305000Y22484000D02*
X2305000Y19069000D01*
X2004033Y18768033D02*
X2004033Y-2329769D01*
X1924000Y22865000D02*
X2305000Y22484000D01*
X4845000Y22879000D02*
X1938000Y22879000D01*
X1938000Y22879000D02*
X1924000Y22865000D01*
X-616000Y20976822D02*
X1554022Y18806800D01*
X-616000Y22865000D02*
X-616000Y20976822D01*
X1543000Y19704000D02*
X1543000Y18817822D01*
X1543000Y18817822D02*
X1554022Y18806800D01*
X2575730Y-3750000D02*
X2999994Y-3750000D01*
X1554022Y-3304022D02*
X2000000Y-3750000D01*
X1554022Y18806800D02*
X1554022Y-3304022D01*
X2000000Y-3750000D02*
X2575730Y-3750000D01*
X3325736Y-4500000D02*
X3750000Y-4500000D01*
X2000000Y-4500000D02*
X3325736Y-4500000D01*
X1104011Y-3604011D02*
X2000000Y-4500000D01*
X1104011Y18620400D02*
X1104011Y-3604011D01*
X-995589Y20720000D02*
X1104011Y18620400D01*
X-4051000Y20720000D02*
X-995589Y20720000D01*
X-5696000Y22365000D02*
X-4051000Y20720000D01*
X-5696000Y22865000D02*
X-5696000Y22365000D01*
X-22967994Y-7854994D02*
X-22967994Y-4469264D01*
X-26397000Y-11284000D02*
X-22967994Y-7854994D01*
M02*
