M48
;DRILL file {KiCad 4.0.4+e1-6308~48~ubuntu16.04.1-stable} date Sat Dec 17 16:01:10 2016
;FORMAT={-:-/ absolute / inch / decimal}
FMAT,2
INCH,TZ
T1C0.016
T2C0.040
%
G90
G05
M72
T1
X-1.3993Y0.4357
X-1.3943Y-0.0043
X-1.3943Y-0.4443
X-0.9993Y0.0557
X-0.9393Y0.2207
X-0.9043Y-0.1593
X-0.7243Y0.4557
X-0.6943Y0.0607
X-0.6843Y0.6457
X-0.4743Y0.3057
X-0.4743Y0.4857
X-0.4343Y-0.6343
X-0.4143Y-0.1593
X-0.3743Y0.0057
X-0.2243Y0.0557
X-0.2243Y0.7907
X-0.2143Y-0.0643
X-0.2143Y-0.2293
X-0.1843Y0.2307
X-0.1476Y-0.3937
X-0.1393Y0.7357
X-0.0843Y-0.8743
X-0.0543Y-0.2293
X-0.0343Y0.6257
X0.0607Y0.7757
X0.0886Y-0.1181
X0.1097Y-0.0574
X0.1157Y0.4557
X0.1181Y-0.1476
X0.1257Y0.6657
X0.1257Y0.2307
X0.1417Y0.0315
X0.1476Y-0.1772
X0.1496Y-0.0866
X0.1772Y-0.2067
X0.1857Y-0.115
X0.1907Y0.9007
X0.2257Y0.0157
X0.2557Y-0.6343
X0.3057Y-0.3043
X0.4157Y0.3457
X0.4157Y0.0157
X0.6607Y0.5507
X0.6657Y0.0157
X0.7157Y-0.1743
X0.7757Y-0.0943
X0.7907Y-0.0193
X0.7907Y-0.155
X0.7907Y-0.255
X0.9007Y0.0507
T2
X-1.2843Y0.35
X-1.2843Y0.25
X-1.2843Y0.15
X-1.2843Y0.05
X-1.2843Y-0.05
X-1.2843Y-0.15
X-1.2843Y-0.25
X-1.2843Y-0.35
X-1.1843Y0.35
X-1.1843Y0.25
X-1.1843Y0.15
X-1.1843Y0.05
X-1.1843Y-0.05
X-1.1843Y-0.15
X-1.1843Y-0.25
X-1.1843Y-0.35
X-1.0843Y0.35
X-1.0843Y0.25
X-1.0843Y0.15
X-1.0843Y0.05
X-1.0843Y-0.05
X-1.0843Y-0.15
X-1.0843Y-0.25
X-1.0843Y-0.35
X-0.8661Y-0.3465
X-0.7661Y-0.3465
X-0.622Y0.874
X-0.522Y0.874
T0
M30
