G04 #@! TF.FileFunction,Soldermask,Bot*
%FSLAX46Y46*%
G04 Gerber Fmt 4.6, Leading zero omitted, Abs format (unit mm)*
G04 Created by KiCad (PCBNEW 4.0.4+e1-6308~48~ubuntu16.04.1-stable) date Sat Dec 17 16:05:02 2016*
%MOMM*%
%LPD*%
G01*
G04 APERTURE LIST*
%ADD10C,0.100000*%
%ADD11C,0.150000*%
%ADD12C,3.600000*%
%ADD13O,2.432000X2.127200*%
%ADD14R,2.400000X3.400000*%
%ADD15R,3.400000X2.400000*%
%ADD16R,2.432000X2.432000*%
%ADD17O,2.432000X2.432000*%
G04 APERTURE END LIST*
D10*
D11*
X25000000Y-25000000D02*
X25000000Y25000000D01*
X-25000000Y-25000000D02*
X25000000Y-25000000D01*
X-25000000Y-20000000D02*
X-25000000Y-25000000D01*
X-35000000Y-20000000D02*
X-25000000Y-20000000D01*
X-37000000Y-18000000D02*
X-35000000Y-20000000D01*
X-40000000Y18000000D02*
X-40000000Y-18000000D01*
X-35000000Y20000000D02*
X-37000000Y18000000D01*
X-25000000Y20000000D02*
X-35000000Y20000000D01*
X-25000000Y25000000D02*
X-25000000Y20000000D01*
X25000000Y25000000D02*
X-25000000Y25000000D01*
D12*
X-22300000Y-22300000D03*
X22300000Y-22300000D03*
X22300000Y22300000D03*
D13*
X-32620000Y8890000D03*
X-32620000Y6350000D03*
X-32620000Y3810000D03*
X-32620000Y1270000D03*
X-32620000Y-1270000D03*
X-32620000Y-3810000D03*
X-32620000Y-6350000D03*
X-32620000Y-8890000D03*
X-30080000Y8890000D03*
X-30080000Y6350000D03*
X-30080000Y3810000D03*
X-30080000Y1270000D03*
X-30080000Y-1270000D03*
X-30080000Y-3810000D03*
X-30080000Y-6350000D03*
X-30080000Y-8890000D03*
X-27540000Y8890000D03*
X-27540000Y6350000D03*
X-27540000Y3810000D03*
X-27540000Y1270000D03*
X-27540000Y-1270000D03*
X-27540000Y-3810000D03*
X-27540000Y-6350000D03*
X-27540000Y-8890000D03*
D14*
X-8236000Y22865000D03*
X-5696000Y22865000D03*
X-3156000Y22865000D03*
X-616000Y22865000D03*
X1924000Y22865000D03*
D15*
X22865000Y-1397000D03*
X22865000Y-3937000D03*
X22865000Y-6477000D03*
D16*
X-15800000Y22200000D03*
D17*
X-13260000Y22200000D03*
D16*
X-22000000Y-8800000D03*
D17*
X-19460000Y-8800000D03*
D14*
X3280000Y-26665000D03*
X740000Y-26665000D03*
X-1800000Y-26665000D03*
X-4340000Y-26665000D03*
X-6880000Y-26665000D03*
D12*
X-22300000Y22300000D03*
M02*
