G04 #@! TF.FileFunction,Soldermask,Bot*
%FSLAX46Y46*%
G04 Gerber Fmt 4.6, Leading zero omitted, Abs format (unit mm)*
G04 Created by KiCad (PCBNEW 4.0.5-e0-6337~49~ubuntu16.04.1) date Thu Jan  5 22:53:43 2017*
%MOMM*%
%LPD*%
G01*
G04 APERTURE LIST*
%ADD10C,0.100000*%
%ADD11C,0.150000*%
%ADD12C,3.600000*%
%ADD13O,2.432000X2.127200*%
%ADD14R,2.400000X3.400000*%
%ADD15R,3.400000X2.400000*%
%ADD16R,2.432000X2.432000*%
%ADD17O,2.432000X2.432000*%
%ADD18C,1.901140*%
%ADD19C,1.150000*%
G04 APERTURE END LIST*
D10*
D11*
X25000000Y-25000000D02*
X25000000Y25000000D01*
X-25000000Y-25000000D02*
X25000000Y-25000000D01*
X-25000000Y-20000000D02*
X-25000000Y-25000000D01*
X-35000000Y-20000000D02*
X-25000000Y-20000000D01*
X-37000000Y-18000000D02*
X-35000000Y-20000000D01*
X-37000000Y18000000D02*
X-37000000Y-18000000D01*
X-35000000Y20000000D02*
X-37000000Y18000000D01*
X-25000000Y20000000D02*
X-35000000Y20000000D01*
X-25000000Y25000000D02*
X-25000000Y20000000D01*
X25000000Y25000000D02*
X-25000000Y25000000D01*
D12*
X22300000Y-22300000D03*
X22300000Y22300000D03*
X-22300000Y-22300000D03*
D13*
X-33500000Y10500000D03*
X-33500000Y7500000D03*
X-33500000Y4500000D03*
X-33500000Y1500000D03*
X-33500000Y-1500000D03*
X-33500000Y-4500000D03*
X-33500000Y-7500000D03*
X-33500000Y-10500000D03*
X-30960000Y10500000D03*
X-30960000Y7500000D03*
X-30960000Y4500000D03*
X-30960000Y1500000D03*
X-30960000Y-1500000D03*
X-30960000Y-4500000D03*
X-30960000Y-7500000D03*
X-30960000Y-10500000D03*
X-28420000Y10500000D03*
X-28420000Y7500000D03*
X-28420000Y4500000D03*
X-28420000Y1500000D03*
X-28420000Y-1500000D03*
X-28420000Y-4500000D03*
X-28420000Y-7500000D03*
X-28420000Y-10500000D03*
D14*
X-8236000Y22865000D03*
X-5696000Y22865000D03*
X-3156000Y22865000D03*
X-616000Y22865000D03*
X1924000Y22865000D03*
D15*
X22865000Y-1397000D03*
X22865000Y-3937000D03*
X22865000Y-6477000D03*
D16*
X-16000000Y23250000D03*
D17*
X-13460000Y23250000D03*
D16*
X-23500000Y-9000000D03*
D17*
X-23500000Y-11540000D03*
D15*
X22865000Y16580000D03*
X22865000Y14040000D03*
X22865000Y11500000D03*
X22865000Y8960000D03*
X22865000Y6420000D03*
D12*
X-22300000Y22300000D03*
D18*
X-4690940Y-20130000D03*
X190940Y-20130000D03*
D19*
X7000000Y-21375000D03*
X7000000Y-24125000D03*
M02*
